M48
;Layer_Color=9474304
;FILE_FORMAT=4:3
METRIC,LZ
;TYPE=PLATED
T1F00S00C0.400
T2F00S00C0.600
T3F00S00C0.800
T4F00S00C1.000
T6F00S00C3.200
%
T01
X008382Y004445
X008763
X009525Y005461
X01016
X010541
Y00508
Y005969
X0093345Y00661
X0091122Y006731
X0088265Y0066357
X008382Y006858
Y00635
Y007366
X0096774Y0076962
X0098044Y0075946
X009917Y007239
X007874Y006858
Y00635
X00762Y005461
X006985
X00635Y006096
Y00635
Y007366
X00663Y00731
X00664Y00772
X005842Y007366
X005588
X00508Y00635
X004572
X004064
Y007366
Y00508
Y004572
Y004064
X004572Y00508
X005588Y004064
X00635
X0064135Y0081915
X0061595Y008382
X005588Y008001
X00508Y008636
X004572Y00889
X004064
Y008382
X007366Y008128
X00762
X007874
X008128
X008636Y008001
X009398Y008382
X01016Y008255
X0081915Y0087884
T02
X0081915Y0046673
X008696Y0053975
Y0075882
X0060198Y0075438
X005207Y0076708
X004873Y0070142
X0054243Y0064375
X0057658Y006604
X0058284Y006057
X0051347Y0060555
X0051435Y0052388
X0062738Y005627
X006096Y0085725
X004873Y0081534
T03
X008188Y005008
X008442
X008696
X00895
X009204
X009458
X009712
X009966
X01022
Y00577
X009966
X009712
X009458
X009204
X00895
X008696
X008442
X008188
X007934
X00768
X007426
X007172
X006918
Y005008
X007172
X007426
X00768
X007934
X004572Y008636
X004064
X009652Y0079375
X01016
T04
X008004Y00401
X008258
X008512
X008955
X009209
X009463
X009717
X009971
X010225
X010215Y006356
X010465
Y00661
X010215
Y006864
X010465
X00775Y00401
X007496
X007242
X006988
X004313Y00719
Y00763
X00536Y008273
Y008527
X00562
X00587
Y008273
X00562
X005728Y00896
X005982
X006236
X00649
X006744
X006998
X007252
X007506
X00776
X008014
X008372
X008626
X00888
X009134
X009388
X009642
X009896
X01015
T06
X01042Y004572
Y007366
X00521Y00406
X005334Y00888
M30
