%FSTAX43Y43*%
%MOMM*%
G71*
G01*
G75*
G04:AMPARAMS|DCode=10|XSize=0.9mm|YSize=0.8mm|CornerRadius=0.2mm|HoleSize=0mm|Usage=FLASHONLY|Rotation=90.000|XOffset=0mm|YOffset=0mm|HoleType=Round|Shape=RoundedRectangle|*
%AMROUNDEDRECTD10*
21,1,0.900,0.400,0,0,90.0*
21,1,0.500,0.800,0,0,90.0*
1,1,0.400,0.200,0.250*
1,1,0.400,0.200,-0.250*
1,1,0.400,-0.200,-0.250*
1,1,0.400,-0.200,0.250*
%
%ADD10ROUNDEDRECTD10*%
G04:AMPARAMS|DCode=11|XSize=4.3mm|YSize=1.9mm|CornerRadius=0.475mm|HoleSize=0mm|Usage=FLASHONLY|Rotation=270.000|XOffset=0mm|YOffset=0mm|HoleType=Round|Shape=RoundedRectangle|*
%AMROUNDEDRECTD11*
21,1,4.300,0.950,0,0,270.0*
21,1,3.350,1.900,0,0,270.0*
1,1,0.950,-0.475,-1.675*
1,1,0.950,-0.475,1.675*
1,1,0.950,0.475,1.675*
1,1,0.950,0.475,-1.675*
%
%ADD11ROUNDEDRECTD11*%
G04:AMPARAMS|DCode=12|XSize=1.5mm|YSize=1.25mm|CornerRadius=0.313mm|HoleSize=0mm|Usage=FLASHONLY|Rotation=0.000|XOffset=0mm|YOffset=0mm|HoleType=Round|Shape=RoundedRectangle|*
%AMROUNDEDRECTD12*
21,1,1.500,0.625,0,0,0.0*
21,1,0.875,1.250,0,0,0.0*
1,1,0.625,0.438,-0.313*
1,1,0.625,-0.438,-0.313*
1,1,0.625,-0.438,0.313*
1,1,0.625,0.438,0.313*
%
%ADD12ROUNDEDRECTD12*%
G04:AMPARAMS|DCode=13|XSize=0.9mm|YSize=0.8mm|CornerRadius=0.2mm|HoleSize=0mm|Usage=FLASHONLY|Rotation=180.000|XOffset=0mm|YOffset=0mm|HoleType=Round|Shape=RoundedRectangle|*
%AMROUNDEDRECTD13*
21,1,0.900,0.400,0,0,180.0*
21,1,0.500,0.800,0,0,180.0*
1,1,0.400,-0.250,0.200*
1,1,0.400,0.250,0.200*
1,1,0.400,0.250,-0.200*
1,1,0.400,-0.250,-0.200*
%
%ADD13ROUNDEDRECTD13*%
G04:AMPARAMS|DCode=14|XSize=1.5mm|YSize=1.25mm|CornerRadius=0.313mm|HoleSize=0mm|Usage=FLASHONLY|Rotation=90.000|XOffset=0mm|YOffset=0mm|HoleType=Round|Shape=RoundedRectangle|*
%AMROUNDEDRECTD14*
21,1,1.500,0.625,0,0,90.0*
21,1,0.875,1.250,0,0,90.0*
1,1,0.625,0.313,0.438*
1,1,0.625,0.313,-0.438*
1,1,0.625,-0.313,-0.438*
1,1,0.625,-0.313,0.438*
%
%ADD14ROUNDEDRECTD14*%
G04:AMPARAMS|DCode=15|XSize=2.65mm|YSize=1.75mm|CornerRadius=0.438mm|HoleSize=0mm|Usage=FLASHONLY|Rotation=90.000|XOffset=0mm|YOffset=0mm|HoleType=Round|Shape=RoundedRectangle|*
%AMROUNDEDRECTD15*
21,1,2.650,0.875,0,0,90.0*
21,1,1.775,1.750,0,0,90.0*
1,1,0.875,0.438,0.887*
1,1,0.875,0.438,-0.887*
1,1,0.875,-0.438,-0.887*
1,1,0.875,-0.438,0.887*
%
%ADD15ROUNDEDRECTD15*%
G04:AMPARAMS|DCode=16|XSize=3.28mm|YSize=1.5mm|CornerRadius=0.375mm|HoleSize=0mm|Usage=FLASHONLY|Rotation=270.000|XOffset=0mm|YOffset=0mm|HoleType=Round|Shape=RoundedRectangle|*
%AMROUNDEDRECTD16*
21,1,3.280,0.750,0,0,270.0*
21,1,2.530,1.500,0,0,270.0*
1,1,0.750,-0.375,-1.265*
1,1,0.750,-0.375,1.265*
1,1,0.750,0.375,1.265*
1,1,0.750,0.375,-1.265*
%
%ADD16ROUNDEDRECTD16*%
G04:AMPARAMS|DCode=17|XSize=1mm|YSize=1.5mm|CornerRadius=0.25mm|HoleSize=0mm|Usage=FLASHONLY|Rotation=270.000|XOffset=0mm|YOffset=0mm|HoleType=Round|Shape=RoundedRectangle|*
%AMROUNDEDRECTD17*
21,1,1.000,1.000,0,0,270.0*
21,1,0.500,1.500,0,0,270.0*
1,1,0.500,-0.500,-0.250*
1,1,0.500,-0.500,0.250*
1,1,0.500,0.500,0.250*
1,1,0.500,0.500,-0.250*
%
%ADD17ROUNDEDRECTD17*%
G04:AMPARAMS|DCode=18|XSize=1.3mm|YSize=1mm|CornerRadius=0.25mm|HoleSize=0mm|Usage=FLASHONLY|Rotation=270.000|XOffset=0mm|YOffset=0mm|HoleType=Round|Shape=RoundedRectangle|*
%AMROUNDEDRECTD18*
21,1,1.300,0.500,0,0,270.0*
21,1,0.800,1.000,0,0,270.0*
1,1,0.500,-0.250,-0.400*
1,1,0.500,-0.250,0.400*
1,1,0.500,0.250,0.400*
1,1,0.500,0.250,-0.400*
%
%ADD18ROUNDEDRECTD18*%
G04:AMPARAMS|DCode=19|XSize=1.5mm|YSize=1.3mm|CornerRadius=0.325mm|HoleSize=0mm|Usage=FLASHONLY|Rotation=90.000|XOffset=0mm|YOffset=0mm|HoleType=Round|Shape=RoundedRectangle|*
%AMROUNDEDRECTD19*
21,1,1.500,0.650,0,0,90.0*
21,1,0.850,1.300,0,0,90.0*
1,1,0.650,0.325,0.425*
1,1,0.650,0.325,-0.425*
1,1,0.650,-0.325,-0.425*
1,1,0.650,-0.325,0.425*
%
%ADD19ROUNDEDRECTD19*%
G04:AMPARAMS|DCode=20|XSize=0.8mm|YSize=1mm|CornerRadius=0.2mm|HoleSize=0mm|Usage=FLASHONLY|Rotation=180.000|XOffset=0mm|YOffset=0mm|HoleType=Round|Shape=RoundedRectangle|*
%AMROUNDEDRECTD20*
21,1,0.800,0.600,0,0,180.0*
21,1,0.400,1.000,0,0,180.0*
1,1,0.400,-0.200,0.300*
1,1,0.400,0.200,0.300*
1,1,0.400,0.200,-0.300*
1,1,0.400,-0.200,-0.300*
%
%ADD20ROUNDEDRECTD20*%
%ADD21O,0.400X2.100*%
G04:AMPARAMS|DCode=22|XSize=1.6mm|YSize=0.4mm|CornerRadius=0.1mm|HoleSize=0mm|Usage=FLASHONLY|Rotation=270.000|XOffset=0mm|YOffset=0mm|HoleType=Round|Shape=RoundedRectangle|*
%AMROUNDEDRECTD22*
21,1,1.600,0.200,0,0,270.0*
21,1,1.400,0.400,0,0,270.0*
1,1,0.200,-0.100,-0.700*
1,1,0.200,-0.100,0.700*
1,1,0.200,0.100,0.700*
1,1,0.200,0.100,-0.700*
%
%ADD22ROUNDEDRECTD22*%
G04:AMPARAMS|DCode=23|XSize=2.5mm|YSize=2mm|CornerRadius=0.5mm|HoleSize=0mm|Usage=FLASHONLY|Rotation=180.000|XOffset=0mm|YOffset=0mm|HoleType=Round|Shape=RoundedRectangle|*
%AMROUNDEDRECTD23*
21,1,2.500,1.000,0,0,180.0*
21,1,1.500,2.000,0,0,180.0*
1,1,1.000,-0.750,0.500*
1,1,1.000,0.750,0.500*
1,1,1.000,0.750,-0.500*
1,1,1.000,-0.750,-0.500*
%
%ADD23ROUNDEDRECTD23*%
%ADD24O,2.250X0.500*%
G04:AMPARAMS|DCode=25|XSize=1.5mm|YSize=1mm|CornerRadius=0.25mm|HoleSize=0mm|Usage=FLASHONLY|Rotation=90.000|XOffset=0mm|YOffset=0mm|HoleType=Round|Shape=RoundedRectangle|*
%AMROUNDEDRECTD25*
21,1,1.500,0.500,0,0,90.0*
21,1,1.000,1.000,0,0,90.0*
1,1,0.500,0.250,0.500*
1,1,0.500,0.250,-0.500*
1,1,0.500,-0.250,-0.500*
1,1,0.500,-0.250,0.500*
%
%ADD25ROUNDEDRECTD25*%
%ADD26C,0.300*%
%ADD27C,0.400*%
%ADD28C,0.500*%
%ADD29C,1.000*%
%ADD30C,1.500*%
%ADD31C,0.800*%
%ADD32C,0.700*%
%ADD33C,1.000*%
%ADD34C,1.300*%
%ADD35C,1.600*%
G04:AMPARAMS|DCode=36|XSize=2.54mm|YSize=4.064mm|CornerRadius=0.635mm|HoleSize=0mm|Usage=FLASHONLY|Rotation=0.000|XOffset=0mm|YOffset=0mm|HoleType=Round|Shape=RoundedRectangle|*
%AMROUNDEDRECTD36*
21,1,2.540,2.794,0,0,0.0*
21,1,1.270,4.064,0,0,0.0*
1,1,1.270,0.635,-1.397*
1,1,1.270,-0.635,-1.397*
1,1,1.270,-0.635,1.397*
1,1,1.270,0.635,1.397*
%
%ADD36ROUNDEDRECTD36*%
G04:AMPARAMS|DCode=37|XSize=4.064mm|YSize=2.54mm|CornerRadius=0.635mm|HoleSize=0mm|Usage=FLASHONLY|Rotation=0.000|XOffset=0mm|YOffset=0mm|HoleType=Round|Shape=RoundedRectangle|*
%AMROUNDEDRECTD37*
21,1,4.064,1.270,0,0,0.0*
21,1,2.794,2.540,0,0,0.0*
1,1,1.270,1.397,-0.635*
1,1,1.270,-1.397,-0.635*
1,1,1.270,-1.397,0.635*
1,1,1.270,1.397,0.635*
%
%ADD37ROUNDEDRECTD37*%
%ADD38C,0.700*%
%ADD39C,0.800*%
%ADD40C,3.200*%
%ADD41C,0.200*%
%ADD42C,0.250*%
%ADD43C,0.013*%
%ADD44C,0.006*%
G36*
X0077631Y0086669D02*
X0077639Y0086659D01*
X0077652Y0086644D01*
X0077667Y0086622D01*
X0077682Y0086601D01*
X0077697Y0086575D01*
X0077712Y0086551D01*
X0077723Y008653D01*
Y0086528D01*
X0077727Y0086521D01*
X0077729Y008651D01*
X0077734Y0086495D01*
X0077738Y0086478D01*
X0077742Y0086461D01*
X0077744Y008644D01*
X0077747Y0086418D01*
Y0086416D01*
Y0086412D01*
Y0086403D01*
X0077744Y008639D01*
X007774Y0086362D01*
X0077734Y008633D01*
Y0086328D01*
X0077732Y0086322D01*
X0077727Y0086311D01*
X0077721Y0086296D01*
X0077712Y0086276D01*
X0077704Y0086253D01*
X0077689Y0086223D01*
X0077674Y0086191D01*
X0077671Y0086186D01*
X0077665Y0086176D01*
X0077659Y0086158D01*
X0077648Y0086137D01*
X0077639Y0086113D01*
X0077633Y0086088D01*
X0077626Y0086064D01*
X0077624Y008604D01*
Y0086038D01*
Y0086036D01*
Y008603D01*
X0077626Y0086021D01*
X0077631Y0085997D01*
X0077639Y0085967D01*
X0077654Y0085931D01*
X0077663Y0085912D01*
X0077676Y008589D01*
X0077691Y0085869D01*
X0077706Y0085845D01*
X0077725Y0085824D01*
X0077747Y00858D01*
X0077495D01*
X0077493Y0085804D01*
X0077485Y0085813D01*
X0077474Y0085826D01*
X0077461Y0085843D01*
X0077446Y0085862D01*
X0077431Y0085886D01*
X0077418Y0085907D01*
X0077405Y0085931D01*
X0077403Y0085933D01*
X0077401Y0085942D01*
X0077397Y0085955D01*
X007739Y0085972D01*
X0077386Y0085991D01*
X0077382Y0086015D01*
X007738Y008604D01*
X0077377Y0086066D01*
Y0086068D01*
Y0086073D01*
Y0086079D01*
X007738Y008609D01*
X0077382Y0086113D01*
X007739Y0086143D01*
Y0086146D01*
X0077392Y0086152D01*
X0077397Y0086161D01*
X0077401Y0086176D01*
X0077407Y0086193D01*
X0077418Y0086214D01*
X0077429Y0086238D01*
X0077442Y0086266D01*
X0077444Y008627D01*
X0077448Y0086279D01*
X0077455Y0086294D01*
X0077463Y0086309D01*
X0077478Y0086347D01*
X0077487Y0086362D01*
X0077491Y0086377D01*
Y008638D01*
X0077493Y0086384D01*
Y008639D01*
X0077495Y0086399D01*
X0077498Y0086418D01*
X00775Y0086442D01*
Y0086444D01*
Y0086446D01*
Y0086452D01*
X0077498Y0086459D01*
X0077493Y008648D01*
X0077485Y008651D01*
X0077472Y0086543D01*
X007745Y0086583D01*
X0077435Y0086605D01*
X007742Y0086626D01*
X0077403Y008665D01*
X0077382Y0086674D01*
X0077629D01*
X0077631Y0086669D01*
D02*
G37*
G36*
X0075211Y0085769D02*
X0075219Y0085759D01*
X0075232Y0085743D01*
X0075247Y0085722D01*
X0075262Y0085701D01*
X0075277Y0085675D01*
X0075292Y0085651D01*
X0075303Y008563D01*
Y0085628D01*
X0075307Y0085621D01*
X0075309Y008561D01*
X0075314Y0085595D01*
X0075318Y0085578D01*
X0075322Y0085561D01*
X0075324Y008554D01*
X0075327Y0085518D01*
Y0085516D01*
Y0085512D01*
Y0085503D01*
X0075324Y008549D01*
X007532Y0085462D01*
X0075314Y008543D01*
Y0085428D01*
X0075312Y0085422D01*
X0075307Y0085411D01*
X0075301Y0085396D01*
X0075292Y0085376D01*
X0075284Y0085353D01*
X0075269Y0085323D01*
X0075254Y0085291D01*
X0075251Y0085286D01*
X0075245Y0085276D01*
X0075239Y0085258D01*
X0075228Y0085237D01*
X0075219Y0085213D01*
X0075213Y0085188D01*
X0075206Y0085164D01*
X0075204Y008514D01*
Y0085138D01*
Y0085136D01*
Y008513D01*
X0075206Y0085121D01*
X0075211Y0085097D01*
X0075219Y0085067D01*
X0075234Y0085031D01*
X0075243Y0085012D01*
X0075256Y008499D01*
X0075271Y0084969D01*
X0075286Y0084945D01*
X0075305Y0084924D01*
X0075327Y00849D01*
X0075075D01*
X0075073Y0084904D01*
X0075065Y0084913D01*
X0075054Y0084926D01*
X0075041Y0084943D01*
X0075026Y0084962D01*
X0075011Y0084986D01*
X0074998Y0085007D01*
X0074985Y0085031D01*
X0074983Y0085033D01*
X0074981Y0085042D01*
X0074977Y0085055D01*
X007497Y0085072D01*
X0074966Y0085091D01*
X0074962Y0085115D01*
X007496Y008514D01*
X0074957Y0085166D01*
Y0085168D01*
Y0085173D01*
Y0085179D01*
X007496Y008519D01*
X0074962Y0085213D01*
X007497Y0085243D01*
Y0085246D01*
X0074972Y0085252D01*
X0074977Y0085261D01*
X0074981Y0085276D01*
X0074987Y0085293D01*
X0074998Y0085314D01*
X0075009Y0085338D01*
X0075022Y0085366D01*
X0075024Y008537D01*
X0075028Y0085379D01*
X0075035Y0085394D01*
X0075043Y0085409D01*
X0075058Y0085447D01*
X0075067Y0085462D01*
X0075071Y0085477D01*
Y0085479D01*
X0075073Y0085484D01*
Y008549D01*
X0075075Y0085499D01*
X0075078Y0085518D01*
X007508Y0085542D01*
Y0085544D01*
Y0085546D01*
Y0085552D01*
X0075078Y0085559D01*
X0075073Y008558D01*
X0075065Y008561D01*
X0075052Y0085643D01*
X007503Y0085683D01*
X0075015Y0085705D01*
X0075Y0085726D01*
X0074983Y008575D01*
X0074962Y0085774D01*
X0075209D01*
X0075211Y0085769D01*
D02*
G37*
G36*
X0072611D02*
X0072619Y0085759D01*
X0072632Y0085743D01*
X0072647Y0085722D01*
X0072662Y0085701D01*
X0072677Y0085675D01*
X0072692Y0085651D01*
X0072703Y008563D01*
Y0085628D01*
X0072707Y0085621D01*
X0072709Y008561D01*
X0072714Y0085595D01*
X0072718Y0085578D01*
X0072722Y0085561D01*
X0072724Y008554D01*
X0072727Y0085518D01*
Y0085516D01*
Y0085512D01*
Y0085503D01*
X0072724Y008549D01*
X007272Y0085462D01*
X0072714Y008543D01*
Y0085428D01*
X0072712Y0085422D01*
X0072707Y0085411D01*
X0072701Y0085396D01*
X0072692Y0085376D01*
X0072684Y0085353D01*
X0072669Y0085323D01*
X0072654Y0085291D01*
X0072651Y0085286D01*
X0072645Y0085276D01*
X0072639Y0085258D01*
X0072628Y0085237D01*
X0072619Y0085213D01*
X0072613Y0085188D01*
X0072606Y0085164D01*
X0072604Y008514D01*
Y0085138D01*
Y0085136D01*
Y008513D01*
X0072606Y0085121D01*
X0072611Y0085097D01*
X0072619Y0085067D01*
X0072634Y0085031D01*
X0072643Y0085012D01*
X0072656Y008499D01*
X0072671Y0084969D01*
X0072686Y0084945D01*
X0072705Y0084924D01*
X0072727Y00849D01*
X0072475D01*
X0072473Y0084904D01*
X0072465Y0084913D01*
X0072454Y0084926D01*
X0072441Y0084943D01*
X0072426Y0084962D01*
X0072411Y0084986D01*
X0072398Y0085007D01*
X0072385Y0085031D01*
X0072383Y0085033D01*
X0072381Y0085042D01*
X0072377Y0085055D01*
X007237Y0085072D01*
X0072366Y0085091D01*
X0072362Y0085115D01*
X007236Y008514D01*
X0072357Y0085166D01*
Y0085168D01*
Y0085173D01*
Y0085179D01*
X007236Y008519D01*
X0072362Y0085213D01*
X007237Y0085243D01*
Y0085246D01*
X0072372Y0085252D01*
X0072377Y0085261D01*
X0072381Y0085276D01*
X0072387Y0085293D01*
X0072398Y0085314D01*
X0072409Y0085338D01*
X0072422Y0085366D01*
X0072424Y008537D01*
X0072428Y0085379D01*
X0072435Y0085394D01*
X0072443Y0085409D01*
X0072458Y0085447D01*
X0072467Y0085462D01*
X0072471Y0085477D01*
Y0085479D01*
X0072473Y0085484D01*
Y008549D01*
X0072475Y0085499D01*
X0072478Y0085518D01*
X007248Y0085542D01*
Y0085544D01*
Y0085546D01*
Y0085552D01*
X0072478Y0085559D01*
X0072473Y008558D01*
X0072465Y008561D01*
X0072452Y0085643D01*
X007243Y0085683D01*
X0072415Y0085705D01*
X00724Y0085726D01*
X0072383Y008575D01*
X0072362Y0085774D01*
X0072608D01*
X0072611Y0085769D01*
D02*
G37*
G36*
X0086411Y0086669D02*
X0086419Y0086659D01*
X0086432Y0086644D01*
X0086447Y0086622D01*
X0086462Y0086601D01*
X0086477Y0086575D01*
X0086492Y0086551D01*
X0086503Y008653D01*
Y0086528D01*
X0086507Y0086521D01*
X0086509Y008651D01*
X0086514Y0086495D01*
X0086518Y0086478D01*
X0086522Y0086461D01*
X0086524Y008644D01*
X0086527Y0086418D01*
Y0086416D01*
Y0086412D01*
Y0086403D01*
X0086524Y008639D01*
X008652Y0086362D01*
X0086514Y008633D01*
Y0086328D01*
X0086512Y0086322D01*
X0086507Y0086311D01*
X0086501Y0086296D01*
X0086492Y0086276D01*
X0086484Y0086253D01*
X0086469Y0086223D01*
X0086454Y0086191D01*
X0086451Y0086186D01*
X0086445Y0086176D01*
X0086439Y0086158D01*
X0086428Y0086137D01*
X0086419Y0086113D01*
X0086413Y0086088D01*
X0086406Y0086064D01*
X0086404Y008604D01*
Y0086038D01*
Y0086036D01*
Y008603D01*
X0086406Y0086021D01*
X0086411Y0085997D01*
X0086419Y0085967D01*
X0086434Y0085931D01*
X0086443Y0085912D01*
X0086456Y008589D01*
X0086471Y0085869D01*
X0086486Y0085845D01*
X0086505Y0085824D01*
X0086527Y00858D01*
X0086275D01*
X0086273Y0085804D01*
X0086265Y0085813D01*
X0086254Y0085826D01*
X0086241Y0085843D01*
X0086226Y0085862D01*
X0086211Y0085886D01*
X0086198Y0085907D01*
X0086185Y0085931D01*
X0086183Y0085933D01*
X0086181Y0085942D01*
X0086177Y0085955D01*
X008617Y0085972D01*
X0086166Y0085991D01*
X0086162Y0086015D01*
X008616Y008604D01*
X0086157Y0086066D01*
Y0086068D01*
Y0086073D01*
Y0086079D01*
X008616Y008609D01*
X0086162Y0086113D01*
X008617Y0086143D01*
Y0086146D01*
X0086172Y0086152D01*
X0086177Y0086161D01*
X0086181Y0086176D01*
X0086187Y0086193D01*
X0086198Y0086214D01*
X0086209Y0086238D01*
X0086222Y0086266D01*
X0086224Y008627D01*
X0086228Y0086279D01*
X0086235Y0086294D01*
X0086243Y0086309D01*
X0086258Y0086347D01*
X0086267Y0086362D01*
X0086271Y0086377D01*
Y008638D01*
X0086273Y0086384D01*
Y008639D01*
X0086275Y0086399D01*
X0086278Y0086418D01*
X008628Y0086442D01*
Y0086444D01*
Y0086446D01*
Y0086452D01*
X0086278Y0086459D01*
X0086273Y008648D01*
X0086265Y008651D01*
X0086252Y0086543D01*
X008623Y0086583D01*
X0086215Y0086605D01*
X00862Y0086626D01*
X0086183Y008665D01*
X0086162Y0086674D01*
X0086409D01*
X0086411Y0086669D01*
D02*
G37*
G36*
X009399Y008434D02*
X0094013Y0084338D01*
X0094043Y008433D01*
X0094046D01*
X0094052Y0084328D01*
X0094061Y0084323D01*
X0094076Y0084319D01*
X0094093Y0084313D01*
X0094114Y0084302D01*
X0094138Y0084291D01*
X0094166Y0084278D01*
X009417Y0084276D01*
X0094179Y0084272D01*
X0094194Y0084265D01*
X0094209Y0084257D01*
X0094247Y0084242D01*
X0094262Y0084233D01*
X0094277Y0084229D01*
X009428D01*
X0094284Y0084227D01*
X009429D01*
X0094299Y0084225D01*
X0094318Y0084222D01*
X0094342Y008422D01*
X0094352D01*
X0094359Y0084222D01*
X009438Y0084227D01*
X009441Y0084235D01*
X0094443Y0084248D01*
X0094483Y008427D01*
X0094505Y0084285D01*
X0094526Y00843D01*
X009455Y0084317D01*
X0094574Y0084338D01*
Y0084091D01*
X0094569Y0084089D01*
X0094559Y0084081D01*
X0094543Y0084068D01*
X0094522Y0084053D01*
X0094501Y0084038D01*
X0094475Y0084023D01*
X0094451Y0084008D01*
X009443Y0083997D01*
X0094428D01*
X0094421Y0083993D01*
X009441Y0083991D01*
X0094395Y0083986D01*
X0094378Y0083982D01*
X0094361Y0083978D01*
X009434Y0083976D01*
X0094318Y0083973D01*
X0094303D01*
X009429Y0083976D01*
X0094262Y008398D01*
X009423Y0083986D01*
X0094228D01*
X0094222Y0083988D01*
X0094211Y0083993D01*
X0094196Y0083999D01*
X0094176Y0084008D01*
X0094153Y0084016D01*
X0094123Y0084031D01*
X0094091Y0084046D01*
X0094086Y0084049D01*
X0094076Y0084055D01*
X0094058Y0084061D01*
X0094037Y0084072D01*
X0094013Y0084081D01*
X0093988Y0084087D01*
X0093964Y0084094D01*
X009394Y0084096D01*
X009393D01*
X0093921Y0084094D01*
X0093897Y0084089D01*
X0093867Y0084081D01*
X0093831Y0084066D01*
X0093812Y0084057D01*
X009379Y0084044D01*
X0093769Y0084029D01*
X0093745Y0084014D01*
X0093724Y0083995D01*
X00937Y0083973D01*
Y0084225D01*
X0093704Y0084227D01*
X0093713Y0084235D01*
X0093726Y0084246D01*
X0093743Y0084259D01*
X0093762Y0084274D01*
X0093786Y0084289D01*
X0093807Y0084302D01*
X0093831Y0084315D01*
X0093833Y0084317D01*
X0093842Y0084319D01*
X0093855Y0084323D01*
X0093872Y008433D01*
X0093891Y0084334D01*
X0093915Y0084338D01*
X009394Y008434D01*
X0093966Y0084343D01*
X0093979D01*
X009399Y008434D01*
D02*
G37*
G36*
X0093911Y0086669D02*
X0093919Y0086659D01*
X0093932Y0086644D01*
X0093947Y0086622D01*
X0093962Y0086601D01*
X0093977Y0086575D01*
X0093992Y0086551D01*
X0094003Y008653D01*
Y0086528D01*
X0094007Y0086521D01*
X0094009Y008651D01*
X0094014Y0086495D01*
X0094018Y0086478D01*
X0094022Y0086461D01*
X0094024Y008644D01*
X0094027Y0086418D01*
Y0086416D01*
Y0086412D01*
Y0086403D01*
X0094024Y008639D01*
X009402Y0086362D01*
X0094014Y008633D01*
Y0086328D01*
X0094012Y0086322D01*
X0094007Y0086311D01*
X0094001Y0086296D01*
X0093992Y0086276D01*
X0093984Y0086253D01*
X0093969Y0086223D01*
X0093954Y0086191D01*
X0093951Y0086186D01*
X0093945Y0086176D01*
X0093939Y0086158D01*
X0093928Y0086137D01*
X0093919Y0086113D01*
X0093913Y0086088D01*
X0093906Y0086064D01*
X0093904Y008604D01*
Y0086038D01*
Y0086036D01*
Y008603D01*
X0093906Y0086021D01*
X0093911Y0085997D01*
X0093919Y0085967D01*
X0093934Y0085931D01*
X0093943Y0085912D01*
X0093956Y008589D01*
X0093971Y0085869D01*
X0093986Y0085845D01*
X0094005Y0085824D01*
X0094027Y00858D01*
X0093775D01*
X0093773Y0085804D01*
X0093765Y0085813D01*
X0093754Y0085826D01*
X0093741Y0085843D01*
X0093726Y0085862D01*
X0093711Y0085886D01*
X0093698Y0085907D01*
X0093685Y0085931D01*
X0093683Y0085933D01*
X0093681Y0085942D01*
X0093677Y0085955D01*
X009367Y0085972D01*
X0093666Y0085991D01*
X0093662Y0086015D01*
X009366Y008604D01*
X0093657Y0086066D01*
Y0086068D01*
Y0086073D01*
Y0086079D01*
X009366Y008609D01*
X0093662Y0086113D01*
X009367Y0086143D01*
Y0086146D01*
X0093672Y0086152D01*
X0093677Y0086161D01*
X0093681Y0086176D01*
X0093687Y0086193D01*
X0093698Y0086214D01*
X0093709Y0086238D01*
X0093722Y0086266D01*
X0093724Y008627D01*
X0093728Y0086279D01*
X0093735Y0086294D01*
X0093743Y0086309D01*
X0093758Y0086347D01*
X0093767Y0086362D01*
X0093771Y0086377D01*
Y008638D01*
X0093773Y0086384D01*
Y008639D01*
X0093775Y0086399D01*
X0093778Y0086418D01*
X009378Y0086442D01*
Y0086444D01*
Y0086446D01*
Y0086452D01*
X0093778Y0086459D01*
X0093773Y008648D01*
X0093765Y008651D01*
X0093752Y0086543D01*
X009373Y0086583D01*
X0093715Y0086605D01*
X00937Y0086626D01*
X0093683Y008665D01*
X0093662Y0086674D01*
X0093909D01*
X0093911Y0086669D01*
D02*
G37*
G36*
X0088831D02*
X0088839Y0086659D01*
X0088852Y0086644D01*
X0088867Y0086622D01*
X0088882Y0086601D01*
X0088897Y0086575D01*
X0088912Y0086551D01*
X0088923Y008653D01*
Y0086528D01*
X0088927Y0086521D01*
X0088929Y008651D01*
X0088934Y0086495D01*
X0088938Y0086478D01*
X0088942Y0086461D01*
X0088944Y008644D01*
X0088947Y0086418D01*
Y0086416D01*
Y0086412D01*
Y0086403D01*
X0088944Y008639D01*
X008894Y0086362D01*
X0088934Y008633D01*
Y0086328D01*
X0088932Y0086322D01*
X0088927Y0086311D01*
X0088921Y0086296D01*
X0088912Y0086276D01*
X0088904Y0086253D01*
X0088889Y0086223D01*
X0088874Y0086191D01*
X0088871Y0086186D01*
X0088865Y0086176D01*
X0088859Y0086158D01*
X0088848Y0086137D01*
X0088839Y0086113D01*
X0088833Y0086088D01*
X0088826Y0086064D01*
X0088824Y008604D01*
Y0086038D01*
Y0086036D01*
Y008603D01*
X0088826Y0086021D01*
X0088831Y0085997D01*
X0088839Y0085967D01*
X0088854Y0085931D01*
X0088863Y0085912D01*
X0088876Y008589D01*
X0088891Y0085869D01*
X0088906Y0085845D01*
X0088925Y0085824D01*
X0088947Y00858D01*
X0088695D01*
X0088693Y0085804D01*
X0088685Y0085813D01*
X0088674Y0085826D01*
X0088661Y0085843D01*
X0088646Y0085862D01*
X0088631Y0085886D01*
X0088618Y0085907D01*
X0088605Y0085931D01*
X0088603Y0085933D01*
X0088601Y0085942D01*
X0088597Y0085955D01*
X008859Y0085972D01*
X0088586Y0085991D01*
X0088582Y0086015D01*
X008858Y008604D01*
X0088577Y0086066D01*
Y0086068D01*
Y0086073D01*
Y0086079D01*
X008858Y008609D01*
X0088582Y0086113D01*
X008859Y0086143D01*
Y0086146D01*
X0088592Y0086152D01*
X0088597Y0086161D01*
X0088601Y0086176D01*
X0088607Y0086193D01*
X0088618Y0086214D01*
X0088629Y0086238D01*
X0088642Y0086266D01*
X0088644Y008627D01*
X0088648Y0086279D01*
X0088655Y0086294D01*
X0088663Y0086309D01*
X0088678Y0086347D01*
X0088687Y0086362D01*
X0088691Y0086377D01*
Y008638D01*
X0088693Y0086384D01*
Y008639D01*
X0088695Y0086399D01*
X0088698Y0086418D01*
X00887Y0086442D01*
Y0086444D01*
Y0086446D01*
Y0086452D01*
X0088698Y0086459D01*
X0088693Y008648D01*
X0088685Y008651D01*
X0088672Y0086543D01*
X008865Y0086583D01*
X0088635Y0086605D01*
X008862Y0086626D01*
X0088603Y008665D01*
X0088582Y0086674D01*
X0088828D01*
X0088831Y0086669D01*
D02*
G37*
D26*
X0089299Y0075601D02*
G03*
X00893Y00791I-0000048J0001749D01*
G01*
X00856Y00791D02*
G03*
X00856Y0075601I0000049J-0001749D01*
G01*
X0058844Y0050898D02*
G03*
X0058835Y0043305I0001256J-0003798D01*
G01*
X0061341Y0043297D02*
G03*
X0061371Y0050893I-0001241J0003803D01*
G01*
X0045675Y0055969D02*
G03*
X0045675Y0055969I-000025J0D01*
G01*
X010056Y0079375D02*
G03*
X010056Y0079375I-00015J0D01*
G01*
X0101933Y0080237D02*
G03*
X0096201Y0080285I-0002873J-0000862D01*
G01*
X0096214Y0078426D02*
G03*
X0101921Y0078472I0002846J0000949D01*
G01*
X0103089Y005489D02*
G03*
X0103089Y005289I0J-0001D01*
G01*
X005232Y00817D02*
G03*
X00526Y008146I000026J000002D01*
G01*
X00546Y008146D02*
G03*
X005488Y00817I000002J000026D01*
G01*
X00526Y008654D02*
G03*
X005232Y008626I0J-000028D01*
G01*
X005488D02*
G03*
X00546Y008654I-000028J0D01*
G01*
X005742Y00817D02*
G03*
X00577Y008146I000026J000002D01*
G01*
X00597Y008146D02*
G03*
X005998Y00817I000002J000026D01*
G01*
X00577Y008654D02*
G03*
X005742Y008626I0J-000028D01*
G01*
X005998D02*
G03*
X00597Y008654I-000028J0D01*
G01*
X005492Y00817D02*
G03*
X00552Y008146I000026J000002D01*
G01*
X00572Y008146D02*
G03*
X005748Y00817I000002J000026D01*
G01*
X00552Y008654D02*
G03*
X005492Y008626I0J-000028D01*
G01*
X005748D02*
G03*
X00572Y008654I-000028J0D01*
G01*
X010337Y006257D02*
G03*
X010365Y006229I000028J0D01*
G01*
X010315Y006229D02*
G03*
X010343Y006257I0J000028D01*
G01*
X010593Y006967D02*
G03*
X010565Y006991I-000026J-000002D01*
G01*
X010365Y006991D02*
G03*
X010337Y006967I-000002J-000026D01*
G01*
X010565Y006229D02*
G03*
X010593Y006257I0J000028D01*
G01*
X010087D02*
G03*
X010115Y006229I000028J0D01*
G01*
Y006991D02*
G03*
X010087Y006967I-000002J-000026D01*
G01*
X010343D02*
G03*
X010315Y006991I-000026J-000002D01*
G01*
X010277Y00906D02*
G03*
X010253Y009088I-000026J000002D01*
G01*
Y008832D02*
G03*
X010277Y00886I-000002J000026D01*
G01*
X008245D02*
G03*
X008269Y008832I000026J-000002D01*
G01*
Y009088D02*
G03*
X008245Y00906I000002J-000026D01*
G01*
X005601Y00886D02*
G03*
X005625Y008832I000026J-000002D01*
G01*
Y009088D02*
G03*
X005601Y00906I000002J-000026D01*
G01*
X008141D02*
G03*
X008117Y009088I-000026J000002D01*
G01*
Y008832D02*
G03*
X008141Y00886I-000002J000026D01*
G01*
X008639Y00411D02*
G03*
X008615Y004138I-000026J000002D01*
G01*
Y003882D02*
G03*
X008639Y00391I-000002J000026D01*
G01*
X006861D02*
G03*
X006885Y003882I000026J-000002D01*
G01*
Y004138D02*
G03*
X006861Y00411I000002J-000026D01*
G01*
X010352D02*
G03*
X010328Y004138I-000026J000002D01*
G01*
Y003882D02*
G03*
X010352Y00391I-000002J000026D01*
G01*
X008828D02*
G03*
X008852Y003882I000026J-000002D01*
G01*
Y004138D02*
G03*
X008828Y00411I000002J-000026D01*
G01*
X004468Y008636D02*
G03*
X004468Y008636I-00015J0D01*
G01*
X0040307Y0085498D02*
G03*
X0046039Y008545I0002873J0000862D01*
G01*
X0046026Y0087309D02*
G03*
X0040319Y0087263I-0002846J-0000949D01*
G01*
X0063162Y0075166D02*
G03*
X0063166Y0073168I0000039J-0000999D01*
G01*
X0059687Y0079164D02*
G03*
X0059687Y0079164I-000015J0D01*
G01*
X0056437D02*
G03*
X0056437Y0079164I-000015J0D01*
G01*
X0053755Y006916D02*
G03*
X0053755Y006916I-000015J0D01*
G01*
X0057005D02*
G03*
X0057005Y006916I-000015J0D01*
G01*
X0060359D02*
G03*
X0060359Y006916I-000015J0D01*
G01*
X00856Y0075601D02*
X0089299D01*
X00856Y00791D02*
X00893D01*
X00812Y00479D02*
Y00487D01*
X006136Y004285D02*
X006432D01*
X005585D02*
X005882D01*
X006137Y005135D02*
X006255D01*
X005765D02*
X005888D01*
X006255D02*
X006435Y004955D01*
Y004285D02*
Y004955D01*
X005585D02*
X005765Y005135D01*
X005585Y004285D02*
Y004955D01*
X005095Y00553D02*
Y00589D01*
X004885Y00553D02*
X005095D01*
X004885D02*
Y00589D01*
X005095D01*
X00516Y0057D02*
X00524D01*
X00851Y00479D02*
Y00487D01*
X0082042Y0061576D02*
Y0062376D01*
X0078994Y0061576D02*
Y0062376D01*
X0062338Y0065532D02*
X0063138D01*
X0053318Y0067344D02*
X0056918D01*
Y0065244D02*
Y0067344D01*
X0053318Y0065244D02*
X0056918D01*
X0053318D02*
Y0067344D01*
X0057912Y0067672D02*
Y0068472D01*
X0052125Y005085D02*
X0055075D01*
X0052125Y004335D02*
Y00515D01*
X0055075D01*
X0052125Y004335D02*
X0055075D01*
X0052125Y0051D02*
X0055075D01*
X0052125Y00513D02*
X0055075D01*
Y004335D02*
Y00515D01*
X00524Y0051104D02*
X00548D01*
X005468Y0054416D02*
X005708D01*
X0054405Y005402D02*
Y006217D01*
Y005422D02*
X0057355D01*
X0054405Y005452D02*
X0057355D01*
X0054405Y006217D02*
X0057355D01*
X0054405Y005402D02*
X0057355D01*
Y006217D01*
X0054405Y005467D02*
X0057355D01*
X0046082Y00549D02*
Y006161D01*
X0042018Y00549D02*
Y006161D01*
Y00549D02*
X0046082D01*
X0042018Y006161D02*
X0046082D01*
X009677Y0073284D02*
Y0075084D01*
X0099969D01*
Y0073284D02*
Y0075084D01*
X009677Y0073284D02*
X0099969D01*
X009524D02*
Y0075084D01*
X0092039Y0073284D02*
X009524D01*
X0092039D02*
Y0075084D01*
X009524D01*
X01011Y00567D02*
Y00588D01*
X01032D01*
Y00568D02*
Y00588D01*
X01031Y00567D02*
X01032Y00568D01*
X0103089Y00567D02*
X01031D01*
X0103089Y00511D02*
Y005289D01*
Y005489D02*
Y00567D01*
X0068291D02*
X0103089D01*
X0068291Y00511D02*
Y00567D01*
Y00511D02*
X0103089D01*
X0095545Y0070568D02*
Y00726D01*
X0091734D02*
X0096307D01*
Y0070568D02*
Y00726D01*
X0095925Y0070568D02*
Y00726D01*
X0091734Y0070568D02*
X0096307D01*
X0091734D02*
Y00726D01*
X0071505Y0080544D02*
Y0082576D01*
X0066933D02*
X0071505D01*
X0067314Y0080544D02*
Y0082576D01*
X0066933Y0080544D02*
Y0082576D01*
Y0080544D02*
X0071505D01*
X0067695D02*
Y0082576D01*
X005487Y0086286D02*
X005488D01*
X005232D02*
X005233D01*
X005488Y00817D02*
Y0083736D01*
X005232Y00817D02*
Y0083746D01*
X00526Y008146D02*
X00546D01*
X00526Y008654D02*
X00546D01*
X005488Y0084254D02*
Y0086286D01*
X005232Y0084254D02*
Y0086286D01*
X0054616Y0084D02*
X005487Y0083746D01*
X0054616Y0084D02*
X0054626D01*
X005488Y0084254D01*
X005233D02*
X0052584Y0084D01*
X005233Y0083746D02*
X0052584Y0084D01*
X005997Y0086286D02*
X005998D01*
X005742D02*
X005743D01*
X005998Y00817D02*
Y0083736D01*
X005742Y00817D02*
Y0083746D01*
X00577Y008146D02*
X00597D01*
X00577Y008654D02*
X00597D01*
X005998Y0084254D02*
Y0086286D01*
X005742Y0084254D02*
Y0086286D01*
X0059716Y0084D02*
X005997Y0083746D01*
X0059716Y0084D02*
X0059726D01*
X005998Y0084254D01*
X005743D02*
X0057684Y0084D01*
X005743Y0083746D02*
X0057684Y0084D01*
X0067695Y0076184D02*
Y0078216D01*
X0066933Y0076184D02*
X0071505D01*
X0066933D02*
Y0078216D01*
X0067314Y0076184D02*
Y0078216D01*
X0066933D02*
X0071505D01*
Y0076184D02*
Y0078216D01*
X005747Y0086286D02*
X005748D01*
X005492D02*
X005493D01*
X005748Y00817D02*
Y0083736D01*
X005492Y00817D02*
Y0083746D01*
X00552Y008146D02*
X00572D01*
X00552Y008654D02*
X00572D01*
X005748Y0084254D02*
Y0086286D01*
X005492Y0084254D02*
Y0086286D01*
X0057216Y0084D02*
X005747Y0083746D01*
X0057216Y0084D02*
X0057226D01*
X005748Y0084254D01*
X005493D02*
X0055184Y0084D01*
X005493Y0083746D02*
X0055184Y0084D01*
X010338Y0067624D02*
X0103634Y006737D01*
X0103624D02*
X0103634D01*
X010337Y0067116D02*
X0103624Y006737D01*
X010337Y0064576D02*
X0103624Y006483D01*
X010338Y0065084D02*
X0103634Y006483D01*
X0103624D02*
X0103634D01*
X010337Y0065084D02*
Y0067116D01*
Y0067634D02*
X010338Y0067624D01*
X010337D02*
X010338D01*
X010337Y0062544D02*
X010338D01*
X010337D02*
Y0064576D01*
X0103166Y006483D02*
X010342Y0065084D01*
X0103166Y006483D02*
X010342Y0064576D01*
X010343Y0062544D02*
Y0064576D01*
X010342Y0062544D02*
X010343D01*
X0103166Y006737D02*
X010342Y0067624D01*
X0103166Y006737D02*
X010342Y0067116D01*
X010343Y0065084D02*
Y0067116D01*
X010593Y0065084D02*
Y0067116D01*
X0105666Y006737D02*
X010592Y0067116D01*
X0105666Y006737D02*
X010592Y0067624D01*
Y0062544D02*
X010593D01*
X010337Y0067634D02*
Y006967D01*
X010593Y0067624D02*
Y006967D01*
X010365Y006991D02*
X010565D01*
X010365Y006229D02*
X010565D01*
X010593Y0062544D02*
Y0064576D01*
X0105666Y006483D02*
X010592Y0064576D01*
X0105666Y006483D02*
X010592Y0065084D01*
X010087Y0064576D02*
X0101124Y006483D01*
X0101134D01*
X010088Y0065084D02*
X0101134Y006483D01*
X010087Y0062544D02*
Y0064576D01*
X010115Y006229D02*
X010315D01*
X010115Y006991D02*
X010315D01*
X010343Y0067624D02*
Y006967D01*
X010087Y0067634D02*
Y006967D01*
Y0062544D02*
X010088D01*
X010087Y0067624D02*
X010088D01*
X0101134Y006737D01*
X0101124D02*
X0101134D01*
X010087Y0067116D02*
X0101124Y006737D01*
X010087Y0067634D02*
X010088Y0067624D01*
X010087Y0065084D02*
Y0067116D01*
X0101134Y006737D02*
X0103166D01*
X010023Y0088584D02*
Y0090626D01*
X010277Y00886D02*
Y00906D01*
X010023Y0088584D02*
X0100484Y008833D01*
X0099976D02*
X010023Y0088584D01*
X0100484Y009087D02*
Y009088D01*
X010023Y0090616D02*
X0100484Y009087D01*
X010023Y0090616D02*
Y0090626D01*
X0099976Y009088D02*
X010023Y0090626D01*
X0100484Y008832D02*
X010253D01*
X009769Y0088584D02*
X0097944Y008833D01*
X0097436D02*
X009769Y0088584D01*
X0097944Y008832D02*
X0099976D01*
X0097944D02*
Y008833D01*
X0100494Y009088D02*
X010253D01*
X0100484Y009087D02*
X0100494Y009088D01*
X0097944D02*
X0099976D01*
X0097944Y009087D02*
Y009088D01*
X009769Y0090616D02*
X0097944Y009087D01*
X0097436D02*
X009769Y0090616D01*
X0092864Y008832D02*
Y008833D01*
Y008832D02*
X0094896D01*
X0092356Y008833D02*
X009261Y0088584D01*
X0092864Y008833D01*
X0095404Y008832D02*
X009745D01*
X0094896Y008833D02*
X009515Y0088584D01*
X0095404Y008833D01*
X0087784Y008832D02*
Y008833D01*
Y008832D02*
X0089816D01*
X0087276Y008833D02*
X008753Y0088584D01*
X0087784Y008833D01*
X0090324Y008832D02*
X009237D01*
X0089816Y008833D02*
X009007Y0088584D01*
X0090324Y008833D01*
X0082704Y008832D02*
X0084736D01*
X0085244D02*
X008729D01*
X0084736Y008833D02*
X008499Y0088584D01*
X0085244Y008833D01*
X0092356Y009087D02*
X009261Y0090616D01*
X0092864Y009087D01*
Y009088D01*
X0094896D01*
X0095404Y009087D02*
X0095414Y009088D01*
X009745D01*
X0094896D02*
X009515Y0090626D01*
Y0090616D02*
Y0090626D01*
Y0090616D02*
X0095404Y009087D01*
Y009088D01*
X0087276Y009087D02*
X008753Y0090616D01*
X0087784Y009087D01*
Y009088D01*
X0089816D01*
X0090324Y009087D02*
X0090334Y009088D01*
X009237D01*
X0089816D02*
X009007Y0090626D01*
Y0090616D02*
Y0090626D01*
Y0090616D02*
X0090324Y009087D01*
Y009088D01*
X0082704D02*
X0084736D01*
X0085244Y009087D02*
X0085254Y009088D01*
X008729D01*
X0084736D02*
X008499Y0090626D01*
Y0090616D02*
Y0090626D01*
Y0090616D02*
X0085244Y009087D01*
Y009088D01*
X008245Y00886D02*
Y00906D01*
X007887Y0088584D02*
Y0090626D01*
X005601Y00886D02*
Y00906D01*
X008141Y00886D02*
Y00906D01*
X007887Y0088584D02*
X0079124Y008833D01*
X0078616D02*
X007887Y0088584D01*
X0079124Y009087D02*
Y009088D01*
X007887Y0090616D02*
X0079124Y009087D01*
X007887Y0090616D02*
Y0090626D01*
X0078616Y009088D02*
X007887Y0090626D01*
X0079124Y008832D02*
X008117D01*
X007633Y0088584D02*
X0076584Y008833D01*
X0076076D02*
X007633Y0088584D01*
X0076584Y008832D02*
X0078616D01*
X0076584D02*
Y008833D01*
X0079134Y009088D02*
X008117D01*
X0079124Y009087D02*
X0079134Y009088D01*
X0076584D02*
X0078616D01*
X0076584Y009087D02*
Y009088D01*
X007633Y0090616D02*
X0076584Y009087D01*
X0076076D02*
X007633Y0090616D01*
X0071504Y008832D02*
Y008833D01*
Y008832D02*
X0073536D01*
X0070996Y008833D02*
X007125Y0088584D01*
X0071504Y008833D01*
X0074044Y008832D02*
X007609D01*
X0073536Y008833D02*
X007379Y0088584D01*
X0074044Y008833D01*
X0066424Y008832D02*
Y008833D01*
Y008832D02*
X0068456D01*
X0065916Y008833D02*
X006617Y0088584D01*
X0066424Y008833D01*
X0068964Y008832D02*
X007101D01*
X0068456Y008833D02*
X006871Y0088584D01*
X0068964Y008833D01*
X0061344Y008832D02*
Y008833D01*
Y008832D02*
X0063376D01*
X0060836Y008833D02*
X006109Y0088584D01*
X0061344Y008833D01*
X0063884Y008832D02*
X006593D01*
X0063376Y008833D02*
X006363Y0088584D01*
X0063884Y008833D01*
X0056264Y008832D02*
X0058296D01*
X0058804D02*
X006085D01*
X0058296Y008833D02*
X005855Y0088584D01*
X0058804Y008833D01*
X0070996Y009087D02*
X007125Y0090616D01*
X0071504Y009087D01*
Y009088D01*
X0073536D01*
X0074044Y009087D02*
X0074054Y009088D01*
X007609D01*
X0073536D02*
X007379Y0090626D01*
Y0090616D02*
Y0090626D01*
Y0090616D02*
X0074044Y009087D01*
Y009088D01*
X0065916Y009087D02*
X006617Y0090616D01*
X0066424Y009087D01*
Y009088D01*
X0068456D01*
X0068964Y009087D02*
X0068974Y009088D01*
X007101D01*
X0068456D02*
X006871Y0090626D01*
Y0090616D02*
Y0090626D01*
Y0090616D02*
X0068964Y009087D01*
Y009088D01*
X0060836Y009087D02*
X006109Y0090616D01*
X0061344Y009087D01*
Y009088D01*
X0063376D01*
X0063884Y009087D02*
X0063894Y009088D01*
X006593D01*
X0063376D02*
X006363Y0090626D01*
Y0090616D02*
Y0090626D01*
Y0090616D02*
X0063884Y009087D01*
Y009088D01*
X0056264D02*
X0058296D01*
X0058804Y009087D02*
X0058814Y009088D01*
X006085D01*
X0058296D02*
X005855Y0090626D01*
Y0090616D02*
Y0090626D01*
Y0090616D02*
X0058804Y009087D01*
Y009088D01*
X007115Y0039074D02*
Y0041116D01*
X008639Y00391D02*
Y00411D01*
X006861Y00391D02*
Y00411D01*
X0070896Y004137D02*
X007115Y0041116D01*
X0071404Y004137D01*
X0070896Y003882D02*
Y003883D01*
X007115Y0039084D01*
Y0039074D02*
Y0039084D01*
Y0039074D02*
X0071404Y003882D01*
X006885Y004138D02*
X0070896D01*
X0073436Y004137D02*
X007369Y0041116D01*
X0073944Y004137D01*
X0071404Y004138D02*
X0073436D01*
Y004137D02*
Y004138D01*
X006885Y003882D02*
X0070886D01*
X0070896Y003883D01*
X0071404Y003882D02*
X0073436D01*
Y003883D01*
X007369Y0039084D01*
X0073944Y003883D01*
X0078516Y004137D02*
Y004138D01*
X0076484D02*
X0078516D01*
X007877Y0041116D02*
X0079024Y004137D01*
X0078516D02*
X007877Y0041116D01*
X007393Y004138D02*
X0075976D01*
X007623Y0041116D02*
X0076484Y004137D01*
X0075976D02*
X007623Y0041116D01*
X0083596Y004137D02*
Y004138D01*
X0081564D02*
X0083596D01*
X008385Y0041116D02*
X0084104Y004137D01*
X0083596D02*
X008385Y0041116D01*
X007901Y004138D02*
X0081056D01*
X008131Y0041116D02*
X0081564Y004137D01*
X0081056D02*
X008131Y0041116D01*
X008409Y004138D02*
X0086136D01*
X007877Y0039084D02*
X0079024Y003883D01*
X0078516D02*
X007877Y0039084D01*
X0078516Y003882D02*
Y003883D01*
X0076484Y003882D02*
X0078516D01*
X0075966D02*
X0075976Y003883D01*
X007393Y003882D02*
X0075966D01*
X007623Y0039074D02*
X0076484Y003882D01*
X007623Y0039074D02*
Y0039084D01*
X0075976Y003883D02*
X007623Y0039084D01*
X0075976Y003882D02*
Y003883D01*
X008385Y0039084D02*
X0084104Y003883D01*
X0083596D02*
X008385Y0039084D01*
X0083596Y003882D02*
Y003883D01*
X0081564Y003882D02*
X0083596D01*
X0081046D02*
X0081056Y003883D01*
X007901Y003882D02*
X0081046D01*
X008131Y0039074D02*
X0081564Y003882D01*
X008131Y0039074D02*
Y0039084D01*
X0081056Y003883D02*
X008131Y0039084D01*
X0081056Y003882D02*
Y003883D01*
X008409Y003882D02*
X0086126D01*
X010352Y00391D02*
Y00411D01*
X008828Y00391D02*
Y00411D01*
X0090566Y004137D02*
X009082Y0041116D01*
X0091074Y004137D01*
X0090566Y003882D02*
Y003883D01*
X009082Y0039084D01*
Y0039074D02*
Y0039084D01*
Y0039074D02*
X0091074Y003882D01*
X008852Y004138D02*
X0090566D01*
X0093106Y004137D02*
X009336Y0041116D01*
X0093614Y004137D01*
X0091074Y004138D02*
X0093106D01*
Y004137D02*
Y004138D01*
X008852Y003882D02*
X0090556D01*
X0090566Y003883D01*
X0091074Y003882D02*
X0093106D01*
Y003883D01*
X009336Y0039084D01*
X0093614Y003883D01*
X0098186Y004137D02*
Y004138D01*
X0096154D02*
X0098186D01*
X009844Y0041116D02*
X0098694Y004137D01*
X0098186D02*
X009844Y0041116D01*
X00936Y004138D02*
X0095646D01*
X00959Y0041116D02*
X0096154Y004137D01*
X0095646D02*
X00959Y0041116D01*
X0101234Y004138D02*
X0103266D01*
X009868D02*
X0100726D01*
X010098Y0041116D02*
X0101234Y004137D01*
X0100726D02*
X010098Y0041116D01*
X009844Y0039084D02*
X0098694Y003883D01*
X0098186D02*
X009844Y0039084D01*
X0098186Y003882D02*
Y003883D01*
X0096154Y003882D02*
X0098186D01*
X0095636D02*
X0095646Y003883D01*
X00936Y003882D02*
X0095636D01*
X00959Y0039074D02*
X0096154Y003882D01*
X00959Y0039074D02*
Y0039084D01*
X0095646Y003883D02*
X00959Y0039084D01*
X0095646Y003882D02*
Y003883D01*
X0101234Y003882D02*
X0103266D01*
X0100716D02*
X0100726Y003883D01*
X009868Y003882D02*
X0100716D01*
X010098Y0039074D02*
X0101234Y003882D01*
X010098Y0039074D02*
Y0039084D01*
X0100726Y003883D02*
X010098Y0039084D01*
X0100726Y003882D02*
Y003883D01*
X009082Y0039074D02*
Y0041116D01*
X0049175Y0043125D02*
X0050618D01*
Y0049925D02*
Y0052125D01*
Y0043125D02*
Y0045325D01*
X0035417Y0043125D02*
X0044522D01*
X0035417D02*
Y0052125D01*
X0050618D01*
X0037147Y0043125D02*
Y0052106D01*
X0055118Y0067672D02*
Y0068472D01*
X0060438Y0065532D02*
X0061238D01*
X0092162Y0080175D02*
X0095162D01*
X0092162Y0078575D02*
Y0080175D01*
Y0078575D02*
X0095162D01*
Y0080175D01*
X00681Y00802D02*
X00711D01*
X00681Y00786D02*
Y00802D01*
Y00786D02*
X00711D01*
Y00802D01*
X00681Y00845D02*
X00711D01*
X00681Y00829D02*
Y00845D01*
Y00829D02*
X00711D01*
Y00845D01*
X004803Y007921D02*
X005103D01*
Y008081D01*
X004803D02*
X005103D01*
X004803Y007921D02*
Y008081D01*
Y0077686D02*
X005103D01*
Y0079286D01*
X004803D02*
X005103D01*
X004803Y0077686D02*
Y0079286D01*
Y007573D02*
X005103D01*
X004803Y007413D02*
Y007573D01*
Y007413D02*
X005103D01*
Y007573D01*
X0052662Y0076168D02*
X0063162D01*
X0052662Y0072168D02*
X0063162D01*
X0052662D02*
Y0076168D01*
X0063162Y0075168D02*
Y0076168D01*
Y0072168D02*
Y0073168D01*
Y0076168D02*
Y0079064D01*
X0061806D02*
X0063162D01*
X004803Y0071082D02*
X005103D01*
Y0072682D01*
X004803D02*
X005103D01*
X004803Y0071082D02*
Y0072682D01*
Y0074206D02*
X005103D01*
X004803Y0072606D02*
Y0074206D01*
Y0072606D02*
X005103D01*
Y0074206D01*
X0071501Y0072136D02*
Y0074168D01*
X0066929D02*
X0071501D01*
X006731Y0072136D02*
Y0074168D01*
X0066929Y0072136D02*
Y0074168D01*
Y0072136D02*
X0071501D01*
X0067691D02*
Y0074168D01*
X0037145Y007795D02*
X0038588D01*
X0037145Y007025D02*
X0038588D01*
X0046345Y0076234D02*
Y0077275D01*
X0041636Y007795D02*
X0044049D01*
X0046345Y0070976D02*
Y0071966D01*
X0041636Y007025D02*
X0044024D01*
X004789Y0077758D02*
X005118D01*
Y0075658D02*
Y0077758D01*
X004789Y0075658D02*
X005118D01*
X004789D02*
Y0077758D01*
X0068096Y0071666D02*
X0071096D01*
X0068096Y0070066D02*
Y0071666D01*
Y0070066D02*
X0071096D01*
Y0071666D01*
X0067691Y0068072D02*
Y0070104D01*
X0066929Y0068072D02*
X0071501D01*
X0066929D02*
Y0070104D01*
X006731Y0068072D02*
Y0070104D01*
X0066929D02*
X0071501D01*
Y0068072D02*
Y0070104D01*
X0068096Y007573D02*
X0071096D01*
X0068096Y007413D02*
Y007573D01*
Y007413D02*
X0071096D01*
Y007573D01*
X0093676Y0080626D02*
Y0081426D01*
X00854Y00781D02*
Y007685D01*
X008565Y00766D01*
X008615D01*
X00864Y007685D01*
Y00781D01*
X00869Y00766D02*
Y00781D01*
X0087899Y00766D01*
Y00781D01*
X0089149D02*
X0088649D01*
X0088399Y007785D01*
Y007685D01*
X0088649Y00766D01*
X0089149D01*
X0089399Y007685D01*
Y007785D01*
X0089149Y00781D01*
D41*
X009652Y008636D02*
X0097028Y0085852D01*
X0096012D02*
X009652Y008636D01*
Y0082296D02*
X0096774Y0082042D01*
X009652Y0082296D02*
Y008636D01*
D42*
X00725Y00831D02*
X01021D01*
X00987Y00864D02*
X00991Y00868D01*
X01016Y00856D02*
Y00868D01*
Y00856D02*
X0102Y0086D01*
X01012D02*
X01016Y00856D01*
X00991Y00868D02*
X00995Y00864D01*
X00991Y00856D02*
Y00868D01*
X00891Y00473D02*
X01026D01*
X00716D02*
X00861D01*
X0082118Y0059548D02*
Y0060848D01*
X0078918Y0059548D02*
Y0060848D01*
X0081948Y0059548D02*
X0082118D01*
X0078918D02*
X0079088D01*
X0080938Y0059538D02*
X0081088D01*
X0079938Y0059548D02*
X0080088D01*
X0081948Y0060848D02*
X0082118D01*
X0078918D02*
X0079088D01*
X0079938Y0060758D02*
X0080088D01*
X0080938Y0060748D02*
X0081088D01*
X00602Y006735D02*
Y006865D01*
X00634Y006735D02*
Y006865D01*
X00602D02*
X006037D01*
X006323D02*
X00634D01*
X006123Y006866D02*
X006138D01*
X006223Y006865D02*
X006238D01*
X00602Y006735D02*
X006037D01*
X006323D02*
X00634D01*
X006223Y006744D02*
X006238D01*
X006123Y006745D02*
X006138D01*
X01038Y00771D02*
X01026D01*
Y00777D01*
X01028Y00779D01*
X01032D01*
X01034Y00777D01*
Y00771D01*
X01026Y00783D02*
X01036D01*
X01038Y00785D01*
Y0078899D01*
X01036Y0079099D01*
X01026D01*
X01028Y0080299D02*
X01026Y0080099D01*
Y0079699D01*
X01028Y0079499D01*
X0103D01*
X01032Y0079699D01*
Y0080099D01*
X01034Y0080299D01*
X01036D01*
X01038Y0080099D01*
Y0079699D01*
X01036Y0079499D01*
X01026Y0080699D02*
X01038D01*
X01032D01*
Y0081499D01*
X01026D01*
X01038D01*
X004826Y0084836D02*
X004706D01*
Y0085436D01*
X004726Y0085636D01*
X004766D01*
X004786Y0085436D01*
Y0084836D01*
Y0085236D02*
X004826Y0085636D01*
X004726Y0086835D02*
X004706Y0086635D01*
Y0086236D01*
X004726Y0086036D01*
X004746D01*
X004766Y0086236D01*
Y0086635D01*
X004786Y0086835D01*
X004806D01*
X004826Y0086635D01*
Y0086236D01*
X004806Y0086036D01*
X004706Y0087235D02*
Y0088035D01*
Y0087635D01*
X004826D01*
X0064516Y0081026D02*
X0064883D01*
X0064699D01*
Y0082126D01*
X0064516Y0081942D01*
X0066165Y0081026D02*
X0065432D01*
X0066165Y0081759D01*
Y0081942D01*
X0065982Y0082126D01*
X0065616D01*
X0065432Y0081942D01*
X0064516Y0076708D02*
X0064883D01*
X0064699D01*
Y0077808D01*
X0064516Y0077624D01*
X0065432D02*
X0065616Y0077808D01*
X0065982D01*
X0066165Y0077624D01*
Y0077441D01*
X0065982Y0077258D01*
X0065799D01*
X0065982D01*
X0066165Y0077075D01*
Y0076891D01*
X0065982Y0076708D01*
X0065616D01*
X0065432Y0076891D01*
X00932Y00701D02*
X00928D01*
X00926Y00699D01*
Y00691D01*
X00928Y00689D01*
X00932D01*
X00934Y00691D01*
Y00699D01*
X00932Y00701D01*
X00938Y00689D02*
Y00701D01*
X0094599Y00689D01*
Y00701D01*
X00504Y00839D02*
Y00835D01*
Y00837D01*
X00514D01*
X00516Y00835D01*
Y00833D01*
X00514Y00831D01*
X00516Y00843D02*
Y0084699D01*
Y00845D01*
X00504D01*
X00506Y00843D01*
X0101346Y0071558D02*
X0101746D01*
X0101546D01*
Y0070358D01*
X0101346D01*
X0101746D01*
X0103145Y0071358D02*
X0102945Y0071558D01*
X0102546D01*
X0102346Y0071358D01*
Y0070558D01*
X0102546Y0070358D01*
X0102945D01*
X0103145Y0070558D01*
X0104345Y0071358D02*
X0104145Y0071558D01*
X0103745D01*
X0103545Y0071358D01*
Y0071158D01*
X0103745Y0070958D01*
X0104145D01*
X0104345Y0070758D01*
Y0070558D01*
X0104145Y0070358D01*
X0103745D01*
X0103545Y0070558D01*
X0104745Y0070358D02*
Y0071558D01*
X0105345D01*
X0105545Y0071358D01*
Y0070958D01*
X0105345Y0070758D01*
X0104745D01*
X0064262Y0073844D02*
X0065062D01*
X0064662D01*
Y0072644D01*
X0065462Y0073844D02*
X0066261Y0072644D01*
Y0073844D02*
X0065462Y0072644D01*
X0064262Y006858D02*
Y006978D01*
X0064862D01*
X0065062Y006958D01*
Y006918D01*
X0064862Y006898D01*
X0064262D01*
X0064662D02*
X0065062Y006858D01*
X0065462Y006978D02*
X0066261Y006858D01*
Y006978D02*
X0065462Y006858D01*
X00811Y00847D02*
Y00835D01*
X00817D01*
X00819Y00837D01*
Y00845D01*
X00817Y00847D01*
X00811D01*
X00823D02*
X0082699D01*
X00825D01*
Y00835D01*
X00823D01*
X0082699D01*
X0084099Y00845D02*
X0083899Y00847D01*
X0083499D01*
X0083299Y00845D01*
Y00837D01*
X0083499Y00835D01*
X0083899D01*
X0084099Y00837D01*
Y00841D01*
X0083699D01*
X0084499Y00847D02*
X0084899D01*
X0084699D01*
Y00835D01*
X0084499D01*
X0084899D01*
X0085499Y00847D02*
X0086298D01*
X0085898D01*
Y00835D01*
X0086698D02*
Y00843D01*
X0087098Y00847D01*
X0087498Y00843D01*
Y00835D01*
Y00841D01*
X0086698D01*
X0087898Y00847D02*
Y00835D01*
X0088698D01*
X0089497D02*
X0089097Y00839D01*
Y00843D01*
X0089497Y00847D01*
X0090097Y00835D02*
Y00847D01*
X0090697D01*
X0090897Y00845D01*
Y00841D01*
X0090697Y00839D01*
X0090097D01*
X0091297Y00847D02*
Y00835D01*
X0091697Y00839D01*
X0092096Y00835D01*
Y00847D01*
X0092496Y00835D02*
Y00847D01*
X0092896Y00843D01*
X0093296Y00847D01*
Y00835D01*
X0094896D02*
X0095295Y00839D01*
Y00843D01*
X0094896Y00847D01*
X0063Y00835D02*
X00622D01*
X00618Y00839D01*
X00622Y00843D01*
X0063D01*
X00624D01*
Y00835D01*
X0063Y00847D02*
X00618D01*
Y0085299D01*
X0062Y0085499D01*
X00624D01*
X00626Y0085299D01*
Y00847D01*
Y0085099D02*
X0063Y0085499D01*
X00618Y0086699D02*
Y0085899D01*
X0063D01*
Y0086699D01*
X00624Y0085899D02*
Y0086299D01*
X00618Y0087899D02*
Y0087099D01*
X00624D01*
Y0087499D01*
Y0087099D01*
X0063D01*
X00645Y00855D02*
X00643Y00853D01*
Y00849D01*
X00645Y00847D01*
X00653D01*
X00655Y00849D01*
Y00853D01*
X00653Y00855D01*
X00649D01*
Y00851D01*
X00655Y00859D02*
X00643D01*
X00655Y0086699D01*
X00643D01*
Y0087099D02*
X00655D01*
Y0087699D01*
X00653Y0087899D01*
X00645D01*
X00643Y0087699D01*
Y0087099D01*
X00681Y0086D02*
Y00864D01*
Y00862D01*
X00669D01*
X00671Y0086D01*
Y0087D02*
X00669Y00872D01*
Y0087599D01*
X00671Y0087799D01*
X00673D01*
X00675Y0087599D01*
Y00874D01*
Y0087599D01*
X00677Y0087799D01*
X00679D01*
X00681Y0087599D01*
Y00872D01*
X00679Y0087D01*
X00706Y0086D02*
Y00864D01*
Y00862D01*
X00694D01*
X00696Y0086D01*
X00706Y0087799D02*
Y0087D01*
X00698Y0087799D01*
X00696D01*
X00694Y0087599D01*
Y00872D01*
X00696Y0087D01*
X00731Y0086D02*
Y00864D01*
Y00862D01*
X00719D01*
X00721Y0086D01*
X00731Y0087D02*
Y00874D01*
Y00872D01*
X00719D01*
X00721Y0087D01*
X00757Y0086D02*
Y00864D01*
Y00862D01*
X00745D01*
X00747Y0086D01*
Y0087D02*
X00745Y00872D01*
Y0087599D01*
X00747Y0087799D01*
X00755D01*
X00757Y0087599D01*
Y00872D01*
X00755Y0087D01*
X00747D01*
X0078Y00869D02*
X00782Y00871D01*
Y00875D01*
X0078Y00877D01*
X00772D01*
X0077Y00875D01*
Y00871D01*
X00772Y00869D01*
X00774D01*
X00776Y00871D01*
Y00877D01*
X00798Y00869D02*
X00796Y00871D01*
Y00875D01*
X00798Y00877D01*
X008D01*
X00802Y00875D01*
X00804Y00877D01*
X00806D01*
X00808Y00875D01*
Y00871D01*
X00806Y00869D01*
X00804D01*
X00802Y00871D01*
X008Y00869D01*
X00798D01*
X00802Y00871D02*
Y00875D01*
X00857Y00877D02*
X00859Y00873D01*
X00863Y00869D01*
X00867D01*
X00869Y00871D01*
Y00875D01*
X00867Y00877D01*
X00865D01*
X00863Y00875D01*
Y00869D01*
X00882Y00877D02*
Y00869D01*
X00888D01*
X00886Y00873D01*
Y00875D01*
X00888Y00877D01*
X00892D01*
X00894Y00875D01*
Y00871D01*
X00892Y00869D01*
X00832D02*
Y00877D01*
X00834D01*
X00842Y00869D01*
X00844D01*
X00919Y00875D02*
X00907D01*
X00913Y00869D01*
Y00877D01*
X00935Y00869D02*
X00933Y00871D01*
Y00875D01*
X00935Y00877D01*
X00937D01*
X00939Y00875D01*
Y00873D01*
Y00875D01*
X00941Y00877D01*
X00943D01*
X00945Y00875D01*
Y00871D01*
X00943Y00869D01*
X0097Y00877D02*
Y00869D01*
X00962Y00877D01*
X0096D01*
X00958Y00875D01*
Y00871D01*
X0096Y00869D01*
X00984Y00835D02*
Y00843D01*
Y00839D01*
X00996D01*
X00984Y00847D02*
X00996Y0085499D01*
X00984D02*
X00996Y00847D01*
Y0087099D02*
Y0087499D01*
Y0087299D01*
X00984D01*
X00986Y0087099D01*
X01022Y00835D02*
X0101D01*
Y00841D01*
X01012Y00843D01*
X01016D01*
X01018Y00841D01*
Y00835D01*
Y00839D02*
X01022Y00843D01*
X0101Y00847D02*
X01022Y0085499D01*
X0101D02*
X01022Y00847D01*
X01012Y0087099D02*
X0101Y0087299D01*
Y0087699D01*
X01012Y0087899D01*
X0102D01*
X01022Y0087699D01*
Y0087299D01*
X0102Y0087099D01*
X01012D01*
X00846Y00419D02*
X00854D01*
X00858Y00423D01*
X00854Y00427D01*
X00846D01*
X00858Y00431D02*
Y0043499D01*
Y00433D01*
X0085D01*
Y00431D01*
X00858Y0044099D02*
X0085D01*
Y0044699D01*
X00852Y0044899D01*
X00858D01*
X008226Y00427D02*
X008206Y00425D01*
Y00421D01*
X008226Y00419D01*
X008306D01*
X008326Y00421D01*
Y00425D01*
X008306Y00427D01*
X008266D01*
Y00423D01*
X008326Y00431D02*
X008206D01*
X008326Y0043899D01*
X008206D01*
Y0044299D02*
X008326D01*
Y0044899D01*
X008306Y0045099D01*
X008226D01*
X008206Y0044899D01*
Y0044299D01*
X007972Y00427D02*
X007952Y00425D01*
Y00421D01*
X007972Y00419D01*
X008052D01*
X008072Y00421D01*
Y00425D01*
X008052Y00427D01*
X008012D01*
Y00423D01*
X008072Y00431D02*
X007952D01*
X008072Y0043899D01*
X007952D01*
Y0044299D02*
X008072D01*
Y0044899D01*
X008052Y0045099D01*
X007972D01*
X007952Y0044899D01*
Y0044299D01*
X007698Y00427D02*
Y00419D01*
X007758D01*
X007738Y00423D01*
Y00425D01*
X007758Y00427D01*
X007798D01*
X007818Y00425D01*
Y00421D01*
X007798Y00419D01*
X007698Y00431D02*
X007778D01*
X007818Y0043499D01*
X007778Y0043899D01*
X007698D01*
X007444Y00427D02*
Y00419D01*
X007504D01*
X007484Y00423D01*
Y00425D01*
X007504Y00427D01*
X007544D01*
X007564Y00425D01*
Y00421D01*
X007544Y00419D01*
X007444Y00431D02*
X007524D01*
X007564Y0043499D01*
X007524Y0043899D01*
X007444D01*
X00721Y00419D02*
X00719Y00421D01*
Y00425D01*
X00721Y00427D01*
X00723D01*
X00725Y00425D01*
Y00423D01*
Y00425D01*
X00727Y00427D01*
X00729D01*
X00731Y00425D01*
Y00421D01*
X00729Y00419D01*
X00731Y00431D02*
X00729D01*
Y00433D01*
X00731D01*
Y00431D01*
X00721Y0044099D02*
X00719Y0044299D01*
Y0044699D01*
X00721Y0044899D01*
X00723D01*
X00725Y0044699D01*
Y0044499D01*
Y0044699D01*
X00727Y0044899D01*
X00729D01*
X00731Y0044699D01*
Y0044299D01*
X00729Y0044099D01*
X00719Y0045299D02*
X00727D01*
X00731Y0045699D01*
X00727Y0046099D01*
X00719D01*
X007056Y00419D02*
X006936D01*
Y00425D01*
X006956Y00427D01*
X006996D01*
X007016Y00425D01*
Y00419D01*
Y00423D02*
X007056Y00427D01*
X006936Y0043899D02*
Y00431D01*
X007056D01*
Y0043899D01*
X006996Y00431D02*
Y0043499D01*
X006956Y0045099D02*
X006936Y0044899D01*
Y0044499D01*
X006956Y0044299D01*
X006976D01*
X006996Y0044499D01*
Y0044899D01*
X007016Y0045099D01*
X007036D01*
X007056Y0044899D01*
Y0044499D01*
X007036Y0044299D01*
X006936Y0046299D02*
Y0045499D01*
X007056D01*
Y0046299D01*
X006996Y0045499D02*
Y0045899D01*
X006936Y0046698D02*
Y0047498D01*
Y0047098D01*
X007056D01*
X01025Y00419D02*
X01017D01*
X01013Y00423D01*
X01017Y00427D01*
X01025D01*
X01019D01*
Y00419D01*
X01013Y00431D02*
X01025D01*
Y0043699D01*
X01023Y0043899D01*
X01015D01*
X01013Y0043699D01*
Y00431D01*
Y0045099D02*
Y0044299D01*
X01019D01*
X01017Y0044699D01*
Y0044899D01*
X01019Y0045099D01*
X01023D01*
X01025Y0044899D01*
Y0044499D01*
X01023Y0044299D01*
X010039Y00419D02*
X009959D01*
X009919Y00423D01*
X009959Y00427D01*
X010039D01*
X009979D01*
Y00419D01*
X009919Y00431D02*
X010039D01*
Y0043699D01*
X010019Y0043899D01*
X009939D01*
X009919Y0043699D01*
Y00431D01*
X010039Y0044899D02*
X009919D01*
X009979Y0044299D01*
Y0045099D01*
X009785Y00419D02*
X009705D01*
X009665Y00423D01*
X009705Y00427D01*
X009785D01*
X009725D01*
Y00419D01*
X009665Y00431D02*
X009785D01*
Y0043699D01*
X009765Y0043899D01*
X009685D01*
X009665Y0043699D01*
Y00431D01*
X009685Y0044299D02*
X009665Y0044499D01*
Y0044899D01*
X009685Y0045099D01*
X009705D01*
X009725Y0044899D01*
Y0044699D01*
Y0044899D01*
X009745Y0045099D01*
X009765D01*
X009785Y0044899D01*
Y0044499D01*
X009765Y0044299D01*
X009531Y00419D02*
X009451D01*
X009411Y00423D01*
X009451Y00427D01*
X009531D01*
X009471D01*
Y00419D01*
X009411Y00431D02*
X009531D01*
Y0043699D01*
X009511Y0043899D01*
X009431D01*
X009411Y0043699D01*
Y00431D01*
X009531Y0045099D02*
Y0044299D01*
X009451Y0045099D01*
X009431D01*
X009411Y0044899D01*
Y0044499D01*
X009431Y0044299D01*
X009277Y00419D02*
X009197D01*
X009157Y00423D01*
X009197Y00427D01*
X009277D01*
X009217D01*
Y00419D01*
X009157Y00431D02*
X009277D01*
Y0043699D01*
X009257Y0043899D01*
X009177D01*
X009157Y0043699D01*
Y00431D01*
X009277Y0044299D02*
Y0044699D01*
Y0044499D01*
X009157D01*
X009177Y0044299D01*
X009023Y00419D02*
X008943D01*
X008903Y00423D01*
X008943Y00427D01*
X009023D01*
X008963D01*
Y00419D01*
X008903Y00431D02*
X009023D01*
Y0043699D01*
X009003Y0043899D01*
X008923D01*
X008903Y0043699D01*
Y00431D01*
X008923Y0044299D02*
X008903Y0044499D01*
Y0044899D01*
X008923Y0045099D01*
X009003D01*
X009023Y0044899D01*
Y0044499D01*
X009003Y0044299D01*
X008923D01*
X00918Y00457D02*
Y00465D01*
X00922Y00469D01*
X00926Y00465D01*
Y00457D01*
Y00463D01*
X00918D01*
X0093Y00457D02*
Y00469D01*
X0093799Y00457D01*
Y00469D01*
X0094199Y00457D02*
Y00465D01*
X0094599Y00469D01*
X0094999Y00465D01*
Y00457D01*
Y00463D01*
X0094199D01*
X0095399Y00469D02*
Y00457D01*
X0096199D01*
X0097198Y00469D02*
X0096798D01*
X0096598Y00467D01*
Y00459D01*
X0096798Y00457D01*
X0097198D01*
X0097398Y00459D01*
Y00467D01*
X0097198Y00469D01*
X0098598Y00467D02*
X0098398Y00469D01*
X0097998D01*
X0097798Y00467D01*
Y00459D01*
X0097998Y00457D01*
X0098398D01*
X0098598Y00459D01*
Y00463D01*
X0098198D01*
X0100197Y00469D02*
X0100597D01*
X0100397D01*
Y00457D01*
X0100197D01*
X0100597D01*
X0101197D02*
Y00469D01*
X0101997Y00457D01*
Y00469D01*
X00756Y00457D02*
Y00469D01*
X00762D01*
X00764Y00467D01*
Y00463D01*
X00762Y00461D01*
X00756D01*
X0077399Y00469D02*
X0077D01*
X00768Y00467D01*
Y00459D01*
X0077Y00457D01*
X0077399D01*
X0077599Y00459D01*
Y00467D01*
X0077399Y00469D01*
X0077999D02*
Y00457D01*
X0078399Y00461D01*
X0078799Y00457D01*
Y00469D01*
X0079999D02*
X0079199D01*
Y00457D01*
X0079999D01*
X0079199Y00463D02*
X0079599D01*
X0080398Y00457D02*
Y00469D01*
X0080998D01*
X0081198Y00467D01*
Y00463D01*
X0080998Y00461D01*
X0080398D01*
X0080798D02*
X0081198Y00457D01*
X00846Y00625D02*
Y00614D01*
X0084967Y0061767D01*
X0085333Y00614D01*
Y00625D01*
X00857D02*
Y00614D01*
X0086066Y0061767D01*
X0086433Y00614D01*
Y00625D01*
X0086799D02*
Y00614D01*
X0087166Y0061767D01*
X0087532Y00614D01*
Y00625D01*
X0087899Y00614D02*
Y0061583D01*
X0088082D01*
Y00614D01*
X0087899D01*
X0088815Y00625D02*
Y0061767D01*
X0089182Y00614D01*
X0089548Y0061767D01*
Y00625D01*
X0089915Y00614D02*
Y00625D01*
X0090648Y00614D01*
Y00625D01*
X0091748D02*
X0091015D01*
Y00614D01*
X0091748D01*
X0091015Y006195D02*
X0091381D01*
X0092114Y00625D02*
Y00614D01*
X0092847D01*
X0093947Y00625D02*
X0093214D01*
Y00614D01*
X0093947D01*
X0093214Y006195D02*
X009358D01*
X0094314Y00625D02*
Y00614D01*
Y0061767D01*
X0095047Y00625D01*
X0094497Y006195D01*
X0095047Y00614D01*
X0095413D02*
Y0061583D01*
X0095596D01*
Y00614D01*
X0095413D01*
X009633Y00625D02*
Y0061767D01*
X0096696Y00614D01*
X0097063Y0061767D01*
Y00625D01*
X0097429Y00614D02*
Y00625D01*
X0098162Y00614D01*
Y00625D01*
X00846Y00596D02*
Y00607D01*
X0084967Y0060333D01*
X0085333Y00607D01*
Y00596D01*
X00857D02*
Y0060333D01*
X0086066Y00607D01*
X0086433Y0060333D01*
Y00596D01*
Y006015D01*
X00857D01*
X0086799Y00607D02*
Y00596D01*
X0087349D01*
X0087532Y0059783D01*
Y0060516D01*
X0087349Y00607D01*
X0086799D01*
X0088632D02*
X0087899D01*
Y00596D01*
X0088632D01*
X0087899Y006015D02*
X0088265D01*
X0090098Y00607D02*
X0090465D01*
X0090282D01*
Y00596D01*
X0090098D01*
X0090465D01*
X0091015D02*
Y00607D01*
X0091748Y00596D01*
Y00607D01*
X0093214D02*
Y0059967D01*
X009358Y00596D01*
X0093947Y0059967D01*
Y00607D01*
X0094314D02*
X009468D01*
X0094497D01*
Y00596D01*
X0094314D01*
X009468D01*
X0095963Y00607D02*
X009523D01*
Y00596D01*
X0095963D01*
X009523Y006015D02*
X0095596D01*
X009633Y00607D02*
X0097063D01*
X0096696D01*
Y00596D01*
X0098529D02*
Y00607D01*
X0099262Y00596D01*
Y00607D01*
X0099628Y00596D02*
Y0060333D01*
X0099995Y00607D01*
X0100362Y0060333D01*
Y00596D01*
Y006015D01*
X0099628D01*
X0100728Y00596D02*
Y00607D01*
X0101095Y0060333D01*
X0101461Y00607D01*
Y00596D01*
D43*
X0081235Y0073534D02*
X0081451D01*
X0077324D02*
X0077578D01*
X0081159Y0073547D02*
X0081515D01*
X0077248D02*
X0077641D01*
X0081121Y007356D02*
X0081566D01*
X0080245D02*
X0080626D01*
X0079495D02*
X00798D01*
X0078264D02*
X0079254D01*
X007721D02*
X0077692D01*
X0075597D02*
X0076143D01*
X0075114D02*
X0075495D01*
X0074352D02*
X0074682D01*
X0073882D02*
X0074238D01*
X0072904D02*
X0073234D01*
X0081083Y0073573D02*
X0081604D01*
X0080232D02*
X0080626D01*
X0079495D02*
X00798D01*
X0078264D02*
X0079254D01*
X0077171D02*
X0077717D01*
X0075597D02*
X0076232D01*
X0075101D02*
X0075482D01*
X0074352D02*
X0074682D01*
X0073882D02*
X0074238D01*
X0072904D02*
X0073234D01*
X0081058Y0073585D02*
X0081629D01*
X0080232D02*
X0080626D01*
X0079495D02*
X00798D01*
X0078264D02*
X0079254D01*
X0077146D02*
X0077756D01*
X0075597D02*
X0076295D01*
X0075101D02*
X0075482D01*
X0074352D02*
X0074682D01*
X0073882D02*
X0074238D01*
X0072917D02*
X0073234D01*
X0081032Y0073598D02*
X0081655D01*
X0080219D02*
X0080626D01*
X0079495D02*
X00798D01*
X0078264D02*
X0079254D01*
X0077121D02*
X0077781D01*
X0075597D02*
X0076333D01*
X0075089D02*
X007547D01*
X0074352D02*
X0074682D01*
X0073869D02*
X0074238D01*
X0072917D02*
X0073247D01*
X0081007Y0073611D02*
X008168D01*
X0080219D02*
X0080626D01*
X0079495D02*
X00798D01*
X0078264D02*
X0079254D01*
X0077095D02*
X0077806D01*
X0075597D02*
X0076371D01*
X0075089D02*
X007547D01*
X0074352D02*
X0074682D01*
X0073869D02*
X0074225D01*
X0072917D02*
X0073247D01*
X0080994Y0073623D02*
X0081693D01*
X0080219D02*
X0080626D01*
X0079495D02*
X00798D01*
X0078264D02*
X0079254D01*
X007707D02*
X0077819D01*
X0075597D02*
X0076397D01*
X0075076D02*
X0075457D01*
X0074352D02*
X0074682D01*
X0073869D02*
X0074225D01*
X0072917D02*
X0073247D01*
X0080969Y0073636D02*
X0081718D01*
X0080207D02*
X0080626D01*
X0079495D02*
X00798D01*
X0078264D02*
X0079254D01*
X0077057D02*
X0077844D01*
X0075597D02*
X0076422D01*
X0075076D02*
X0075457D01*
X0074352D02*
X0074682D01*
X0073857D02*
X0074225D01*
X007293D02*
X007326D01*
X0080956Y0073649D02*
X0081731D01*
X0080207D02*
X0080626D01*
X0079495D02*
X00798D01*
X0078264D02*
X0079254D01*
X0077044D02*
X0077857D01*
X0075597D02*
X0076448D01*
X0075076D02*
X0075457D01*
X0074352D02*
X0074682D01*
X0073857D02*
X0074212D01*
X007293D02*
X007326D01*
X0080943Y0073661D02*
X0081743D01*
X0080194D02*
X0080626D01*
X0079495D02*
X00798D01*
X0078264D02*
X0079254D01*
X0077032D02*
X007787D01*
X0075597D02*
X0076473D01*
X0075063D02*
X0075444D01*
X0074352D02*
X0074682D01*
X0073857D02*
X0074212D01*
X007293D02*
X007326D01*
X0080931Y0073674D02*
X0081756D01*
X0080194D02*
X0080626D01*
X0079495D02*
X00798D01*
X0078264D02*
X0079254D01*
X0077019D02*
X0077883D01*
X0075597D02*
X0076486D01*
X0075063D02*
X0075444D01*
X0074352D02*
X0074682D01*
X0073857D02*
X0074212D01*
X0072942D02*
X007326D01*
X0080918Y0073687D02*
X0081769D01*
X0080181D02*
X0080626D01*
X0079495D02*
X00798D01*
X0078264D02*
X0079254D01*
X0077006D02*
X0077895D01*
X0075597D02*
X0076511D01*
X007505D02*
X0075432D01*
X0074352D02*
X0074682D01*
X0073844D02*
X00742D01*
X0072942D02*
X0073272D01*
X0080905Y00737D02*
X0081782D01*
X0080181D02*
X0080626D01*
X0079495D02*
X00798D01*
X0078264D02*
X0079254D01*
X0076994D02*
X0077908D01*
X0075597D02*
X0076524D01*
X007505D02*
X0075432D01*
X0074352D02*
X0074682D01*
X0073844D02*
X00742D01*
X0072942D02*
X0073272D01*
X0080893Y0073712D02*
X0081794D01*
X0080169D02*
X0080626D01*
X0079495D02*
X00798D01*
X0078264D02*
X0079254D01*
X0076981D02*
X0077921D01*
X0075597D02*
X0076549D01*
X0075038D02*
X0075419D01*
X0074352D02*
X0074682D01*
X0073844D02*
X00742D01*
X0072955D02*
X0073272D01*
X008088Y0073725D02*
X0081807D01*
X0080169D02*
X0080626D01*
X0079495D02*
X00798D01*
X0078264D02*
X0079254D01*
X0076981D02*
X0077921D01*
X0075597D02*
X0076562D01*
X0075038D02*
X0075419D01*
X0074352D02*
X0074682D01*
X0073831D02*
X00742D01*
X0072955D02*
X0073285D01*
X0080867Y0073738D02*
X008182D01*
X0080156D02*
X0080626D01*
X0079495D02*
X00798D01*
X0078264D02*
X0079254D01*
X0076968D02*
X0077933D01*
X0075597D02*
X0076575D01*
X0075025D02*
X0075406D01*
X0074352D02*
X0074682D01*
X0073831D02*
X0074187D01*
X0072955D02*
X0073285D01*
X0080867Y007375D02*
X0081832D01*
X0080156D02*
X0080626D01*
X0079495D02*
X00798D01*
X0078264D02*
X0079254D01*
X0076955D02*
X0077946D01*
X0075597D02*
X0076587D01*
X0075025D02*
X0075406D01*
X0074352D02*
X0074682D01*
X0073831D02*
X0074187D01*
X0072955D02*
X0073285D01*
X0080854Y0073763D02*
X0081845D01*
X0080143D02*
X0080626D01*
X0079495D02*
X00798D01*
X0078264D02*
X0079254D01*
X0076955D02*
X0077946D01*
X0075597D02*
X00766D01*
X0075012D02*
X0075393D01*
X0074352D02*
X0074682D01*
X0073831D02*
X0074187D01*
X0072968D02*
X0073298D01*
X0080842Y0073776D02*
X0081845D01*
X0080143D02*
X0080626D01*
X0079495D02*
X00798D01*
X0078264D02*
X0079254D01*
X0076943D02*
X0077959D01*
X0075597D02*
X0076613D01*
X0075012D02*
X0075393D01*
X0074352D02*
X0074682D01*
X0073819D02*
X0074174D01*
X0072968D02*
X0073298D01*
X0080842Y0073788D02*
X0081858D01*
X0080131D02*
X0080626D01*
X0079495D02*
X00798D01*
X0078264D02*
X0079254D01*
X0076943D02*
X0077959D01*
X0075597D02*
X0076625D01*
X0075012D02*
X0075381D01*
X0074352D02*
X0074682D01*
X0073819D02*
X0074174D01*
X0072968D02*
X0073298D01*
X0080829Y0073801D02*
X0081858D01*
X0080131D02*
X0080626D01*
X0079495D02*
X00798D01*
X0078264D02*
X0079254D01*
X007754D02*
X0077971D01*
X0076943D02*
X00774D01*
X0075597D02*
X0076625D01*
X0075D02*
X0075381D01*
X0074352D02*
X0074682D01*
X0073819D02*
X0074174D01*
X007298D02*
X0073298D01*
X0080829Y0073814D02*
X008187D01*
X0080131D02*
X0080626D01*
X0079495D02*
X00798D01*
X0078264D02*
X0079254D01*
X0077578D02*
X0077971D01*
X007693D02*
X0077349D01*
X0075597D02*
X0076638D01*
X0075D02*
X0075368D01*
X0074352D02*
X0074682D01*
X0073806D02*
X0074161D01*
X007298D02*
X0073311D01*
X0081439Y0073826D02*
X0081883D01*
X0080816D02*
X0081273D01*
X0080118D02*
X0080626D01*
X0079495D02*
X00798D01*
X0078594D02*
X0078924D01*
X0077603D02*
X0077984D01*
X007693D02*
X0077324D01*
X0076092D02*
X0076651D01*
X0075597D02*
X0075927D01*
X0074987D02*
X0075368D01*
X0074352D02*
X0074682D01*
X0073806D02*
X0074161D01*
X007298D02*
X0073311D01*
X0081464Y0073839D02*
X0081883D01*
X0080816D02*
X0081235D01*
X0080118D02*
X0080626D01*
X0079495D02*
X00798D01*
X0078594D02*
X0078924D01*
X0077629D02*
X0077984D01*
X007693D02*
X0077311D01*
X0076155D02*
X0076651D01*
X0075597D02*
X0075927D01*
X0074987D02*
X0075355D01*
X0074352D02*
X0074682D01*
X0072993D02*
X0074161D01*
X0081489Y0073852D02*
X0081896D01*
X0080804D02*
X0081223D01*
X0080105D02*
X0080626D01*
X0079495D02*
X00798D01*
X0078594D02*
X0078924D01*
X0077641D02*
X0077997D01*
X0076917D02*
X0077286D01*
X0076193D02*
X0076663D01*
X0075597D02*
X0075927D01*
X0074974D02*
X0075355D01*
X0074352D02*
X0074682D01*
X0072993D02*
X0074149D01*
X0081515Y0073865D02*
X0081896D01*
X0080804D02*
X0081197D01*
X0080105D02*
X0080626D01*
X0079495D02*
X00798D01*
X0078594D02*
X0078924D01*
X0077654D02*
X0077997D01*
X0076917D02*
X0077286D01*
X0076232D02*
X0076676D01*
X0075597D02*
X0075927D01*
X0074974D02*
X0075343D01*
X0074352D02*
X0074682D01*
X0072993D02*
X0074149D01*
X0081527Y0073877D02*
X0081909D01*
X0080791D02*
X0081185D01*
X0080092D02*
X0080626D01*
X0079495D02*
X00798D01*
X0078594D02*
X0078924D01*
X0077654D02*
X0077997D01*
X0076917D02*
X0077273D01*
X0076244D02*
X0076676D01*
X0075597D02*
X0075927D01*
X0074962D02*
X0075343D01*
X0074352D02*
X0074682D01*
X0073006D02*
X0074149D01*
X008154Y007389D02*
X0081909D01*
X0080791D02*
X0081172D01*
X0080092D02*
X0080626D01*
X0079495D02*
X00798D01*
X0078594D02*
X0078924D01*
X0077667D02*
X007801D01*
X0076917D02*
X007726D01*
X007627D02*
X0076689D01*
X0075597D02*
X0075927D01*
X0074962D02*
X007533D01*
X0074352D02*
X0074682D01*
X0073006D02*
X0074149D01*
X0081553Y0073903D02*
X0081909D01*
X0080791D02*
X0081159D01*
X008008D02*
X0080626D01*
X0079495D02*
X00798D01*
X0078594D02*
X0078924D01*
X0077679D02*
X007801D01*
X0076905D02*
X007726D01*
X0076282D02*
X0076689D01*
X0075597D02*
X0075927D01*
X0074949D02*
X007533D01*
X0074352D02*
X0074682D01*
X0073006D02*
X0074136D01*
X0081553Y0073915D02*
X0081921D01*
X0080778D02*
X0081146D01*
X008008D02*
X0080626D01*
X0079495D02*
X00798D01*
X0078594D02*
X0078924D01*
X0077679D02*
X007801D01*
X0076905D02*
X0077248D01*
X0076308D02*
X0076701D01*
X0075597D02*
X0075927D01*
X0074949D02*
X0075317D01*
X0074352D02*
X0074682D01*
X0073006D02*
X0074136D01*
X0081566Y0073928D02*
X0081921D01*
X0080778D02*
X0081146D01*
X0080067D02*
X0080626D01*
X0079495D02*
X00798D01*
X0078594D02*
X0078924D01*
X0077679D02*
X007801D01*
X0076905D02*
X0077248D01*
X0076321D02*
X0076701D01*
X0075597D02*
X0075927D01*
X0074949D02*
X0075317D01*
X0074352D02*
X0074682D01*
X0073019D02*
X0074136D01*
X0081578Y0073941D02*
X0081934D01*
X0080778D02*
X0081134D01*
X0080067D02*
X0080626D01*
X0079495D02*
X00798D01*
X0078594D02*
X0078924D01*
X0077692D02*
X0078022D01*
X0076905D02*
X0077235D01*
X0076333D02*
X0076714D01*
X0075597D02*
X0075927D01*
X0074936D02*
X0075304D01*
X0074352D02*
X0074682D01*
X0073019D02*
X0074123D01*
X0081578Y0073953D02*
X0081934D01*
X0080766D02*
X0081134D01*
X0080054D02*
X0080626D01*
X0079495D02*
X00798D01*
X0078594D02*
X0078924D01*
X0077692D02*
X0078022D01*
X0076905D02*
X0077235D01*
X0076333D02*
X0076714D01*
X0075597D02*
X0075927D01*
X0074936D02*
X0075304D01*
X0074352D02*
X0074682D01*
X0073019D02*
X0074123D01*
X0081591Y0073966D02*
X0081934D01*
X0080766D02*
X0081121D01*
X0080054D02*
X0080626D01*
X0079495D02*
X00798D01*
X0078594D02*
X0078924D01*
X0077692D02*
X0078022D01*
X0076905D02*
X0077235D01*
X0076346D02*
X0076714D01*
X0075597D02*
X0075927D01*
X0074924D02*
X0075292D01*
X0074352D02*
X0074682D01*
X0073031D02*
X0074123D01*
X0081591Y0073979D02*
X0081947D01*
X0080766D02*
X0081121D01*
X0080042D02*
X0080626D01*
X0079495D02*
X00798D01*
X0078594D02*
X0078924D01*
X0077692D02*
X0078022D01*
X0076905D02*
X0077235D01*
X0076359D02*
X0076727D01*
X0075597D02*
X0075927D01*
X0074924D02*
X0075292D01*
X0074352D02*
X0074682D01*
X0073031D02*
X0074111D01*
X0081591Y0073992D02*
X0081947D01*
X0080766D02*
X0081121D01*
X0080042D02*
X0080626D01*
X0079495D02*
X00798D01*
X0078594D02*
X0078924D01*
X0077705D02*
X0078022D01*
X0076892D02*
X0077222D01*
X0076359D02*
X0076727D01*
X0075597D02*
X0075927D01*
X0074911D02*
X0075279D01*
X0074352D02*
X0074682D01*
X0073031D02*
X0074111D01*
X0081604Y0074004D02*
X0081947D01*
X0080753D02*
X0081108D01*
X0080042D02*
X0080626D01*
X0079495D02*
X00798D01*
X0078594D02*
X0078924D01*
X0077705D02*
X0078022D01*
X0076892D02*
X0077222D01*
X0076371D02*
X0076727D01*
X0075597D02*
X0075927D01*
X0074911D02*
X0075279D01*
X0074352D02*
X0074682D01*
X0073044D02*
X0074111D01*
X0081604Y0074017D02*
X0081947D01*
X0080753D02*
X0081108D01*
X0080029D02*
X0080626D01*
X0079495D02*
X00798D01*
X0078594D02*
X0078924D01*
X0077705D02*
X0078035D01*
X0076892D02*
X0077222D01*
X0076371D02*
X007674D01*
X0075597D02*
X0075927D01*
X0074898D02*
X0075266D01*
X0074352D02*
X0074682D01*
X0073044D02*
X0074111D01*
X0081604Y007403D02*
X0081959D01*
X0080753D02*
X0081108D01*
X0080029D02*
X0080626D01*
X0079495D02*
X00798D01*
X0078594D02*
X0078924D01*
X0077705D02*
X0078035D01*
X0076892D02*
X0077222D01*
X0076384D02*
X007674D01*
X0075597D02*
X0075927D01*
X0074898D02*
X0075266D01*
X0074352D02*
X0074682D01*
X0073044D02*
X0074098D01*
X0081616Y0074042D02*
X0081959D01*
X0080753D02*
X0081096D01*
X0080016D02*
X0080626D01*
X0079495D02*
X00798D01*
X0078594D02*
X0078924D01*
X0077705D02*
X0078035D01*
X0076892D02*
X0077222D01*
X0076384D02*
X007674D01*
X0075597D02*
X0075927D01*
X0074885D02*
X0075254D01*
X0074352D02*
X0074682D01*
X0073057D02*
X0074098D01*
X0081616Y0074055D02*
X0081959D01*
X0080753D02*
X0081096D01*
X0080016D02*
X0080626D01*
X0079495D02*
X00798D01*
X0078594D02*
X0078924D01*
X0077705D02*
X0078035D01*
X0076892D02*
X0077222D01*
X0076397D02*
X0076752D01*
X0075597D02*
X0075927D01*
X0074885D02*
X0075254D01*
X0074352D02*
X0074682D01*
X0073057D02*
X0074098D01*
X0081616Y0074068D02*
X0081959D01*
X008074D02*
X0081096D01*
X0080004D02*
X0080626D01*
X0079495D02*
X00798D01*
X0078594D02*
X0078924D01*
X0077705D02*
X0078035D01*
X0076892D02*
X0077222D01*
X0076397D02*
X0076752D01*
X0075597D02*
X0075927D01*
X0074873D02*
X0075241D01*
X0074352D02*
X0074682D01*
X0073057D02*
X0074085D01*
X0081616Y007408D02*
X0081959D01*
X008074D02*
X0081096D01*
X0080004D02*
X0080626D01*
X0079495D02*
X00798D01*
X0078594D02*
X0078924D01*
X0077705D02*
X0078035D01*
X0076892D02*
X0077222D01*
X0076397D02*
X0076752D01*
X0075597D02*
X0075927D01*
X007486D02*
X0075241D01*
X0074352D02*
X0074682D01*
X0073057D02*
X0074085D01*
X0081629Y0074093D02*
X0081972D01*
X008074D02*
X0081083D01*
X0079991D02*
X0080626D01*
X0079495D02*
X00798D01*
X0078594D02*
X0078924D01*
X0077705D02*
X0078035D01*
X0076892D02*
X0077222D01*
X0076409D02*
X0076752D01*
X0075597D02*
X0075927D01*
X0074847D02*
X0075228D01*
X0074352D02*
X0074682D01*
X0073069D02*
X0074085D01*
X0081629Y0074106D02*
X0081972D01*
X008074D02*
X0081083D01*
X0080334D02*
X0080626D01*
X0079991D02*
X0080321D01*
X0079495D02*
X00798D01*
X0078594D02*
X0078924D01*
X0077705D02*
X0078035D01*
X0076892D02*
X0077222D01*
X0076409D02*
X0076752D01*
X0075597D02*
X0075927D01*
X0074835D02*
X0075228D01*
X0074352D02*
X0074682D01*
X007373D02*
X0074073D01*
X0073069D02*
X0073399D01*
X0081629Y0074119D02*
X0081972D01*
X008074D02*
X0081083D01*
X0080334D02*
X0080626D01*
X0079978D02*
X0080321D01*
X0079495D02*
X00798D01*
X0078594D02*
X0078924D01*
X0077705D02*
X0078035D01*
X0076892D02*
X0077222D01*
X0076409D02*
X0076765D01*
X0075597D02*
X0075927D01*
X0074822D02*
X0075216D01*
X0074352D02*
X0074682D01*
X007373D02*
X0074073D01*
X0073069D02*
X0073399D01*
X0081629Y0074131D02*
X0081972D01*
X008074D02*
X0081083D01*
X0080334D02*
X0080626D01*
X0079978D02*
X0080308D01*
X0079495D02*
X00798D01*
X0078594D02*
X0078924D01*
X0077705D02*
X0078035D01*
X0076892D02*
X0077222D01*
X0076409D02*
X0076765D01*
X0075597D02*
X0075927D01*
X0074797D02*
X0075203D01*
X0074352D02*
X0074682D01*
X0073717D02*
X0074073D01*
X0073082D02*
X0073399D01*
X0081629Y0074144D02*
X0081972D01*
X008074D02*
X0081083D01*
X0080334D02*
X0080626D01*
X0079965D02*
X0080308D01*
X0079495D02*
X00798D01*
X0078594D02*
X0078924D01*
X0077705D02*
X0078035D01*
X0076892D02*
X0077222D01*
X0076409D02*
X0076765D01*
X0075597D02*
X0075927D01*
X0074771D02*
X0075203D01*
X0074352D02*
X0074682D01*
X0073717D02*
X007406D01*
X0073082D02*
X0073412D01*
X0081629Y0074157D02*
X0081972D01*
X008074D02*
X0081083D01*
X0080334D02*
X0080626D01*
X0079965D02*
X0080296D01*
X0079495D02*
X00798D01*
X0078594D02*
X0078924D01*
X0077705D02*
X0078035D01*
X0076892D02*
X0077222D01*
X0076422D02*
X0076765D01*
X0075597D02*
X0075927D01*
X0074352D02*
X007519D01*
X0073717D02*
X007406D01*
X0073082D02*
X0073412D01*
X0081629Y0074169D02*
X0081972D01*
X0080727D02*
X0081083D01*
X0080334D02*
X0080626D01*
X0079965D02*
X0080296D01*
X0079495D02*
X00798D01*
X0078594D02*
X0078924D01*
X0077705D02*
X0078035D01*
X0076892D02*
X0077222D01*
X0076422D02*
X0076765D01*
X0075597D02*
X0075927D01*
X0074352D02*
X007519D01*
X0073704D02*
X007406D01*
X0073095D02*
X0073412D01*
X0081629Y0074182D02*
X0081972D01*
X0080727D02*
X008107D01*
X0080334D02*
X0080626D01*
X0079953D02*
X0080296D01*
X0079495D02*
X00798D01*
X0078594D02*
X0078924D01*
X0077705D02*
X0078035D01*
X0076892D02*
X0077222D01*
X0076422D02*
X0076765D01*
X0075597D02*
X0075927D01*
X0074352D02*
X0075177D01*
X0073704D02*
X007406D01*
X0073095D02*
X0073412D01*
X0081642Y0074195D02*
X0081972D01*
X0080727D02*
X008107D01*
X0080334D02*
X0080626D01*
X0079953D02*
X0080283D01*
X0079495D02*
X00798D01*
X0078594D02*
X0078924D01*
X0077705D02*
X0078035D01*
X0076892D02*
X0077222D01*
X0076422D02*
X0076765D01*
X0075597D02*
X0075927D01*
X0074352D02*
X0075165D01*
X0073704D02*
X0074047D01*
X0073095D02*
X0073425D01*
X0081642Y0074207D02*
X0081972D01*
X0080727D02*
X008107D01*
X0080334D02*
X0080626D01*
X007994D02*
X0080283D01*
X0079495D02*
X00798D01*
X0078594D02*
X0078924D01*
X0077705D02*
X0078035D01*
X0076892D02*
X0077222D01*
X0076422D02*
X0076765D01*
X0075597D02*
X0075927D01*
X0074352D02*
X0075152D01*
X0073692D02*
X0074047D01*
X0073107D02*
X0073425D01*
X0081642Y007422D02*
X0081972D01*
X0080727D02*
X008107D01*
X0080334D02*
X0080626D01*
X007994D02*
X008027D01*
X0079495D02*
X00798D01*
X0078594D02*
X0078924D01*
X0077705D02*
X0078035D01*
X0076892D02*
X0077222D01*
X0076422D02*
X0076778D01*
X0075597D02*
X0075927D01*
X0074352D02*
X0075139D01*
X0073692D02*
X0074047D01*
X0073107D02*
X0073425D01*
X0081642Y0074233D02*
X0081972D01*
X0080727D02*
X008107D01*
X0080334D02*
X0080626D01*
X0079927D02*
X008027D01*
X0079495D02*
X00798D01*
X0078594D02*
X0078924D01*
X0077705D02*
X0078035D01*
X0076892D02*
X0077222D01*
X0076422D02*
X0076778D01*
X0075597D02*
X0075927D01*
X0074352D02*
X0075127D01*
X0073692D02*
X0074035D01*
X0073107D02*
X0073438D01*
X0081642Y0074246D02*
X0081972D01*
X0080727D02*
X008107D01*
X0080334D02*
X0080626D01*
X0079927D02*
X0080257D01*
X0079495D02*
X00798D01*
X0078594D02*
X0078924D01*
X0077705D02*
X0078035D01*
X0076892D02*
X0077222D01*
X0076422D02*
X0076778D01*
X0075597D02*
X0075927D01*
X0074352D02*
X0075114D01*
X0073692D02*
X0074035D01*
X0073107D02*
X0073438D01*
X0081642Y0074258D02*
X0081972D01*
X0080727D02*
X008107D01*
X0080334D02*
X0080626D01*
X0079915D02*
X0080257D01*
X0079495D02*
X00798D01*
X0078594D02*
X0078924D01*
X0077705D02*
X0078035D01*
X0076892D02*
X0077222D01*
X0076422D02*
X0076778D01*
X0075597D02*
X0075927D01*
X0074352D02*
X0075114D01*
X0073679D02*
X0074035D01*
X007312D02*
X0073438D01*
X0081642Y0074271D02*
X0081972D01*
X0080727D02*
X008107D01*
X0080334D02*
X0080626D01*
X0079915D02*
X0080245D01*
X0079495D02*
X00798D01*
X0078594D02*
X0078924D01*
X0077705D02*
X0078035D01*
X0076892D02*
X0077222D01*
X0076422D02*
X0076778D01*
X0075597D02*
X0075927D01*
X0074352D02*
X0075139D01*
X0073679D02*
X0074022D01*
X007312D02*
X0073438D01*
X0081642Y0074284D02*
X0081972D01*
X0080727D02*
X008107D01*
X0080334D02*
X0080626D01*
X0079902D02*
X0080245D01*
X0079495D02*
X00798D01*
X0078594D02*
X0078924D01*
X0077705D02*
X0078035D01*
X0076892D02*
X0077222D01*
X0076422D02*
X0076778D01*
X0075597D02*
X0075927D01*
X0074352D02*
X0075177D01*
X0073679D02*
X0074022D01*
X007312D02*
X007345D01*
X0081642Y0074296D02*
X0081972D01*
X0080727D02*
X008107D01*
X0080334D02*
X0080626D01*
X0079902D02*
X0080232D01*
X0079495D02*
X00798D01*
X0078594D02*
X0078924D01*
X0077705D02*
X0078035D01*
X0076892D02*
X0077222D01*
X0076435D02*
X0076778D01*
X0075597D02*
X0075927D01*
X0074352D02*
X0075203D01*
X0073666D02*
X0074022D01*
X0073133D02*
X007345D01*
X0081642Y0074309D02*
X0081972D01*
X0080727D02*
X008107D01*
X0080334D02*
X0080626D01*
X0079889D02*
X0080232D01*
X0079495D02*
X00798D01*
X0078594D02*
X0078924D01*
X0077705D02*
X0078035D01*
X0076892D02*
X0077222D01*
X0076422D02*
X0076778D01*
X0075597D02*
X0075927D01*
X0074352D02*
X0075216D01*
X0073666D02*
X0074009D01*
X0073133D02*
X007345D01*
X0081642Y0074322D02*
X0081972D01*
X0080727D02*
X008107D01*
X0080334D02*
X0080626D01*
X0079889D02*
X0080219D01*
X0079495D02*
X00798D01*
X0078594D02*
X0078924D01*
X0077705D02*
X0078035D01*
X0076892D02*
X0077222D01*
X0076422D02*
X0076778D01*
X0075597D02*
X0075927D01*
X0074352D02*
X0075241D01*
X0073666D02*
X0074009D01*
X0073133D02*
X0073463D01*
X0081642Y0074335D02*
X0081972D01*
X0080727D02*
X008107D01*
X0080334D02*
X0080626D01*
X0079889D02*
X0080219D01*
X0079495D02*
X00798D01*
X0078594D02*
X0078924D01*
X0077705D02*
X0078035D01*
X0076892D02*
X0077222D01*
X0076422D02*
X0076778D01*
X0075597D02*
X0075927D01*
X0074352D02*
X0075254D01*
X0073666D02*
X0074009D01*
X0073146D02*
X0073463D01*
X0081642Y0074347D02*
X0081972D01*
X0080727D02*
X008107D01*
X0080334D02*
X0080626D01*
X0079877D02*
X0080207D01*
X0079495D02*
X00798D01*
X0078594D02*
X0078924D01*
X0077705D02*
X0078035D01*
X0076892D02*
X0077222D01*
X0076422D02*
X0076778D01*
X0075597D02*
X0075927D01*
X0074352D02*
X0075266D01*
X0073654D02*
X0074009D01*
X0073146D02*
X0073463D01*
X0081642Y007436D02*
X0081972D01*
X0080727D02*
X008107D01*
X0080334D02*
X0080626D01*
X0079877D02*
X0080207D01*
X0079495D02*
X00798D01*
X0078594D02*
X0078924D01*
X0077705D02*
X0078035D01*
X0076892D02*
X0077222D01*
X0076422D02*
X0076778D01*
X0075597D02*
X0075927D01*
X0074352D02*
X0075279D01*
X0073654D02*
X0073996D01*
X0073146D02*
X0073463D01*
X0081642Y0074373D02*
X0081972D01*
X0080727D02*
X008107D01*
X0080334D02*
X0080626D01*
X0079864D02*
X0080194D01*
X0079495D02*
X00798D01*
X0078594D02*
X0078924D01*
X0077705D02*
X0078035D01*
X0076892D02*
X0077222D01*
X0076422D02*
X0076778D01*
X0075597D02*
X0075927D01*
X0074352D02*
X0075292D01*
X0073654D02*
X0073996D01*
X0073158D02*
X0073476D01*
X0081642Y0074385D02*
X0081972D01*
X0080727D02*
X008107D01*
X0080334D02*
X0080626D01*
X0079864D02*
X0080194D01*
X0079495D02*
X00798D01*
X0078594D02*
X0078924D01*
X0077705D02*
X0078035D01*
X0076892D02*
X0077222D01*
X0076422D02*
X0076778D01*
X0075597D02*
X0075927D01*
X0074352D02*
X0075304D01*
X0073641D02*
X0073996D01*
X0073158D02*
X0073476D01*
X0081642Y0074398D02*
X0081972D01*
X0080727D02*
X008107D01*
X0080334D02*
X0080626D01*
X0079851D02*
X0080194D01*
X0079495D02*
X00798D01*
X0078594D02*
X0078924D01*
X0077705D02*
X0078035D01*
X0076892D02*
X0077222D01*
X0076422D02*
X0076778D01*
X0075597D02*
X0075927D01*
X0074352D02*
X0075317D01*
X0073641D02*
X0073984D01*
X0073158D02*
X0073476D01*
X0081629Y0074411D02*
X0081972D01*
X0080727D02*
X008107D01*
X0080334D02*
X0080626D01*
X0079851D02*
X0080181D01*
X0079495D02*
X00798D01*
X0078594D02*
X0078924D01*
X0077705D02*
X0078035D01*
X0076892D02*
X0077222D01*
X0076422D02*
X0076778D01*
X0075597D02*
X0075927D01*
X0074809D02*
X0075317D01*
X0074352D02*
X0074682D01*
X0073641D02*
X0073984D01*
X0073158D02*
X0073488D01*
X0081629Y0074423D02*
X0081972D01*
X008074D02*
X0081083D01*
X0080334D02*
X0080626D01*
X0079838D02*
X0080181D01*
X0079495D02*
X00798D01*
X0078594D02*
X0078924D01*
X0077705D02*
X0078035D01*
X0076892D02*
X0077222D01*
X0076422D02*
X0076778D01*
X0075597D02*
X0075927D01*
X0074885D02*
X007533D01*
X0074352D02*
X0074682D01*
X0073641D02*
X0073984D01*
X0073171D02*
X0073488D01*
X0081629Y0074436D02*
X0081972D01*
X008074D02*
X0081083D01*
X0080334D02*
X0080626D01*
X0079838D02*
X0080169D01*
X0079495D02*
X00798D01*
X0078594D02*
X0078924D01*
X0077705D02*
X0078035D01*
X0076892D02*
X0077222D01*
X0076422D02*
X0076765D01*
X0075597D02*
X0075927D01*
X0074924D02*
X0075343D01*
X0074352D02*
X0074682D01*
X0073628D02*
X0073971D01*
X0073171D02*
X0073488D01*
X0081629Y0074449D02*
X0081972D01*
X008074D02*
X0081083D01*
X0080334D02*
X0080626D01*
X0079826D02*
X0080169D01*
X0079495D02*
X00798D01*
X0078594D02*
X0078924D01*
X0077705D02*
X0078035D01*
X0076892D02*
X0077222D01*
X0076422D02*
X0076765D01*
X0075597D02*
X0075927D01*
X0074949D02*
X0075343D01*
X0074352D02*
X0074682D01*
X0073628D02*
X0073971D01*
X0073171D02*
X0073501D01*
X0081629Y0074462D02*
X0081972D01*
X008074D02*
X0081083D01*
X0080334D02*
X0080626D01*
X0079826D02*
X0080156D01*
X0079495D02*
X00798D01*
X0078594D02*
X0078924D01*
X0077705D02*
X0078035D01*
X0076892D02*
X0077222D01*
X0076422D02*
X0076765D01*
X0075597D02*
X0075927D01*
X0074974D02*
X0075343D01*
X0074352D02*
X0074682D01*
X0073628D02*
X0073971D01*
X0073184D02*
X0073501D01*
X0081629Y0074474D02*
X0081972D01*
X008074D02*
X0081083D01*
X0080334D02*
X0080626D01*
X0079813D02*
X0080156D01*
X0079495D02*
X00798D01*
X0078594D02*
X0078924D01*
X0077705D02*
X0078035D01*
X0076892D02*
X0077222D01*
X0076409D02*
X0076765D01*
X0075597D02*
X0075927D01*
X0074987D02*
X0075355D01*
X0074352D02*
X0074682D01*
X0073615D02*
X0073958D01*
X0073184D02*
X0073501D01*
X0081629Y0074487D02*
X0081972D01*
X008074D02*
X0081083D01*
X0080334D02*
X0080626D01*
X0079813D02*
X0080143D01*
X0079495D02*
X00798D01*
X0078594D02*
X0078924D01*
X0077705D02*
X0078035D01*
X0076892D02*
X0077222D01*
X0076409D02*
X0076765D01*
X0075597D02*
X0075927D01*
X0075D02*
X0075355D01*
X0074352D02*
X0074682D01*
X0073615D02*
X0073958D01*
X0073184D02*
X0073501D01*
X0081629Y00745D02*
X0081972D01*
X008074D02*
X0081083D01*
X0080334D02*
X0080626D01*
X0079813D02*
X0080143D01*
X0079495D02*
X00798D01*
X0078594D02*
X0078924D01*
X0077705D02*
X0078035D01*
X0076892D02*
X0077222D01*
X0076409D02*
X0076765D01*
X0075597D02*
X0075927D01*
X0075012D02*
X0075368D01*
X0074352D02*
X0074682D01*
X0073615D02*
X0073958D01*
X0073196D02*
X0073514D01*
X0081616Y0074512D02*
X0081972D01*
X008074D02*
X0081083D01*
X0080334D02*
X0080626D01*
X0079495D02*
X0080131D01*
X0078594D02*
X0078924D01*
X0077705D02*
X0078035D01*
X0076892D02*
X0077222D01*
X0076409D02*
X0076765D01*
X0075597D02*
X0075927D01*
X0075012D02*
X0075368D01*
X0074352D02*
X0074682D01*
X0073615D02*
X0073958D01*
X0073196D02*
X0073514D01*
X0081616Y0074525D02*
X0081972D01*
X0080753D02*
X0081096D01*
X0080334D02*
X0080626D01*
X0079495D02*
X0080131D01*
X0078594D02*
X0078924D01*
X0077705D02*
X0078035D01*
X0076892D02*
X0077222D01*
X0076409D02*
X0076765D01*
X0075597D02*
X0075927D01*
X0075025D02*
X0075368D01*
X0074352D02*
X0074682D01*
X0073603D02*
X0073946D01*
X0073196D02*
X0073514D01*
X0081616Y0074538D02*
X0081959D01*
X0080753D02*
X0081096D01*
X0080334D02*
X0080626D01*
X0079495D02*
X0080118D01*
X0078594D02*
X0078924D01*
X0077705D02*
X0078035D01*
X0076892D02*
X0077222D01*
X0076397D02*
X0076752D01*
X0075597D02*
X0075927D01*
X0075025D02*
X0075368D01*
X0074352D02*
X0074682D01*
X0073603D02*
X0073946D01*
X0073196D02*
X0073526D01*
X0081616Y007455D02*
X0081959D01*
X0080753D02*
X0081096D01*
X0080334D02*
X0080626D01*
X0079495D02*
X0080118D01*
X0078594D02*
X0078924D01*
X0077705D02*
X0078035D01*
X0076892D02*
X0077222D01*
X0076397D02*
X0076752D01*
X0075597D02*
X0075927D01*
X0075025D02*
X0075368D01*
X0074352D02*
X0074682D01*
X0073603D02*
X0073946D01*
X0073209D02*
X0073526D01*
X0081604Y0074563D02*
X0081959D01*
X0080753D02*
X0081096D01*
X0080334D02*
X0080626D01*
X0079495D02*
X0080105D01*
X0078594D02*
X0078924D01*
X0077705D02*
X0078035D01*
X0076892D02*
X0077222D01*
X0076397D02*
X0076752D01*
X0075597D02*
X0075927D01*
X0075038D02*
X0075368D01*
X0074352D02*
X0074682D01*
X007359D02*
X0073933D01*
X0073209D02*
X0073526D01*
X0081604Y0074576D02*
X0081959D01*
X0080753D02*
X0081108D01*
X0080334D02*
X0080626D01*
X0079495D02*
X0080105D01*
X0078594D02*
X0078924D01*
X0077705D02*
X0078035D01*
X0076892D02*
X0077222D01*
X0076384D02*
X0076752D01*
X0075597D02*
X0075927D01*
X0075038D02*
X0075381D01*
X0074352D02*
X0074682D01*
X007359D02*
X0073933D01*
X0073209D02*
X0073526D01*
X0081604Y0074589D02*
X0081959D01*
X0080766D02*
X0081108D01*
X0080334D02*
X0080626D01*
X0079495D02*
X0080092D01*
X0078594D02*
X0078924D01*
X0077705D02*
X0078035D01*
X0076892D02*
X0077222D01*
X0076384D02*
X0076752D01*
X0075597D02*
X0075927D01*
X0075038D02*
X0075381D01*
X0074352D02*
X0074682D01*
X007359D02*
X0073933D01*
X0073222D02*
X0073539D01*
X0081604Y0074601D02*
X0081947D01*
X0080766D02*
X0081108D01*
X0080334D02*
X0080626D01*
X0079495D02*
X0080092D01*
X0078594D02*
X0078924D01*
X0077705D02*
X0078035D01*
X0076892D02*
X0077222D01*
X0076371D02*
X007674D01*
X0075597D02*
X0075927D01*
X0075038D02*
X0075381D01*
X0074352D02*
X0074682D01*
X007359D02*
X007392D01*
X0073222D02*
X0073539D01*
X0081591Y0074614D02*
X0081947D01*
X0080766D02*
X0081121D01*
X0080334D02*
X0080626D01*
X0079495D02*
X008008D01*
X0078594D02*
X0078924D01*
X0077705D02*
X0078035D01*
X0076892D02*
X0077222D01*
X0076371D02*
X007674D01*
X0075597D02*
X0075927D01*
X0075038D02*
X0075381D01*
X0074352D02*
X0074682D01*
X0073577D02*
X007392D01*
X0073222D02*
X0073539D01*
X0081591Y0074627D02*
X0081947D01*
X0080778D02*
X0081121D01*
X0080334D02*
X0080626D01*
X0079495D02*
X008008D01*
X0078594D02*
X0078924D01*
X0077705D02*
X0078035D01*
X0076892D02*
X0077222D01*
X0076359D02*
X007674D01*
X0075597D02*
X0075927D01*
X0075038D02*
X0075381D01*
X0074352D02*
X0074682D01*
X0073577D02*
X007392D01*
X0073234D02*
X0073552D01*
X0081578Y0074639D02*
X0081947D01*
X0080778D02*
X0081134D01*
X0080334D02*
X0080626D01*
X0079495D02*
X008008D01*
X0078594D02*
X0078924D01*
X0077705D02*
X0078035D01*
X0076892D02*
X0077222D01*
X0076359D02*
X007674D01*
X0075597D02*
X0075927D01*
X0075038D02*
X0075381D01*
X0074352D02*
X0074682D01*
X0073577D02*
X007392D01*
X0073234D02*
X0073552D01*
X0081578Y0074652D02*
X0081934D01*
X0080778D02*
X0081134D01*
X0080334D02*
X0080626D01*
X0079495D02*
X0080067D01*
X0078594D02*
X0078924D01*
X0077705D02*
X0078035D01*
X0076892D02*
X0077222D01*
X0076346D02*
X0076727D01*
X0075597D02*
X0075927D01*
X0075025D02*
X0075381D01*
X0074352D02*
X0074682D01*
X0073565D02*
X0073908D01*
X0073234D02*
X0073552D01*
X0081566Y0074665D02*
X0081934D01*
X0080791D02*
X0081146D01*
X0080334D02*
X0080626D01*
X0079495D02*
X0080067D01*
X0078594D02*
X0078924D01*
X0077705D02*
X0078035D01*
X0076892D02*
X0077222D01*
X0076333D02*
X0076727D01*
X0075597D02*
X0075927D01*
X0075025D02*
X0075381D01*
X0074352D02*
X0074682D01*
X0073247D02*
X0073908D01*
X0081566Y0074677D02*
X0081934D01*
X0080791D02*
X0081146D01*
X0080334D02*
X0080626D01*
X0079495D02*
X0080054D01*
X0078594D02*
X0078924D01*
X0077705D02*
X0078035D01*
X0076892D02*
X0077222D01*
X0076321D02*
X0076714D01*
X0075597D02*
X0075927D01*
X0075025D02*
X0075381D01*
X0074352D02*
X0074682D01*
X0073247D02*
X0073908D01*
X0081553Y007469D02*
X0081921D01*
X0080791D02*
X0081159D01*
X0080334D02*
X0080626D01*
X0079495D02*
X0080054D01*
X0078594D02*
X0078924D01*
X0077705D02*
X0078035D01*
X0076892D02*
X0077222D01*
X0076308D02*
X0076714D01*
X0075597D02*
X0075927D01*
X0075012D02*
X0075368D01*
X0074352D02*
X0074682D01*
X0073247D02*
X0073895D01*
X008154Y0074703D02*
X0081921D01*
X0080804D02*
X0081172D01*
X0080334D02*
X0080626D01*
X0079495D02*
X0080042D01*
X0078594D02*
X0078924D01*
X0077705D02*
X0078035D01*
X0076892D02*
X0077222D01*
X0076295D02*
X0076714D01*
X0075597D02*
X0075927D01*
X0075D02*
X0075368D01*
X0074352D02*
X0074682D01*
X0073247D02*
X0073895D01*
X0081527Y0074715D02*
X0081921D01*
X0080804D02*
X0081185D01*
X0080334D02*
X0080626D01*
X0079495D02*
X0080042D01*
X0078594D02*
X0078924D01*
X0077705D02*
X0078035D01*
X0076892D02*
X0077222D01*
X0076282D02*
X0076701D01*
X0075597D02*
X0075927D01*
X0075D02*
X0075368D01*
X0074352D02*
X0074682D01*
X007326D02*
X0073895D01*
X0081515Y0074728D02*
X0081909D01*
X0080816D02*
X0081197D01*
X0080334D02*
X0080626D01*
X0079495D02*
X0080029D01*
X0078594D02*
X0078924D01*
X0077705D02*
X0078035D01*
X0076892D02*
X0077222D01*
X0076257D02*
X0076701D01*
X0075597D02*
X0075927D01*
X0074974D02*
X0075368D01*
X0074352D02*
X0074682D01*
X007326D02*
X0073882D01*
X0081502Y0074741D02*
X0081909D01*
X0080816D02*
X008121D01*
X0080334D02*
X0080626D01*
X0079495D02*
X0080029D01*
X0078594D02*
X0078924D01*
X0077705D02*
X0078035D01*
X0076892D02*
X0077222D01*
X0076232D02*
X0076689D01*
X0075597D02*
X0075927D01*
X0074962D02*
X0075368D01*
X0074352D02*
X0074682D01*
X007326D02*
X0073882D01*
X0081477Y0074754D02*
X0081896D01*
X0080829D02*
X0081235D01*
X0080334D02*
X0080626D01*
X0079495D02*
X0080016D01*
X0078594D02*
X0078924D01*
X0077705D02*
X0078035D01*
X0076892D02*
X0077222D01*
X0076193D02*
X0076689D01*
X0075597D02*
X0075927D01*
X0074936D02*
X0075368D01*
X0074352D02*
X0074682D01*
X0073272D02*
X0073882D01*
X0081451Y0074766D02*
X0081896D01*
X0080829D02*
X0081261D01*
X0080334D02*
X0080626D01*
X0079495D02*
X0080016D01*
X0078594D02*
X0078924D01*
X0077705D02*
X0078035D01*
X0076892D02*
X0077222D01*
X0076143D02*
X0076676D01*
X0075597D02*
X0075927D01*
X0074885D02*
X0075355D01*
X0074352D02*
X0074682D01*
X0073272D02*
X0073869D01*
X0081388Y0074779D02*
X0081883D01*
X0080842D02*
X0081324D01*
X0080334D02*
X0080626D01*
X0079495D02*
X0080004D01*
X0078594D02*
X0078924D01*
X0077705D02*
X0078035D01*
X0076892D02*
X0077222D01*
X0075597D02*
X0076676D01*
X0074352D02*
X0075355D01*
X0073272D02*
X0073869D01*
X0080842Y0074792D02*
X0081883D01*
X0080334D02*
X0080626D01*
X0079495D02*
X0080004D01*
X0078264D02*
X0079254D01*
X0077705D02*
X0078035D01*
X0076892D02*
X0077222D01*
X0075597D02*
X0076663D01*
X0074352D02*
X0075355D01*
X0073285D02*
X0073869D01*
X0080854Y0074804D02*
X008187D01*
X0080334D02*
X0080626D01*
X0079495D02*
X0079991D01*
X0078264D02*
X0079254D01*
X0077705D02*
X0078035D01*
X0076892D02*
X0077222D01*
X0075597D02*
X0076651D01*
X0074352D02*
X0075343D01*
X0073285D02*
X0073869D01*
X0080854Y0074817D02*
X008187D01*
X0080334D02*
X0080626D01*
X0079495D02*
X0079991D01*
X0078264D02*
X0079254D01*
X0077705D02*
X0078035D01*
X0076892D02*
X0077222D01*
X0075597D02*
X0076651D01*
X0074352D02*
X0075343D01*
X0073285D02*
X0073857D01*
X0080867Y007483D02*
X0081858D01*
X0080334D02*
X0080626D01*
X0079495D02*
X0079978D01*
X0078264D02*
X0079254D01*
X0077705D02*
X0078035D01*
X0076892D02*
X0077222D01*
X0075597D02*
X0076638D01*
X0074352D02*
X007533D01*
X0073298D02*
X0073857D01*
X008088Y0074842D02*
X0081858D01*
X0080334D02*
X0080626D01*
X0079495D02*
X0079978D01*
X0078264D02*
X0079254D01*
X0077705D02*
X0078035D01*
X0076892D02*
X0077222D01*
X0075597D02*
X0076625D01*
X0074352D02*
X007533D01*
X0073298D02*
X0073857D01*
X0080893Y0074855D02*
X0081845D01*
X0080334D02*
X0080626D01*
X0079495D02*
X0079978D01*
X0078264D02*
X0079254D01*
X0077705D02*
X0078035D01*
X0076892D02*
X0077222D01*
X0075597D02*
X0076613D01*
X0074352D02*
X0075317D01*
X0073298D02*
X0073844D01*
X0080893Y0074868D02*
X0081832D01*
X0080334D02*
X0080626D01*
X0079495D02*
X0079965D01*
X0078264D02*
X0079254D01*
X0077705D02*
X0078035D01*
X0076892D02*
X0077222D01*
X0075597D02*
X00766D01*
X0074352D02*
X0075304D01*
X0073298D02*
X0073844D01*
X0080905Y0074881D02*
X008182D01*
X0080334D02*
X0080626D01*
X0079495D02*
X0079965D01*
X0078264D02*
X0079254D01*
X0077705D02*
X0078035D01*
X0076892D02*
X0077222D01*
X0075597D02*
X0076587D01*
X0074352D02*
X0075304D01*
X0073311D02*
X0073844D01*
X0080918Y0074893D02*
X0081807D01*
X0080334D02*
X0080626D01*
X0079495D02*
X0079953D01*
X0078264D02*
X0079254D01*
X0077705D02*
X0078035D01*
X0076892D02*
X0077222D01*
X0075597D02*
X0076575D01*
X0074352D02*
X0075292D01*
X0073311D02*
X0073831D01*
X0080931Y0074906D02*
X0081807D01*
X0080334D02*
X0080626D01*
X0079495D02*
X0079953D01*
X0078264D02*
X0079254D01*
X0077705D02*
X0078035D01*
X0076892D02*
X0077222D01*
X0075597D02*
X0076562D01*
X0074352D02*
X0075279D01*
X0073311D02*
X0073831D01*
X0080943Y0074919D02*
X0081794D01*
X0080334D02*
X0080626D01*
X0079495D02*
X007994D01*
X0078264D02*
X0079254D01*
X0077705D02*
X0078035D01*
X0076892D02*
X0077222D01*
X0075597D02*
X0076549D01*
X0074352D02*
X0075266D01*
X0073323D02*
X0073831D01*
X0080956Y0074931D02*
X0081782D01*
X0080334D02*
X0080626D01*
X0079495D02*
X007994D01*
X0078264D02*
X0079254D01*
X0077705D02*
X0078035D01*
X0076892D02*
X0077222D01*
X0075597D02*
X0076524D01*
X0074352D02*
X0075254D01*
X0073323D02*
X0073819D01*
X0080981Y0074944D02*
X0081756D01*
X0080334D02*
X0080626D01*
X0079495D02*
X0079927D01*
X0078264D02*
X0079254D01*
X0077705D02*
X0078035D01*
X0076892D02*
X0077222D01*
X0075597D02*
X0076511D01*
X0074352D02*
X0075241D01*
X0073323D02*
X0073819D01*
X0080994Y0074957D02*
X0081743D01*
X0080334D02*
X0080626D01*
X0079495D02*
X0079927D01*
X0078264D02*
X0079254D01*
X0077705D02*
X0078035D01*
X0076892D02*
X0077222D01*
X0075597D02*
X0076486D01*
X0074352D02*
X0075216D01*
X0073336D02*
X0073819D01*
X0081007Y0074969D02*
X0081731D01*
X0080334D02*
X0080626D01*
X0079495D02*
X0079915D01*
X0078264D02*
X0079254D01*
X0077705D02*
X0078035D01*
X0076892D02*
X0077222D01*
X0075597D02*
X007646D01*
X0074352D02*
X0075203D01*
X0073336D02*
X0073819D01*
X0081032Y0074982D02*
X0081705D01*
X0080334D02*
X0080626D01*
X0079495D02*
X0079915D01*
X0078264D02*
X0079254D01*
X0077705D02*
X0078035D01*
X0076892D02*
X0077222D01*
X0075597D02*
X0076435D01*
X0074352D02*
X0075177D01*
X0073336D02*
X0073806D01*
X0081045Y0074995D02*
X0081693D01*
X0080334D02*
X0080626D01*
X0079495D02*
X0079902D01*
X0078264D02*
X0079254D01*
X0077705D02*
X0078035D01*
X0076892D02*
X0077222D01*
X0075597D02*
X0076397D01*
X0074352D02*
X0075139D01*
X0073349D02*
X0073806D01*
X008107Y0075008D02*
X0081667D01*
X0080334D02*
X0080626D01*
X0079495D02*
X0079902D01*
X0078264D02*
X0079254D01*
X0077705D02*
X0078035D01*
X0076892D02*
X0077222D01*
X0075597D02*
X0076359D01*
X0074352D02*
X0075114D01*
X0073349D02*
X0073806D01*
X0081108Y007502D02*
X0081642D01*
X0080334D02*
X0080626D01*
X0079495D02*
X0079889D01*
X0078264D02*
X0079254D01*
X0077705D02*
X0078035D01*
X0076892D02*
X0077222D01*
X0075597D02*
X0076321D01*
X0074352D02*
X0075063D01*
X0073349D02*
X0073793D01*
X0081134Y0075033D02*
X0081604D01*
X0080334D02*
X0080626D01*
X0079495D02*
X0079889D01*
X0078264D02*
X0079254D01*
X0077705D02*
X0078035D01*
X0076892D02*
X0077222D01*
X0075597D02*
X0076244D01*
X0074352D02*
X0075D01*
X0073349D02*
X0073793D01*
X0081172Y0075046D02*
X0081566D01*
X0080334D02*
X0080626D01*
X0079495D02*
X0079877D01*
X0078264D02*
X0079254D01*
X0077705D02*
X0078035D01*
X0076892D02*
X0077222D01*
X0075597D02*
X0076066D01*
X0074352D02*
X0074822D01*
X0073361D02*
X0073793D01*
X0081223Y0075058D02*
X0081515D01*
X0079508Y0075427D02*
X0079724D01*
X007505D02*
X0075266D01*
X0079343Y0075439D02*
X0079978D01*
X0074797D02*
X0075432D01*
X0079242Y0075452D02*
X008008D01*
X0074695D02*
X0075533D01*
X0079165Y0075465D02*
X0080156D01*
X0074619D02*
X0075609D01*
X0079115Y0075478D02*
X0080219D01*
X0074555D02*
X007566D01*
X0079064Y007549D02*
X008027D01*
X0074504D02*
X0075711D01*
X0079Y0075503D02*
X0080321D01*
X0074454D02*
X0075774D01*
X0078962Y0075516D02*
X0080372D01*
X0074403D02*
X0075812D01*
X0078924Y0075528D02*
X0080423D01*
X0074352D02*
X0075851D01*
X0078886Y0075541D02*
X0080461D01*
X0074314D02*
X0075889D01*
X0078848Y0075554D02*
X0080499D01*
X0074276D02*
X0075927D01*
X007881Y0075566D02*
X0080537D01*
X0074238D02*
X0075965D01*
X0078784Y0075579D02*
X0080562D01*
X0074212D02*
X007599D01*
X0078746Y0075592D02*
X00806D01*
X0074174D02*
X0076028D01*
X0078721Y0075604D02*
X0080626D01*
X0074149D02*
X0076054D01*
X0078683Y0075617D02*
X0080651D01*
X0074123D02*
X0076092D01*
X007867Y007563D02*
X0080689D01*
X0074085D02*
X0076105D01*
X0078632Y0075643D02*
X0080715D01*
X007406D02*
X0076143D01*
X0078606Y0075655D02*
X008074D01*
X0074035D02*
X0076168D01*
X0078581Y0075668D02*
X0080766D01*
X0074009D02*
X0076193D01*
X0078556Y0075681D02*
X0080791D01*
X0073984D02*
X0076219D01*
X0078543Y0075693D02*
X0080816D01*
X0073958D02*
X0076232D01*
X0078518Y0075706D02*
X0080842D01*
X0073933D02*
X0076257D01*
X0078492Y0075719D02*
X0080867D01*
X0073908D02*
X0076282D01*
X0078479Y0075731D02*
X008088D01*
X0073895D02*
X0076295D01*
X0078454Y0075744D02*
X0080905D01*
X0073869D02*
X0076321D01*
X0078429Y0075757D02*
X0080931D01*
X0073844D02*
X0076346D01*
X0078416Y007577D02*
X0080943D01*
X0073831D02*
X0076359D01*
X0078391Y0075782D02*
X0080969D01*
X0073806D02*
X0076384D01*
X0078378Y0075795D02*
X0080981D01*
X0073793D02*
X0076397D01*
X0078353Y0075808D02*
X0081007D01*
X0073768D02*
X0076422D01*
X007834Y007582D02*
X008102D01*
X0073755D02*
X0076435D01*
X0078314Y0075833D02*
X0081045D01*
X007373D02*
X007646D01*
X0078302Y0075846D02*
X0081058D01*
X0073717D02*
X0076473D01*
X0078289Y0075858D02*
X0081083D01*
X0073692D02*
X0076486D01*
X0078264Y0075871D02*
X0081096D01*
X0073679D02*
X0076511D01*
X0078251Y0075884D02*
X0081108D01*
X0073666D02*
X0076524D01*
X0078238Y0075897D02*
X0081134D01*
X0073641D02*
X0076536D01*
X0078213Y0075909D02*
X0081146D01*
X0073628D02*
X0076562D01*
X00782Y0075922D02*
X0081159D01*
X0073615D02*
X0076575D01*
X0078187Y0075935D02*
X0081172D01*
X0073603D02*
X0076587D01*
X0078175Y0075947D02*
X0081197D01*
X0073577D02*
X00766D01*
X0078162Y007596D02*
X008121D01*
X0073565D02*
X0076613D01*
X0078137Y0075973D02*
X0081223D01*
X0073552D02*
X0076638D01*
X0078124Y0075985D02*
X0081235D01*
X0073539D02*
X0076651D01*
X0078111Y0075998D02*
X0081248D01*
X0073526D02*
X0076663D01*
X0078099Y0076011D02*
X0081261D01*
X0073514D02*
X0076676D01*
X0078086Y0076024D02*
X0081286D01*
X0073488D02*
X0076689D01*
X0078073Y0076036D02*
X0081299D01*
X0073476D02*
X0076701D01*
X007806Y0076049D02*
X0081312D01*
X0073463D02*
X0076714D01*
X0078048Y0076062D02*
X0081324D01*
X007345D02*
X0076727D01*
X0078035Y0076074D02*
X0081337D01*
X0073438D02*
X007674D01*
X0078022Y0076087D02*
X008135D01*
X0073425D02*
X0076752D01*
X007801Y00761D02*
X0081362D01*
X0073412D02*
X0076765D01*
X0077997Y0076113D02*
X0081375D01*
X0073399D02*
X0076778D01*
X0077984Y0076125D02*
X0081388D01*
X0073387D02*
X007679D01*
X0077971Y0076138D02*
X00814D01*
X0073374D02*
X0076803D01*
X0077959Y0076151D02*
X0081413D01*
X0073361D02*
X0076816D01*
X0077946Y0076163D02*
X0081413D01*
X0073361D02*
X0076828D01*
X0077933Y0076176D02*
X0081426D01*
X0073349D02*
X0076841D01*
X0077921Y0076189D02*
X0081439D01*
X0073336D02*
X0076854D01*
X0079749Y0076201D02*
X0081451D01*
X0077908D02*
X0079521D01*
X0075254D02*
X0076867D01*
X0073323D02*
X0075025D01*
X0079927Y0076214D02*
X0081464D01*
X0077895D02*
X0079394D01*
X0075381D02*
X0076879D01*
X0073311D02*
X0074847D01*
X0080016Y0076227D02*
X0081477D01*
X0077883D02*
X0079318D01*
X0075457D02*
X0076892D01*
X0073298D02*
X0074758D01*
X0080067Y007624D02*
X0081489D01*
X007787D02*
X0079254D01*
X0075508D02*
X0076905D01*
X0073285D02*
X0074708D01*
X0080118Y0076252D02*
X0081489D01*
X0077857D02*
X0079203D01*
X0075571D02*
X0076917D01*
X0073285D02*
X0074657D01*
X0080169Y0076265D02*
X0081502D01*
X0077844D02*
X0079165D01*
X0075609D02*
X007693D01*
X0073272D02*
X0074606D01*
X0080207Y0076278D02*
X0081515D01*
X0077844D02*
X0079127D01*
X0075647D02*
X007693D01*
X007326D02*
X0074568D01*
X0080245Y007629D02*
X0081527D01*
X0077832D02*
X0079089D01*
X0075686D02*
X0076943D01*
X0073247D02*
X007453D01*
X0080283Y0076303D02*
X008154D01*
X0077819D02*
X0079064D01*
X0075711D02*
X0076955D01*
X0073234D02*
X0074492D01*
X0080308Y0076316D02*
X008154D01*
X0077806D02*
X0079038D01*
X0075736D02*
X0076968D01*
X0073234D02*
X0074466D01*
X0080346Y0076328D02*
X0081553D01*
X0077794D02*
X0079D01*
X0075774D02*
X0076981D01*
X0073222D02*
X0074428D01*
X0080372Y0076341D02*
X0081566D01*
X0077781D02*
X0078975D01*
X00758D02*
X0076994D01*
X0073209D02*
X0074403D01*
X0080397Y0076354D02*
X0081578D01*
X0077768D02*
X0078949D01*
X0075825D02*
X0077006D01*
X0073196D02*
X0074377D01*
X0080423Y0076367D02*
X0081578D01*
X0077768D02*
X0078924D01*
X0075838D02*
X0077006D01*
X0073196D02*
X0074352D01*
X0080448Y0076379D02*
X0081591D01*
X0077756D02*
X0078911D01*
X0075863D02*
X0077019D01*
X0073184D02*
X0074327D01*
X0080473Y0076392D02*
X0081604D01*
X0077743D02*
X0078886D01*
X0075889D02*
X0077032D01*
X0073171D02*
X0074301D01*
X0080499Y0076405D02*
X0081604D01*
X007773D02*
X007886D01*
X0075914D02*
X0077044D01*
X0073171D02*
X0074276D01*
X0080511Y0076417D02*
X0081616D01*
X0077717D02*
X0078848D01*
X0075927D02*
X0077057D01*
X0073158D02*
X0074263D01*
X0080537Y007643D02*
X0081629D01*
X0077717D02*
X0078822D01*
X0075952D02*
X0077057D01*
X0073146D02*
X0074238D01*
X0080562Y0076443D02*
X0081629D01*
X0077705D02*
X007881D01*
X0075965D02*
X007707D01*
X0073146D02*
X0074225D01*
X0080575Y0076455D02*
X0081642D01*
X0077692D02*
X0078784D01*
X007599D02*
X0077082D01*
X0073133D02*
X00742D01*
X0080588Y0076468D02*
X0081655D01*
X0077679D02*
X0078772D01*
X0076003D02*
X0077095D01*
X007312D02*
X0074187D01*
X0080613Y0076481D02*
X0081655D01*
X0077667D02*
X0078746D01*
X0076016D02*
X0077108D01*
X007312D02*
X0074161D01*
X0080626Y0076493D02*
X0081667D01*
X0077667D02*
X0078733D01*
X0076041D02*
X0077108D01*
X0073107D02*
X0074149D01*
X0080651Y0076506D02*
X0081667D01*
X0077654D02*
X0078721D01*
X0076054D02*
X0077121D01*
X0073107D02*
X0074123D01*
X0080664Y0076519D02*
X008168D01*
X0077641D02*
X0078708D01*
X0076066D02*
X0077133D01*
X0073095D02*
X0074111D01*
X0080677Y0076532D02*
X0081693D01*
X0077629D02*
X0078683D01*
X0076092D02*
X0077146D01*
X0073082D02*
X0074098D01*
X0080689Y0076544D02*
X0081693D01*
X0077629D02*
X007867D01*
X0076105D02*
X0077146D01*
X0073082D02*
X0074085D01*
X0080702Y0076557D02*
X0081705D01*
X0077616D02*
X0078657D01*
X0076117D02*
X0077159D01*
X0073069D02*
X007406D01*
X0080727Y007657D02*
X0081705D01*
X0077603D02*
X0078645D01*
X007613D02*
X0077171D01*
X0073069D02*
X0074047D01*
X008074Y0076582D02*
X0081718D01*
X0077603D02*
X0078632D01*
X0076143D02*
X0077171D01*
X0073057D02*
X0074035D01*
X0080753Y0076595D02*
X0081718D01*
X007759D02*
X0078619D01*
X0076155D02*
X0077184D01*
X0073057D02*
X0074022D01*
X0080766Y0076608D02*
X0081731D01*
X0077578D02*
X0078606D01*
X0076181D02*
X0077197D01*
X0073044D02*
X0074009D01*
X0080778Y007662D02*
X0081731D01*
X0077565D02*
X0078581D01*
X0076193D02*
X007721D01*
X0073044D02*
X0073996D01*
X0080791Y0076633D02*
X0081743D01*
X0077565D02*
X0078568D01*
X0076206D02*
X007721D01*
X0073031D02*
X0073984D01*
X0080804Y0076646D02*
X0081756D01*
X0077552D02*
X0078556D01*
X0076219D02*
X0077222D01*
X0073019D02*
X0073971D01*
X0080816Y0076659D02*
X0081756D01*
X007754D02*
X0078543D01*
X0076232D02*
X0077235D01*
X0073019D02*
X0073958D01*
X0080829Y0076671D02*
X0081756D01*
X0077527D02*
X007853D01*
X0076244D02*
X0077248D01*
X0073019D02*
X0073946D01*
X0080842Y0076684D02*
X0081769D01*
X0077527D02*
X0078518D01*
X0076257D02*
X0077248D01*
X0073006D02*
X0073933D01*
X0080854Y0076697D02*
X0081769D01*
X0077514D02*
X0078505D01*
X007627D02*
X007726D01*
X0073006D02*
X007392D01*
X0080867Y0076709D02*
X0081782D01*
X0077502D02*
X0078492D01*
X0076282D02*
X0077273D01*
X0072993D02*
X0073908D01*
X008088Y0076722D02*
X0081782D01*
X0077502D02*
X0078492D01*
X0076282D02*
X0077273D01*
X0072993D02*
X0073908D01*
X008088Y0076735D02*
X0081794D01*
X0077489D02*
X0078479D01*
X0076295D02*
X0077286D01*
X007298D02*
X0073895D01*
X0080893Y0076747D02*
X0081794D01*
X0077476D02*
X0078467D01*
X0076308D02*
X0077298D01*
X007298D02*
X0073882D01*
X0080905Y007676D02*
X0081807D01*
X0077476D02*
X0078454D01*
X0076321D02*
X0077298D01*
X0072968D02*
X0073869D01*
X0080918Y0076773D02*
X0081807D01*
X0077464D02*
X0078441D01*
X0076333D02*
X0077311D01*
X0072968D02*
X0073857D01*
X0080918Y0076786D02*
X0081807D01*
X0077451D02*
X0078429D01*
X0076346D02*
X0077324D01*
X0072968D02*
X0073857D01*
X0080931Y0076798D02*
X008182D01*
X0077451D02*
X0078416D01*
X0076359D02*
X0077324D01*
X0072955D02*
X0073844D01*
X0080943Y0076811D02*
X008182D01*
X0077438D02*
X0078403D01*
X0076371D02*
X0077337D01*
X0072955D02*
X0073831D01*
X0080956Y0076824D02*
X0081832D01*
X0077425D02*
X0078391D01*
X0076384D02*
X0077349D01*
X0072942D02*
X0073819D01*
X0080956Y0076836D02*
X0081832D01*
X0077425D02*
X0078391D01*
X0076384D02*
X0077349D01*
X0072942D02*
X0073819D01*
X0080969Y0076849D02*
X0081832D01*
X0077413D02*
X0078378D01*
X0076397D02*
X0077362D01*
X007293D02*
X0073806D01*
X0080981Y0076862D02*
X0081845D01*
X00774D02*
X0078365D01*
X0076409D02*
X0077375D01*
X007293D02*
X0073793D01*
X0080981Y0076874D02*
X0081845D01*
X00774D02*
X0078353D01*
X0076422D02*
X0077375D01*
X007293D02*
X0073793D01*
X0080994Y0076887D02*
X0081858D01*
X0076435D02*
X007834D01*
X0072917D02*
X0073781D01*
X0081007Y00769D02*
X0081858D01*
X0076448D02*
X0078327D01*
X0072917D02*
X0073768D01*
X0081007Y0076913D02*
X0081858D01*
X0076448D02*
X0078327D01*
X0072917D02*
X0073768D01*
X008102Y0076925D02*
X008187D01*
X007646D02*
X0078314D01*
X0072904D02*
X0073755D01*
X008102Y0076938D02*
X008187D01*
X0076473D02*
X0078302D01*
X0072904D02*
X0073755D01*
X0081032Y0076951D02*
X008187D01*
X0076486D02*
X0078289D01*
X0072904D02*
X0073742D01*
X0081032Y0076963D02*
X0081883D01*
X0076486D02*
X0078289D01*
X0072892D02*
X0073742D01*
X0081045Y0076976D02*
X0081883D01*
X0076498D02*
X0078276D01*
X0072892D02*
X007373D01*
X0081045Y0076989D02*
X0081883D01*
X0076511D02*
X0078264D01*
X0072892D02*
X0073717D01*
X0081058Y0077002D02*
X0081883D01*
X0076524D02*
X0078251D01*
X0072892D02*
X0073717D01*
X0081058Y0077014D02*
X0081896D01*
X0076524D02*
X0078251D01*
X0072879D02*
X0073717D01*
X008107Y0077027D02*
X0081896D01*
X0079407D02*
X0079838D01*
X0076536D02*
X0078238D01*
X0072879D02*
X0073704D01*
X008107Y007704D02*
X0081896D01*
X0079407D02*
X0079838D01*
X0076549D02*
X0078226D01*
X0072879D02*
X0073704D01*
X0081083Y0077052D02*
X0081909D01*
X0079407D02*
X0079838D01*
X0076562D02*
X0078213D01*
X0072866D02*
X0073692D01*
X0081083Y0077065D02*
X0081909D01*
X0079407D02*
X0079838D01*
X0076562D02*
X0078213D01*
X0072866D02*
X0073692D01*
X0081096Y0077078D02*
X0081909D01*
X0079407D02*
X0079838D01*
X0076575D02*
X00782D01*
X0072866D02*
X0073679D01*
X0081096Y007709D02*
X0081909D01*
X0079407D02*
X0079838D01*
X0076587D02*
X0078187D01*
X0072866D02*
X0073679D01*
X0081108Y0077103D02*
X0081921D01*
X0079407D02*
X0079838D01*
X00766D02*
X0078175D01*
X0072853D02*
X0073666D01*
X0081108Y0077116D02*
X0081921D01*
X0079407D02*
X0079838D01*
X00766D02*
X0078175D01*
X0072853D02*
X0073666D01*
X0081108Y0077129D02*
X0081921D01*
X0079407D02*
X0079838D01*
X0076613D02*
X0078162D01*
X0072853D02*
X0073666D01*
X0081121Y0077141D02*
X0081921D01*
X0079407D02*
X0079838D01*
X0076625D02*
X0078149D01*
X0072853D02*
X0073654D01*
X0081121Y0077154D02*
X0081921D01*
X0079407D02*
X0079838D01*
X0076625D02*
X0078149D01*
X0072853D02*
X0073654D01*
X0081121Y0077167D02*
X0081934D01*
X0079407D02*
X0079838D01*
X0076638D02*
X0078137D01*
X0072841D02*
X0073654D01*
X0081134Y0077179D02*
X0081934D01*
X0079407D02*
X0079838D01*
X0076651D02*
X0078124D01*
X0072841D02*
X0073641D01*
X0081134Y0077192D02*
X0081934D01*
X0079407D02*
X0079838D01*
X0076651D02*
X0078124D01*
X0072841D02*
X0073641D01*
X0081134Y0077205D02*
X0081934D01*
X0079407D02*
X0079838D01*
X0076663D02*
X0078111D01*
X0072841D02*
X0073641D01*
X0081146Y0077217D02*
X0081934D01*
X0079407D02*
X0079838D01*
X0076676D02*
X0078099D01*
X0072841D02*
X0073628D01*
X0081146Y007723D02*
X0081947D01*
X0079407D02*
X0079838D01*
X0076676D02*
X0078099D01*
X0072828D02*
X0073628D01*
X0081146Y0077243D02*
X0081947D01*
X0079407D02*
X0079838D01*
X0076689D02*
X0078086D01*
X0072828D02*
X0073628D01*
X0081159Y0077256D02*
X0081947D01*
X0079407D02*
X0079838D01*
X0076701D02*
X0078073D01*
X0072828D02*
X0073615D01*
X0081159Y0077268D02*
X0081947D01*
X0079407D02*
X0079838D01*
X0076701D02*
X0078073D01*
X0072828D02*
X0073615D01*
X0081159Y0077281D02*
X0081947D01*
X0079407D02*
X0079838D01*
X0076714D02*
X007806D01*
X0072828D02*
X0073615D01*
X0081159Y0077294D02*
X0081947D01*
X0079407D02*
X0079838D01*
X0076727D02*
X0078048D01*
X0072828D02*
X0073615D01*
X0081172Y0077306D02*
X0081959D01*
X0079407D02*
X0079838D01*
X0076727D02*
X0078048D01*
X0072828D02*
X0073603D01*
X0081172Y0077319D02*
X0081959D01*
X0079407D02*
X0079838D01*
X007674D02*
X0078035D01*
X0072828D02*
X0073603D01*
X0081172Y0077332D02*
X0081959D01*
X0079407D02*
X0079838D01*
X0076752D02*
X0078022D01*
X0072828D02*
X0073603D01*
X0081172Y0077344D02*
X0081959D01*
X0079407D02*
X0079838D01*
X0076752D02*
X0078022D01*
X0072828D02*
X0073603D01*
X0081172Y0077357D02*
X0081959D01*
X0079407D02*
X0079838D01*
X0076765D02*
X007801D01*
X0072828D02*
X0073603D01*
X0081172Y007737D02*
X0081959D01*
X0079407D02*
X0079838D01*
X0076778D02*
X0077997D01*
X0072828D02*
X007359D01*
X0081185Y0077382D02*
X0081959D01*
X0079407D02*
X0079838D01*
X0076778D02*
X0077997D01*
X0072828D02*
X007359D01*
X0081185Y0077395D02*
X0081959D01*
X0079407D02*
X0079838D01*
X007679D02*
X0077984D01*
X0072828D02*
X007359D01*
X0081185Y0077408D02*
X0081959D01*
X0079407D02*
X0079838D01*
X007679D02*
X0077971D01*
X0072828D02*
X007359D01*
X0081185Y0077421D02*
X0081959D01*
X0079407D02*
X0079838D01*
X0076803D02*
X0077971D01*
X0072828D02*
X007359D01*
X0081185Y0077433D02*
X0081972D01*
X0079407D02*
X0079838D01*
X0076816D02*
X0077959D01*
X0072828D02*
X007359D01*
X0081185Y0077446D02*
X0081972D01*
X0078988D02*
X0080257D01*
X0076816D02*
X0077959D01*
X0072828D02*
X007359D01*
X0081185Y0077459D02*
X0081972D01*
X0078988D02*
X0080257D01*
X0076828D02*
X0077946D01*
X0072828D02*
X007359D01*
X0081197Y0077471D02*
X0081972D01*
X0078988D02*
X0080257D01*
X0076841D02*
X0077933D01*
X0072828D02*
X0073577D01*
X0081197Y0077484D02*
X0081972D01*
X0078988D02*
X0080257D01*
X0076841D02*
X0077933D01*
X0074327D02*
X0075863D01*
X0072828D02*
X0073577D01*
X0081197Y0077497D02*
X0081972D01*
X0078988D02*
X0080257D01*
X0076854D02*
X0077921D01*
X0074327D02*
X0075863D01*
X0072828D02*
X0073577D01*
X0081197Y0077509D02*
X0081972D01*
X0078988D02*
X0080257D01*
X0076867D02*
X0077908D01*
X0074327D02*
X0075863D01*
X0072828D02*
X0073577D01*
X0081197Y0077522D02*
X0081972D01*
X0078988D02*
X0080257D01*
X0076867D02*
X0077908D01*
X0074327D02*
X0075863D01*
X0072828D02*
X0073577D01*
X0081197Y0077535D02*
X0081972D01*
X0078988D02*
X0080257D01*
X0076879D02*
X0077895D01*
X0074327D02*
X0075863D01*
X0072828D02*
X0073577D01*
X0081197Y0077548D02*
X0081972D01*
X0078988D02*
X0080257D01*
X0076879D02*
X0077895D01*
X0074327D02*
X0075863D01*
X0072828D02*
X0073577D01*
X0081197Y007756D02*
X0081972D01*
X0078988D02*
X0080257D01*
X0076892D02*
X0077883D01*
X0074327D02*
X0075863D01*
X0072828D02*
X0073577D01*
X0081197Y0077573D02*
X0081972D01*
X0078988D02*
X0080257D01*
X0076905D02*
X007787D01*
X0074327D02*
X0075863D01*
X0072828D02*
X0073577D01*
X0081197Y0077586D02*
X0081972D01*
X0078988D02*
X0080257D01*
X0076905D02*
X007787D01*
X0074327D02*
X0075863D01*
X0072828D02*
X0073577D01*
X0081197Y0077598D02*
X0081972D01*
X0078988D02*
X0080257D01*
X0076917D02*
X0077857D01*
X0074327D02*
X0075863D01*
X0072828D02*
X0073577D01*
X0081197Y0077611D02*
X0081972D01*
X0078988D02*
X0080257D01*
X0076917D02*
X0077857D01*
X0074327D02*
X0075863D01*
X0072828D02*
X0073577D01*
X0081197Y0077624D02*
X0081972D01*
X0078988D02*
X0080257D01*
X007693D02*
X0077844D01*
X0074327D02*
X0075863D01*
X0072828D02*
X0073577D01*
X0081197Y0077636D02*
X0081972D01*
X0078988D02*
X0080257D01*
X0076917D02*
X0077857D01*
X0074327D02*
X0075863D01*
X0072828D02*
X0073577D01*
X0081197Y0077649D02*
X0081972D01*
X0078988D02*
X0080257D01*
X0076917D02*
X0077857D01*
X0074327D02*
X0075863D01*
X0072828D02*
X0073577D01*
X0081197Y0077662D02*
X0081972D01*
X0078988D02*
X0080257D01*
X0076905D02*
X007787D01*
X0074327D02*
X0075863D01*
X0072828D02*
X0073577D01*
X0081197Y0077675D02*
X0081972D01*
X0078988D02*
X0080257D01*
X0076892D02*
X0077883D01*
X0074327D02*
X0075863D01*
X0072828D02*
X0073577D01*
X0081197Y0077687D02*
X0081972D01*
X0078988D02*
X0080257D01*
X0076892D02*
X0077883D01*
X0074327D02*
X0075863D01*
X0072828D02*
X0073577D01*
X0081197Y00777D02*
X0081972D01*
X0078988D02*
X0080257D01*
X0076879D02*
X0077895D01*
X0074327D02*
X0075863D01*
X0072828D02*
X0073577D01*
X0081197Y0077713D02*
X0081972D01*
X0078988D02*
X0080257D01*
X0076867D02*
X0077908D01*
X0074327D02*
X0075863D01*
X0072828D02*
X0073577D01*
X0081185Y0077725D02*
X0081972D01*
X0078988D02*
X0080257D01*
X0076867D02*
X0077908D01*
X0074327D02*
X0075863D01*
X0072828D02*
X007359D01*
X0081185Y0077738D02*
X0081972D01*
X0078988D02*
X0080257D01*
X0076854D02*
X0077921D01*
X0074327D02*
X0075863D01*
X0072828D02*
X007359D01*
X0081185Y0077751D02*
X0081972D01*
X0078988D02*
X0080257D01*
X0076841D02*
X0077933D01*
X0074327D02*
X0075863D01*
X0072828D02*
X007359D01*
X0081185Y0077763D02*
X0081959D01*
X0078988D02*
X0080257D01*
X0076841D02*
X0077933D01*
X0074327D02*
X0075863D01*
X0072828D02*
X007359D01*
X0081185Y0077776D02*
X0081959D01*
X0078988D02*
X0080257D01*
X0076828D02*
X0077946D01*
X0074327D02*
X0075863D01*
X0072828D02*
X007359D01*
X0081185Y0077789D02*
X0081959D01*
X0078988D02*
X0080257D01*
X0076816D02*
X0077959D01*
X0074327D02*
X0075863D01*
X0072828D02*
X007359D01*
X0081185Y0077802D02*
X0081959D01*
X0078988D02*
X0080257D01*
X0076816D02*
X0077959D01*
X0074327D02*
X0075863D01*
X0072828D02*
X007359D01*
X0081172Y0077814D02*
X0081959D01*
X0078988D02*
X0080257D01*
X0076803D02*
X0077971D01*
X0074327D02*
X0075863D01*
X0072828D02*
X007359D01*
X0081172Y0077827D02*
X0081959D01*
X0078988D02*
X0080257D01*
X007679D02*
X0077984D01*
X0072828D02*
X0073603D01*
X0081172Y007784D02*
X0081959D01*
X0078988D02*
X0080257D01*
X007679D02*
X0077984D01*
X0072828D02*
X0073603D01*
X0081172Y0077852D02*
X0081959D01*
X0078988D02*
X0080257D01*
X0076778D02*
X0077997D01*
X0072828D02*
X0073603D01*
X0081172Y0077865D02*
X0081959D01*
X0078988D02*
X0080257D01*
X0076765D02*
X007801D01*
X0072828D02*
X0073603D01*
X0081172Y0077878D02*
X0081959D01*
X0079407D02*
X0079838D01*
X0076765D02*
X007801D01*
X0072828D02*
X0073603D01*
X0081159Y0077891D02*
X0081947D01*
X0079407D02*
X0079838D01*
X0076752D02*
X0078022D01*
X0072828D02*
X0073615D01*
X0081159Y0077903D02*
X0081947D01*
X0079407D02*
X0079838D01*
X007674D02*
X0078035D01*
X0072828D02*
X0073615D01*
X0081159Y0077916D02*
X0081947D01*
X0079407D02*
X0079838D01*
X007674D02*
X0078035D01*
X0072828D02*
X0073615D01*
X0081159Y0077929D02*
X0081947D01*
X0079407D02*
X0079838D01*
X0076727D02*
X0078048D01*
X0072828D02*
X0073615D01*
X0081146Y0077941D02*
X0081947D01*
X0079407D02*
X0079838D01*
X0076714D02*
X007806D01*
X0072828D02*
X0073628D01*
X0081146Y0077954D02*
X0081947D01*
X0079407D02*
X0079838D01*
X0076714D02*
X007806D01*
X0072828D02*
X0073628D01*
X0081146Y0077967D02*
X0081934D01*
X0079407D02*
X0079838D01*
X0076701D02*
X0078073D01*
X0072841D02*
X0073628D01*
X0081134Y0077979D02*
X0081934D01*
X0079407D02*
X0079838D01*
X0076689D02*
X0078086D01*
X0072841D02*
X0073641D01*
X0081134Y0077992D02*
X0081934D01*
X0079407D02*
X0079838D01*
X0076689D02*
X0078086D01*
X0072841D02*
X0073641D01*
X0081134Y0078005D02*
X0081934D01*
X0079407D02*
X0079838D01*
X0076676D02*
X0078099D01*
X0072841D02*
X0073641D01*
X0081121Y0078018D02*
X0081934D01*
X0079407D02*
X0079838D01*
X0076663D02*
X0078111D01*
X0072841D02*
X0073654D01*
X0081121Y007803D02*
X0081921D01*
X0079407D02*
X0079838D01*
X0076651D02*
X0078124D01*
X0072853D02*
X0073654D01*
X0081121Y0078043D02*
X0081921D01*
X0079407D02*
X0079838D01*
X0076651D02*
X0078124D01*
X0072853D02*
X0073654D01*
X0081108Y0078056D02*
X0081921D01*
X0079407D02*
X0079838D01*
X0076638D02*
X0078137D01*
X0072853D02*
X0073666D01*
X0081108Y0078068D02*
X0081921D01*
X0079407D02*
X0079838D01*
X0076625D02*
X0078149D01*
X0072853D02*
X0073666D01*
X0081108Y0078081D02*
X0081921D01*
X0079407D02*
X0079838D01*
X0076613D02*
X0078162D01*
X0072853D02*
X0073666D01*
X0081096Y0078094D02*
X0081909D01*
X0079407D02*
X0079838D01*
X0076613D02*
X0078162D01*
X0072866D02*
X0073679D01*
X0081096Y0078106D02*
X0081909D01*
X0079407D02*
X0079838D01*
X00766D02*
X0078175D01*
X0072866D02*
X0073679D01*
X0081083Y0078119D02*
X0081909D01*
X0079407D02*
X0079838D01*
X0076587D02*
X0078187D01*
X0072866D02*
X0073692D01*
X0081083Y0078132D02*
X0081909D01*
X0079407D02*
X0079838D01*
X0076575D02*
X00782D01*
X0072866D02*
X0073692D01*
X008107Y0078145D02*
X0081896D01*
X0079407D02*
X0079838D01*
X0076575D02*
X00782D01*
X0072879D02*
X0073704D01*
X008107Y0078157D02*
X0081896D01*
X0079407D02*
X0079838D01*
X0076562D02*
X0078213D01*
X0072879D02*
X0073704D01*
X008107Y007817D02*
X0081896D01*
X0079407D02*
X0079838D01*
X0076549D02*
X0078226D01*
X0072879D02*
X0073704D01*
X0081058Y0078183D02*
X0081883D01*
X0079407D02*
X0079838D01*
X0076536D02*
X0078238D01*
X0072892D02*
X0073717D01*
X0081045Y0078195D02*
X0081883D01*
X0079407D02*
X0079838D01*
X0076524D02*
X0078251D01*
X0072892D02*
X0073717D01*
X0081045Y0078208D02*
X0081883D01*
X0079407D02*
X0079838D01*
X0076524D02*
X0078251D01*
X0072892D02*
X007373D01*
X0081032Y0078221D02*
X0081883D01*
X0079407D02*
X0079838D01*
X0076511D02*
X0078264D01*
X0072892D02*
X0073742D01*
X0081032Y0078233D02*
X008187D01*
X0079407D02*
X0079838D01*
X0076498D02*
X0078276D01*
X0072904D02*
X0073742D01*
X008102Y0078246D02*
X008187D01*
X0079407D02*
X0079838D01*
X0076486D02*
X0078289D01*
X0072904D02*
X0073755D01*
X008102Y0078259D02*
X008187D01*
X0079407D02*
X0079838D01*
X0076473D02*
X0078302D01*
X0072904D02*
X0073755D01*
X0081007Y0078271D02*
X0081858D01*
X0079407D02*
X0079838D01*
X0076473D02*
X0078302D01*
X0072917D02*
X0073768D01*
X0081007Y0078284D02*
X0081858D01*
X0079407D02*
X0079838D01*
X007646D02*
X0078314D01*
X0072917D02*
X0073768D01*
X0080994Y0078297D02*
X0081858D01*
X0076448D02*
X0078327D01*
X0072917D02*
X0073781D01*
X0080981Y007831D02*
X0081845D01*
X0076435D02*
X007834D01*
X007293D02*
X0073793D01*
X0080981Y0078322D02*
X0081845D01*
X0076422D02*
X0078353D01*
X007293D02*
X0073793D01*
X0080969Y0078335D02*
X0081832D01*
X0076409D02*
X0078365D01*
X007293D02*
X0073806D01*
X0080956Y0078348D02*
X0081832D01*
X0076397D02*
X0078378D01*
X0072942D02*
X0073819D01*
X0080956Y007836D02*
X0081832D01*
X00774D02*
X0078391D01*
X0076384D02*
X0077375D01*
X0072942D02*
X0073819D01*
X0080943Y0078373D02*
X008182D01*
X0077413D02*
X0078403D01*
X0076371D02*
X0077362D01*
X0072955D02*
X0073831D01*
X0080931Y0078386D02*
X008182D01*
X0077413D02*
X0078403D01*
X0076371D02*
X0077362D01*
X0072955D02*
X0073844D01*
X0080918Y0078398D02*
X0081807D01*
X0077425D02*
X0078416D01*
X0076359D02*
X0077349D01*
X0072955D02*
X0073844D01*
X0080918Y0078411D02*
X0081807D01*
X0077438D02*
X0078429D01*
X0076346D02*
X0077337D01*
X0072968D02*
X0073857D01*
X0080905Y0078424D02*
X0081807D01*
X0077438D02*
X0078441D01*
X0076333D02*
X0077337D01*
X0072968D02*
X0073869D01*
X0080893Y0078437D02*
X0081794D01*
X0077451D02*
X0078454D01*
X0076321D02*
X0077324D01*
X007298D02*
X0073882D01*
X008088Y0078449D02*
X0081794D01*
X0077464D02*
X0078467D01*
X0076308D02*
X0077311D01*
X007298D02*
X0073895D01*
X008088Y0078462D02*
X0081782D01*
X0077476D02*
X0078479D01*
X0076295D02*
X0077298D01*
X0072993D02*
X0073895D01*
X0080867Y0078475D02*
X0081782D01*
X0077476D02*
X0078492D01*
X0076282D02*
X0077298D01*
X0072993D02*
X0073908D01*
X0080854Y0078487D02*
X0081769D01*
X0077489D02*
X0078505D01*
X007627D02*
X0077286D01*
X0073006D02*
X007392D01*
X0080842Y00785D02*
X0081769D01*
X0077502D02*
X0078518D01*
X0076257D02*
X0077273D01*
X0073006D02*
X0073933D01*
X0080829Y0078513D02*
X0081756D01*
X0077514D02*
X0078543D01*
X0076232D02*
X007726D01*
X0073019D02*
X0073946D01*
X0080816Y0078525D02*
X0081756D01*
X0077514D02*
X0078556D01*
X0076219D02*
X007726D01*
X0073019D02*
X0073958D01*
X0080804Y0078538D02*
X0081756D01*
X0077527D02*
X0078568D01*
X0076206D02*
X0077248D01*
X0073019D02*
X0073971D01*
X0080791Y0078551D02*
X0081743D01*
X007754D02*
X0078581D01*
X0076193D02*
X0077235D01*
X0073031D02*
X0073984D01*
X0080778Y0078564D02*
X0081731D01*
X007754D02*
X0078594D01*
X0076181D02*
X0077235D01*
X0073031D02*
X0073996D01*
X0080766Y0078576D02*
X0081731D01*
X0077552D02*
X0078606D01*
X0076168D02*
X0077222D01*
X0073044D02*
X0074009D01*
X0080753Y0078589D02*
X0081718D01*
X0077565D02*
X0078619D01*
X0076155D02*
X007721D01*
X0073057D02*
X0074022D01*
X008074Y0078602D02*
X0081718D01*
X0077578D02*
X0078645D01*
X007613D02*
X0077197D01*
X0073057D02*
X0074035D01*
X0080727Y0078614D02*
X0081705D01*
X0077578D02*
X0078657D01*
X0076117D02*
X0077197D01*
X0073069D02*
X0074047D01*
X0080715Y0078627D02*
X0081705D01*
X007759D02*
X007867D01*
X0076105D02*
X0077184D01*
X0073069D02*
X007406D01*
X0080689Y007864D02*
X0081693D01*
X0077603D02*
X0078683D01*
X0076092D02*
X0077171D01*
X0073082D02*
X0074085D01*
X0080677Y0078652D02*
X0081693D01*
X0077616D02*
X0078708D01*
X0076066D02*
X0077159D01*
X0073082D02*
X0074098D01*
X0080664Y0078665D02*
X008168D01*
X0077629D02*
X0078721D01*
X0076054D02*
X0077146D01*
X0073095D02*
X0074111D01*
X0080651Y0078678D02*
X0081667D01*
X0077629D02*
X0078746D01*
X0076028D02*
X0077146D01*
X0073107D02*
X0074123D01*
X0080626Y0078691D02*
X0081667D01*
X0077641D02*
X0078759D01*
X0076016D02*
X0077133D01*
X0073107D02*
X0074149D01*
X0080613Y0078703D02*
X0081655D01*
X0077654D02*
X0078772D01*
X0076003D02*
X0077121D01*
X007312D02*
X0074161D01*
X0080588Y0078716D02*
X0081655D01*
X0077667D02*
X0078797D01*
X0075978D02*
X0077108D01*
X007312D02*
X0074187D01*
X0080575Y0078729D02*
X0081642D01*
X0077679D02*
X0078822D01*
X0075952D02*
X0077095D01*
X0073133D02*
X00742D01*
X0080562Y0078741D02*
X0081629D01*
X0077679D02*
X0078835D01*
X0075939D02*
X0077082D01*
X0073146D02*
X0074225D01*
X0080537Y0078754D02*
X0081629D01*
X0077692D02*
X007886D01*
X0075914D02*
X0077082D01*
X0073146D02*
X0074238D01*
X0080511Y0078767D02*
X0081616D01*
X0077705D02*
X0078886D01*
X0075889D02*
X007707D01*
X0073158D02*
X0074263D01*
X0080499Y007878D02*
X0081604D01*
X0077717D02*
X0078899D01*
X0075876D02*
X0077057D01*
X0073171D02*
X0074276D01*
X0080473Y0078792D02*
X0081604D01*
X007773D02*
X0078924D01*
X0075851D02*
X0077044D01*
X0073171D02*
X0074301D01*
X0080448Y0078805D02*
X0081591D01*
X0077743D02*
X0078949D01*
X0075825D02*
X0077032D01*
X0073184D02*
X0074327D01*
X0080423Y0078818D02*
X0081578D01*
X0077756D02*
X0078975D01*
X00758D02*
X0077019D01*
X0073196D02*
X0074352D01*
X0080397Y007883D02*
X0081578D01*
X0077756D02*
X0079D01*
X0075774D02*
X0077019D01*
X0073196D02*
X0074377D01*
X0080372Y0078843D02*
X0081566D01*
X0077768D02*
X0079026D01*
X0075749D02*
X0077006D01*
X0073209D02*
X0074403D01*
X0080346Y0078856D02*
X0081553D01*
X0077781D02*
X0079064D01*
X0075711D02*
X0076994D01*
X0073222D02*
X0074428D01*
X0080308Y0078868D02*
X008154D01*
X0077794D02*
X0079089D01*
X0075686D02*
X0076981D01*
X0073234D02*
X0074466D01*
X0080283Y0078881D02*
X008154D01*
X0077806D02*
X0079127D01*
X0075647D02*
X0076968D01*
X0073234D02*
X0074492D01*
X0080245Y0078894D02*
X0081527D01*
X0077819D02*
X0079165D01*
X0075609D02*
X0076955D01*
X0073247D02*
X007453D01*
X0080207Y0078907D02*
X0081515D01*
X0077832D02*
X0079203D01*
X0075571D02*
X0076943D01*
X007326D02*
X0074568D01*
X0080169Y0078919D02*
X0081502D01*
X0077844D02*
X0079242D01*
X007552D02*
X007693D01*
X0073272D02*
X0074606D01*
X0080118Y0078932D02*
X0081489D01*
X0077857D02*
X0079292D01*
X0075482D02*
X0076917D01*
X0073285D02*
X0074657D01*
X0080067Y0078945D02*
X0081489D01*
X007787D02*
X0079356D01*
X0075419D02*
X0076905D01*
X0073285D02*
X0074695D01*
X0080016Y0078957D02*
X0081477D01*
X0077883D02*
X0079419D01*
X0075355D02*
X0076892D01*
X0073298D02*
X0074758D01*
X0079927Y007897D02*
X0081464D01*
X0077895D02*
X0079508D01*
X0075266D02*
X0076879D01*
X0073311D02*
X0074847D01*
X0079749Y0078983D02*
X0081451D01*
X0077908D02*
X0079711D01*
X0075063D02*
X0076867D01*
X0073323D02*
X0075025D01*
X0077921Y0078995D02*
X0081439D01*
X0073336D02*
X0076854D01*
X0077933Y0079008D02*
X0081426D01*
X0073349D02*
X0076841D01*
X0077946Y0079021D02*
X0081413D01*
X0073361D02*
X0076828D01*
X0077959Y0079034D02*
X0081413D01*
X0073361D02*
X0076816D01*
X0077971Y0079046D02*
X00814D01*
X0073374D02*
X0076803D01*
X0077984Y0079059D02*
X0081388D01*
X0073387D02*
X007679D01*
X0077997Y0079072D02*
X0081375D01*
X0073399D02*
X0076778D01*
X007801Y0079084D02*
X0081362D01*
X0073412D02*
X0076765D01*
X0078022Y0079097D02*
X008135D01*
X0073425D02*
X0076752D01*
X0078035Y007911D02*
X0081337D01*
X0073438D02*
X007674D01*
X0078048Y0079122D02*
X0081324D01*
X007345D02*
X0076727D01*
X007806Y0079135D02*
X0081312D01*
X0073463D02*
X0076714D01*
X0078073Y0079148D02*
X0081299D01*
X0073476D02*
X0076689D01*
X0078099Y007916D02*
X0081286D01*
X0073488D02*
X0076676D01*
X0078111Y0079173D02*
X0081261D01*
X0073514D02*
X0076663D01*
X0078124Y0079186D02*
X0081248D01*
X0073526D02*
X0076651D01*
X0078137Y0079199D02*
X0081235D01*
X0073539D02*
X0076638D01*
X0078149Y0079211D02*
X0081223D01*
X0073552D02*
X0076625D01*
X0078175Y0079224D02*
X008121D01*
X0073565D02*
X00766D01*
X0078187Y0079237D02*
X0081197D01*
X0073577D02*
X0076587D01*
X00782Y0079249D02*
X0081185D01*
X007359D02*
X0076575D01*
X0078226Y0079262D02*
X0081159D01*
X0073615D02*
X0076549D01*
X0078238Y0079275D02*
X0081146D01*
X0073628D02*
X0076536D01*
X0078251Y0079287D02*
X0081134D01*
X0073641D02*
X0076524D01*
X0078276Y00793D02*
X0081108D01*
X0073666D02*
X0076498D01*
X0078289Y0079313D02*
X0081096D01*
X0073679D02*
X0076486D01*
X0078314Y0079326D02*
X0081083D01*
X0073692D02*
X007646D01*
X0078327Y0079338D02*
X0081058D01*
X0073717D02*
X0076448D01*
X007834Y0079351D02*
X0081045D01*
X007373D02*
X0076435D01*
X0078365Y0079364D02*
X008102D01*
X0073755D02*
X0076409D01*
X0081756Y0079376D02*
X008182D01*
X008168D02*
X0081731D01*
X0081591D02*
X0081655D01*
X0081477D02*
X0081527D01*
X0078391D02*
X0081007D01*
X0073768D02*
X0076384D01*
X0081756Y0079389D02*
X008182D01*
X008168D02*
X0081743D01*
X0081591D02*
X0081655D01*
X0081477D02*
X0081527D01*
X0078403D02*
X0080981D01*
X0073793D02*
X0076371D01*
X0081756Y0079402D02*
X008182D01*
X0081667D02*
X0081743D01*
X0081591D02*
X0081655D01*
X0081477D02*
X0081527D01*
X0078429D02*
X0080969D01*
X0073806D02*
X0076346D01*
X0081756Y0079414D02*
X008182D01*
X0081667D02*
X0081743D01*
X0081591D02*
X0081655D01*
X0081477D02*
X0081527D01*
X0078441D02*
X0080943D01*
X0073831D02*
X0076333D01*
X0081667Y0079427D02*
X008182D01*
X0081591D02*
X0081655D01*
X0081477D02*
X0081527D01*
X0078467D02*
X0080931D01*
X0073844D02*
X0076308D01*
X0081591Y007944D02*
X008182D01*
X0081477D02*
X0081527D01*
X0078492D02*
X0080905D01*
X0073869D02*
X0076282D01*
X0081591Y0079453D02*
X008182D01*
X0081477D02*
X0081527D01*
X0078518D02*
X008088D01*
X0073895D02*
X0076257D01*
X0081591Y0079465D02*
X008182D01*
X0081477D02*
X0081527D01*
X007853D02*
X0080867D01*
X0073908D02*
X0076244D01*
X0081591Y0079478D02*
X008182D01*
X0081477D02*
X0081527D01*
X0078556D02*
X0080842D01*
X0073933D02*
X0076219D01*
X0081718Y0079491D02*
X008182D01*
X0081591D02*
X0081705D01*
X0081477D02*
X0081527D01*
X0078581D02*
X0080816D01*
X0073958D02*
X0076193D01*
X0081718Y0079503D02*
X008182D01*
X0081591D02*
X0081693D01*
X0081477D02*
X0081527D01*
X0078606D02*
X0080791D01*
X0073984D02*
X0076168D01*
X0081718Y0079516D02*
X008182D01*
X0081591D02*
X0081693D01*
X0081477D02*
X0081527D01*
X0078632D02*
X0080766D01*
X0074009D02*
X0076143D01*
X0081731Y0079529D02*
X008182D01*
X0081591D02*
X0081693D01*
X0081477D02*
X0081527D01*
X0078657D02*
X008074D01*
X0074035D02*
X0076117D01*
X0081731Y0079541D02*
X008182D01*
X00814D02*
X008168D01*
X0078683D02*
X0080715D01*
X007406D02*
X0076092D01*
X0081731Y0079554D02*
X008182D01*
X00814D02*
X008168D01*
X0078721D02*
X0080689D01*
X0074085D02*
X0076054D01*
X0081731Y0079567D02*
X008182D01*
X00814D02*
X008168D01*
X0078746D02*
X0080651D01*
X0074111D02*
X0076028D01*
X0081743Y007958D02*
X008182D01*
X00814D02*
X0081667D01*
X0078784D02*
X0080626D01*
X0074149D02*
X0076003D01*
X0081743Y0079592D02*
X008182D01*
X00814D02*
X0081667D01*
X007881D02*
X00806D01*
X0074174D02*
X0075965D01*
X0078848Y0079605D02*
X0080562D01*
X0074212D02*
X0075927D01*
X0078873Y0079618D02*
X0080537D01*
X0074238D02*
X0075901D01*
X0078911Y007963D02*
X0080499D01*
X0074276D02*
X0075863D01*
X0078962Y0079643D02*
X0080461D01*
X0074314D02*
X0075812D01*
X0079Y0079656D02*
X0080423D01*
X0074352D02*
X0075774D01*
X0079038Y0079669D02*
X0080372D01*
X0074403D02*
X0075736D01*
X0079089Y0079681D02*
X0080334D01*
X0074441D02*
X0075686D01*
X007914Y0079694D02*
X0080283D01*
X0074492D02*
X0075635D01*
X0079203Y0079707D02*
X0080219D01*
X0074555D02*
X0075571D01*
X007928Y0079719D02*
X0080156D01*
X0074619D02*
X0075495D01*
X0079356Y0079732D02*
X008008D01*
X0074695D02*
X0075419D01*
X007947Y0079745D02*
X0079978D01*
X0074797D02*
X0075304D01*
D44*
X0081436Y0070019D02*
X0081442D01*
X0081455D02*
X0081461D01*
X0081467D02*
X0081474D01*
X0081372Y0070013D02*
X0081525D01*
X0081315Y0070007D02*
X0081537D01*
X0081258Y007D02*
X0081556D01*
X0081201Y0069994D02*
X0081569D01*
X0081144Y0069988D02*
X0081588D01*
X008108Y0069981D02*
X0081607D01*
X0081023Y0069975D02*
X008162D01*
X0080966Y0069968D02*
X0081639D01*
X0080909Y0069962D02*
X0081652D01*
X0080851Y0069956D02*
X0081671D01*
X0080794Y0069949D02*
X008169D01*
X0080731Y0069943D02*
X0081702D01*
X0080674Y0069937D02*
X0081721D01*
X0080617Y006993D02*
X008174D01*
X0080559Y0069924D02*
X0081753D01*
X0080502Y0069918D02*
X0081772D01*
X0080439Y0069911D02*
X0081785D01*
X0080382Y0069905D02*
X0081804D01*
X0080324Y0069899D02*
X0081804D01*
X0080267Y0069892D02*
X0081804D01*
X008021Y0069886D02*
X0081582D01*
X0081588D02*
X0081804D01*
X0080147Y006988D02*
X0081582D01*
X0081588D02*
X0081804D01*
X0080089Y0069873D02*
X0081804D01*
X0080032Y0069867D02*
X0081645D01*
X0081652D02*
X0081804D01*
X0079975Y0069861D02*
X0081804D01*
X0079918Y0069854D02*
X0081804D01*
X0079861Y0069848D02*
X0081658D01*
X0081671D02*
X0081804D01*
X0079797Y0069841D02*
X0081632D01*
X0081645D02*
X0081658D01*
X0081671D02*
X0081804D01*
X007974Y0069835D02*
X0081658D01*
X0081671D02*
X0081804D01*
X0079683Y0069829D02*
X0081658D01*
X0081671D02*
X0081804D01*
X0079626Y0069822D02*
X0081804D01*
X0079569Y0069816D02*
X0081804D01*
X0079505Y006981D02*
X0081804D01*
X0079448Y0069803D02*
X0081804D01*
X0079391Y0069797D02*
X0081804D01*
X0079334Y0069791D02*
X0081804D01*
X0079302Y0069784D02*
X0081804D01*
X0079296Y0069778D02*
X0081804D01*
X0079296Y0069772D02*
X0081804D01*
X0079296Y0069765D02*
X0081804D01*
X0079302Y0069759D02*
X0081804D01*
X0079296Y0069753D02*
X0081804D01*
X0079296Y0069746D02*
X0081804D01*
X0079296Y006974D02*
X0081804D01*
X0079296Y0069734D02*
X0081804D01*
X0079302Y0069727D02*
X0081804D01*
X0079302Y0069721D02*
X0081804D01*
X0079302Y0069715D02*
X0081804D01*
X0079302Y0069708D02*
X0081798D01*
X0079302Y0069702D02*
X0081798D01*
X0079302Y0069695D02*
X0081798D01*
X0079302Y0069689D02*
X0081798D01*
X0079302Y0069683D02*
X0081798D01*
X0079302Y0069676D02*
X0081798D01*
X0079302Y006967D02*
X0081798D01*
X0079302Y0069664D02*
X0081798D01*
X0079302Y0069657D02*
X0081798D01*
X0079302Y0069651D02*
X0081798D01*
X0079302Y0069645D02*
X0081798D01*
X0079302Y0069638D02*
X0081798D01*
X0079302Y0069632D02*
X0081798D01*
X0079302Y0069626D02*
X0081798D01*
X0079302Y0069619D02*
X0081798D01*
X0079302Y0069613D02*
X0081798D01*
X0079302Y0069607D02*
X0081798D01*
X0079302Y00696D02*
X0081798D01*
X0079302Y0069594D02*
X0081798D01*
X0079302Y0069588D02*
X0081798D01*
X0079302Y0069581D02*
X0081798D01*
X0079302Y0069575D02*
X0081798D01*
X0079308Y0069568D02*
X0081798D01*
X0079308Y0069562D02*
X0081798D01*
X0079308Y0069556D02*
X0081798D01*
X0079308Y0069549D02*
X0081798D01*
X0079308Y0069543D02*
X0081525D01*
X0081531D02*
X0081798D01*
X0079308Y0069537D02*
X0081525D01*
X0081531D02*
X0081798D01*
X0079308Y006953D02*
X0081798D01*
X0079308Y0069524D02*
X0081798D01*
X0079308Y0069518D02*
X0081798D01*
X0079308Y0069511D02*
X0081798D01*
X0079308Y0069505D02*
X0081798D01*
X0079308Y0069499D02*
X0081798D01*
X0079308Y0069492D02*
X0081798D01*
X0079308Y0069486D02*
X0081798D01*
X0079308Y006948D02*
X0081798D01*
X0079308Y0069473D02*
X0081798D01*
X0079308Y0069467D02*
X0081798D01*
X0079308Y0069461D02*
X0081798D01*
X0079308Y0069454D02*
X0081798D01*
X0079308Y0069448D02*
X0081798D01*
X0079308Y0069441D02*
X0081798D01*
X0079308Y0069435D02*
X0081798D01*
X0079308Y0069429D02*
X0081798D01*
X0079308Y0069422D02*
X0081798D01*
X0079308Y0069416D02*
X0081798D01*
X0079315Y006941D02*
X0081798D01*
X0079315Y0069403D02*
X0081798D01*
X0079315Y0069397D02*
X0081798D01*
X0079315Y0069391D02*
X0081798D01*
X0079315Y0069384D02*
X0081798D01*
X0079315Y0069378D02*
X0081798D01*
X0079315Y0069372D02*
X0081798D01*
X0079315Y0069365D02*
X0081798D01*
X0079315Y0069359D02*
X0081798D01*
X0079315Y0069353D02*
X0081798D01*
X0079315Y0069346D02*
X0081798D01*
X0079315Y006934D02*
X0081798D01*
X0079315Y0069334D02*
X0081798D01*
X0079315Y0069327D02*
X0081798D01*
X0079315Y0069321D02*
X0081798D01*
X0079315Y0069314D02*
X0081798D01*
X0079315Y0069308D02*
X0081798D01*
X0079315Y0069302D02*
X0081798D01*
X0079315Y0069295D02*
X0081798D01*
X0079315Y0069289D02*
X0081798D01*
X0079315Y0069283D02*
X0081791D01*
X0079315Y0069276D02*
X0081791D01*
X0079315Y006927D02*
X0081791D01*
X0079315Y0069264D02*
X0081791D01*
X0079315Y0069257D02*
X0081791D01*
X0079321Y0069251D02*
X0081791D01*
X0079321Y0069245D02*
X0081791D01*
X0079321Y0069238D02*
X0081791D01*
X0079321Y0069232D02*
X0081791D01*
X0079321Y0069226D02*
X0081791D01*
X0079321Y0069219D02*
X0081791D01*
X0079321Y0069213D02*
X0081575D01*
X0081582D02*
X0081791D01*
X0079321Y0069206D02*
X0081569D01*
X0081575D02*
X0081791D01*
X0079321Y00692D02*
X0081544D01*
X0081556D02*
X0081791D01*
X0079321Y0069194D02*
X0081544D01*
X0081556D02*
X0081791D01*
X0079321Y0069187D02*
X0081607D01*
X008162D02*
X0081791D01*
X0079321Y0069181D02*
X0081607D01*
X008162D02*
X0081791D01*
X0079321Y0069175D02*
X0081791D01*
X0079321Y0069168D02*
X0081791D01*
X0079321Y0069162D02*
X0081645D01*
X0081658D02*
X0081791D01*
X0079321Y0069156D02*
X0081652D01*
X0081658D02*
X0081791D01*
X0079321Y0069149D02*
X0081791D01*
X0079321Y0069143D02*
X0081791D01*
X0079321Y0069137D02*
X0081791D01*
X0079321Y006913D02*
X0081791D01*
X0079321Y0069124D02*
X0081791D01*
X0079321Y0069118D02*
X0081791D01*
X0079321Y0069111D02*
X0081791D01*
X0079321Y0069105D02*
X0081791D01*
X0079321Y0069099D02*
X0081791D01*
X0079327Y0069092D02*
X0081791D01*
X0079327Y0069086D02*
X0081791D01*
X0079327Y0069079D02*
X0081791D01*
X0079327Y0069073D02*
X0081791D01*
X0079327Y0069067D02*
X0081791D01*
X0079327Y006906D02*
X0081791D01*
X0079327Y0069054D02*
X0081791D01*
X0079327Y0069048D02*
X0081791D01*
X0079327Y0069041D02*
X0081791D01*
X0079327Y0069035D02*
X0081791D01*
X0079327Y0069029D02*
X0081791D01*
X0079327Y0069022D02*
X0081791D01*
X0079327Y0069016D02*
X0081671D01*
X0081753D02*
X0081759D01*
X0079327Y006901D02*
X0081385D01*
X0079327Y0069003D02*
X0081118D01*
X0079327Y0068997D02*
X0080839D01*
X0079327Y0068991D02*
X0080572D01*
X0079327Y0068984D02*
X0080451D01*
X0079327Y0068978D02*
X0080299D01*
X0080312D02*
X0080343D01*
X008035D02*
X0080451D01*
X0079327Y0068972D02*
X008035D01*
X0080356D02*
X0080451D01*
X0079327Y0068965D02*
X008035D01*
X0080356D02*
X0080451D01*
X0079327Y0068959D02*
X0080451D01*
X0079327Y0068952D02*
X0080451D01*
X0079327Y0068946D02*
X0080451D01*
X0079327Y006894D02*
X0080451D01*
X0079327Y0068933D02*
X0080337D01*
X008035D02*
X0080451D01*
X0079334Y0068927D02*
X0080337D01*
X008035D02*
X0080451D01*
X0079334Y0068921D02*
X0080451D01*
X0079334Y0068914D02*
X0080451D01*
X0079334Y0068908D02*
X0080451D01*
X0079334Y0068902D02*
X0080451D01*
X0079334Y0068895D02*
X0080451D01*
X0079334Y0068889D02*
X0080451D01*
X0079334Y0068883D02*
X0080451D01*
X0079334Y0068876D02*
X0080451D01*
X0079334Y006887D02*
X0080451D01*
X0079334Y0068864D02*
X0080451D01*
X0079334Y0068857D02*
X0080451D01*
X0079334Y0068851D02*
X0080451D01*
X0079334Y0068845D02*
X0080451D01*
X0079334Y0068838D02*
X0080451D01*
X0079334Y0068832D02*
X0080451D01*
X0079334Y0068826D02*
X0080451D01*
X0079334Y0068819D02*
X0080451D01*
X0079334Y0068813D02*
X0080451D01*
X0079334Y0068806D02*
X0080121D01*
X0080134D02*
X0080451D01*
X0079334Y00688D02*
X0080121D01*
X0080134D02*
X0080451D01*
X0079334Y0068794D02*
X008021D01*
X0080223D02*
X0080451D01*
X0079334Y0068787D02*
X008021D01*
X0080223D02*
X0080451D01*
X0079334Y0068781D02*
X0080451D01*
X0079334Y0068775D02*
X0080451D01*
X007934Y0068768D02*
X0080451D01*
X007934Y0068762D02*
X0080807D01*
X007934Y0068756D02*
X0080223D01*
X0080235D02*
X0081334D01*
X007934Y0068749D02*
X0080223D01*
X0080229D02*
X0081645D01*
X007934Y0068743D02*
X0081645D01*
X007934Y0068737D02*
X0081645D01*
X007934Y006873D02*
X0081645D01*
X007934Y0068724D02*
X0081645D01*
X007934Y0068718D02*
X0081645D01*
X007934Y0068711D02*
X0081652D01*
X007934Y0068705D02*
X0081652D01*
X007934Y0068699D02*
X0081652D01*
X007934Y0068692D02*
X0081652D01*
X007934Y0068686D02*
X0081652D01*
X007934Y0068679D02*
X0081652D01*
X007934Y0068673D02*
X0081652D01*
X0074838Y0068667D02*
X0075448D01*
X0075454D02*
X0075479D01*
X0077486D02*
X0078057D01*
X0078546D02*
X0079162D01*
X007934D02*
X0081652D01*
X0083938D02*
X0085442D01*
X0085843D02*
X0086439D01*
X0074838Y006866D02*
X0075486D01*
X0076451D02*
X0077308D01*
X0077473D02*
X007807D01*
X0078534D02*
X0079175D01*
X007934D02*
X0081652D01*
X0082382D02*
X008301D01*
X0083925D02*
X0085449D01*
X0085836D02*
X0086446D01*
X0086909D02*
X0087646D01*
X0074838Y0068654D02*
X0075486D01*
X0076451D02*
X0077308D01*
X0077473D02*
X0078076D01*
X0078534D02*
X0079169D01*
X007934D02*
X0081652D01*
X0082375D02*
X008301D01*
X0083925D02*
X0085449D01*
X008583D02*
X0086446D01*
X0086903D02*
X0087646D01*
X0074838Y0068648D02*
X0075492D01*
X0076445D02*
X0077302D01*
X0077473D02*
X0078083D01*
X0078534D02*
X0079169D01*
X007934D02*
X0081652D01*
X0082375D02*
X008301D01*
X0083919D02*
X0085449D01*
X008583D02*
X0086446D01*
X0086897D02*
X008764D01*
X0074838Y0068641D02*
X0075492D01*
X0076438D02*
X0077295D01*
X0077467D02*
X0078089D01*
X0078527D02*
X0079169D01*
X007934D02*
X0081652D01*
X0082375D02*
X0083004D01*
X0083919D02*
X0085442D01*
X008583D02*
X0086446D01*
X008689D02*
X0087633D01*
X0074844Y0068635D02*
X0075492D01*
X0076432D02*
X0077295D01*
X0077467D02*
X0078096D01*
X0078527D02*
X0079162D01*
X007934D02*
X0081544D01*
X0081556D02*
X0081652D01*
X0082369D02*
X0083004D01*
X0083912D02*
X0085442D01*
X008583D02*
X0086439D01*
X0086884D02*
X0087627D01*
X0074844Y0068629D02*
X0075492D01*
X0076432D02*
X0077289D01*
X0077467D02*
X0078102D01*
X0078527D02*
X0079162D01*
X007934D02*
X0081652D01*
X0082369D02*
X0083004D01*
X0083906D02*
X0085442D01*
X0085824D02*
X0086439D01*
X0086878D02*
X0087621D01*
X0074844Y0068622D02*
X0075498D01*
X0076425D02*
X0077283D01*
X0077467D02*
X0078108D01*
X0078527D02*
X0079162D01*
X007934D02*
X0081652D01*
X0082369D02*
X0083004D01*
X0083906D02*
X0085436D01*
X0085824D02*
X0086439D01*
X0086871D02*
X0087614D01*
X0074844Y0068616D02*
X0075498D01*
X0076419D02*
X0077276D01*
X0077461D02*
X0078115D01*
X0078521D02*
X0079156D01*
X007934D02*
X0081652D01*
X0082369D02*
X0082998D01*
X0083899D02*
X0085436D01*
X0085824D02*
X0086433D01*
X0086865D02*
X0087608D01*
X0074844Y006861D02*
X0075498D01*
X0076419D02*
X0077276D01*
X0077461D02*
X0078121D01*
X0078521D02*
X0079156D01*
X0079346D02*
X0081652D01*
X0082363D02*
X0082998D01*
X0083893D02*
X0085436D01*
X0085817D02*
X0086433D01*
X0086859D02*
X0087602D01*
X0074851Y0068603D02*
X0075498D01*
X0076413D02*
X007727D01*
X0077461D02*
X0078127D01*
X0078521D02*
X0079156D01*
X0079346D02*
X0081652D01*
X0082363D02*
X0082998D01*
X0083893D02*
X0085436D01*
X0085817D02*
X0086433D01*
X0086852D02*
X0087595D01*
X0074851Y0068597D02*
X0075498D01*
X0076406D02*
X0077264D01*
X0077454D02*
X0078134D01*
X0078521D02*
X0079156D01*
X0079346D02*
X0081652D01*
X0082363D02*
X0082991D01*
X0083887D02*
X008543D01*
X0085817D02*
X0086433D01*
X0086846D02*
X0087589D01*
X0074851Y0068591D02*
X0075505D01*
X00764D02*
X0077257D01*
X0077454D02*
X007814D01*
X0078515D02*
X007915D01*
X0079346D02*
X0081652D01*
X0082363D02*
X0082991D01*
X008388D02*
X008543D01*
X0085817D02*
X0086427D01*
X008684D02*
X0087582D01*
X0074851Y0068584D02*
X0075505D01*
X00764D02*
X0077251D01*
X0077454D02*
X0078146D01*
X0078515D02*
X007915D01*
X0079346D02*
X0081652D01*
X0082356D02*
X0082991D01*
X008388D02*
X008543D01*
X0085811D02*
X0086427D01*
X0086833D02*
X0087576D01*
X0074857Y0068578D02*
X0075505D01*
X0076394D02*
X0077251D01*
X0077454D02*
X0078159D01*
X0078515D02*
X007915D01*
X0079346D02*
X0081652D01*
X0082356D02*
X0082991D01*
X0083874D02*
X008543D01*
X0085811D02*
X0086427D01*
X0086827D02*
X008757D01*
X0074857Y0068572D02*
X0075505D01*
X0076387D02*
X0077245D01*
X0077448D02*
X0078165D01*
X0078515D02*
X0079143D01*
X0079346D02*
X0081652D01*
X0082356D02*
X0082985D01*
X0083874D02*
X0085423D01*
X0085811D02*
X008642D01*
X008682D02*
X0087563D01*
X0074857Y0068565D02*
X0075511D01*
X0076387D02*
X0077238D01*
X0077448D02*
X0078172D01*
X0078508D02*
X0079143D01*
X0079346D02*
X0081652D01*
X008235D02*
X0082985D01*
X0083868D02*
X0085423D01*
X0085811D02*
X008642D01*
X0086814D02*
X0087557D01*
X0074857Y0068559D02*
X0075511D01*
X0076381D02*
X0077232D01*
X0077448D02*
X0078178D01*
X0078508D02*
X0079143D01*
X0079346D02*
X0081652D01*
X008235D02*
X0082985D01*
X0083861D02*
X0085423D01*
X0085804D02*
X008642D01*
X0086808D02*
X0087551D01*
X0074857Y0068552D02*
X0075511D01*
X0076375D02*
X0077232D01*
X0077448D02*
X0078184D01*
X0078508D02*
X0079143D01*
X0079346D02*
X0081652D01*
X008235D02*
X0082979D01*
X0083861D02*
X0085423D01*
X0085804D02*
X008642D01*
X0086801D02*
X0087544D01*
X0074863Y0068546D02*
X0075511D01*
X0076375D02*
X0077226D01*
X0077441D02*
X0078191D01*
X0078508D02*
X0079137D01*
X0079346D02*
X0081652D01*
X008235D02*
X0082979D01*
X0083855D02*
X0085417D01*
X0085804D02*
X0086414D01*
X0086795D02*
X0087538D01*
X0074863Y006854D02*
X0075517D01*
X0076368D02*
X0077219D01*
X0077441D02*
X0078197D01*
X0078502D02*
X0079137D01*
X0079346D02*
X0081652D01*
X0082344D02*
X0082979D01*
X0083849D02*
X0085417D01*
X0085798D02*
X0086414D01*
X0086795D02*
X0087538D01*
X0074863Y0068533D02*
X0075517D01*
X0076362D02*
X0077213D01*
X0077441D02*
X0078203D01*
X0078502D02*
X0079137D01*
X0079346D02*
X0081652D01*
X0082344D02*
X0082979D01*
X0083849D02*
X0085417D01*
X0085798D02*
X0086414D01*
X0086789D02*
X0087532D01*
X0074863Y0068527D02*
X0075517D01*
X0076356D02*
X0077213D01*
X0077435D02*
X007821D01*
X0078502D02*
X0079131D01*
X0079346D02*
X0081652D01*
X0082344D02*
X0082972D01*
X0083842D02*
X0085417D01*
X0085798D02*
X0086408D01*
X0086782D02*
X0087525D01*
X0074863Y0068521D02*
X0075517D01*
X0076356D02*
X0077207D01*
X0077435D02*
X0078216D01*
X0078502D02*
X0079131D01*
X0079346D02*
X0081652D01*
X0082344D02*
X0082972D01*
X0083836D02*
X0085411D01*
X0085798D02*
X0086408D01*
X0086776D02*
X0087519D01*
X007487Y0068514D02*
X0075524D01*
X0076349D02*
X00772D01*
X0077435D02*
X0078223D01*
X0078496D02*
X0079131D01*
X0079346D02*
X0081652D01*
X0082337D02*
X0082972D01*
X0083836D02*
X0085411D01*
X0085792D02*
X0086408D01*
X008677D02*
X0087513D01*
X007487Y0068508D02*
X0075524D01*
X0076343D02*
X0077194D01*
X0077435D02*
X0078229D01*
X0078496D02*
X0079124D01*
X0079346D02*
X0081652D01*
X0082337D02*
X0082966D01*
X008383D02*
X0085411D01*
X0085792D02*
X0086408D01*
X0086763D02*
X0087506D01*
X007487Y0068502D02*
X0075524D01*
X0076343D02*
X0077188D01*
X0077429D02*
X0078235D01*
X0078496D02*
X0079124D01*
X0079346D02*
X0081652D01*
X0082337D02*
X0082966D01*
X0083823D02*
X0085404D01*
X0085792D02*
X0086401D01*
X0086757D02*
X00875D01*
X007487Y0068495D02*
X0075524D01*
X0076337D02*
X0077188D01*
X0077429D02*
X0078242D01*
X0078496D02*
X0079124D01*
X0079346D02*
X0081652D01*
X0082331D02*
X0082966D01*
X0083823D02*
X0085404D01*
X0085785D02*
X0086401D01*
X0086751D02*
X0087494D01*
X007487Y0068489D02*
X007553D01*
X007633D02*
X0077181D01*
X0077429D02*
X0078248D01*
X0078489D02*
X0079124D01*
X0079346D02*
X0081652D01*
X0082331D02*
X008296D01*
X0083817D02*
X0085404D01*
X0085785D02*
X0086401D01*
X0086744D02*
X0087487D01*
X0074876Y0068483D02*
X007553D01*
X0076324D02*
X0077175D01*
X0077422D02*
X0078254D01*
X0078489D02*
X0079118D01*
X0079346D02*
X0081652D01*
X0082331D02*
X008296D01*
X0083817D02*
X0085404D01*
X0085785D02*
X0086395D01*
X0086738D02*
X0087481D01*
X0074876Y0068476D02*
X007553D01*
X0076324D02*
X0077168D01*
X0077422D02*
X0078261D01*
X0078489D02*
X0079118D01*
X0079346D02*
X0081652D01*
X0082331D02*
X008296D01*
X0083811D02*
X0085398D01*
X0085785D02*
X0086395D01*
X0086732D02*
X0087475D01*
X0074876Y006847D02*
X007553D01*
X0076318D02*
X0077168D01*
X0077422D02*
X0078267D01*
X0078489D02*
X0079118D01*
X0079346D02*
X0081652D01*
X0082325D02*
X008296D01*
X0083804D02*
X0085398D01*
X0085779D02*
X0086395D01*
X0086725D02*
X0087468D01*
X0074876Y0068464D02*
X007553D01*
X0076311D02*
X0077162D01*
X0077422D02*
X0078273D01*
X0078483D02*
X0079112D01*
X0079346D02*
X0081652D01*
X0082325D02*
X0082953D01*
X0083804D02*
X0085398D01*
X0085779D02*
X0086395D01*
X0086719D02*
X0087462D01*
X0074876Y0068457D02*
X0075536D01*
X0076311D02*
X0077156D01*
X0077416D02*
X007828D01*
X0078483D02*
X0079112D01*
X0079346D02*
X0081652D01*
X0082325D02*
X0082953D01*
X0083798D02*
X0085398D01*
X0085779D02*
X0086389D01*
X0086713D02*
X0087455D01*
X0074882Y0068451D02*
X0075536D01*
X0076305D02*
X0077149D01*
X0077416D02*
X0078286D01*
X0078483D02*
X0079112D01*
X0079353D02*
X0081652D01*
X0082318D02*
X0082953D01*
X0083791D02*
X0085392D01*
X0085773D02*
X0086389D01*
X0086706D02*
X0087449D01*
X0074882Y0068445D02*
X0075536D01*
X0076299D02*
X0077143D01*
X0077416D02*
X0078292D01*
X0078483D02*
X0079112D01*
X0079353D02*
X0081652D01*
X0082318D02*
X0082947D01*
X0083791D02*
X0085392D01*
X0085773D02*
X0086389D01*
X00867D02*
X0087443D01*
X0074882Y0068438D02*
X0075536D01*
X0076292D02*
X0077143D01*
X007741D02*
X0078299D01*
X0078477D02*
X0079105D01*
X0079353D02*
X0081652D01*
X0082318D02*
X0082947D01*
X0083785D02*
X0085392D01*
X0085773D02*
X0086382D01*
X0086693D02*
X0087436D01*
X0074882Y0068432D02*
X0075543D01*
X0076292D02*
X0077137D01*
X007741D02*
X0078311D01*
X0078477D02*
X0079105D01*
X0079353D02*
X0081652D01*
X0082318D02*
X0082947D01*
X0083779D02*
X0085392D01*
X0085773D02*
X0086382D01*
X0086687D02*
X008743D01*
X0074882Y0068425D02*
X0075543D01*
X0076286D02*
X007713D01*
X007741D02*
X0078318D01*
X0078477D02*
X0079105D01*
X0079353D02*
X0081652D01*
X0082312D02*
X0082947D01*
X0083779D02*
X0085385D01*
X0085766D02*
X0086382D01*
X0086681D02*
X0087424D01*
X0074889Y0068419D02*
X0075543D01*
X0076279D02*
X0077124D01*
X007741D02*
X0078324D01*
X0078477D02*
X0079099D01*
X0079353D02*
X0081652D01*
X0082312D02*
X0082941D01*
X0083772D02*
X0085385D01*
X0085766D02*
X0086382D01*
X0086674D02*
X0087417D01*
X0074889Y0068413D02*
X0075543D01*
X0076279D02*
X0077124D01*
X0077403D02*
X007833D01*
X007847D02*
X0079099D01*
X0079353D02*
X0081652D01*
X0082312D02*
X0082941D01*
X0083772D02*
X0085385D01*
X0085766D02*
X0086376D01*
X0086668D02*
X0087411D01*
X0074889Y0068406D02*
X0075549D01*
X0076273D02*
X0077118D01*
X0077403D02*
X0078337D01*
X007847D02*
X0079099D01*
X0079353D02*
X0081652D01*
X0082312D02*
X0082941D01*
X0083766D02*
X0085379D01*
X008576D02*
X0086376D01*
X0086662D02*
X0087405D01*
X0074889Y00684D02*
X0075549D01*
X0076267D02*
X0077111D01*
X0077403D02*
X0078343D01*
X007847D02*
X0079092D01*
X0079353D02*
X0081652D01*
X0082306D02*
X0082934D01*
X008376D02*
X0085379D01*
X008576D02*
X0086376D01*
X0086655D02*
X0087398D01*
X0074889Y0068394D02*
X0075549D01*
X007626D02*
X0077105D01*
X0077397D02*
X007835D01*
X007847D02*
X0079092D01*
X0079353D02*
X0081652D01*
X0082306D02*
X0082934D01*
X008376D02*
X0085379D01*
X008576D02*
X008637D01*
X0086649D02*
X0087392D01*
X0074895Y0068387D02*
X0075549D01*
X007626D02*
X0077105D01*
X0077397D02*
X0078356D01*
X0078464D02*
X0079092D01*
X0079353D02*
X0081652D01*
X0082306D02*
X0082934D01*
X0083753D02*
X0085379D01*
X008576D02*
X008637D01*
X0086643D02*
X0087386D01*
X0074895Y0068381D02*
X0075556D01*
X0076254D02*
X0077099D01*
X0077397D02*
X0078362D01*
X0078464D02*
X0079092D01*
X0079353D02*
X0081652D01*
X0082299D02*
X0082934D01*
X0083747D02*
X0085373D01*
X0085754D02*
X008637D01*
X0086636D02*
X0087386D01*
X0074895Y0068375D02*
X0075556D01*
X0076248D02*
X0077092D01*
X0077397D02*
X0078369D01*
X0078464D02*
X0079086D01*
X0079353D02*
X0081652D01*
X0082299D02*
X0082928D01*
X0083747D02*
X0085373D01*
X0085754D02*
X008637D01*
X008663D02*
X0087379D01*
X0074895Y0068368D02*
X0075556D01*
X0076248D02*
X0077086D01*
X0077391D02*
X0078375D01*
X0078464D02*
X0079086D01*
X0079353D02*
X0081652D01*
X0082299D02*
X0082928D01*
X0083741D02*
X0085373D01*
X0085754D02*
X0086363D01*
X0086624D02*
X0087373D01*
X0074895Y0068362D02*
X0075556D01*
X0076241D02*
X007708D01*
X0077391D02*
X0078381D01*
X0078457D02*
X0079086D01*
X0079353D02*
X0081652D01*
X0082299D02*
X0082928D01*
X0083734D02*
X0085373D01*
X0085747D02*
X0086363D01*
X0086617D02*
X0087367D01*
X0074901Y0068356D02*
X0075562D01*
X0076235D02*
X007708D01*
X0077391D02*
X0078388D01*
X0078457D02*
X007908D01*
X0079353D02*
X0081652D01*
X0082293D02*
X0082922D01*
X0083734D02*
X0085366D01*
X0085747D02*
X0086363D01*
X0086611D02*
X008736D01*
X0074901Y0068349D02*
X0075562D01*
X0076235D02*
X0077073D01*
X0077384D02*
X0078394D01*
X0078457D02*
X007908D01*
X0079353D02*
X0081652D01*
X0082293D02*
X0082922D01*
X0083728D02*
X0085366D01*
X0085747D02*
X0086357D01*
X0086605D02*
X0087354D01*
X0074901Y0068343D02*
X0075562D01*
X0076229D02*
X0077067D01*
X0077384D02*
X00784D01*
X0078457D02*
X007908D01*
X0079353D02*
X0081652D01*
X0082293D02*
X0082922D01*
X0083728D02*
X0085366D01*
X0085747D02*
X0086357D01*
X0086598D02*
X0087348D01*
X0074901Y0068337D02*
X0075562D01*
X0076222D02*
X0077061D01*
X0077384D02*
X0078407D01*
X0078451D02*
X007908D01*
X0079353D02*
X0081652D01*
X0082293D02*
X0082915D01*
X0083722D02*
X0085366D01*
X0085741D02*
X0086357D01*
X0086592D02*
X0087341D01*
X0074901Y006833D02*
X0075562D01*
X0076216D02*
X0077061D01*
X0077384D02*
X0078413D01*
X0078451D02*
X0079073D01*
X0079353D02*
X0081652D01*
X0082287D02*
X0082915D01*
X0083715D02*
X008536D01*
X0085741D02*
X0086357D01*
X0086586D02*
X0087335D01*
X0074908Y0068324D02*
X0075568D01*
X0076216D02*
X0077054D01*
X0077378D02*
X0078419D01*
X0078451D02*
X0079073D01*
X0079353D02*
X0081652D01*
X0082287D02*
X0082915D01*
X0083715D02*
X008536D01*
X0085741D02*
X0086351D01*
X0086579D02*
X0087328D01*
X0074908Y0068317D02*
X0075568D01*
X007621D02*
X0077048D01*
X0077378D02*
X0078426D01*
X0078451D02*
X0079073D01*
X0079353D02*
X0081652D01*
X0082287D02*
X0082915D01*
X0083709D02*
X008536D01*
X0085735D02*
X0086351D01*
X0086573D02*
X0087322D01*
X0074908Y0068311D02*
X0075568D01*
X0076203D02*
X0077041D01*
X0077378D02*
X0078432D01*
X0078445D02*
X0079067D01*
X0079353D02*
X0081652D01*
X008228D02*
X0082909D01*
X0083703D02*
X008536D01*
X0085735D02*
X0086351D01*
X0086566D02*
X0087316D01*
X0074908Y0068305D02*
X0075568D01*
X0076203D02*
X0077041D01*
X0077378D02*
X0078438D01*
X0078445D02*
X0079067D01*
X0079353D02*
X0081652D01*
X008228D02*
X0082909D01*
X0083703D02*
X0085354D01*
X0085735D02*
X0086344D01*
X008656D02*
X0087309D01*
X0074908Y0068298D02*
X0075575D01*
X0076197D02*
X0077035D01*
X0077372D02*
X0079067D01*
X0079353D02*
X0081652D01*
X008228D02*
X0082909D01*
X0083696D02*
X0085354D01*
X0085735D02*
X0086344D01*
X0086554D02*
X0087303D01*
X0074914Y0068292D02*
X0075575D01*
X0076191D02*
X0077029D01*
X0077372D02*
X0079067D01*
X0079359D02*
X0081652D01*
X008228D02*
X0082902D01*
X008369D02*
X0085354D01*
X0085728D02*
X0086344D01*
X0086547D02*
X0087297D01*
X0074914Y0068286D02*
X0075575D01*
X0076184D02*
X0077022D01*
X0077372D02*
X0079061D01*
X0079359D02*
X0081652D01*
X0082274D02*
X0082902D01*
X008369D02*
X0085347D01*
X0085728D02*
X0086344D01*
X0086541D02*
X008729D01*
X0074914Y0068279D02*
X0075575D01*
X0076184D02*
X0077016D01*
X0077365D02*
X0079061D01*
X0079359D02*
X0081652D01*
X0082274D02*
X0082902D01*
X0083684D02*
X0085347D01*
X0085728D02*
X0086338D01*
X0086535D02*
X0087284D01*
X0074914Y0068273D02*
X0075581D01*
X0076178D02*
X0077016D01*
X0077365D02*
X0079061D01*
X0079359D02*
X0081652D01*
X0082274D02*
X0082902D01*
X0083677D02*
X0085347D01*
X0085722D02*
X0086338D01*
X0086528D02*
X0087278D01*
X0074914Y0068267D02*
X0075581D01*
X0076172D02*
X007701D01*
X0077365D02*
X0079054D01*
X0079359D02*
X0081652D01*
X0082274D02*
X0082896D01*
X0083677D02*
X0085347D01*
X0085722D02*
X0086338D01*
X0086522D02*
X0087271D01*
X0074921Y006826D02*
X0075581D01*
X0076172D02*
X0077003D01*
X0077365D02*
X0079054D01*
X0079359D02*
X0081652D01*
X0082268D02*
X0082896D01*
X0083671D02*
X0085341D01*
X0085722D02*
X0086331D01*
X0086516D02*
X0087265D01*
X0074921Y0068254D02*
X0075581D01*
X0076165D02*
X0076997D01*
X0077359D02*
X0079054D01*
X0079359D02*
X0081652D01*
X0082268D02*
X0082896D01*
X0083671D02*
X0085341D01*
X0085722D02*
X0086331D01*
X0086509D02*
X0087259D01*
X0074921Y0068248D02*
X0075587D01*
X0076159D02*
X0076997D01*
X0077359D02*
X0079048D01*
X0079359D02*
X0081652D01*
X0082268D02*
X008289D01*
X0083664D02*
X0085341D01*
X0085716D02*
X0086331D01*
X0086503D02*
X0087252D01*
X0074921Y0068241D02*
X0075587D01*
X0076152D02*
X0076991D01*
X0077359D02*
X0079048D01*
X0079359D02*
X0081652D01*
X0082261D02*
X008289D01*
X0083658D02*
X0085341D01*
X0085716D02*
X0086331D01*
X0086497D02*
X0087246D01*
X0074921Y0068235D02*
X0075587D01*
X0076152D02*
X0076984D01*
X0077353D02*
X0079048D01*
X0079359D02*
X0081652D01*
X0082261D02*
X008289D01*
X0083658D02*
X0085335D01*
X0085716D02*
X0086325D01*
X0086497D02*
X008724D01*
X0079359Y0068229D02*
X0081652D01*
X0079359Y0068222D02*
X0081652D01*
X0079359Y0068216D02*
X0081652D01*
X0079359Y006821D02*
X0081652D01*
X0079359Y0068203D02*
X0081652D01*
X0079359Y0068197D02*
X0081652D01*
X0079359Y006819D02*
X0081652D01*
X0079359Y0068184D02*
X0081652D01*
X0079359Y0068178D02*
X0081652D01*
X0079359Y0068171D02*
X0081652D01*
X0079359Y0068165D02*
X0081652D01*
X0079359Y0068159D02*
X0081652D01*
X0079359Y0068152D02*
X0081652D01*
X0079359Y0068146D02*
X0081652D01*
X0079359Y006814D02*
X0081652D01*
X0079366Y0068133D02*
X0081652D01*
X0079366Y0068127D02*
X0081652D01*
X0079366Y0068121D02*
X0081652D01*
X0079366Y0068114D02*
X0081652D01*
X0079366Y0068108D02*
X0081652D01*
X0079366Y0068102D02*
X0081652D01*
X0079366Y0068095D02*
X0081652D01*
X0079366Y0068089D02*
X0081652D01*
X0079366Y0068083D02*
X0081652D01*
X0079366Y0068076D02*
X0081652D01*
X0079366Y006807D02*
X0081652D01*
X0074959Y0068063D02*
X0075619D01*
X0076699D02*
X0076832D01*
X0079366D02*
X0081652D01*
X0074959Y0068057D02*
X0075625D01*
X0076D02*
X0076832D01*
X0077302D02*
X007901D01*
X0079366D02*
X0081652D01*
X0082217D02*
X0082845D01*
X008376D02*
X0085284D01*
X0085665D02*
X0087081D01*
X0074959Y0068051D02*
X0075625D01*
X0075994D02*
X0076826D01*
X0077302D02*
X007901D01*
X0079366D02*
X0081652D01*
X0082217D02*
X0082839D01*
X008376D02*
X0085284D01*
X0085665D02*
X0087074D01*
X0074959Y0068044D02*
X0075625D01*
X0075987D02*
X0076819D01*
X0077302D02*
X007901D01*
X0079366D02*
X0081652D01*
X008221D02*
X0082839D01*
X0083753D02*
X0085277D01*
X0085658D02*
X0087068D01*
X0074959Y0068038D02*
X0075632D01*
X0075981D02*
X0076813D01*
X0077295D02*
X0079004D01*
X0079366D02*
X0081652D01*
X008221D02*
X0082839D01*
X0083753D02*
X0085277D01*
X0085658D02*
X0087062D01*
X0074965Y0068032D02*
X0075632D01*
X0075981D02*
X0076813D01*
X0077295D02*
X0079004D01*
X0079366D02*
X0081652D01*
X008221D02*
X0082839D01*
X0083753D02*
X0085277D01*
X0085658D02*
X0087055D01*
X0074965Y0068025D02*
X0075632D01*
X0075975D02*
X0076807D01*
X0077295D02*
X0079004D01*
X0079366D02*
X0081652D01*
X0082204D02*
X0082833D01*
X0083753D02*
X0085271D01*
X0085652D02*
X0087049D01*
X0074965Y0068019D02*
X0075632D01*
X0075968D02*
X00768D01*
X0077289D02*
X0078997D01*
X0079366D02*
X0081652D01*
X0082204D02*
X0082833D01*
X0083747D02*
X0085271D01*
X0085652D02*
X0087043D01*
X0074965Y0068013D02*
X0075638D01*
X0075968D02*
X0076794D01*
X0077289D02*
X0078997D01*
X0079366D02*
X0081652D01*
X0082204D02*
X0082833D01*
X0083747D02*
X0085271D01*
X0085652D02*
X0087036D01*
X0074965Y0068006D02*
X0075638D01*
X0075962D02*
X0076787D01*
X0077289D02*
X0078997D01*
X0079366D02*
X0081652D01*
X0082204D02*
X0082833D01*
X0083747D02*
X0085271D01*
X0085652D02*
X008703D01*
X0074971Y0068D02*
X0075638D01*
X0075956D02*
X0076781D01*
X0077289D02*
X0078997D01*
X0079366D02*
X0081652D01*
X0082198D02*
X0082826D01*
X0083747D02*
X0085265D01*
X0085646D02*
X0087024D01*
X0074971Y0067994D02*
X0075638D01*
X0075949D02*
X0076781D01*
X0077283D02*
X0078991D01*
X0079366D02*
X0081652D01*
X0082198D02*
X0082826D01*
X0083741D02*
X0085265D01*
X0085646D02*
X0087017D01*
X0074971Y0067987D02*
X0075644D01*
X0075949D02*
X0076775D01*
X0077283D02*
X0078991D01*
X0079366D02*
X0081652D01*
X0082198D02*
X0082826D01*
X0083741D02*
X0085265D01*
X0085646D02*
X0087011D01*
X0074971Y0067981D02*
X0075644D01*
X0075943D02*
X0076768D01*
X0077283D02*
X0078991D01*
X0079366D02*
X0081442D01*
X0081455D02*
X0081652D01*
X0082198D02*
X008282D01*
X0083741D02*
X0085265D01*
X0085639D02*
X0087005D01*
X0074971Y0067975D02*
X0075644D01*
X0075937D02*
X0076762D01*
X0077283D02*
X0078991D01*
X0079372D02*
X0081442D01*
X0081455D02*
X0081652D01*
X0082191D02*
X008282D01*
X0083734D02*
X0085258D01*
X0085639D02*
X0086998D01*
X0074978Y0067968D02*
X0075644D01*
X0075937D02*
X0076756D01*
X0077276D02*
X0078985D01*
X0079372D02*
X0081652D01*
X0082191D02*
X008282D01*
X0083734D02*
X0085258D01*
X0085639D02*
X0086992D01*
X0074978Y0067962D02*
X0075651D01*
X007593D02*
X0076749D01*
X0077276D02*
X0078985D01*
X0079372D02*
X0081652D01*
X0082191D02*
X008282D01*
X0083734D02*
X0085258D01*
X0085639D02*
X0086986D01*
X0074978Y0067956D02*
X0075651D01*
X0075924D02*
X0076749D01*
X0077276D02*
X0078985D01*
X0079372D02*
X0081652D01*
X0082185D02*
X0082814D01*
X0083734D02*
X0085258D01*
X0085633D02*
X0086979D01*
X0074978Y0067949D02*
X0075651D01*
X0075918D02*
X0076743D01*
X007727D02*
X0078985D01*
X0079372D02*
X0081652D01*
X0082185D02*
X0082814D01*
X0083728D02*
X0085252D01*
X0085633D02*
X0086973D01*
X0074978Y0067943D02*
X0075651D01*
X0075918D02*
X0076737D01*
X007727D02*
X0078978D01*
X0079372D02*
X0081652D01*
X0082185D02*
X0082814D01*
X0083728D02*
X0085252D01*
X0085633D02*
X0086966D01*
X0074984Y0067937D02*
X0075651D01*
X0075911D02*
X007673D01*
X007727D02*
X0078978D01*
X0079372D02*
X0081652D01*
X0082185D02*
X0082807D01*
X0083728D02*
X0085252D01*
X0085627D02*
X008696D01*
X0074984Y006793D02*
X0075657D01*
X0075905D02*
X0076724D01*
X007727D02*
X0077867D01*
X007788D02*
X0078978D01*
X0079372D02*
X0081652D01*
X0082179D02*
X0082807D01*
X0083728D02*
X0085252D01*
X0085627D02*
X0086954D01*
X0074984Y0067924D02*
X0075657D01*
X0075905D02*
X0076718D01*
X0077264D02*
X0077867D01*
X0077886D02*
X0078972D01*
X0079372D02*
X0081652D01*
X0082179D02*
X0082807D01*
X0083722D02*
X0085246D01*
X0085627D02*
X0086947D01*
X0074984Y0067917D02*
X0075657D01*
X0075898D02*
X0076718D01*
X0077264D02*
X0077867D01*
X0077892D02*
X0078972D01*
X0079372D02*
X0081652D01*
X0082179D02*
X0082807D01*
X0083722D02*
X0085246D01*
X0085627D02*
X0086941D01*
X0074984Y0067911D02*
X0075657D01*
X0075892D02*
X0076711D01*
X0077264D02*
X0077861D01*
X0077899D02*
X0078972D01*
X0079372D02*
X0081652D01*
X0082172D02*
X0082801D01*
X0083722D02*
X0085246D01*
X008562D02*
X0086935D01*
X007499Y0067905D02*
X0075663D01*
X0075886D02*
X0076705D01*
X0077264D02*
X0077861D01*
X0077905D02*
X0078972D01*
X0079372D02*
X0081652D01*
X0082172D02*
X0082801D01*
X0083722D02*
X0085239D01*
X008562D02*
X0086928D01*
X007499Y0067898D02*
X0075663D01*
X0075886D02*
X0076699D01*
X0077257D02*
X0077861D01*
X0077918D02*
X0078965D01*
X0079372D02*
X0081652D01*
X0082172D02*
X0082801D01*
X0083715D02*
X0085239D01*
X008562D02*
X0086922D01*
X007499Y0067892D02*
X0075663D01*
X0075879D02*
X0076692D01*
X0077257D02*
X0077861D01*
X0077924D02*
X0078965D01*
X0079372D02*
X0081639D01*
X0082172D02*
X0082801D01*
X0083715D02*
X0085239D01*
X0085614D02*
X0086916D01*
X007499Y0067886D02*
X0075663D01*
X0075873D02*
X0076686D01*
X0077257D02*
X0077854D01*
X007793D02*
X0078965D01*
X0079372D02*
X008162D01*
X0082166D02*
X0082795D01*
X0083715D02*
X0085239D01*
X0085614D02*
X0086909D01*
X007499Y0067879D02*
X007567D01*
X0075873D02*
X0076686D01*
X0077251D02*
X0077854D01*
X0077937D02*
X0078965D01*
X0079372D02*
X0080458D01*
X008049D02*
X0081601D01*
X0082166D02*
X0082795D01*
X0083715D02*
X0085233D01*
X0085614D02*
X0086903D01*
X0074997Y0067873D02*
X007567D01*
X0075867D02*
X0076679D01*
X0077251D02*
X0077854D01*
X0077943D02*
X0078959D01*
X0079372D02*
X0080458D01*
X0080547D02*
X0081582D01*
X0082166D02*
X0082795D01*
X0083709D02*
X0085233D01*
X0085614D02*
X0086897D01*
X0074997Y0067867D02*
X007567D01*
X007586D02*
X0076673D01*
X0077251D02*
X0077848D01*
X007795D02*
X0078959D01*
X0079372D02*
X0080458D01*
X008061D02*
X0081563D01*
X008216D02*
X0082788D01*
X0083709D02*
X0085233D01*
X0085608D02*
X008689D01*
X0074997Y006786D02*
X007567D01*
X0075854D02*
X0076667D01*
X0077251D02*
X0077848D01*
X0077956D02*
X0078959D01*
X0079372D02*
X0080458D01*
X0080667D02*
X0081544D01*
X008216D02*
X0082788D01*
X0083709D02*
X0085233D01*
X0085608D02*
X0086884D01*
X0074997Y0067854D02*
X0075676D01*
X0075854D02*
X007666D01*
X0077245D02*
X0077848D01*
X0077962D02*
X0078959D01*
X0079372D02*
X0080458D01*
X0080731D02*
X0081525D01*
X008216D02*
X0082788D01*
X0083703D02*
X0085227D01*
X0085608D02*
X0086878D01*
X0074997Y0067848D02*
X0075676D01*
X0075848D02*
X0076654D01*
X0077245D02*
X0077848D01*
X0077969D02*
X0078953D01*
X0079372D02*
X0080458D01*
X0080788D02*
X0081506D01*
X008216D02*
X0082788D01*
X0083703D02*
X0085227D01*
X0085601D02*
X0086871D01*
X0075003Y0067841D02*
X0075676D01*
X0075841D02*
X0076654D01*
X0077245D02*
X0077842D01*
X0077975D02*
X0078953D01*
X0079372D02*
X0080458D01*
X0080851D02*
X0081486D01*
X0082153D02*
X0082782D01*
X0083703D02*
X0085227D01*
X0085601D02*
X0086865D01*
X0075003Y0067835D02*
X0075676D01*
X0075841D02*
X0076648D01*
X0077245D02*
X0077842D01*
X0077981D02*
X0078953D01*
X0079372D02*
X0080458D01*
X0080915D02*
X0081467D01*
X0082153D02*
X0082782D01*
X0083703D02*
X0085227D01*
X0085601D02*
X0086859D01*
X0075003Y0067829D02*
X0075683D01*
X0075835D02*
X0076641D01*
X0077238D02*
X0077842D01*
X0077994D02*
X0078953D01*
X0079372D02*
X0080458D01*
X0080972D02*
X0081448D01*
X0082153D02*
X0082782D01*
X0083696D02*
X008522D01*
X0085601D02*
X0086852D01*
X0075003Y0067822D02*
X0075683D01*
X0075829D02*
X0076635D01*
X0077238D02*
X0077835D01*
X0078D02*
X0078946D01*
X0079372D02*
X0080458D01*
X0081036D02*
X0081429D01*
X0082153D02*
X0082775D01*
X0083696D02*
X008522D01*
X0085595D02*
X0086846D01*
X0075009Y0067816D02*
X0075683D01*
X0075822D02*
X0076629D01*
X0077238D02*
X0077835D01*
X0078007D02*
X0078946D01*
X0079372D02*
X0080458D01*
X0081093D02*
X008141D01*
X0082147D02*
X0082775D01*
X0083696D02*
X008522D01*
X0085595D02*
X0086846D01*
X0075009Y006781D02*
X0075683D01*
X0075822D02*
X0076622D01*
X0077232D02*
X0077835D01*
X0078013D02*
X0078946D01*
X0079378D02*
X0080458D01*
X0081156D02*
X0081391D01*
X0082147D02*
X0082775D01*
X0083696D02*
X008522D01*
X0085595D02*
X008684D01*
X0075009Y0067803D02*
X0075689D01*
X0075816D02*
X0076622D01*
X0077232D02*
X0077835D01*
X0078019D02*
X007894D01*
X0079378D02*
X0080458D01*
X0081213D02*
X0081372D01*
X0082147D02*
X0082775D01*
X008369D02*
X0085214D01*
X0085589D02*
X0086833D01*
X0075009Y0067797D02*
X0075689D01*
X007581D02*
X0076616D01*
X0077232D02*
X0077829D01*
X0078026D02*
X007894D01*
X0079378D02*
X0080458D01*
X0081277D02*
X0081366D01*
X0082141D02*
X0082769D01*
X008369D02*
X0085214D01*
X0085589D02*
X0086827D01*
X0075009Y006779D02*
X0075689D01*
X007581D02*
X007661D01*
X0077232D02*
X0077829D01*
X0078032D02*
X007894D01*
X0079378D02*
X0080458D01*
X0082141D02*
X0082769D01*
X008369D02*
X0085214D01*
X0085589D02*
X008682D01*
X0075016Y0067784D02*
X0075689D01*
X0075803D02*
X0076603D01*
X0077226D02*
X0077829D01*
X0078038D02*
X007894D01*
X0079378D02*
X0080458D01*
X0082141D02*
X0082769D01*
X008369D02*
X0085208D01*
X0085589D02*
X0086814D01*
X0075016Y0067778D02*
X0075689D01*
X0075797D02*
X0076597D01*
X0077226D02*
X0077829D01*
X0078045D02*
X0078934D01*
X0079378D02*
X0080458D01*
X0082141D02*
X0082769D01*
X0083684D02*
X0085208D01*
X0085582D02*
X0086808D01*
X0075016Y0067771D02*
X0075695D01*
X007579D02*
X0076591D01*
X0077226D02*
X0077823D01*
X0078051D02*
X0078934D01*
X0079378D02*
X0080458D01*
X0082134D02*
X0082763D01*
X0083684D02*
X0085208D01*
X0085582D02*
X0086801D01*
X0075016Y0067765D02*
X0075695D01*
X007579D02*
X0076591D01*
X0077226D02*
X0077823D01*
X0078064D02*
X0078934D01*
X0079378D02*
X0080458D01*
X0082134D02*
X0082763D01*
X0083684D02*
X0085208D01*
X0085582D02*
X0086795D01*
X0075016Y0067759D02*
X0075695D01*
X0075784D02*
X0076584D01*
X0077219D02*
X0077823D01*
X007807D02*
X0078934D01*
X0079378D02*
X0080458D01*
X0082134D02*
X0082763D01*
X0083677D02*
X0085201D01*
X0085576D02*
X0086789D01*
X0075022Y0067752D02*
X0075695D01*
X0075778D02*
X0076578D01*
X0077219D02*
X0077816D01*
X0078076D02*
X0078927D01*
X0079378D02*
X0080458D01*
X0082128D02*
X0082756D01*
X0083677D02*
X0085201D01*
X0085576D02*
X0086782D01*
X0075022Y0067746D02*
X0075702D01*
X0075778D02*
X0076572D01*
X0077219D02*
X0077816D01*
X0078083D02*
X0078927D01*
X0079378D02*
X0080458D01*
X0082128D02*
X0082756D01*
X0083677D02*
X0085201D01*
X0085576D02*
X0086776D01*
X0075022Y006774D02*
X0075702D01*
X0075771D02*
X0076565D01*
X0077213D02*
X0077816D01*
X0078089D02*
X0078927D01*
X0079378D02*
X0080458D01*
X0082128D02*
X0082756D01*
X0083677D02*
X0085201D01*
X0085576D02*
X008677D01*
X0075022Y0067733D02*
X0075702D01*
X0075765D02*
X0076565D01*
X0077213D02*
X0077816D01*
X0078096D02*
X0078927D01*
X0079378D02*
X0080458D01*
X0082128D02*
X0082756D01*
X0083671D02*
X0085195D01*
X008557D02*
X0086763D01*
X0075022Y0067727D02*
X0075702D01*
X0075759D02*
X0076559D01*
X0077213D02*
X007781D01*
X0078102D02*
X0078921D01*
X0079378D02*
X0080458D01*
X0082121D02*
X008275D01*
X0083671D02*
X0085195D01*
X008557D02*
X0086757D01*
X0075029Y0067721D02*
X0075708D01*
X0075759D02*
X0076552D01*
X0077213D02*
X007781D01*
X0078108D02*
X0078921D01*
X0079378D02*
X0080458D01*
X0082121D02*
X008275D01*
X0083671D02*
X0085195D01*
X008557D02*
X0086751D01*
X0075029Y0067714D02*
X0075708D01*
X0075752D02*
X0076546D01*
X0077207D02*
X007781D01*
X0078115D02*
X0078921D01*
X0079378D02*
X0080458D01*
X0082121D02*
X008275D01*
X0083671D02*
X0085195D01*
X0085563D02*
X0086744D01*
X0075029Y0067708D02*
X0075708D01*
X0075746D02*
X007654D01*
X0077207D02*
X0077803D01*
X0078121D02*
X0078915D01*
X0079378D02*
X0080458D01*
X0082115D02*
X0082744D01*
X0083664D02*
X0085188D01*
X0085563D02*
X0086738D01*
X0075029Y0067702D02*
X0075708D01*
X0075746D02*
X0076533D01*
X0077207D02*
X0077803D01*
X0078127D02*
X0078915D01*
X0079378D02*
X0080458D01*
X0082115D02*
X0082744D01*
X0083664D02*
X0085188D01*
X0085563D02*
X0086744D01*
X0075029Y0067695D02*
X0075714D01*
X007574D02*
X0076533D01*
X0077207D02*
X0077803D01*
X007814D02*
X0078915D01*
X0079378D02*
X0080458D01*
X0082115D02*
X0082744D01*
X0083664D02*
X0085188D01*
X0085563D02*
X0086744D01*
X0075035Y0067689D02*
X0075714D01*
X0075733D02*
X0076527D01*
X00772D02*
X0077803D01*
X0078146D02*
X0078915D01*
X0079378D02*
X0080324D01*
X0080337D02*
X0080458D01*
X0082115D02*
X0082744D01*
X0083664D02*
X0085188D01*
X0085557D02*
X0086751D01*
X0075035Y0067683D02*
X0075714D01*
X0075727D02*
X0076521D01*
X00772D02*
X0077797D01*
X0078153D02*
X0078908D01*
X0079378D02*
X0080324D01*
X0080337D02*
X0080458D01*
X0082109D02*
X0082737D01*
X0083658D02*
X0085182D01*
X0085557D02*
X0086751D01*
X0075035Y0067676D02*
X0075714D01*
X0075727D02*
X0076514D01*
X00772D02*
X0077797D01*
X0078159D02*
X0078908D01*
X0079378D02*
X008035D01*
X0080363D02*
X0080458D01*
X0082109D02*
X0082737D01*
X0083658D02*
X0085182D01*
X0085557D02*
X0086757D01*
X0075035Y006767D02*
X0076508D01*
X0077194D02*
X0077797D01*
X0078165D02*
X0078908D01*
X0079378D02*
X008035D01*
X0080363D02*
X0080458D01*
X0082109D02*
X0082737D01*
X0083658D02*
X0085182D01*
X008555D02*
X0086757D01*
X0075035Y0067663D02*
X0076502D01*
X0077194D02*
X0077791D01*
X0078172D02*
X0078908D01*
X0079378D02*
X0080458D01*
X0082109D02*
X0082737D01*
X0083652D02*
X0085176D01*
X008555D02*
X0086763D01*
X0075041Y0067657D02*
X0076502D01*
X0077194D02*
X0077791D01*
X0078178D02*
X0078902D01*
X0079378D02*
X008047D01*
X0082102D02*
X0082731D01*
X0083652D02*
X0085176D01*
X008555D02*
X0086763D01*
X0075041Y0067651D02*
X0076495D01*
X0077194D02*
X0077791D01*
X0078184D02*
X0078902D01*
X0079385D02*
X0080305D01*
X0080312D02*
X0080521D01*
X0082102D02*
X0082731D01*
X0083652D02*
X0085176D01*
X008555D02*
X008677D01*
X0075041Y0067644D02*
X0076489D01*
X0077188D02*
X0077791D01*
X0078191D02*
X0078902D01*
X0079385D02*
X0080305D01*
X0080312D02*
X0080572D01*
X0082102D02*
X0082731D01*
X0083652D02*
X0085176D01*
X0085544D02*
X008677D01*
X0075041Y0067638D02*
X0076483D01*
X0077188D02*
X0077784D01*
X0078197D02*
X0078902D01*
X0079385D02*
X0080629D01*
X0082096D02*
X0082725D01*
X0083645D02*
X0085169D01*
X0085544D02*
X0086776D01*
X0075041Y0067632D02*
X0076476D01*
X0077188D02*
X0077784D01*
X0078203D02*
X0078896D01*
X0079385D02*
X008068D01*
X0082096D02*
X0082725D01*
X0083645D02*
X0085169D01*
X0085544D02*
X0086776D01*
X0075048Y0067625D02*
X007647D01*
X0077188D02*
X0077784D01*
X0078216D02*
X0078896D01*
X0079385D02*
X0080731D01*
X0082096D02*
X0082725D01*
X0083645D02*
X0085169D01*
X0085538D02*
X0086782D01*
X0075048Y0067619D02*
X007647D01*
X0077181D02*
X0077784D01*
X0078223D02*
X0078896D01*
X0079385D02*
X0080782D01*
X0082096D02*
X0082725D01*
X0083645D02*
X0085169D01*
X0085538D02*
X0086782D01*
X0075048Y0067613D02*
X0076464D01*
X0077181D02*
X0077778D01*
X0078229D02*
X0078896D01*
X0079385D02*
X0080235D01*
X0080242D02*
X0080839D01*
X008209D02*
X0082718D01*
X0083639D02*
X0085163D01*
X0085538D02*
X0086789D01*
X0075048Y0067606D02*
X0076457D01*
X0077181D02*
X0077778D01*
X0078235D02*
X0078889D01*
X0079385D02*
X0080235D01*
X0080248D02*
X008089D01*
X008209D02*
X0082718D01*
X0083639D02*
X0085163D01*
X0085538D02*
X0086789D01*
X0075054Y00676D02*
X0076451D01*
X0077175D02*
X0077778D01*
X0078242D02*
X0078889D01*
X0079385D02*
X008094D01*
X008209D02*
X0082718D01*
X0083639D02*
X0085163D01*
X0085531D02*
X0086795D01*
X0075054Y0067594D02*
X0076445D01*
X0077175D02*
X0077772D01*
X0078248D02*
X0078889D01*
X0079385D02*
X0080991D01*
X0082083D02*
X0082712D01*
X0083639D02*
X0085163D01*
X0085531D02*
X0086795D01*
X0075054Y0067587D02*
X0076438D01*
X0077175D02*
X0077772D01*
X0078248D02*
X0078883D01*
X0079385D02*
X0081042D01*
X0082083D02*
X0082712D01*
X0083633D02*
X0085157D01*
X0085531D02*
X0086154D01*
X008616D02*
X0086801D01*
X0075054Y0067581D02*
X0076438D01*
X0077175D02*
X0077772D01*
X0078242D02*
X0078883D01*
X0079385D02*
X0081093D01*
X0082083D02*
X0082712D01*
X0083633D02*
X0084319D01*
X0085525D02*
X0086154D01*
X0086166D02*
X0086801D01*
X0075054Y0067575D02*
X0076432D01*
X0077168D02*
X0077772D01*
X0078242D02*
X0078883D01*
X0079385D02*
X008115D01*
X0082083D02*
X0082712D01*
X0083633D02*
X0084319D01*
X0085525D02*
X0086147D01*
X0086166D02*
X0086808D01*
X007506Y0067568D02*
X0076425D01*
X0077168D02*
X0077765D01*
X0078242D02*
X0078883D01*
X0079385D02*
X0081201D01*
X0082077D02*
X0082706D01*
X0083626D02*
X0084319D01*
X0085525D02*
X0086147D01*
X0086173D02*
X0086808D01*
X007506Y0067562D02*
X0076419D01*
X0077168D02*
X0077765D01*
X0078242D02*
X0078877D01*
X0079385D02*
X0081252D01*
X0082077D02*
X0082706D01*
X0083626D02*
X0084312D01*
X0085519D02*
X0086147D01*
X0086173D02*
X0086814D01*
X007506Y0067555D02*
X0076413D01*
X0077168D02*
X0077765D01*
X0078235D02*
X0078877D01*
X0079385D02*
X0080534D01*
X008054D02*
X0081302D01*
X0082077D02*
X0082706D01*
X0083626D02*
X0084312D01*
X0085519D02*
X0086147D01*
X0086179D02*
X0086814D01*
X007506Y0067549D02*
X0076406D01*
X0077162D02*
X0077759D01*
X0078235D02*
X0078877D01*
X0079385D02*
X0081353D01*
X0082071D02*
X0082706D01*
X0083626D02*
X0084312D01*
X0085519D02*
X0086141D01*
X0086179D02*
X008682D01*
X007506Y0067543D02*
X0076406D01*
X0077162D02*
X0077759D01*
X0078235D02*
X0078877D01*
X0079385D02*
X0080617D01*
X0080629D02*
X0080655D01*
X0080667D02*
X0081404D01*
X0082071D02*
X0082699D01*
X008362D02*
X0084312D01*
X0085519D02*
X0086141D01*
X0086185D02*
X0086827D01*
X0075067Y0067536D02*
X00764D01*
X0077162D02*
X0077759D01*
X0078229D02*
X007887D01*
X0079385D02*
X0080401D01*
X0080413D02*
X0081461D01*
X0082071D02*
X0082699D01*
X008362D02*
X0084306D01*
X0085512D02*
X0086141D01*
X0086185D02*
X0086827D01*
X0075067Y006753D02*
X0076394D01*
X0077162D02*
X0077759D01*
X0078229D02*
X007887D01*
X0079385D02*
X0080401D01*
X0080413D02*
X0081512D01*
X0082071D02*
X0082699D01*
X008362D02*
X0084306D01*
X0085512D02*
X0086135D01*
X0086192D02*
X0086833D01*
X0075067Y0067524D02*
X0076387D01*
X0077156D02*
X0077753D01*
X0078229D02*
X007887D01*
X0079385D02*
X0081563D01*
X0082064D02*
X0082693D01*
X008362D02*
X0084306D01*
X0085512D02*
X0086135D01*
X0086192D02*
X0086833D01*
X0075067Y0067517D02*
X0076381D01*
X0077156D02*
X0077753D01*
X0078229D02*
X007887D01*
X0079385D02*
X0081613D01*
X0082064D02*
X0082693D01*
X0083614D02*
X0084306D01*
X0085506D02*
X0086135D01*
X0086198D02*
X008684D01*
X0075067Y0067511D02*
X0076375D01*
X0077156D02*
X0077753D01*
X0078223D02*
X0078864D01*
X0079385D02*
X0080451D01*
X0080458D02*
X0081664D01*
X0082064D02*
X0082693D01*
X0083614D02*
X0084299D01*
X0085506D02*
X0086135D01*
X0086198D02*
X008684D01*
X0075073Y0067505D02*
X0076375D01*
X0077149D02*
X0077746D01*
X0078223D02*
X0078864D01*
X0079385D02*
X0080312D01*
X0080324D02*
X0080451D01*
X0080464D02*
X0081715D01*
X0082058D02*
X0082693D01*
X0083614D02*
X0084299D01*
X0085506D02*
X0086128D01*
X0086204D02*
X0086846D01*
X0075073Y0067498D02*
X0076368D01*
X0077149D02*
X0077746D01*
X0078223D02*
X0078864D01*
X0079385D02*
X0080305D01*
X0080324D02*
X008035D01*
X0080363D02*
X0080731D01*
X0080743D02*
X0081772D01*
X0082058D02*
X0082687D01*
X0083614D02*
X0084299D01*
X0085506D02*
X0086128D01*
X0086204D02*
X0086846D01*
X0075073Y0067492D02*
X0076362D01*
X0077149D02*
X0077746D01*
X0078216D02*
X0078858D01*
X0079391D02*
X0080299D01*
X0080324D02*
X008035D01*
X0080363D02*
X0080731D01*
X0080743D02*
X0081023D01*
X0081036D02*
X0081817D01*
X0082058D02*
X0082687D01*
X0083607D02*
X0084293D01*
X00855D02*
X0086128D01*
X0086211D02*
X0086852D01*
X0075073Y0067486D02*
X0076356D01*
X0077149D02*
X0077746D01*
X0078216D02*
X0078858D01*
X0079391D02*
X0081823D01*
X0082058D02*
X0082687D01*
X0083607D02*
X0084293D01*
X00855D02*
X0086122D01*
X0086211D02*
X0086852D01*
X0075073Y0067479D02*
X0076349D01*
X0077143D02*
X007774D01*
X0078216D02*
X0078858D01*
X0079391D02*
X0081829D01*
X0082052D02*
X008268D01*
X0083607D02*
X0084293D01*
X00855D02*
X0086122D01*
X0086217D02*
X0086859D01*
X0075079Y0067473D02*
X0076343D01*
X0077143D02*
X007774D01*
X0078216D02*
X0078858D01*
X0079391D02*
X0081829D01*
X0082052D02*
X008268D01*
X0083607D02*
X0084293D01*
X0085493D02*
X0086122D01*
X0086217D02*
X0086859D01*
X0075079Y0067467D02*
X0076343D01*
X0077143D02*
X007774D01*
X007821D02*
X0078851D01*
X0079391D02*
X0080242D01*
X0080248D02*
X0081264D01*
X0081277D02*
X0081829D01*
X0082052D02*
X008268D01*
X0083601D02*
X0084287D01*
X0085493D02*
X0086122D01*
X0086224D02*
X0086865D01*
X0075079Y006746D02*
X0076337D01*
X0077143D02*
X0077734D01*
X007821D02*
X0078851D01*
X0079391D02*
X0081829D01*
X0082052D02*
X008268D01*
X0083601D02*
X0084287D01*
X0085493D02*
X0086116D01*
X0086224D02*
X0086865D01*
X0075079Y0067454D02*
X007633D01*
X0077137D02*
X0077734D01*
X007821D02*
X0078851D01*
X0079391D02*
X008134D01*
X0081353D02*
X0081379D01*
X0081391D02*
X0081829D01*
X0082045D02*
X0082674D01*
X0083601D02*
X0084287D01*
X0085493D02*
X0086116D01*
X008623D02*
X0086871D01*
X0075079Y0067448D02*
X0076324D01*
X0077137D02*
X0077734D01*
X007821D02*
X0078851D01*
X0079391D02*
X0080216D01*
X0080223D02*
X008035D01*
X0080363D02*
X0081302D01*
X0081315D02*
X0081829D01*
X0082045D02*
X0082674D01*
X0083595D02*
X008428D01*
X0085487D02*
X0086116D01*
X008623D02*
X0086871D01*
X0075086Y0067441D02*
X0076318D01*
X0077137D02*
X0077734D01*
X0078203D02*
X0078845D01*
X0079391D02*
X008021D01*
X0080216D02*
X008035D01*
X0080363D02*
X0081302D01*
X0081315D02*
X0081829D01*
X0082045D02*
X0082674D01*
X0083595D02*
X008428D01*
X0085487D02*
X0086109D01*
X0086236D02*
X0086878D01*
X0075086Y0067435D02*
X0076311D01*
X007713D02*
X0077727D01*
X0078203D02*
X0078845D01*
X0079391D02*
X0080299D01*
X0080312D02*
X0081829D01*
X0082039D02*
X0082674D01*
X0083595D02*
X008428D01*
X0085487D02*
X0086109D01*
X0086236D02*
X0086878D01*
X0075086Y0067428D02*
X0076311D01*
X007713D02*
X0077727D01*
X0078203D02*
X0078845D01*
X0079391D02*
X0080299D01*
X0080312D02*
X0081829D01*
X0082039D02*
X0082668D01*
X0083595D02*
X008428D01*
X0085481D02*
X0086109D01*
X0086243D02*
X0086884D01*
X0075086Y0067422D02*
X0076305D01*
X007713D02*
X0077727D01*
X0078197D02*
X0078845D01*
X0079391D02*
X0081829D01*
X0082039D02*
X0082668D01*
X0083588D02*
X0084274D01*
X0085481D02*
X0086109D01*
X0086243D02*
X0086884D01*
X0075086Y0067416D02*
X0076299D01*
X007713D02*
X0077727D01*
X0078197D02*
X0078839D01*
X0079391D02*
X0081829D01*
X0082039D02*
X0082668D01*
X0083588D02*
X0084274D01*
X0085481D02*
X0086103D01*
X0086249D02*
X008689D01*
X0075092Y0067409D02*
X0076292D01*
X0077124D02*
X0077721D01*
X0078197D02*
X0078839D01*
X0079391D02*
X0080337D01*
X0080343D02*
X0081829D01*
X0082033D02*
X0082661D01*
X0083588D02*
X0084274D01*
X0085481D02*
X0086103D01*
X0086249D02*
X008689D01*
X0075092Y0067403D02*
X0076286D01*
X0077124D02*
X0077721D01*
X0078197D02*
X0078839D01*
X0079391D02*
X0081829D01*
X0082033D02*
X0082661D01*
X0083588D02*
X0084268D01*
X0085474D02*
X0086103D01*
X0086255D02*
X0086897D01*
X0075092Y0067397D02*
X0076279D01*
X0077124D02*
X0077721D01*
X0078191D02*
X0078839D01*
X0079391D02*
X0081429D01*
X0081455D02*
X0081486D01*
X0081493D02*
X0081829D01*
X0082033D02*
X0082661D01*
X0083582D02*
X0084268D01*
X0085474D02*
X0086097D01*
X0086255D02*
X0086897D01*
X0075092Y006739D02*
X0076279D01*
X0077124D02*
X0077715D01*
X0078191D02*
X0078832D01*
X0079391D02*
X0081429D01*
X0081455D02*
X0081829D01*
X0082026D02*
X0082661D01*
X0083582D02*
X0084268D01*
X0085474D02*
X0086097D01*
X0086262D02*
X0086903D01*
X0075098Y0067384D02*
X0076273D01*
X0077118D02*
X0077715D01*
X0078191D02*
X0078832D01*
X0079391D02*
X0080655D01*
X0080667D02*
X008082D01*
X0080845D02*
X0081829D01*
X0082026D02*
X0082655D01*
X0083582D02*
X0084268D01*
X0085468D02*
X0086097D01*
X0086262D02*
X0086903D01*
X0075098Y0067378D02*
X0076267D01*
X0077118D02*
X0077715D01*
X0078184D02*
X0078832D01*
X0079391D02*
X0080655D01*
X0080667D02*
X008082D01*
X0080845D02*
X0081829D01*
X0082026D02*
X0082655D01*
X0083582D02*
X0084261D01*
X0085468D02*
X0086097D01*
X0086268D02*
X0086909D01*
X0075098Y0067371D02*
X007626D01*
X0077118D02*
X0077715D01*
X0078184D02*
X0078826D01*
X0079391D02*
X0080718D01*
X0080724D02*
X0081023D01*
X0081036D02*
X0081829D01*
X0082026D02*
X0082655D01*
X0083576D02*
X0084261D01*
X0085468D02*
X008609D01*
X0086268D02*
X0086909D01*
X0075098Y0067365D02*
X0076254D01*
X0077111D02*
X0077708D01*
X0078184D02*
X0078826D01*
X0079391D02*
X0080718D01*
X0080724D02*
X0081023D01*
X0081036D02*
X0081829D01*
X008202D02*
X0082648D01*
X0083576D02*
X0084261D01*
X0085468D02*
X008609D01*
X0086274D02*
X0086916D01*
X0075098Y0067359D02*
X0076248D01*
X0077111D02*
X0077708D01*
X0078184D02*
X0078826D01*
X0079391D02*
X0081829D01*
X008202D02*
X0082648D01*
X0083576D02*
X0084255D01*
X0085462D02*
X008609D01*
X0086274D02*
X0086916D01*
X0075105Y0067352D02*
X0076248D01*
X0077111D02*
X0077708D01*
X0078178D02*
X0078826D01*
X0079391D02*
X0081829D01*
X008202D02*
X0082648D01*
X0083569D02*
X0084255D01*
X0085462D02*
X0086084D01*
X0086281D02*
X0086922D01*
X0075105Y0067346D02*
X0076241D01*
X0077111D02*
X0077702D01*
X0078178D02*
X0078819D01*
X0079391D02*
X0080947D01*
X0080959D02*
X0081023D01*
X0081036D02*
X0081829D01*
X0082013D02*
X0082648D01*
X0083569D02*
X0084255D01*
X0085462D02*
X0086084D01*
X0086281D02*
X0086922D01*
X0075105Y006734D02*
X0076235D01*
X0077105D02*
X0077702D01*
X0078178D02*
X0078819D01*
X0079391D02*
X0080947D01*
X0080959D02*
X0081023D01*
X0081036D02*
X0081829D01*
X0082013D02*
X0082642D01*
X0083569D02*
X0085081D01*
X0085455D02*
X0086084D01*
X0086287D02*
X0086928D01*
X0075105Y0067333D02*
X0076229D01*
X0077105D02*
X0077702D01*
X0078178D02*
X0078819D01*
X0079397D02*
X0080807D01*
X0080813D02*
X0081829D01*
X0082013D02*
X0082642D01*
X0083569D02*
X0085081D01*
X0085455D02*
X0086084D01*
X0086287D02*
X0086928D01*
X0075105Y0067327D02*
X0076222D01*
X0077105D02*
X0077702D01*
X0078172D02*
X0078819D01*
X0079397D02*
X0081829D01*
X0082013D02*
X0082642D01*
X0083563D02*
X0085081D01*
X0085455D02*
X0086077D01*
X0086293D02*
X0086935D01*
X0075111Y0067321D02*
X0076216D01*
X0077105D02*
X0077696D01*
X0078172D02*
X0078813D01*
X0079397D02*
X0081829D01*
X0082007D02*
X0082642D01*
X0083563D02*
X0085081D01*
X0085455D02*
X0086077D01*
X0086293D02*
X0086935D01*
X0075111Y0067314D02*
X0076216D01*
X0077099D02*
X0077696D01*
X0078172D02*
X0078813D01*
X0079397D02*
X0081829D01*
X0082007D02*
X0083499D01*
X0083563D02*
X0085081D01*
X0085449D02*
X0086077D01*
X00863D02*
X0086941D01*
X0075111Y0067308D02*
X007621D01*
X0077099D02*
X0077696D01*
X0078165D02*
X0078813D01*
X0079397D02*
X0081829D01*
X0082007D02*
X0083493D01*
X0083563D02*
X0085074D01*
X0085449D02*
X0086071D01*
X00863D02*
X0086941D01*
X0075111Y0067301D02*
X0076203D01*
X0077099D02*
X0077689D01*
X0078165D02*
X0078813D01*
X0079397D02*
X0081829D01*
X0082007D02*
X0083487D01*
X0083557D02*
X0085074D01*
X0085449D02*
X0086071D01*
X0086306D02*
X0086947D01*
X0075111Y0067295D02*
X0076197D01*
X0077092D02*
X0077689D01*
X0078165D02*
X0078807D01*
X0079397D02*
X008155D01*
X0081556D02*
X0081823D01*
X0082001D02*
X008348D01*
X0083557D02*
X0085074D01*
X0085442D02*
X0086071D01*
X0086306D02*
X0086947D01*
X0075117Y0067289D02*
X0076191D01*
X0077092D02*
X0077689D01*
X0078165D02*
X0078807D01*
X0079397D02*
X0081544D01*
X0081556D02*
X0081823D01*
X0082001D02*
X008348D01*
X0083557D02*
X0085074D01*
X0085442D02*
X0086071D01*
X0086312D02*
X0086954D01*
X0075117Y0067282D02*
X0076184D01*
X0077092D02*
X0077689D01*
X0078159D02*
X0078807D01*
X0079397D02*
X0081296D01*
X0081302D02*
X0081823D01*
X0082001D02*
X0083474D01*
X0083557D02*
X0085068D01*
X0085442D02*
X0086065D01*
X0086312D02*
X0086954D01*
X0075117Y0067276D02*
X0076184D01*
X0077092D02*
X0077683D01*
X0078159D02*
X00788D01*
X0079397D02*
X008129D01*
X0081302D02*
X0081823D01*
X0081994D02*
X0083468D01*
X008355D02*
X0085068D01*
X0085442D02*
X0086065D01*
X0086319D02*
X008696D01*
X0075117Y006727D02*
X0076178D01*
X0077086D02*
X0077683D01*
X0078159D02*
X00788D01*
X0079397D02*
X0081823D01*
X0081994D02*
X0083461D01*
X008355D02*
X0085068D01*
X0085436D02*
X0086065D01*
X0086319D02*
X008696D01*
X0075117Y0067263D02*
X0076172D01*
X0077086D02*
X0077683D01*
X0078153D02*
X00788D01*
X0079397D02*
X0081823D01*
X0081994D02*
X0083455D01*
X008355D02*
X0085068D01*
X0085436D02*
X0086058D01*
X0086325D02*
X0086966D01*
X0075124Y0067257D02*
X0076165D01*
X0077086D02*
X0077683D01*
X0078153D02*
X00788D01*
X0079397D02*
X0081823D01*
X0081994D02*
X0083449D01*
X0083544D02*
X0085062D01*
X0085436D02*
X0086058D01*
X0086325D02*
X0086966D01*
X0075124Y0067251D02*
X0076159D01*
X0077086D02*
X0077676D01*
X0078153D02*
X0078794D01*
X0079397D02*
X0081823D01*
X0081988D02*
X0083449D01*
X0083544D02*
X0085062D01*
X008543D02*
X0086058D01*
X0086331D02*
X0086973D01*
X0075124Y0067244D02*
X0076152D01*
X007708D02*
X0077676D01*
X0078153D02*
X0078794D01*
X0079397D02*
X0081823D01*
X0081988D02*
X0083442D01*
X0083544D02*
X0085062D01*
X008543D02*
X0086058D01*
X0086331D02*
X0086973D01*
X0075124Y0067238D02*
X0076152D01*
X007708D02*
X0077676D01*
X0078146D02*
X0078794D01*
X0079397D02*
X0081823D01*
X0081988D02*
X0083436D01*
X0083544D02*
X0085055D01*
X008543D02*
X0086052D01*
X0086338D02*
X0086979D01*
X0075124Y0067232D02*
X0076146D01*
X007708D02*
X007767D01*
X0078146D02*
X0078794D01*
X0079397D02*
X0081823D01*
X0081982D02*
X008343D01*
X0083537D02*
X0085055D01*
X008543D02*
X0086052D01*
X0086338D02*
X0086986D01*
X007513Y0067225D02*
X007614D01*
X0077073D02*
X007767D01*
X0078146D02*
X0078788D01*
X0079397D02*
X0081823D01*
X0081982D02*
X0083423D01*
X0083537D02*
X0085055D01*
X0085423D02*
X0086052D01*
X0086344D02*
X0086986D01*
X007513Y0067219D02*
X0076133D01*
X0077073D02*
X007767D01*
X0078146D02*
X0078788D01*
X0079397D02*
X0081823D01*
X0081982D02*
X0083423D01*
X0083537D02*
X0085055D01*
X0085423D02*
X0086046D01*
X0086344D02*
X0086992D01*
X007513Y0067213D02*
X0076127D01*
X0077073D02*
X007767D01*
X007814D02*
X0078788D01*
X0079397D02*
X0081823D01*
X0081982D02*
X0083417D01*
X0083537D02*
X0085049D01*
X0085423D02*
X0086046D01*
X0086351D02*
X0086992D01*
X007513Y0067206D02*
X0076121D01*
X0077073D02*
X0077664D01*
X007814D02*
X0078788D01*
X0079397D02*
X0081823D01*
X0081975D02*
X008341D01*
X0083531D02*
X0085049D01*
X0085417D02*
X0086046D01*
X0086351D02*
X0086998D01*
X007513Y00672D02*
X0076121D01*
X0077067D02*
X0077664D01*
X007814D02*
X0078781D01*
X0079397D02*
X0081823D01*
X0081975D02*
X0083404D01*
X0083531D02*
X0085049D01*
X0085417D02*
X0086046D01*
X0086357D02*
X0086998D01*
X0075136Y0067194D02*
X0076114D01*
X0077067D02*
X0077664D01*
X0078134D02*
X0078781D01*
X0079397D02*
X0081823D01*
X0081975D02*
X0083398D01*
X0083531D02*
X0085049D01*
X0085417D02*
X0086039D01*
X0086357D02*
X0087005D01*
X0075136Y0067187D02*
X0076108D01*
X0077067D02*
X0077657D01*
X0078134D02*
X0078781D01*
X0079397D02*
X0081823D01*
X0081969D02*
X0083391D01*
X0083531D02*
X0085042D01*
X0085417D02*
X0086039D01*
X0086363D02*
X0087005D01*
X0075136Y0067181D02*
X0076102D01*
X0077067D02*
X0077657D01*
X0078134D02*
X0078781D01*
X0079397D02*
X0081823D01*
X0081969D02*
X0083391D01*
X0083525D02*
X0085042D01*
X0085411D02*
X0086039D01*
X0086363D02*
X0087011D01*
X0075136Y0067174D02*
X0076095D01*
X0077061D02*
X0077657D01*
X0078134D02*
X0078775D01*
X0079404D02*
X0081823D01*
X0081969D02*
X0083385D01*
X0083525D02*
X0085042D01*
X0085411D02*
X0086033D01*
X008637D02*
X0087011D01*
X0075143Y0067168D02*
X0076095D01*
X0077061D02*
X0077657D01*
X0078127D02*
X0078775D01*
X0079404D02*
X0081823D01*
X0081969D02*
X0083379D01*
X0083525D02*
X0085036D01*
X0085411D02*
X0086033D01*
X008637D02*
X0087017D01*
X0075143Y0067162D02*
X0076089D01*
X0077061D02*
X0077651D01*
X0078127D02*
X0078775D01*
X0079404D02*
X0081823D01*
X0081963D02*
X0083372D01*
X0083518D02*
X0085036D01*
X0085404D02*
X0086033D01*
X0086376D02*
X0087017D01*
X0075143Y0067155D02*
X0076083D01*
X0077061D02*
X0077651D01*
X0078127D02*
X0078769D01*
X0079404D02*
X0081823D01*
X0081963D02*
X0083366D01*
X0083518D02*
X0085036D01*
X0085404D02*
X0086033D01*
X0086376D02*
X0087024D01*
X0075143Y0067149D02*
X0076076D01*
X0077054D02*
X0077651D01*
X0078127D02*
X0078769D01*
X0079404D02*
X0081575D01*
X0081582D02*
X0081823D01*
X0081963D02*
X0083366D01*
X0083518D02*
X0085036D01*
X0085404D02*
X0086027D01*
X0086382D02*
X0087024D01*
X0075143Y0067143D02*
X007607D01*
X0077054D02*
X0077645D01*
X0078121D02*
X0078769D01*
X0079404D02*
X0081823D01*
X0081963D02*
X008336D01*
X0083518D02*
X008503D01*
X0085404D02*
X0086027D01*
X0086382D02*
X008703D01*
X0075149Y0067136D02*
X0076064D01*
X0077054D02*
X0077645D01*
X0078121D02*
X0078769D01*
X0079404D02*
X0081823D01*
X0081956D02*
X0083353D01*
X0083512D02*
X008503D01*
X0085398D02*
X0086027D01*
X0086389D02*
X008703D01*
X0075149Y006713D02*
X0076064D01*
X0077048D02*
X0077645D01*
X0078121D02*
X0078762D01*
X0079404D02*
X0081823D01*
X0081956D02*
X0083347D01*
X0083512D02*
X008503D01*
X0085398D02*
X008602D01*
X0086389D02*
X0087036D01*
X0075149Y0067124D02*
X0076057D01*
X0077048D02*
X0077645D01*
X0078115D02*
X0078762D01*
X0079404D02*
X0081823D01*
X0081956D02*
X0083341D01*
X0083512D02*
X008503D01*
X0085398D02*
X008602D01*
X0086395D02*
X0087036D01*
X0075149Y0067117D02*
X0076051D01*
X0077048D02*
X0077638D01*
X0078115D02*
X0078762D01*
X0079404D02*
X0081823D01*
X008195D02*
X0083341D01*
X0083512D02*
X0085023D01*
X0085392D02*
X008602D01*
X0086395D02*
X0087043D01*
X0075149Y0067111D02*
X0076045D01*
X0077048D02*
X0077638D01*
X0078115D02*
X0078762D01*
X0079404D02*
X0081823D01*
X008195D02*
X0083334D01*
X0083506D02*
X0085023D01*
X0085392D02*
X008602D01*
X0086401D02*
X0087043D01*
X0075156Y0067105D02*
X0076038D01*
X0077041D02*
X0077638D01*
X0078115D02*
X0078756D01*
X0079404D02*
X0081823D01*
X008195D02*
X0083328D01*
X0083506D02*
X0085023D01*
X0085392D02*
X0086014D01*
X0086401D02*
X0087049D01*
X0075156Y0067098D02*
X0076032D01*
X0077041D02*
X0077632D01*
X0078108D02*
X0078756D01*
X0079404D02*
X0081823D01*
X008195D02*
X0083322D01*
X0083506D02*
X0085023D01*
X0085392D02*
X0086014D01*
X0086408D02*
X0087049D01*
X0075156Y0067092D02*
X0076032D01*
X0077041D02*
X0077632D01*
X0078108D02*
X0078756D01*
X0079404D02*
X0081823D01*
X0081944D02*
X0083315D01*
X0083506D02*
X0085017D01*
X0085385D02*
X0086014D01*
X0086408D02*
X0087055D01*
X0075156Y0067086D02*
X0076025D01*
X0077041D02*
X0077632D01*
X0078108D02*
X0078756D01*
X0079404D02*
X0081823D01*
X0081944D02*
X0083309D01*
X0083499D02*
X0085017D01*
X0085385D02*
X0086008D01*
X0086414D02*
X0087055D01*
X0075156Y0067079D02*
X0076019D01*
X0077035D02*
X0077632D01*
X0078102D02*
X007875D01*
X0079404D02*
X0081823D01*
X0081944D02*
X0083309D01*
X0083499D02*
X0085017D01*
X0085385D02*
X0086008D01*
X0086414D02*
X0087062D01*
X0075162Y0067073D02*
X0076013D01*
X0077035D02*
X0077626D01*
X0078102D02*
X007875D01*
X0079404D02*
X0081817D01*
X0081937D02*
X0083303D01*
X0083499D02*
X0085011D01*
X0085379D02*
X0086008D01*
X008642D02*
X0087062D01*
X0075162Y0067067D02*
X0076006D01*
X0077035D02*
X0077626D01*
X0078102D02*
X007875D01*
X0079404D02*
X0081817D01*
X0081937D02*
X0083296D01*
X0083499D02*
X0085011D01*
X0085379D02*
X0086008D01*
X008642D02*
X0087068D01*
X0075162Y006706D02*
X0076D01*
X0077029D02*
X0077626D01*
X0078102D02*
X0078743D01*
X0079404D02*
X0081817D01*
X0081937D02*
X008329D01*
X0083493D02*
X0085011D01*
X0085379D02*
X0086001D01*
X0086427D02*
X0087068D01*
X0075162Y0067054D02*
X0076D01*
X0077029D02*
X0077626D01*
X0078096D02*
X0078743D01*
X0079404D02*
X0081817D01*
X0081937D02*
X0083284D01*
X0083493D02*
X0085011D01*
X0085379D02*
X0086001D01*
X0086427D02*
X0087074D01*
X0075162Y0067048D02*
X0075994D01*
X0077029D02*
X0077619D01*
X0078096D02*
X0078743D01*
X0079404D02*
X0081817D01*
X0081931D02*
X0083284D01*
X0083493D02*
X0085004D01*
X0085373D02*
X0086001D01*
X0086433D02*
X0087074D01*
X0075168Y0067041D02*
X0075987D01*
X0077029D02*
X0077619D01*
X0078096D02*
X0078743D01*
X0079404D02*
X0081817D01*
X0081931D02*
X0083277D01*
X0083487D02*
X0085004D01*
X0085373D02*
X0085995D01*
X0086433D02*
X0087081D01*
X0075168Y0067035D02*
X0075981D01*
X0077022D02*
X0077619D01*
X0078096D02*
X0078737D01*
X0079404D02*
X0081817D01*
X0081931D02*
X0083271D01*
X0083487D02*
X0085004D01*
X0085373D02*
X0085995D01*
X0086439D02*
X0087081D01*
X0075168Y0067028D02*
X0075975D01*
X0077022D02*
X0077613D01*
X0078089D02*
X0078737D01*
X0079404D02*
X0081817D01*
X0081925D02*
X0083264D01*
X0083487D02*
X0085004D01*
X0085366D02*
X0085995D01*
X0086439D02*
X0087087D01*
X0075168Y0067022D02*
X0075968D01*
X0077022D02*
X0077613D01*
X0078089D02*
X0078737D01*
X0079404D02*
X0081817D01*
X0081925D02*
X0083258D01*
X0083487D02*
X0084998D01*
X0085366D02*
X0085995D01*
X0086446D02*
X0087087D01*
X0075168Y0067016D02*
X0075968D01*
X0077022D02*
X0077613D01*
X0078089D02*
X0078737D01*
X007941D02*
X0081817D01*
X0081925D02*
X0083252D01*
X008348D02*
X0084998D01*
X0085366D02*
X0085989D01*
X0086446D02*
X0087093D01*
X0075175Y0067009D02*
X0075962D01*
X0077016D02*
X0077613D01*
X0078083D02*
X0078731D01*
X007941D02*
X0081817D01*
X0081925D02*
X0083252D01*
X008348D02*
X0084998D01*
X0085366D02*
X0085989D01*
X0086452D02*
X0087093D01*
X0075175Y0067003D02*
X0075956D01*
X0077016D02*
X0077607D01*
X0078083D02*
X0078731D01*
X007941D02*
X0081817D01*
X0081918D02*
X0083245D01*
X008348D02*
X0084998D01*
X008536D02*
X0085989D01*
X0086452D02*
X00871D01*
X0075175Y0066997D02*
X0075949D01*
X0077016D02*
X0077607D01*
X0078083D02*
X0078731D01*
X007941D02*
X0081817D01*
X0081918D02*
X0083239D01*
X008348D02*
X0084992D01*
X008536D02*
X0085982D01*
X0086459D02*
X00871D01*
X0075175Y006699D02*
X0075943D01*
X007701D02*
X0077607D01*
X0078083D02*
X0078731D01*
X007941D02*
X0081817D01*
X0081918D02*
X0083233D01*
X0083474D02*
X0084992D01*
X008536D02*
X0085982D01*
X0086459D02*
X0087106D01*
X0075175Y0066984D02*
X0075937D01*
X007701D02*
X00776D01*
X0078076D02*
X0078724D01*
X007941D02*
X0081817D01*
X0081918D02*
X0083226D01*
X0083474D02*
X0084992D01*
X0085354D02*
X0085982D01*
X0086465D02*
X0087106D01*
X0075181Y0066978D02*
X0075937D01*
X007701D02*
X00776D01*
X0078076D02*
X0078724D01*
X007941D02*
X0081817D01*
X0081912D02*
X0083226D01*
X0083474D02*
X0084985D01*
X0085354D02*
X0085982D01*
X0086465D02*
X0087113D01*
X0075181Y0066971D02*
X007593D01*
X007701D02*
X00776D01*
X0078076D02*
X0078724D01*
X007941D02*
X0081817D01*
X0081912D02*
X008322D01*
X0083474D02*
X0084985D01*
X0085354D02*
X0085976D01*
X0086471D02*
X0087113D01*
X0075181Y0066965D02*
X0075924D01*
X0077003D02*
X00776D01*
X007807D02*
X0078724D01*
X007941D02*
X0081817D01*
X0081912D02*
X0083214D01*
X0083468D02*
X0084985D01*
X0085354D02*
X0085976D01*
X0086471D02*
X0087119D01*
X0075181Y0066959D02*
X0075918D01*
X0077003D02*
X0077594D01*
X007807D02*
X0078718D01*
X007941D02*
X0081817D01*
X0081906D02*
X0083207D01*
X0083468D02*
X0084985D01*
X0085347D02*
X0085976D01*
X0086478D02*
X0087119D01*
X0075187Y0066952D02*
X0075911D01*
X0077003D02*
X0077594D01*
X007807D02*
X0078718D01*
X007941D02*
X0081817D01*
X0081906D02*
X0083201D01*
X0083468D02*
X0084979D01*
X0085347D02*
X008597D01*
X0086478D02*
X0087125D01*
X0075187Y0066946D02*
X0075905D01*
X0077003D02*
X0077594D01*
X007807D02*
X0078718D01*
X007941D02*
X0081817D01*
X0081906D02*
X0083201D01*
X0083461D02*
X0084979D01*
X0085347D02*
X008597D01*
X0086484D02*
X0087125D01*
X0075187Y006694D02*
X0075905D01*
X0076997D02*
X0077588D01*
X0078064D02*
X0078712D01*
X007941D02*
X0081817D01*
X0081906D02*
X0083195D01*
X0083461D02*
X0084979D01*
X0085341D02*
X008597D01*
X0086484D02*
X0087132D01*
X0075187Y0066933D02*
X0075898D01*
X0076997D02*
X0077588D01*
X0078064D02*
X0078712D01*
X007941D02*
X0081817D01*
X0081899D02*
X0083188D01*
X0083461D02*
X0084979D01*
X0085341D02*
X008597D01*
X008649D02*
X0087132D01*
X0075187Y0066927D02*
X0075892D01*
X0076997D02*
X0077588D01*
X0078064D02*
X0078712D01*
X007941D02*
X0081817D01*
X0081899D02*
X0083182D01*
X0083461D02*
X0084973D01*
X0085341D02*
X0085963D01*
X008649D02*
X0087138D01*
X0075194Y0066921D02*
X0075886D01*
X0076991D02*
X0077588D01*
X0078064D02*
X0078712D01*
X007941D02*
X0081817D01*
X0081899D02*
X0083176D01*
X0083455D02*
X0084973D01*
X0085341D02*
X0085963D01*
X0086497D02*
X0087138D01*
X0075194Y0066914D02*
X0075879D01*
X0076991D02*
X0077581D01*
X0078057D02*
X0078705D01*
X007941D02*
X0081817D01*
X0081893D02*
X0083169D01*
X0083455D02*
X0084973D01*
X0085335D02*
X0085963D01*
X0086497D02*
X0087144D01*
X0075194Y0066908D02*
X0075873D01*
X0076991D02*
X0077581D01*
X0078057D02*
X0078705D01*
X007941D02*
X0081817D01*
X0081893D02*
X0083169D01*
X0083455D02*
X0084973D01*
X0085335D02*
X0085957D01*
X0086503D02*
X0087151D01*
X0075194Y0066901D02*
X0075873D01*
X0076991D02*
X0077581D01*
X0078057D02*
X0078705D01*
X007941D02*
X0081817D01*
X0081893D02*
X0083163D01*
X0083455D02*
X0084966D01*
X0085335D02*
X0085957D01*
X0086503D02*
X0087151D01*
X0075194Y0066895D02*
X0075867D01*
X0076984D02*
X0077575D01*
X0078051D02*
X0078705D01*
X007941D02*
X0081817D01*
X0081893D02*
X0083157D01*
X0083449D02*
X0084966D01*
X0085328D02*
X0085957D01*
X0086509D02*
X0087157D01*
X00752Y0066889D02*
X007586D01*
X0076984D02*
X0077575D01*
X0078051D02*
X0078699D01*
X0079416D02*
X0081817D01*
X0081886D02*
X008315D01*
X0083449D02*
X0084966D01*
X0085328D02*
X0085957D01*
X0086509D02*
X0087157D01*
X00752Y0066882D02*
X0075854D01*
X0076984D02*
X0077575D01*
X0078051D02*
X0078699D01*
X0079416D02*
X0081817D01*
X0081886D02*
X0083144D01*
X0083449D02*
X008496D01*
X0085328D02*
X0085951D01*
X0086516D02*
X0087163D01*
X00752Y0066876D02*
X0075848D01*
X0076984D02*
X0077575D01*
X0078051D02*
X0078699D01*
X0079435D02*
X0081817D01*
X0081886D02*
X0083137D01*
X0083449D02*
X008496D01*
X0085328D02*
X0085951D01*
X0086522D02*
X0087163D01*
X0079461Y006687D02*
X0081817D01*
X0079486Y0066863D02*
X0081817D01*
X0079518Y0066857D02*
X008181D01*
X0079543Y0066851D02*
X008181D01*
X0079575Y0066844D02*
X008181D01*
X0079601Y0066838D02*
X008181D01*
X0079626Y0066832D02*
X008181D01*
X0079658Y0066825D02*
X008181D01*
X0079683Y0066819D02*
X008181D01*
X0079708Y0066813D02*
X008181D01*
X007974Y0066806D02*
X008181D01*
X0079766Y00668D02*
X008181D01*
X0079797Y0066794D02*
X008181D01*
X0079823Y0066787D02*
X008181D01*
X0079848Y0066781D02*
X008181D01*
X007988Y0066774D02*
X008181D01*
X0079905Y0066768D02*
X008181D01*
X0079931Y0066762D02*
X008181D01*
X0079962Y0066755D02*
X008181D01*
X0079988Y0066749D02*
X008181D01*
X0080013Y0066743D02*
X008181D01*
X0080045Y0066736D02*
X008181D01*
X008007Y006673D02*
X008181D01*
X0080102Y0066724D02*
X008181D01*
X0080128Y0066717D02*
X008181D01*
X0080153Y0066711D02*
X008181D01*
X0080185Y0066705D02*
X008181D01*
X008021Y0066698D02*
X008181D01*
X0080235Y0066692D02*
X008181D01*
X0080267Y0066686D02*
X0081804D01*
X0080293Y0066679D02*
X0081798D01*
X0080318Y0066673D02*
X0081607D01*
X008162D02*
X0081791D01*
X008035Y0066666D02*
X0081607D01*
X008162D02*
X0081785D01*
X0080375Y006666D02*
X0081779D01*
X0080407Y0066654D02*
X0081772D01*
X0080432Y0066647D02*
X0081772D01*
X0080458Y0066641D02*
X0081766D01*
X008049Y0066635D02*
X0081759D01*
X0080515Y0066628D02*
X0081753D01*
X008054Y0066622D02*
X0081594D01*
X0081607D02*
X0081747D01*
X0080572Y0066616D02*
X0081594D01*
X0081607D02*
X008174D01*
X0080597Y0066609D02*
X0081734D01*
X0080629Y0066603D02*
X0081728D01*
X0080655Y0066597D02*
X0081721D01*
X008068Y006659D02*
X0081715D01*
X0080712Y0066584D02*
X0081709D01*
X0080737Y0066578D02*
X0081702D01*
X0080763Y0066571D02*
X0081702D01*
X0080794Y0066565D02*
X0081696D01*
X008082Y0066559D02*
X008169D01*
X0080845Y0066552D02*
X0081683D01*
X0080877Y0066546D02*
X0081677D01*
X0080902Y0066539D02*
X0081671D01*
X0080934Y0066533D02*
X0081664D01*
X0080959Y0066527D02*
X0081658D01*
X0080985Y006652D02*
X0081652D01*
X0081017Y0066514D02*
X0081645D01*
X0081042Y0066508D02*
X0081639D01*
X0081067Y0066501D02*
X0081632D01*
X0081099Y0066495D02*
X0081626D01*
X0081124Y0066489D02*
X0081626D01*
X0081156Y0066482D02*
X008162D01*
X0081182Y0066476D02*
X0081613D01*
X0081207Y006647D02*
X0081607D01*
X0081239Y0066463D02*
X0081601D01*
X0081264Y0066457D02*
X0081594D01*
X008129Y0066451D02*
X0081588D01*
X0081321Y0066444D02*
X0081582D01*
X0081347Y0066438D02*
X0081575D01*
X0081372Y0066432D02*
X0081569D01*
X0081404Y0066425D02*
X0081563D01*
X0081429Y0066419D02*
X0081563D01*
X0081461Y0066412D02*
X0081556D01*
M02*
