%FSTAX43Y43*%
%MOMM*%
G71*
G01*
G75*
G04 Layer_Physical_Order=1*
G04 Layer_Color=16776960*
G04:AMPARAMS|DCode=10|XSize=0.9mm|YSize=0.8mm|CornerRadius=0.2mm|HoleSize=0mm|Usage=FLASHONLY|Rotation=90.000|XOffset=0mm|YOffset=0mm|HoleType=Round|Shape=RoundedRectangle|*
%AMROUNDEDRECTD10*
21,1,0.900,0.400,0,0,90.0*
21,1,0.500,0.800,0,0,90.0*
1,1,0.400,0.200,0.250*
1,1,0.400,0.200,-0.250*
1,1,0.400,-0.200,-0.250*
1,1,0.400,-0.200,0.250*
%
%ADD10ROUNDEDRECTD10*%
G04:AMPARAMS|DCode=11|XSize=4.3mm|YSize=1.9mm|CornerRadius=0.475mm|HoleSize=0mm|Usage=FLASHONLY|Rotation=270.000|XOffset=0mm|YOffset=0mm|HoleType=Round|Shape=RoundedRectangle|*
%AMROUNDEDRECTD11*
21,1,4.300,0.950,0,0,270.0*
21,1,3.350,1.900,0,0,270.0*
1,1,0.950,-0.475,-1.675*
1,1,0.950,-0.475,1.675*
1,1,0.950,0.475,1.675*
1,1,0.950,0.475,-1.675*
%
%ADD11ROUNDEDRECTD11*%
G04:AMPARAMS|DCode=12|XSize=1.5mm|YSize=1.25mm|CornerRadius=0.313mm|HoleSize=0mm|Usage=FLASHONLY|Rotation=0.000|XOffset=0mm|YOffset=0mm|HoleType=Round|Shape=RoundedRectangle|*
%AMROUNDEDRECTD12*
21,1,1.500,0.625,0,0,0.0*
21,1,0.875,1.250,0,0,0.0*
1,1,0.625,0.438,-0.313*
1,1,0.625,-0.438,-0.313*
1,1,0.625,-0.438,0.313*
1,1,0.625,0.438,0.313*
%
%ADD12ROUNDEDRECTD12*%
G04:AMPARAMS|DCode=13|XSize=0.9mm|YSize=0.8mm|CornerRadius=0.2mm|HoleSize=0mm|Usage=FLASHONLY|Rotation=180.000|XOffset=0mm|YOffset=0mm|HoleType=Round|Shape=RoundedRectangle|*
%AMROUNDEDRECTD13*
21,1,0.900,0.400,0,0,180.0*
21,1,0.500,0.800,0,0,180.0*
1,1,0.400,-0.250,0.200*
1,1,0.400,0.250,0.200*
1,1,0.400,0.250,-0.200*
1,1,0.400,-0.250,-0.200*
%
%ADD13ROUNDEDRECTD13*%
G04:AMPARAMS|DCode=14|XSize=1.5mm|YSize=1.25mm|CornerRadius=0.313mm|HoleSize=0mm|Usage=FLASHONLY|Rotation=90.000|XOffset=0mm|YOffset=0mm|HoleType=Round|Shape=RoundedRectangle|*
%AMROUNDEDRECTD14*
21,1,1.500,0.625,0,0,90.0*
21,1,0.875,1.250,0,0,90.0*
1,1,0.625,0.313,0.438*
1,1,0.625,0.313,-0.438*
1,1,0.625,-0.313,-0.438*
1,1,0.625,-0.313,0.438*
%
%ADD14ROUNDEDRECTD14*%
G04:AMPARAMS|DCode=15|XSize=2.65mm|YSize=1.75mm|CornerRadius=0.438mm|HoleSize=0mm|Usage=FLASHONLY|Rotation=90.000|XOffset=0mm|YOffset=0mm|HoleType=Round|Shape=RoundedRectangle|*
%AMROUNDEDRECTD15*
21,1,2.650,0.875,0,0,90.0*
21,1,1.775,1.750,0,0,90.0*
1,1,0.875,0.438,0.887*
1,1,0.875,0.438,-0.887*
1,1,0.875,-0.438,-0.887*
1,1,0.875,-0.438,0.887*
%
%ADD15ROUNDEDRECTD15*%
G04:AMPARAMS|DCode=16|XSize=3.28mm|YSize=1.5mm|CornerRadius=0.375mm|HoleSize=0mm|Usage=FLASHONLY|Rotation=270.000|XOffset=0mm|YOffset=0mm|HoleType=Round|Shape=RoundedRectangle|*
%AMROUNDEDRECTD16*
21,1,3.280,0.750,0,0,270.0*
21,1,2.530,1.500,0,0,270.0*
1,1,0.750,-0.375,-1.265*
1,1,0.750,-0.375,1.265*
1,1,0.750,0.375,1.265*
1,1,0.750,0.375,-1.265*
%
%ADD16ROUNDEDRECTD16*%
G04:AMPARAMS|DCode=17|XSize=1mm|YSize=1.5mm|CornerRadius=0.25mm|HoleSize=0mm|Usage=FLASHONLY|Rotation=270.000|XOffset=0mm|YOffset=0mm|HoleType=Round|Shape=RoundedRectangle|*
%AMROUNDEDRECTD17*
21,1,1.000,1.000,0,0,270.0*
21,1,0.500,1.500,0,0,270.0*
1,1,0.500,-0.500,-0.250*
1,1,0.500,-0.500,0.250*
1,1,0.500,0.500,0.250*
1,1,0.500,0.500,-0.250*
%
%ADD17ROUNDEDRECTD17*%
G04:AMPARAMS|DCode=18|XSize=1.3mm|YSize=1mm|CornerRadius=0.25mm|HoleSize=0mm|Usage=FLASHONLY|Rotation=270.000|XOffset=0mm|YOffset=0mm|HoleType=Round|Shape=RoundedRectangle|*
%AMROUNDEDRECTD18*
21,1,1.300,0.500,0,0,270.0*
21,1,0.800,1.000,0,0,270.0*
1,1,0.500,-0.250,-0.400*
1,1,0.500,-0.250,0.400*
1,1,0.500,0.250,0.400*
1,1,0.500,0.250,-0.400*
%
%ADD18ROUNDEDRECTD18*%
G04:AMPARAMS|DCode=19|XSize=1.5mm|YSize=1.3mm|CornerRadius=0.325mm|HoleSize=0mm|Usage=FLASHONLY|Rotation=90.000|XOffset=0mm|YOffset=0mm|HoleType=Round|Shape=RoundedRectangle|*
%AMROUNDEDRECTD19*
21,1,1.500,0.650,0,0,90.0*
21,1,0.850,1.300,0,0,90.0*
1,1,0.650,0.325,0.425*
1,1,0.650,0.325,-0.425*
1,1,0.650,-0.325,-0.425*
1,1,0.650,-0.325,0.425*
%
%ADD19ROUNDEDRECTD19*%
G04:AMPARAMS|DCode=20|XSize=0.8mm|YSize=1mm|CornerRadius=0.2mm|HoleSize=0mm|Usage=FLASHONLY|Rotation=180.000|XOffset=0mm|YOffset=0mm|HoleType=Round|Shape=RoundedRectangle|*
%AMROUNDEDRECTD20*
21,1,0.800,0.600,0,0,180.0*
21,1,0.400,1.000,0,0,180.0*
1,1,0.400,-0.200,0.300*
1,1,0.400,0.200,0.300*
1,1,0.400,0.200,-0.300*
1,1,0.400,-0.200,-0.300*
%
%ADD20ROUNDEDRECTD20*%
%ADD21O,0.400X2.100*%
G04:AMPARAMS|DCode=22|XSize=1.6mm|YSize=0.4mm|CornerRadius=0.1mm|HoleSize=0mm|Usage=FLASHONLY|Rotation=270.000|XOffset=0mm|YOffset=0mm|HoleType=Round|Shape=RoundedRectangle|*
%AMROUNDEDRECTD22*
21,1,1.600,0.200,0,0,270.0*
21,1,1.400,0.400,0,0,270.0*
1,1,0.200,-0.100,-0.700*
1,1,0.200,-0.100,0.700*
1,1,0.200,0.100,0.700*
1,1,0.200,0.100,-0.700*
%
%ADD22ROUNDEDRECTD22*%
G04:AMPARAMS|DCode=23|XSize=2.5mm|YSize=2mm|CornerRadius=0.5mm|HoleSize=0mm|Usage=FLASHONLY|Rotation=180.000|XOffset=0mm|YOffset=0mm|HoleType=Round|Shape=RoundedRectangle|*
%AMROUNDEDRECTD23*
21,1,2.500,1.000,0,0,180.0*
21,1,1.500,2.000,0,0,180.0*
1,1,1.000,-0.750,0.500*
1,1,1.000,0.750,0.500*
1,1,1.000,0.750,-0.500*
1,1,1.000,-0.750,-0.500*
%
%ADD23ROUNDEDRECTD23*%
%ADD24O,2.250X0.500*%
G04:AMPARAMS|DCode=25|XSize=1.5mm|YSize=1mm|CornerRadius=0.25mm|HoleSize=0mm|Usage=FLASHONLY|Rotation=90.000|XOffset=0mm|YOffset=0mm|HoleType=Round|Shape=RoundedRectangle|*
%AMROUNDEDRECTD25*
21,1,1.500,0.500,0,0,90.0*
21,1,1.000,1.000,0,0,90.0*
1,1,0.500,0.250,0.500*
1,1,0.500,0.250,-0.500*
1,1,0.500,-0.250,-0.500*
1,1,0.500,-0.250,0.500*
%
%ADD25ROUNDEDRECTD25*%
%ADD26C,0.300*%
%ADD27C,0.400*%
%ADD28C,0.500*%
%ADD29C,1.000*%
%ADD30C,1.500*%
%ADD31C,0.800*%
%ADD32C,0.700*%
%ADD33C,1.000*%
%ADD34C,1.300*%
%ADD35C,1.600*%
G04:AMPARAMS|DCode=36|XSize=2.54mm|YSize=4.064mm|CornerRadius=0.635mm|HoleSize=0mm|Usage=FLASHONLY|Rotation=0.000|XOffset=0mm|YOffset=0mm|HoleType=Round|Shape=RoundedRectangle|*
%AMROUNDEDRECTD36*
21,1,2.540,2.794,0,0,0.0*
21,1,1.270,4.064,0,0,0.0*
1,1,1.270,0.635,-1.397*
1,1,1.270,-0.635,-1.397*
1,1,1.270,-0.635,1.397*
1,1,1.270,0.635,1.397*
%
%ADD36ROUNDEDRECTD36*%
G04:AMPARAMS|DCode=37|XSize=4.064mm|YSize=2.54mm|CornerRadius=0.635mm|HoleSize=0mm|Usage=FLASHONLY|Rotation=0.000|XOffset=0mm|YOffset=0mm|HoleType=Round|Shape=RoundedRectangle|*
%AMROUNDEDRECTD37*
21,1,4.064,1.270,0,0,0.0*
21,1,2.794,2.540,0,0,0.0*
1,1,1.270,1.397,-0.635*
1,1,1.270,-1.397,-0.635*
1,1,1.270,-1.397,0.635*
1,1,1.270,1.397,0.635*
%
%ADD37ROUNDEDRECTD37*%
%ADD38C,0.700*%
%ADD39C,0.800*%
%ADD40C,3.200*%
G36*
X0098514Y0083756D02*
Y007739D01*
X0098371Y0077046D01*
X0098142Y0076845D01*
X0097674Y0077021D01*
X0097651Y0077197D01*
X009756Y0077416D01*
X0097416Y0077604D01*
X0097228Y0077748D01*
X0097016Y0077836D01*
Y0077894D01*
X0097078Y0078361D01*
X00971Y007837D01*
X009734Y0078555D01*
X0097525Y0078795D01*
X009764Y0079075D01*
X009768Y0079375D01*
X009764Y0079675D01*
X0097525Y0079955D01*
X009734Y0080195D01*
X00971Y008038D01*
X009682Y0080495D01*
X009652Y0080535D01*
X009622Y0080495D01*
X009594Y008038D01*
X0095841Y0080303D01*
X0095347Y0080385D01*
X0095239Y0080547D01*
X0095258Y0080593D01*
X0095282Y0080776D01*
Y0081276D01*
X0095258Y0081459D01*
X0095187Y0081629D01*
X0095075Y0081775D01*
X0094929Y0081887D01*
X0094759Y0081958D01*
X0094576Y0081982D01*
X0094176D01*
X0093993Y0081958D01*
X0093823Y0081887D01*
X0093677Y0081775D01*
D01*
X0093529Y0081887D01*
D01*
X0093529Y0081887D01*
Y0081887D01*
X0093359Y0081958D01*
X0093226Y0081975D01*
Y0081026D01*
X0092976D01*
Y0080776D01*
X009207D01*
X0092094Y0080593D01*
X0092155Y0080446D01*
X0092113Y0080383D01*
X0091653Y0080031D01*
X0089172D01*
X0084912Y008429D01*
X0085104Y0084752D01*
X0097518D01*
X0098514Y0083756D01*
D02*
G37*
G36*
X0067604Y0082401D02*
X0067521Y00822D01*
X0067493Y0081985D01*
Y008181D01*
X006865D01*
Y008131D01*
X0067493D01*
Y0081135D01*
X0067521Y008092D01*
X0067604Y0080719D01*
X0067737Y0080547D01*
X0067759Y0080529D01*
X0067599Y0080056D01*
X006616D01*
X006498Y0081236D01*
X0064844Y008134D01*
X0064765Y0081373D01*
X0064686Y0081405D01*
X0064516Y0081428D01*
X0059934D01*
X0059847Y0081534D01*
X0059791Y0081652D01*
X0060059Y0082074D01*
X006241D01*
X006258Y0082097D01*
X0062659Y0082129D01*
X0062738Y0082162D01*
X0062874Y0082266D01*
X0063454Y0082847D01*
X0067023D01*
X0067604Y0082401D01*
D02*
G37*
G36*
X00511Y00493D02*
Y00474D01*
X0052Y00465D01*
X00521Y00464D01*
X00542D01*
X00546Y0046D01*
Y0044D01*
X00542Y00436D01*
X00506D01*
X00486Y00456D01*
Y00493D01*
X00489Y00496D01*
X00508D01*
X00511Y00493D01*
D02*
G37*
G36*
X0053975Y0052705D02*
X00635D01*
X0063818Y0052388D01*
Y004826D01*
X00635Y0047943D01*
X0053022D01*
X0052705Y004826D01*
Y0051118D01*
X0052388Y0051435D01*
X0051118D01*
X00508Y0051752D01*
Y0053022D01*
X0051118Y005334D01*
X005334D01*
X0053975Y0052705D01*
D02*
G37*
G36*
X004595Y0071744D02*
X0046575D01*
X0046771Y0071769D01*
X0046953Y0071845D01*
X004711Y0071965D01*
X004723Y0072122D01*
X0047306Y0072304D01*
X0047312Y0072351D01*
X0047376Y00724D01*
X0047824Y0072179D01*
Y0071582D01*
X0047848Y0071399D01*
X0047873Y007134D01*
Y0070667D01*
X0047857Y0070646D01*
X0047779Y007046D01*
X0047279D01*
X0047199Y0070654D01*
X0047038Y0070863D01*
X0046829Y0071023D01*
X0046586Y0071124D01*
X0046325Y0071159D01*
X0044825D01*
X0044564Y0071124D01*
X0044321Y0071023D01*
X0044253Y0071046D01*
X0044048Y0071502D01*
X0044092Y0071609D01*
X0044554Y0071801D01*
X0044629Y0071769D01*
X0044825Y0071744D01*
X004545D01*
Y00725D01*
X004595D01*
Y0071744D01*
D02*
G37*
G36*
X0088436Y0078911D02*
X0088463Y0078891D01*
X0088302Y0078418D01*
X0075476D01*
X0075306Y0078395D01*
X0075227Y0078363D01*
X0075148Y007833D01*
X0075012Y0078226D01*
X0073388Y0076602D01*
X0071859D01*
X0071707Y0076775D01*
Y0077625D01*
X0071679Y007784D01*
X0071596Y0078041D01*
X0071463Y0078213D01*
X0071306Y0078334D01*
Y007925D01*
X0071306Y0079253D01*
Y00797D01*
X0071282Y0079883D01*
X0071211Y0080053D01*
X0071099Y0080199D01*
X0071291Y0080414D01*
X0071291D01*
X0071291Y0080414D01*
X0071463Y0080547D01*
X0071596Y0080719D01*
X0071679Y008092D01*
X0071707Y0081135D01*
Y0081985D01*
X0071679Y00822D01*
X0071596Y0082401D01*
X0071463Y0082573D01*
X0071306Y0082694D01*
Y008355D01*
X0071306Y0083553D01*
Y0084D01*
X0071389Y0084094D01*
X0083253D01*
X0088436Y0078911D01*
D02*
G37*
G36*
X0082611Y0090344D02*
X0082628Y0090316D01*
X0082513Y00901D01*
X0082439Y0089855D01*
X0082414Y00896D01*
X0082439Y0089345D01*
X0082513Y00891D01*
X0082634Y0088874D01*
X0082796Y0088676D01*
X0082994Y0088514D01*
X008322Y0088393D01*
X0083465Y0088319D01*
X008372Y0088294D01*
X0083975Y0088319D01*
X008422Y0088393D01*
X0084446Y0088514D01*
X0084644Y0088676D01*
X008474Y0088794D01*
X008524D01*
X0085336Y0088676D01*
X0085534Y0088514D01*
X008576Y0088393D01*
X0086005Y0088319D01*
X008626Y0088294D01*
X0086515Y0088319D01*
X008676Y0088393D01*
X0086986Y0088514D01*
X0087184Y0088676D01*
X008728Y0088794D01*
X008778D01*
X0087876Y0088676D01*
X0088074Y0088514D01*
X00883Y0088393D01*
X0088545Y0088319D01*
X00888Y0088294D01*
X0089055Y0088319D01*
X00893Y0088393D01*
X0089526Y0088514D01*
X0089724Y0088676D01*
X008982Y0088794D01*
X009032D01*
X0090416Y0088676D01*
X0090614Y0088514D01*
X009084Y0088393D01*
X0091085Y0088319D01*
X009134Y0088294D01*
X0091595Y0088319D01*
X009184Y0088393D01*
X0092066Y0088514D01*
X0092264Y0088676D01*
X009236Y0088794D01*
X009286D01*
X0092956Y0088676D01*
X0093154Y0088514D01*
X009338Y0088393D01*
X0093625Y0088319D01*
X009388Y0088294D01*
X0094135Y0088319D01*
X009438Y0088393D01*
X0094606Y0088514D01*
X0094804Y0088676D01*
X00949Y0088794D01*
X00954D01*
X0095496Y0088676D01*
X0095694Y0088514D01*
X009592Y0088393D01*
X0096165Y0088319D01*
X009642Y0088294D01*
X0096675Y0088319D01*
X009692Y0088393D01*
X0097146Y0088514D01*
X0097344Y0088676D01*
X009744Y0088794D01*
X009794D01*
X0098036Y0088676D01*
X0098234Y0088514D01*
X009846Y0088393D01*
X0098705Y0088319D01*
X009896Y0088294D01*
X0099215Y0088319D01*
X009946Y0088393D01*
X0099686Y0088514D01*
X0099884Y0088676D01*
X009998Y0088794D01*
X010048D01*
X0100576Y0088676D01*
X0100774Y0088514D01*
X0101Y0088393D01*
X0101245Y0088319D01*
X01015Y0088294D01*
X0101755Y0088319D01*
X0102Y0088393D01*
X0102226Y0088514D01*
X0102424Y0088676D01*
X0102586Y0088874D01*
X0102707Y00891D01*
X0102781Y0089345D01*
X0102806Y00896D01*
X0102781Y0089855D01*
X0102755Y0089942D01*
X0103184Y0090199D01*
X0103544Y0089838D01*
Y0085543D01*
X0103082Y0085351D01*
X0101361Y0087073D01*
X0101152Y0087233D01*
X0100909Y0087334D01*
X0100647Y0087369D01*
X0069472D01*
X006928Y0087831D01*
X0069765Y0088315D01*
X006998Y0088294D01*
X0070235Y0088319D01*
X007048Y0088393D01*
X0070706Y0088514D01*
X0070904Y0088676D01*
X0071Y0088794D01*
X00715D01*
X0071596Y0088676D01*
X0071794Y0088514D01*
X007202Y0088393D01*
X0072265Y0088319D01*
X007252Y0088294D01*
X0072775Y0088319D01*
X007302Y0088393D01*
X0073246Y0088514D01*
X0073444Y0088676D01*
X007354Y0088794D01*
X007404D01*
X0074136Y0088676D01*
X0074334Y0088514D01*
X007456Y0088393D01*
X0074805Y0088319D01*
X007506Y0088294D01*
X0075315Y0088319D01*
X007556Y0088393D01*
X0075786Y0088514D01*
X0075984Y0088676D01*
X007608Y0088794D01*
X007658D01*
X0076676Y0088676D01*
X0076874Y0088514D01*
X00771Y0088393D01*
X0077345Y0088319D01*
X00776Y0088294D01*
X0077855Y0088319D01*
X00781Y0088393D01*
X0078326Y0088514D01*
X0078524Y0088676D01*
X007862Y0088794D01*
X007912D01*
X0079216Y0088676D01*
X0079414Y0088514D01*
X007964Y0088393D01*
X0079885Y0088319D01*
X008014Y0088294D01*
X0080395Y0088319D01*
X008064Y0088393D01*
X0080866Y0088514D01*
X0081064Y0088676D01*
X0081226Y0088874D01*
X0081347Y00891D01*
X0081421Y0089345D01*
X0081446Y00896D01*
X0081421Y0089855D01*
X0081347Y00901D01*
X0081232Y0090316D01*
X0081249Y0090344D01*
X0081736Y0090744D01*
X0082124D01*
X0082611Y0090344D01*
D02*
G37*
G36*
X005185Y009029D02*
X0051636Y0090038D01*
X0051463Y0089756D01*
X0051337Y0089451D01*
X0051259Y008913D01*
X0051234Y00888D01*
X0051259Y008847D01*
X0051337Y0088149D01*
X0051463Y0087844D01*
X0051636Y0087562D01*
X005185Y008731D01*
X0052102Y0087096D01*
X0052384Y0086923D01*
X0052689Y0086797D01*
X0052702Y0086794D01*
X0052814Y0086306D01*
X0052676Y0086194D01*
X0052514Y0085996D01*
X0052393Y008577D01*
X0052319Y0085525D01*
X0052294Y008527D01*
X0052311Y0085096D01*
X0052207Y0084981D01*
X0051364Y0084726D01*
X0048282D01*
X0046853Y0086154D01*
X004688Y008636D01*
X004684Y008666D01*
X0046725Y008694D01*
X004654Y008718D01*
X00463Y0087365D01*
X004602Y008748D01*
X004572Y008752D01*
X004542Y008748D01*
X004514Y0087365D01*
X00449Y008718D01*
X0044715Y008694D01*
X00446Y008666D01*
X004456Y008636D01*
X00446Y008606D01*
X0044715Y008578D01*
X00449Y008554D01*
X004514Y0085355D01*
X004542Y008524D01*
X004572Y00852D01*
X0045926Y0085227D01*
X0047546Y0083606D01*
X0047682Y0083502D01*
X0047775Y0083464D01*
X004784Y0083437D01*
X004801Y0083414D01*
X0052029D01*
X0052327Y0083013D01*
X0052319Y0082985D01*
X0052294Y008273D01*
X0052319Y0082475D01*
X0052393Y008223D01*
X0052514Y0082004D01*
X0052676Y0081806D01*
X0052874Y0081644D01*
X00531Y0081523D01*
X0053345Y0081449D01*
X00536Y0081424D01*
X0053855Y0081449D01*
X00541Y0081523D01*
X0054326Y0081644D01*
X0054524Y0081806D01*
X005465Y008196D01*
X005515D01*
X0055276Y0081806D01*
X0055474Y0081644D01*
X00557Y0081523D01*
X0055945Y0081449D01*
X00562Y0081424D01*
X0056455Y0081449D01*
X0056531Y0081472D01*
X0057694Y0080308D01*
X005783Y0080204D01*
X0057942Y0080158D01*
X0057988Y0080139D01*
X0058158Y0080116D01*
X0058978D01*
X0059169Y0079654D01*
X0059073Y0079559D01*
X0058969Y0079423D01*
X0058945Y0079364D01*
X0058904Y0079265D01*
X0058892Y0079178D01*
X0058887Y0079174D01*
X0058704Y007915D01*
X0058562Y0079091D01*
X005842Y007915D01*
X0058237Y0079174D01*
X0058054Y007915D01*
X0057912Y0079091D01*
X005777Y007915D01*
X0057587Y0079174D01*
X0057404Y007915D01*
X0057262Y0079091D01*
X005712Y007915D01*
X0056937Y0079174D01*
X0056754Y007915D01*
X0056612Y0079091D01*
X005647Y007915D01*
X0056287Y0079174D01*
X0056104Y007915D01*
X0055962Y0079091D01*
X005582Y007915D01*
X0055637Y0079174D01*
X0055454Y007915D01*
X005541Y0079132D01*
X0054977Y0079382D01*
X005497Y0079437D01*
X0054943Y0079502D01*
X0054905Y0079595D01*
X0054801Y0079731D01*
X0054058Y0080474D01*
X0053922Y0080578D01*
X0053843Y0080611D01*
X0053764Y0080643D01*
X0053594Y0080666D01*
X0051139D01*
X0051029Y0080809D01*
X0050883Y0080921D01*
X0050713Y0080992D01*
X005053Y0081016D01*
X005013D01*
X0050069Y0081008D01*
X0049716Y0081362D01*
X0049739Y0081534D01*
X0049704Y0081795D01*
X0049604Y0082038D01*
X0049443Y0082247D01*
X0049234Y0082408D01*
X0048991Y0082508D01*
X004873Y0082543D01*
X0048469Y0082508D01*
X0048226Y0082408D01*
X0048017Y0082247D01*
X0047857Y0082038D01*
X0047756Y0081795D01*
X0047721Y0081534D01*
X0047756Y0081273D01*
X0047857Y008103D01*
X0047873Y0081009D01*
Y0080552D01*
X0047848Y0080493D01*
X0047824Y008031D01*
Y007971D01*
X0047848Y0079527D01*
X0047873Y0079468D01*
Y0079214D01*
X0047508Y0078873D01*
X0047334Y0078884D01*
Y007905D01*
X0047299Y0079311D01*
X0047199Y0079554D01*
X0047038Y0079763D01*
X0046829Y0079924D01*
X0046586Y0080024D01*
X0046325Y0080059D01*
X0044825D01*
X0044564Y0080024D01*
X0044321Y0079924D01*
X0044112Y0079763D01*
X0043951Y0079554D01*
X0043851Y0079311D01*
X0043816Y007905D01*
Y007805D01*
X0043851Y0077789D01*
X0043907Y0077652D01*
X0043702Y0077197D01*
X0043634Y0077174D01*
X0043391Y0077274D01*
X004313Y0077309D01*
X0042869Y0077274D01*
X0042626Y0077174D01*
X0042417Y0077013D01*
X0042257Y0076804D01*
X0042156Y0076561D01*
X0042121Y00763D01*
X0042156Y0076039D01*
X0042257Y0075796D01*
X0042417Y0075587D01*
X0042626Y0075426D01*
X0042869Y0075326D01*
X004313Y0075291D01*
X0043391Y0075326D01*
X0043634Y0075426D01*
X0043682Y0075463D01*
X004387Y0075413D01*
X004414Y0075206D01*
X0044094Y0075096D01*
X0044069Y00749D01*
X0044094Y0074704D01*
X004417Y0074522D01*
X0044187Y00745D01*
X004417Y0074478D01*
X0044094Y0074296D01*
X0044069Y00741D01*
X0044094Y0073904D01*
X004417Y0073722D01*
X0044187Y00737D01*
X004417Y0073678D01*
X0044094Y0073496D01*
X0044069Y00733D01*
X0044094Y0073104D01*
X004414Y0072994D01*
X004387Y0072787D01*
X0043682Y0072737D01*
X0043634Y0072773D01*
X0043391Y0072874D01*
X004313Y0072909D01*
X0042869Y0072874D01*
X0042626Y0072773D01*
X0042417Y0072613D01*
X0042257Y0072404D01*
X0042156Y0072161D01*
X0042121Y00719D01*
X0042156Y0071639D01*
X0042257Y0071396D01*
X0042417Y0071187D01*
X0042626Y0071026D01*
X0042869Y0070926D01*
X004313Y0070891D01*
X0043391Y0070926D01*
X0043634Y0071026D01*
X0043702Y0071004D01*
X0043907Y0070548D01*
X0043851Y0070411D01*
X0043816Y007015D01*
Y006915D01*
X0043851Y0068889D01*
X0043951Y0068646D01*
X0044112Y0068437D01*
X0044321Y0068276D01*
X0044564Y0068176D01*
X0044825Y0068141D01*
X0046325D01*
X0046586Y0068176D01*
X0046829Y0068276D01*
X0047038Y0068437D01*
X0047199Y0068646D01*
X0047299Y0068889D01*
X0047334Y006915D01*
Y0069619D01*
X0047824Y0069716D01*
X0047857Y0069638D01*
X0048017Y0069429D01*
X0048226Y0069269D01*
X0048469Y0069168D01*
X004873Y0069133D01*
X0048991Y0069168D01*
X0049234Y0069269D01*
X0049443Y0069429D01*
X0049604Y0069638D01*
X0049704Y0069881D01*
X0049739Y0070142D01*
X0049704Y0070403D01*
X0049664Y0070501D01*
X0049968Y0070897D01*
X005013Y0070876D01*
X005053D01*
X0050713Y00709D01*
X0050883Y0070971D01*
X0051029Y0071083D01*
X0051141Y0071229D01*
X0051212Y0071399D01*
X0051236Y0071582D01*
Y0072182D01*
X0051212Y0072365D01*
X0052143Y007275D01*
X0052814D01*
X0053031Y0072533D01*
Y0071814D01*
X0053005Y0071751D01*
X0052981Y0071568D01*
Y0069868D01*
X0053005Y0069685D01*
X0053076Y0069515D01*
X0053188Y0069369D01*
X0053334Y0069257D01*
X00535Y0069188D01*
X0053629Y0068705D01*
X0053607Y0068675D01*
X0053536Y0068505D01*
X0053512Y0068322D01*
Y0067822D01*
X0053536Y0067639D01*
X0053604Y0067476D01*
X0053521Y0067441D01*
X0053351Y0067311D01*
X0053221Y0067141D01*
X0053139Y0066944D01*
X0053111Y0066731D01*
Y0065856D01*
X0053139Y0065644D01*
X0053221Y0065447D01*
X0053234Y0065429D01*
Y0064375D01*
X0053269Y0064114D01*
X0053369Y0063871D01*
X005353Y0063662D01*
X0053739Y0063501D01*
X0053982Y0063401D01*
X0054243Y0063366D01*
X0054504Y0063401D01*
X0054747Y0063501D01*
X0054956Y0063662D01*
X0055117Y0063871D01*
X0055217Y0064114D01*
X0055252Y0064375D01*
Y0064542D01*
X0055364Y0064813D01*
X0055628Y0065044D01*
X0055681Y0065037D01*
X0055743D01*
Y0066294D01*
X0056243D01*
Y0065037D01*
X0056306D01*
X0056518Y0065065D01*
X0056715Y0065147D01*
X0056885Y0065277D01*
X0056923Y0065327D01*
X0056945D01*
X0057154Y0065166D01*
X0057397Y0065066D01*
X0057658Y0065031D01*
X0057919Y0065066D01*
X0058162Y0065166D01*
X0058371Y0065327D01*
X0058532Y0065536D01*
X0058632Y0065779D01*
X0058667Y006604D01*
X0058632Y0066301D01*
X0058532Y0066544D01*
X0058437Y0066668D01*
X0058654Y0067108D01*
X0058674Y0067116D01*
X0058812D01*
X0058995Y006714D01*
X0059165Y0067211D01*
X0059311Y0067323D01*
X0059423Y0067469D01*
X0059494Y0067639D01*
X0059518Y0067822D01*
X0058612D01*
Y0068322D01*
X0059518D01*
X0059494Y0068505D01*
X0059423Y0068675D01*
X0059399Y0068707D01*
X0059502Y0068956D01*
X0059992Y0069054D01*
X0060172Y0068874D01*
X0060165Y0068857D01*
X0060145Y00687D01*
Y00673D01*
X0060165Y0067143D01*
X0060194Y0067073D01*
Y0067012D01*
X0060089Y0066931D01*
X0059977Y0066785D01*
X0059906Y0066615D01*
X0059882Y0066432D01*
Y0066032D01*
X0059906Y0065849D01*
X0059977Y0065679D01*
X0059977D01*
X0059977Y0065679D01*
D01*
X0060089Y0065531D01*
X0059977Y0065385D01*
X0059906Y0065215D01*
X0059889Y0065082D01*
X0060838D01*
Y0064832D01*
X0061088D01*
Y0063926D01*
X0061271Y006395D01*
X0061441Y0064021D01*
X0061587Y0064133D01*
X0061989Y0064133D01*
X0061989Y0064133D01*
X0062135Y0064021D01*
X0062305Y006395D01*
X0062488Y0063926D01*
Y0064832D01*
X0062738D01*
Y0065082D01*
X0063687D01*
X006367Y0065215D01*
X0063599Y0065385D01*
X0063487Y0065531D01*
X0063599Y0065679D01*
D01*
X0063599Y0065679D01*
X0063599D01*
X006367Y0065849D01*
X0063694Y0066032D01*
Y0066432D01*
X006367Y0066615D01*
X0063599Y0066785D01*
X0063487Y0066931D01*
X0063406Y0066994D01*
Y0067073D01*
X0063435Y0067143D01*
X0063455Y00673D01*
Y00687D01*
X0063435Y0068857D01*
X0063385Y0068975D01*
X0063383Y0068992D01*
X0063364Y0069038D01*
X0063318Y006915D01*
X0063214Y0069286D01*
X0062817Y0069682D01*
X0062819Y0069685D01*
X0062843Y0069868D01*
Y0071568D01*
X0062819Y0071751D01*
X0062748Y0071921D01*
X0062636Y0072067D01*
X006249Y0072179D01*
X006232Y007225D01*
X0062137Y0072274D01*
X0061954Y007225D01*
X0061812Y0072191D01*
X006167Y007225D01*
X0061487Y0072274D01*
X0061304Y007225D01*
X0061162Y0072191D01*
X006102Y007225D01*
X0060837Y0072274D01*
X0060654Y007225D01*
X0060512Y0072191D01*
X006037Y007225D01*
X0060187Y0072274D01*
X0060004Y007225D01*
X0059862Y0072191D01*
X005972Y007225D01*
X0059537Y0072274D01*
X0059354Y007225D01*
X0059212Y0072191D01*
X005907Y007225D01*
X0058887Y0072274D01*
X0058704Y007225D01*
X0058562Y0072191D01*
X0058487Y0072222D01*
Y0070718D01*
X0057987D01*
Y0072222D01*
X0057912Y0072191D01*
X005777Y007225D01*
X0057587Y0072274D01*
X0057404Y007225D01*
X0057262Y0072191D01*
X005712Y007225D01*
X0056937Y0072274D01*
X0056754Y007225D01*
X0056612Y0072191D01*
X005647Y007225D01*
X0056287Y0072274D01*
X0056104Y007225D01*
X0055962Y0072191D01*
X005582Y007225D01*
X0055637Y0072274D01*
X0055454Y007225D01*
X0055408Y0072231D01*
X0054993Y0072509D01*
Y0073933D01*
X005497Y0074103D01*
X0054951Y0074149D01*
X0054905Y0074261D01*
X0054801Y0074397D01*
X0053804Y0075394D01*
X0053668Y0075498D01*
X0053589Y0075531D01*
X005351Y0075563D01*
X005334Y0075586D01*
X0053097D01*
X0052983Y0075735D01*
X005323Y0076169D01*
X0053334Y0076157D01*
X0053504Y0076086D01*
X0053687Y0076062D01*
X005387Y0076086D01*
X0054012Y0076145D01*
X0054154Y0076086D01*
X0054337Y0076062D01*
X005452Y0076086D01*
X0054662Y0076145D01*
X0054804Y0076086D01*
X0054987Y0076062D01*
X005517Y0076086D01*
X0055312Y0076145D01*
X0055454Y0076086D01*
X0055637Y0076062D01*
X005582Y0076086D01*
X0055962Y0076145D01*
X0056104Y0076086D01*
X0056287Y0076062D01*
X005647Y0076086D01*
X0056612Y0076145D01*
X0056754Y0076086D01*
X0056937Y0076062D01*
X005712Y0076086D01*
X0057262Y0076145D01*
X0057404Y0076086D01*
X0057587Y0076062D01*
X005777Y0076086D01*
X0057912Y0076145D01*
X0058054Y0076086D01*
X0058237Y0076062D01*
X005842Y0076086D01*
X0058562Y0076145D01*
X0058704Y0076086D01*
X0058887Y0076062D01*
X005907Y0076086D01*
X005907Y0076086D01*
D01*
X0059224Y0075699D01*
X0059189Y0075438D01*
X0059224Y0075177D01*
X0059325Y0074934D01*
X0059485Y0074725D01*
X0059694Y0074564D01*
X0059937Y0074464D01*
X0060198Y0074429D01*
X0060459Y0074464D01*
X0060702Y0074564D01*
X0060911Y0074725D01*
X0061071Y0074934D01*
X0061172Y0075177D01*
X0061207Y0075438D01*
X0061172Y0075699D01*
X0061304Y0076086D01*
D01*
X0061304Y0076086D01*
X0061487Y0076062D01*
X006167Y0076086D01*
X0061812Y0076145D01*
X0061954Y0076086D01*
X0062137Y0076062D01*
X006232Y0076086D01*
X006249Y0076157D01*
X0062636Y0076269D01*
X0062748Y0076415D01*
X0062819Y0076585D01*
X0062843Y0076768D01*
Y0078468D01*
X0062952Y0078592D01*
X0063482D01*
X0063944Y007813D01*
Y0073068D01*
X0063967Y0072898D01*
X0063994Y0072833D01*
X0064032Y007274D01*
X0064136Y0072604D01*
X0066338Y0070402D01*
X0066474Y0070298D01*
X0066586Y0070252D01*
X0066632Y0070233D01*
X0066802Y007021D01*
X0067234D01*
X0067302Y0070158D01*
X0067545Y0069795D01*
X0067517Y0069728D01*
X0067489Y0069513D01*
Y0069338D01*
X0068646D01*
Y0069088D01*
X0068896D01*
Y0067831D01*
X0068971D01*
X0069186Y0067859D01*
X0069387Y0067942D01*
X0069559Y0068075D01*
X0069633D01*
X0069805Y0067942D01*
X0070006Y0067859D01*
X0070221Y0067831D01*
X0070871D01*
X0071086Y0067859D01*
X0071287Y0067942D01*
X0071459Y0068075D01*
X0071592Y0068247D01*
X0071675Y0068448D01*
X0071703Y0068663D01*
Y0069513D01*
X0071675Y0069728D01*
X0071592Y0069929D01*
X0071459Y0070101D01*
X0071287Y0070234D01*
X0071226Y0070259D01*
X0071278Y0070383D01*
X0071302Y0070566D01*
Y0071166D01*
X0071355Y0071226D01*
X007366D01*
X007383Y0071249D01*
X0073909Y0071281D01*
X0073988Y0071314D01*
X0074124Y0071418D01*
X0079012Y0076306D01*
X0085628D01*
X0085958Y007593D01*
X0085951Y0075882D01*
X0085986Y0075621D01*
X0086087Y0075378D01*
X0086247Y0075169D01*
X0086456Y0075009D01*
X0086699Y0074908D01*
X008696Y0074874D01*
X0089631D01*
X0091833Y0074584D01*
Y0073784D01*
X0091859Y0073588D01*
X0091934Y0073406D01*
X0092055Y0073249D01*
X009206Y0073245D01*
X0091995Y0072749D01*
X0091948Y007273D01*
X0091776Y0072597D01*
X0091644Y0072425D01*
X0091561Y0072224D01*
X0091532Y0072009D01*
Y0071159D01*
X0091561Y0070944D01*
X0091644Y0070743D01*
X0091776Y0070571D01*
X0091948Y0070438D01*
X0092149Y0070355D01*
X0092365Y0070327D01*
X0093015D01*
X009323Y0070355D01*
X0093431Y0070438D01*
X0093603Y0070571D01*
X0093676D01*
X0093848Y0070438D01*
X0094049Y0070355D01*
X0094265Y0070327D01*
X009434D01*
Y0071584D01*
X009459D01*
Y0071834D01*
X0095747D01*
Y0072009D01*
X0095718Y0072224D01*
X0095635Y0072425D01*
X0095503Y0072597D01*
X0095367Y0072702D01*
X0095527Y0073175D01*
X0096881D01*
X0096941Y0073129D01*
X0097124Y0073053D01*
X009732Y0073028D01*
X009782D01*
X0098001Y0073051D01*
X0098305Y0072655D01*
X0098293Y0072625D01*
X0098262Y007239D01*
X0098293Y0072155D01*
X0098383Y0071936D01*
X0098528Y0071748D01*
X0098716Y0071604D01*
X0098935Y0071513D01*
X009917Y0071482D01*
X0099404Y0071513D01*
X0099623Y0071604D01*
X0099811Y0071748D01*
X0099956Y0071936D01*
X0100046Y0072155D01*
X0100077Y007239D01*
X0100046Y0072625D01*
X0099956Y0072844D01*
X0099825Y0073014D01*
X0099954Y0073249D01*
X0099954Y0073249D01*
X0099954D01*
X0100075Y0073406D01*
X010015Y0073588D01*
X0100176Y0073784D01*
Y0074584D01*
X010015Y007478D01*
X0100075Y0074962D01*
X0099954Y0075119D01*
X0099825Y0075218D01*
Y0084028D01*
X0099803Y0084198D01*
X0099776Y0084263D01*
X0099737Y0084356D01*
X0099633Y0084492D01*
X0099235Y0084889D01*
X0099427Y0085351D01*
X010023D01*
X0102179Y0083402D01*
Y0080838D01*
X010185Y0080549D01*
Y0079375D01*
Y0078201D01*
X0102179Y0077912D01*
Y0076618D01*
X0101137Y0075576D01*
X0100977Y0075367D01*
X0100876Y0075124D01*
X0100841Y0074863D01*
X0100841Y0074863D01*
X0100841D01*
X0100841Y0074863D01*
X0100841D01*
Y0071505D01*
X0100841Y0071505D01*
X0100841D01*
X0100876Y0071244D01*
X0100977Y0071001D01*
X0101137Y0070792D01*
X0101462Y0070466D01*
X0101595Y0070028D01*
X0101561Y0069799D01*
X0101424Y0069726D01*
X0101226Y0069564D01*
X0101064Y0069366D01*
X0100943Y006914D01*
X0100869Y0068895D01*
X0100844Y006864D01*
X0100808Y0068601D01*
X009271D01*
X009254Y0068578D01*
X0092382Y0068513D01*
X0092246Y0068409D01*
X0091803Y0067966D01*
X0091746D01*
X0091576Y0068096D01*
X0091357Y0068187D01*
X0091122Y0068218D01*
X0090888Y0068187D01*
X0090669Y0068096D01*
X0090481Y0067952D01*
X0090336Y0067764D01*
X0090246Y0067545D01*
X0090215Y006731D01*
D01*
D01*
D01*
X0090215Y006731D01*
X0090215Y006731D01*
X0090204Y0067013D01*
X0088889D01*
X0088719Y0067144D01*
X00885Y0067234D01*
X0088265Y0067265D01*
X008803Y0067234D01*
X0087811Y0067144D01*
X0087623Y0066999D01*
X0087479Y0066811D01*
X0087388Y0066592D01*
X0087357Y0066357D01*
X0087388Y0066123D01*
X0087479Y0065904D01*
X0087623Y0065716D01*
X0087811Y0065571D01*
X008803Y0065481D01*
X0088265Y006545D01*
X00885Y0065481D01*
X0088719Y0065571D01*
X0088889Y0065702D01*
X0092075D01*
X0092245Y0065724D01*
X0092324Y0065757D01*
X0092324Y0065757D01*
Y0065757D01*
X0092559Y0065646D01*
X0092703Y0065458D01*
X0092891Y0065314D01*
X009311Y0065223D01*
X0093345Y0065192D01*
X009358Y0065223D01*
X0093799Y0065314D01*
X0093987Y0065458D01*
X0094131Y0065646D01*
X0094222Y0065865D01*
X009425Y0066078D01*
X0094277Y0066104D01*
X010084D01*
X0100844Y00661D01*
X0100869Y0065845D01*
X0100943Y00656D01*
X0101064Y0065374D01*
X0101226Y0065176D01*
X0101344Y006508D01*
Y006458D01*
X0101226Y0064484D01*
X0101064Y0064286D01*
X0100943Y006406D01*
X0100869Y0063815D01*
X0100844Y006356D01*
X0100869Y0063305D01*
X0100943Y006306D01*
X0101064Y0062834D01*
X0101226Y0062636D01*
X0101424Y0062474D01*
X010165Y0062353D01*
X0101895Y0062279D01*
X010215Y0062254D01*
X0102405Y0062279D01*
X010265Y0062353D01*
X0102876Y0062474D01*
X0103074Y0062636D01*
X010315Y0062729D01*
X010365D01*
X0103726Y0062636D01*
X0103924Y0062474D01*
X010415Y0062353D01*
X0104395Y0062279D01*
X01044Y0062278D01*
Y006356D01*
X01049D01*
Y0062278D01*
X0104905Y0062279D01*
X010515Y0062353D01*
X0105376Y0062474D01*
X0105574Y0062636D01*
X0106044Y006225D01*
Y0061514D01*
X010566Y0060586D01*
Y005969D01*
Y0058794D01*
X0106044Y0057866D01*
Y0047513D01*
X0106021Y0047493D01*
X010559Y0047294D01*
X0105438Y0047424D01*
X0105156Y0047597D01*
X0104851Y0047723D01*
X010453Y0047801D01*
X01042Y0047826D01*
X010387Y0047801D01*
X0103549Y0047723D01*
X0103272Y0047609D01*
X0103212Y0047649D01*
X0102856Y0048229D01*
Y0049134D01*
X010302Y004926D01*
X0103205Y00495D01*
X010332Y004978D01*
X010336Y005008D01*
X010332Y005038D01*
X0103205Y005066D01*
X010302Y00509D01*
X010278Y0051085D01*
X01025Y00512D01*
X01022Y005124D01*
X01019Y00512D01*
X010162Y0051085D01*
X010138Y00509D01*
X0101195Y005066D01*
X010118Y0050623D01*
X010068D01*
X0100665Y005066D01*
X010048Y00509D01*
X010024Y0051085D01*
X009996Y00512D01*
X009966Y005124D01*
X009936Y00512D01*
X009908Y0051085D01*
X009884Y00509D01*
X0098655Y005066D01*
X009864Y0050623D01*
X009814D01*
X0098125Y005066D01*
X009794Y00509D01*
X00977Y0051085D01*
X009742Y00512D01*
X009712Y005124D01*
X009682Y00512D01*
X009654Y0051085D01*
X00963Y00509D01*
X0096115Y005066D01*
X00961Y0050623D01*
X00956D01*
X0095585Y005066D01*
X00954Y00509D01*
X009516Y0051085D01*
X009488Y00512D01*
X009458Y005124D01*
X009428Y00512D01*
X0094Y0051085D01*
X009376Y00509D01*
X0093575Y005066D01*
X009356Y0050623D01*
X009306D01*
X0093045Y005066D01*
X009286Y00509D01*
X009262Y0051085D01*
X009234Y00512D01*
X009204Y005124D01*
X009174Y00512D01*
X009146Y0051085D01*
X009122Y00509D01*
X0091035Y005066D01*
X009102Y0050623D01*
X009052D01*
X0090505Y005066D01*
X009032Y00509D01*
X009008Y0051085D01*
X00898Y00512D01*
X00895Y005124D01*
X00892Y00512D01*
X008892Y0051085D01*
X008868Y00509D01*
X0088495Y005066D01*
X008848Y0050623D01*
X008798D01*
X0087965Y005066D01*
X008778Y00509D01*
X008754Y0051085D01*
X008726Y00512D01*
X008721Y0051207D01*
Y005008D01*
X008671D01*
Y0051207D01*
X008666Y00512D01*
X008638Y0051085D01*
X008614Y00509D01*
X0085955Y005066D01*
X008594Y0050623D01*
X008544D01*
X0085425Y005066D01*
X008524Y00509D01*
X0085Y0051085D01*
X008472Y00512D01*
X008442Y005124D01*
X008412Y00512D01*
X008384Y0051085D01*
X00836Y00509D01*
X0083415Y005066D01*
X00834Y0050623D01*
X00829D01*
X0082885Y005066D01*
X00827Y00509D01*
X008246Y0051085D01*
X008218Y00512D01*
X008188Y005124D01*
X008158Y00512D01*
X00813Y0051085D01*
X008106Y00509D01*
X0080875Y005066D01*
X008086Y0050623D01*
X008036D01*
X0080345Y005066D01*
X008016Y00509D01*
X007992Y0051085D01*
X007964Y00512D01*
X007934Y005124D01*
X007904Y00512D01*
X007876Y0051085D01*
X007852Y00509D01*
X0078335Y005066D01*
X007832Y0050623D01*
X007782D01*
X0077805Y005066D01*
X007762Y00509D01*
X007738Y0051085D01*
X00771Y00512D01*
X00768Y005124D01*
X00765Y00512D01*
X007622Y0051085D01*
X007598Y00509D01*
X0075795Y005066D01*
X007578Y0050623D01*
X007528D01*
X0075265Y005066D01*
X007508Y00509D01*
X007484Y0051085D01*
X007456Y00512D01*
X007426Y005124D01*
X007396Y00512D01*
X007368Y0051085D01*
X007344Y00509D01*
X0073255Y005066D01*
X007324Y0050623D01*
X007274D01*
X0072725Y005066D01*
X007254Y00509D01*
X00723Y0051085D01*
X007202Y00512D01*
X007172Y005124D01*
X007142Y00512D01*
X007114Y0051085D01*
X00709Y00509D01*
X0070715Y005066D01*
X00707Y0050623D01*
X00702D01*
X0070185Y005066D01*
X007Y00509D01*
X006976Y0051085D01*
X006948Y00512D01*
X006918Y005124D01*
X006888Y00512D01*
X00686Y0051085D01*
X006836Y00509D01*
X0068175Y005066D01*
X006806Y005038D01*
X006802Y005008D01*
X006806Y004978D01*
X0068175Y00495D01*
X006836Y004926D01*
X00686Y0049075D01*
X006888Y004896D01*
X006918Y004892D01*
X006948Y004896D01*
X006976Y0049075D01*
X007Y004926D01*
X0070185Y00495D01*
X00702Y0049537D01*
X00707D01*
X0070715Y00495D01*
X00709Y004926D01*
X007114Y0049075D01*
X007142Y004896D01*
X007172Y004892D01*
X007202Y004896D01*
X00723Y0049075D01*
X007254Y004926D01*
X0072725Y00495D01*
X007274Y0049537D01*
X007324D01*
X0073255Y00495D01*
X007344Y004926D01*
X007368Y0049075D01*
X007396Y004896D01*
X007426Y004892D01*
X007456Y004896D01*
X007484Y0049075D01*
X007508Y004926D01*
X0075265Y00495D01*
X007528Y0049537D01*
X007578D01*
X0075795Y00495D01*
X007598Y004926D01*
X007622Y0049075D01*
X00765Y004896D01*
X00768Y004892D01*
X00771Y004896D01*
X007738Y0049075D01*
X007762Y004926D01*
X0077805Y00495D01*
X007782Y0049537D01*
X007832D01*
X0078335Y00495D01*
X007852Y004926D01*
X007876Y0049075D01*
X007904Y004896D01*
X007934Y004892D01*
D01*
Y004892D01*
X0079594Y004855D01*
X00805D01*
Y00483D01*
X008075D01*
Y0047335D01*
X0080906Y0047307D01*
Y0046673D01*
X0080906Y0046673D01*
X0080906D01*
X0080941Y0046411D01*
X0081041Y0046168D01*
X0081202Y0045959D01*
X0081411Y0045799D01*
X0081654Y0045698D01*
X0081915Y0045664D01*
X0082176Y0045698D01*
X0082419Y0045799D01*
X0082628Y0045959D01*
X0082788Y0046168D01*
X0082889Y0046411D01*
X0082924Y0046673D01*
Y0047307D01*
X0082889Y0047569D01*
X0082808Y0047765D01*
Y00483D01*
Y00494D01*
X0082885Y00495D01*
X00829Y0049537D01*
X00834D01*
X0083415Y00495D01*
X00836Y004926D01*
D01*
X0083701Y0049049D01*
X0083701D01*
X0083589Y0048903D01*
X0083518Y0048733D01*
X0083494Y004855D01*
Y004805D01*
X0083518Y0047867D01*
X0083589Y0047697D01*
X0083701Y0047551D01*
X0083847Y0047439D01*
X0084017Y0047368D01*
X00842Y0047344D01*
X00846D01*
X0084783Y0047368D01*
X0084953Y0047439D01*
X0085099Y0047551D01*
X0085099Y0047551D01*
Y0047551D01*
X0085247Y0047439D01*
D01*
X0085247Y0047439D01*
Y0047439D01*
X0085417Y0047368D01*
X008555Y0047351D01*
Y00483D01*
X00858D01*
Y004855D01*
X0086706D01*
X008696Y004892D01*
Y004892D01*
D01*
X008726Y004896D01*
X008754Y0049075D01*
X008778Y004926D01*
X0087965Y00495D01*
X008798Y0049537D01*
X008848D01*
X0088495Y00495D01*
X008868Y004926D01*
X0088744Y0049211D01*
Y004112D01*
X0088626Y0041024D01*
X0088464Y0040826D01*
X0088343Y00406D01*
X0088269Y0040355D01*
X0088244Y00401D01*
X0088269Y0039845D01*
X0088343Y00396D01*
X0088464Y0039374D01*
X0088601Y0039208D01*
X0088531Y003906D01*
X0088281Y0038756D01*
X0086389D01*
X0086139Y003906D01*
X0086069Y0039208D01*
X0086206Y0039374D01*
X0086327Y00396D01*
X0086401Y0039845D01*
X0086426Y00401D01*
X0086401Y0040355D01*
X0086376Y0040438D01*
Y0041562D01*
X0086352Y0041808D01*
X008628Y0042043D01*
X008624Y0042119D01*
X0086164Y004226D01*
X0086008Y0042451D01*
X0086008Y0042451D01*
X0085343Y0043116D01*
X0085153Y0043272D01*
X0084936Y0043388D01*
X00847Y0043459D01*
X0084455Y0043484D01*
X0084455Y0043484D01*
X006529D01*
X0064121Y0044653D01*
Y0047843D01*
X0064178Y00479D01*
X0064288Y0048065D01*
X0064327Y004826D01*
Y0052388D01*
X0064288Y0052583D01*
X0064178Y0052748D01*
X006386Y0053065D01*
X0063695Y0053176D01*
X00635Y0053215D01*
X0054186D01*
X00537Y00537D01*
X0053535Y0053811D01*
X005334Y005385D01*
X0051118D01*
X0050922Y0053811D01*
X0050757Y00537D01*
X005044Y0053383D01*
X0050329Y0053218D01*
X005029Y0053022D01*
Y0051752D01*
X0050329Y0051557D01*
X005044Y0051392D01*
X0050757Y0051075D01*
X0050922Y0050964D01*
X0051118Y0050925D01*
X0052176D01*
X0052195Y0050906D01*
Y004826D01*
X0052234Y0048065D01*
X0052331Y0047919D01*
X0052344Y004789D01*
X0052494Y0047694D01*
X005269Y0047544D01*
X0052768Y0047511D01*
X0052827Y0047472D01*
X0052897Y0047458D01*
X0052918Y0047449D01*
X0052983Y0047441D01*
X0053022Y0047433D01*
X0053043D01*
X0053162Y0047417D01*
X0054037D01*
X0054157Y0047433D01*
X0061609D01*
Y0046376D01*
X0061161Y0046155D01*
X0061067Y0046227D01*
X006083Y0046325D01*
X0060575Y0046358D01*
X006035D01*
Y00437D01*
Y0041042D01*
X0060575D01*
X006083Y0041075D01*
X0061067Y0041173D01*
X006127Y004133D01*
X0061427Y0041533D01*
X0061525Y004177D01*
X0061558Y0042025D01*
Y0042901D01*
X0061825Y004312D01*
X006202Y0043201D01*
X0063882Y0041339D01*
X0063882Y0041339D01*
X0064072Y0041183D01*
X0064214Y0041107D01*
X0064289Y0041067D01*
X0064525Y0040996D01*
X006477Y0040971D01*
X006477Y0040971D01*
X0067978D01*
X0068621Y0040628D01*
X0068664Y004057D01*
X0068599Y0040355D01*
X0068574Y00401D01*
X0068599Y0039845D01*
X0068673Y00396D01*
X0068794Y0039374D01*
X0068931Y0039208D01*
X0068861Y003906D01*
X0068611Y0038756D01*
X0053893D01*
X0053873Y0038779D01*
X0053674Y003921D01*
X0053804Y0039362D01*
X0053977Y0039644D01*
X0054103Y0039949D01*
X0054181Y004027D01*
X0054206Y00406D01*
X0054181Y004093D01*
X0054103Y0041251D01*
X0053977Y0041556D01*
X0053804Y0041838D01*
X005359Y004209D01*
X0053338Y0042304D01*
X0053056Y0042477D01*
X005276Y00426D01*
X0052806Y0042831D01*
X0052868Y004309D01*
X00542D01*
D01*
X00542D01*
X0054395Y0043129D01*
X005456Y004324D01*
X005496Y004364D01*
X0055071Y0043805D01*
X005511Y0044D01*
Y0046D01*
X0055077Y0046163D01*
X0055071Y0046195D01*
X005496Y004636D01*
X005456Y004676D01*
X0054395Y0046871D01*
X00542Y004691D01*
X0052311D01*
X0051627Y0047594D01*
Y0049022D01*
X005161Y0049155D01*
Y00493D01*
X0051571Y0049495D01*
X005146Y004966D01*
X00513Y0049821D01*
X0051292Y0049831D01*
X0051281Y004984D01*
X005116Y004996D01*
X0050995Y0050071D01*
X0050843Y0050101D01*
X0050779Y0050128D01*
X0050482Y0050167D01*
X0049213D01*
X0048916Y0050128D01*
X0048848Y0050099D01*
X0048705Y0050071D01*
X004854Y004996D01*
X0048435Y0049856D01*
X0048403Y0049831D01*
X0048378Y0049799D01*
X004824Y004966D01*
X0048129Y0049495D01*
X004809Y00493D01*
Y00493D01*
D01*
Y0049193D01*
X0048068Y0049022D01*
Y0046228D01*
X004809Y0046057D01*
Y00456D01*
X0048129Y0045405D01*
X004824Y004524D01*
X0048306Y0045173D01*
X0048302Y0045142D01*
X0048121Y0044705D01*
X0047097D01*
Y0043175D01*
X0049389D01*
Y0043436D01*
X0049826Y0043618D01*
X0049857Y0043622D01*
X005024Y004324D01*
X0050405Y0043129D01*
X00506Y004309D01*
X0051332D01*
X0051394Y0042831D01*
X005144Y00426D01*
X0051144Y0042477D01*
X0050862Y0042304D01*
X005061Y004209D01*
X0050396Y0041838D01*
X0050223Y0041556D01*
X0050097Y0041251D01*
X0050019Y004093D01*
X0049994Y00406D01*
X0050019Y004027D01*
X0050097Y0039949D01*
X0050223Y0039644D01*
X0050396Y0039362D01*
X0050526Y003921D01*
X0050327Y0038779D01*
X0050307Y0038756D01*
X0038756D01*
Y0067311D01*
X0039102Y0068148D01*
X0039132Y0068173D01*
X0039375Y0068141D01*
X0040875D01*
X0041136Y0068176D01*
X0041379Y0068276D01*
X0041588Y0068437D01*
X0041749Y0068646D01*
X0041849Y0068889D01*
X0041884Y006915D01*
Y007015D01*
X0041849Y0070411D01*
X0041749Y0070654D01*
X0041588Y0070863D01*
X0041379Y0071023D01*
X0041136Y0071124D01*
X0040875Y0071159D01*
X0039375D01*
X0039132Y0071127D01*
X0039102Y0071152D01*
X0038756Y0071989D01*
Y0076211D01*
X0039102Y0077048D01*
X0039132Y0077073D01*
X0039375Y0077041D01*
X0040875D01*
X0041136Y0077076D01*
X0041379Y0077176D01*
X0041588Y0077337D01*
X0041749Y0077546D01*
X0041849Y0077789D01*
X0041884Y007805D01*
Y007905D01*
X0041849Y0079311D01*
X0041749Y0079554D01*
X0041588Y0079763D01*
X0041379Y0079924D01*
X0041136Y0080024D01*
X0040875Y0080059D01*
X0039375D01*
X0039132Y0080027D01*
X0039102Y0080052D01*
X0038756Y0080889D01*
Y0090744D01*
X0051462D01*
X005185Y009029D01*
D02*
G37*
%LPC*%
G36*
X0051347Y0061811D02*
X004849D01*
X0048245Y0061787D01*
X0048009Y0061715D01*
X0047792Y0061599D01*
X0047749Y0061564D01*
X00472D01*
X0047184Y0061561D01*
X00467D01*
X0046504Y0061536D01*
X0046322Y006146D01*
X0046165Y006134D01*
X0046045Y0061183D01*
X0045969Y0061001D01*
X0045944Y0060805D01*
Y0060305D01*
X0045969Y0060109D01*
X0046045Y0059927D01*
X0046165Y005977D01*
X0046315Y0059655D01*
Y0059155D01*
X0046165Y005904D01*
X0046045Y0058883D01*
X0045969Y0058701D01*
X0045944Y0058505D01*
Y0058005D01*
X0045969Y0057809D01*
X0046045Y0057627D01*
X0046165Y005747D01*
X0046315Y0057355D01*
Y0056855D01*
X0046165Y005674D01*
X0046045Y0056583D01*
X0045969Y0056401D01*
X0045944Y0056205D01*
X00472D01*
Y0055955D01*
X004745D01*
Y0054949D01*
X00477D01*
X0047896Y0054974D01*
X0048078Y005505D01*
X0048235Y005517D01*
X0048355Y0055327D01*
X0048753Y0055503D01*
Y0055503D01*
X0048753Y0055503D01*
X0048883Y0055333D01*
X0049053Y0055203D01*
X004925Y0055121D01*
X0049463Y0055093D01*
X004965D01*
Y0056225D01*
X005015D01*
Y0055093D01*
X0050338D01*
X005055Y0055121D01*
X0050747Y0055203D01*
X0050917Y0055333D01*
X0051047Y0055503D01*
X0051251Y0055601D01*
Y0055601D01*
X0051251Y0055601D01*
X0051397Y0055489D01*
X0051567Y0055418D01*
X005175Y0055394D01*
Y00563D01*
X005225D01*
Y0055394D01*
X0052433Y0055418D01*
X0052603Y0055489D01*
X0052749Y0055601D01*
X0052861Y0055747D01*
X0052897Y0055833D01*
X0053167Y0055886D01*
X0053471Y0055846D01*
X0053761Y0055557D01*
X0053761Y0055557D01*
X0053761D01*
X0053761Y0055557D01*
X0053761D01*
X0053761Y0055557D01*
Y0055557D01*
Y0055557D01*
D01*
D01*
X0053761D01*
Y0055557D01*
X005397Y0055396D01*
X0054142Y0055325D01*
X0054213Y0055296D01*
X0054474Y0055261D01*
X0054513D01*
X0054529Y0055138D01*
X0054624Y005491D01*
X0054774Y0054714D01*
X005497Y0054564D01*
X0055198Y0054469D01*
X0055443Y0054437D01*
X0056318D01*
X0056562Y0054469D01*
X005679Y0054564D01*
X0056986Y0054714D01*
X0057136Y005491D01*
X005718Y0055014D01*
X0062738D01*
X0062983Y0055038D01*
X0063219Y005511D01*
X0063436Y0055226D01*
X0063626Y0055382D01*
X0063782Y0055572D01*
X0063898Y0055789D01*
X006397Y0056025D01*
X0063994Y005627D01*
X006397Y0056515D01*
X0063898Y0056751D01*
X0063782Y0056968D01*
X0063626Y0057158D01*
X0063436Y0057314D01*
X0063219Y005743D01*
X0062983Y0057502D01*
X0062738Y0057526D01*
X005718D01*
X0057136Y005763D01*
X0056986Y0057826D01*
X005679Y0057976D01*
X0056562Y0058071D01*
X0056318Y0058103D01*
X0055443D01*
X0055198Y0058071D01*
X005497Y0057976D01*
X0054774Y0057826D01*
D01*
X0054774Y0057826D01*
X0054774Y0057826D01*
X0054774Y0057826D01*
Y0057826D01*
X0054554Y0057616D01*
X0053757Y0058413D01*
X0053548Y0058574D01*
X0053305Y0058674D01*
X0053044Y0058709D01*
X0051819D01*
X0051518Y0059108D01*
X0051579Y0059322D01*
X0051593Y0059323D01*
X0051828Y0059395D01*
X0052045Y0059511D01*
X0052236Y0059667D01*
X0052392Y0059857D01*
X0052508Y0060074D01*
X0052579Y006031D01*
X0052604Y0060555D01*
X0052579Y00608D01*
X0052508Y0061036D01*
X0052392Y0061253D01*
X0052236Y0061443D01*
X0052045Y0061599D01*
X0051828Y0061715D01*
X0051593Y0061787D01*
X0051347Y0061811D01*
D02*
G37*
G36*
X0043548Y0050167D02*
X0043162D01*
X0042866Y0050128D01*
X004259Y0050013D01*
X0042353Y0049831D01*
X0042171Y0049594D01*
X0042057Y0049318D01*
X0042018Y0049022D01*
Y0047875D01*
X0043548D01*
Y0050167D01*
D02*
G37*
G36*
X0044432D02*
X0044048D01*
Y0047875D01*
X0045577D01*
Y0049022D01*
X0045538Y0049318D01*
X0045424Y0049594D01*
X0045242Y0049831D01*
X0045005Y0050013D01*
X0044729Y0050128D01*
X0044432Y0050167D01*
D02*
G37*
G36*
X01022Y005886D02*
X01019Y005882D01*
X010162Y0058705D01*
X010138Y005852D01*
X0101195Y005828D01*
X010118Y0058243D01*
X010068D01*
X0100665Y005828D01*
X010048Y005852D01*
X010024Y0058705D01*
X009996Y005882D01*
X009966Y005886D01*
X009936Y005882D01*
X009908Y0058705D01*
X009884Y005852D01*
X0098655Y005828D01*
X009864Y0058243D01*
X009814D01*
X0098125Y005828D01*
X009794Y005852D01*
X00977Y0058705D01*
X009742Y005882D01*
X009712Y005886D01*
X009682Y005882D01*
X009654Y0058705D01*
X00963Y005852D01*
X0096115Y005828D01*
X00961Y0058243D01*
X00956D01*
X0095585Y005828D01*
X00954Y005852D01*
X009516Y0058705D01*
X009488Y005882D01*
X009458Y005886D01*
X009428Y005882D01*
X0094Y0058705D01*
X009376Y005852D01*
X0093575Y005828D01*
X009356Y0058243D01*
X009306D01*
X0093045Y005828D01*
X009286Y005852D01*
X009262Y0058705D01*
X009234Y005882D01*
X009204Y005886D01*
X009174Y005882D01*
X009146Y0058705D01*
X009122Y005852D01*
X0091035Y005828D01*
X009102Y0058243D01*
X009052D01*
X0090505Y005828D01*
X009032Y005852D01*
X009008Y0058705D01*
X00898Y005882D01*
X00895Y005886D01*
X00892Y005882D01*
X008892Y0058705D01*
X008868Y005852D01*
X0088495Y005828D01*
X008848Y0058243D01*
X008798D01*
X0087965Y005828D01*
X008778Y005852D01*
X008754Y0058705D01*
X008726Y005882D01*
X008696Y005886D01*
X008666Y005882D01*
X008638Y0058705D01*
X008614Y005852D01*
X0085955Y005828D01*
X008594Y0058243D01*
X008544D01*
X0085425Y005828D01*
X008524Y005852D01*
X0085Y0058705D01*
X008472Y005882D01*
X008467Y0058827D01*
Y00577D01*
Y0056573D01*
X008472Y005658D01*
X0085Y0056695D01*
X008524Y005688D01*
X0085425Y005712D01*
X008544Y0057157D01*
X0085716D01*
X0085951Y0057111D01*
Y0053975D01*
X0085951Y0053975D01*
X0085951D01*
X0085986Y0053714D01*
X0086087Y0053471D01*
X0086247Y0053262D01*
X0086456Y0053102D01*
X0086699Y0053001D01*
X008696Y0052966D01*
X0087221Y0053001D01*
X0087464Y0053102D01*
X0087673Y0053262D01*
X0087833Y0053471D01*
X0087934Y0053714D01*
X0087969Y0053975D01*
Y0057111D01*
X0088204Y0057157D01*
X008848D01*
X0088495Y005712D01*
X008868Y005688D01*
X008892Y0056695D01*
X00892Y005658D01*
X00895Y005654D01*
X00898Y005658D01*
X009008Y0056695D01*
X009032Y005688D01*
X0090505Y005712D01*
X009052Y0057157D01*
X009102D01*
X0091035Y005712D01*
X009122Y005688D01*
X009146Y0056695D01*
X009174Y005658D01*
X009204Y005654D01*
X009234Y005658D01*
X009262Y0056695D01*
X009286Y005688D01*
X0093045Y005712D01*
X009306Y0057157D01*
X009356D01*
X0093575Y005712D01*
X009376Y005688D01*
X0094Y0056695D01*
X009428Y005658D01*
X009458Y005654D01*
X009488Y005658D01*
X009516Y0056695D01*
X00954Y005688D01*
X0095585Y005712D01*
X00956Y0057157D01*
X00961D01*
X0096115Y005712D01*
X00963Y005688D01*
X009654Y0056695D01*
X009682Y005658D01*
X009712Y005654D01*
X009742Y005658D01*
X00977Y0056695D01*
X009794Y005688D01*
X0098125Y005712D01*
X009814Y0057157D01*
X009864D01*
X0098655Y005712D01*
X009884Y005688D01*
X009908Y0056695D01*
X009936Y005658D01*
X009966Y005654D01*
X009996Y005658D01*
X010024Y0056695D01*
X010048Y005688D01*
X0100665Y005712D01*
X010068Y0057157D01*
X010118D01*
X0101195Y005712D01*
X010138Y005688D01*
X010162Y0056695D01*
X01019Y005658D01*
X01022Y005654D01*
X01025Y005658D01*
X010278Y0056695D01*
X010302Y005688D01*
X0103205Y005712D01*
X010332Y00574D01*
X010336Y00577D01*
X010332Y0058D01*
X0103205Y005828D01*
X010302Y005852D01*
X010278Y0058705D01*
X01025Y005882D01*
X01022Y005886D01*
D02*
G37*
G36*
X0056318Y0062403D02*
X0055443D01*
X0055198Y0062371D01*
X005497Y0062276D01*
X0054774Y0062126D01*
X0054624Y006193D01*
X0054529Y0061702D01*
X0054497Y0061458D01*
Y0059682D01*
X0054529Y0059438D01*
X0054624Y005921D01*
X0054774Y0059014D01*
X005497Y0058864D01*
X0055198Y0058769D01*
X0055443Y0058737D01*
X0056318D01*
X0056562Y0058769D01*
X005679Y0058864D01*
X0056986Y0059014D01*
X0057136Y005921D01*
X0057231Y0059438D01*
X0057247Y0059561D01*
X0058284D01*
X0058545Y0059596D01*
X0058788Y0059696D01*
X0058997Y0059857D01*
X0059157Y0060066D01*
X0059258Y0060309D01*
X0059293Y006057D01*
X0059258Y0060831D01*
X0059157Y0061074D01*
X0058997Y0061283D01*
X0058788Y0061443D01*
X0058545Y0061544D01*
X0058284Y0061579D01*
X0057247D01*
X0057231Y0061702D01*
X0057136Y006193D01*
X0056986Y0062126D01*
X005679Y0062276D01*
X0056562Y0062371D01*
X0056318Y0062403D01*
D02*
G37*
G36*
X004695Y0055705D02*
X0045944D01*
X0045969Y0055509D01*
X0046045Y0055327D01*
X0046165Y005517D01*
X0046322Y005505D01*
X0046504Y0054974D01*
X00467Y0054949D01*
X004695D01*
Y0055705D01*
D02*
G37*
G36*
X0041275Y0060403D02*
X0040525D01*
X0040297Y0060372D01*
X0040084Y0060284D01*
X0039901Y0060144D01*
X0039761Y0059961D01*
X0039673Y0059748D01*
X0039642Y005952D01*
Y005699D01*
X0039673Y0056762D01*
X0039761Y0056549D01*
X0039901Y0056366D01*
X0040084Y0056226D01*
X0040297Y0056138D01*
X0040525Y0056107D01*
X0041275D01*
X0041503Y0056138D01*
X0041716Y0056226D01*
X0041899Y0056366D01*
X0042039Y0056549D01*
X0042127Y0056762D01*
X0042158Y005699D01*
Y005952D01*
X0042127Y0059748D01*
X0042039Y0059961D01*
X0041899Y0060144D01*
X0041716Y0060284D01*
X0041503Y0060372D01*
X0041275Y0060403D01*
D02*
G37*
G36*
X008025Y004805D02*
X0079594D01*
X0079618Y0047867D01*
X0079689Y0047697D01*
X0079801Y0047551D01*
X0079947Y0047439D01*
X0080117Y0047368D01*
X008025Y0047351D01*
Y004805D01*
D02*
G37*
G36*
X0043548Y0047375D02*
X0042018D01*
Y0046228D01*
X0042057Y0045932D01*
X0042171Y0045656D01*
X0042353Y0045419D01*
X004259Y0045237D01*
X0042866Y0045122D01*
X0043162Y0045083D01*
X0043548D01*
Y0047375D01*
D02*
G37*
G36*
X0049389Y0042675D02*
X0047097D01*
Y0041145D01*
X0048244D01*
X0048541Y0041184D01*
X0048817Y0041299D01*
X0049054Y0041481D01*
X0049236Y0041718D01*
X004935Y0041994D01*
X0049389Y004229D01*
Y0042675D01*
D02*
G37*
G36*
X0046597Y0044705D02*
X0045451D01*
X0045154Y0044666D01*
X0044878Y0044551D01*
X0044641Y0044369D01*
X0044459Y0044132D01*
X0044345Y0043856D01*
X0044306Y004356D01*
Y0043175D01*
X0046597D01*
Y0044705D01*
D02*
G37*
G36*
X005985Y0046358D02*
X0059625D01*
X005937Y0046325D01*
X0059133Y0046227D01*
X005893Y004607D01*
X0058773Y0045867D01*
X0058675Y004563D01*
X0058642Y0045375D01*
Y004395D01*
X005985D01*
Y0046358D01*
D02*
G37*
G36*
X0045577Y0047375D02*
X0044048D01*
Y0045083D01*
X0044432D01*
X0044729Y0045122D01*
X0045005Y0045237D01*
X0045242Y0045419D01*
X0045424Y0045656D01*
X0045538Y0045932D01*
X0045577Y0046228D01*
Y0047375D01*
D02*
G37*
G36*
X0086706Y004805D02*
X008605D01*
Y0047351D01*
X0086183Y0047368D01*
X0086353Y0047439D01*
X0086499Y0047551D01*
X0086611Y0047697D01*
X0086682Y0047867D01*
X0086706Y004805D01*
D02*
G37*
G36*
X0046597Y0042675D02*
X0044306D01*
Y004229D01*
X0044345Y0041994D01*
X0044459Y0041718D01*
X0044641Y0041481D01*
X0044878Y0041299D01*
X0045154Y0041184D01*
X0045451Y0041145D01*
X0046597D01*
Y0042675D01*
D02*
G37*
G36*
X005985Y004345D02*
X0058642D01*
Y0042025D01*
X0058675Y004177D01*
X0058773Y0041533D01*
X005893Y004133D01*
X0059133Y0041173D01*
X005937Y0041075D01*
X0059625Y0041042D01*
X005985D01*
Y004345D01*
D02*
G37*
G36*
X010135Y0079125D02*
X0100473D01*
X010048Y0079075D01*
X0100595Y0078795D01*
X010078Y0078555D01*
X010102Y007837D01*
X01013Y0078255D01*
X010135Y0078248D01*
Y0079125D01*
D02*
G37*
G36*
Y0080502D02*
X01013Y0080495D01*
X010102Y008038D01*
X010078Y0080195D01*
X0100595Y0079955D01*
X010048Y0079675D01*
X0100473Y0079625D01*
X010135D01*
Y0080502D01*
D02*
G37*
G36*
X0068396Y0068838D02*
X0067489D01*
Y0068663D01*
X0067517Y0068448D01*
X00676Y0068247D01*
X0067733Y0068075D01*
X0067905Y0067942D01*
X0068106Y0067859D01*
X0068321Y0067831D01*
X0068396D01*
Y0068838D01*
D02*
G37*
G36*
X0095747Y0071334D02*
X009484D01*
Y0070327D01*
X0094914D01*
X009513Y0070355D01*
X0095331Y0070438D01*
X0095503Y0070571D01*
X0095635Y0070743D01*
X0095718Y0070944D01*
X0095747Y0071159D01*
Y0071334D01*
D02*
G37*
G36*
X0092726Y0081975D02*
X0092593Y0081958D01*
X0092423Y0081887D01*
X0092277Y0081775D01*
X0092165Y0081629D01*
X0092094Y0081459D01*
X009207Y0081276D01*
X0092726D01*
Y0081975D01*
D02*
G37*
G36*
X004039Y0087487D02*
X004034Y008748D01*
X004006Y0087365D01*
X003982Y008718D01*
X0039635Y008694D01*
X003952Y008666D01*
X0039513Y008661D01*
X004039D01*
Y0087487D01*
D02*
G37*
G36*
X004089D02*
Y008661D01*
X0041767D01*
X004176Y008666D01*
X0041645Y008694D01*
X004146Y008718D01*
X004122Y0087365D01*
X004094Y008748D01*
X004089Y0087487D01*
D02*
G37*
G36*
X004039Y008611D02*
X0039513D01*
X003952Y008606D01*
X0039635Y008578D01*
X003982Y008554D01*
X004006Y0085355D01*
X004034Y008524D01*
X004039Y0085233D01*
Y008611D01*
D02*
G37*
G36*
X0041767D02*
X004089D01*
Y0085233D01*
X004094Y008524D01*
X004122Y0085355D01*
X004146Y008554D01*
X0041645Y008578D01*
X004176Y008606D01*
X0041767Y008611D01*
D02*
G37*
G36*
X0083648Y0061726D02*
X0082992D01*
Y0061027D01*
X0083125Y0061044D01*
X0083295Y0061115D01*
X0083441Y0061227D01*
X0083553Y0061373D01*
X0083624Y0061543D01*
X0083648Y0061726D01*
D02*
G37*
G36*
X0078044Y0061726D02*
X0077388D01*
X0077412Y0061543D01*
X0077483Y0061373D01*
X0077595Y0061227D01*
X0077741Y0061115D01*
X0077911Y0061044D01*
X0078044Y0061027D01*
Y0061726D01*
D02*
G37*
G36*
X010516Y005944D02*
X0104594D01*
X0104668Y0059261D01*
X0104804Y0059084D01*
X0104981Y0058948D01*
X010516Y0058874D01*
Y005944D01*
D02*
G37*
G36*
Y0060506D02*
X0104981Y0060432D01*
X0104804Y0060296D01*
X0104668Y0060119D01*
X0104594Y005994D01*
X010516D01*
Y0060506D01*
D02*
G37*
G36*
X0082992Y0062925D02*
Y0062226D01*
X0083648D01*
X0083624Y0062409D01*
X0083553Y0062579D01*
X0083441Y0062725D01*
X0083295Y0062837D01*
X0083125Y0062908D01*
X0082992Y0062925D01*
D02*
G37*
G36*
X0060588Y0064582D02*
X0059889D01*
X0059906Y0064449D01*
X0059977Y0064279D01*
X0060089Y0064133D01*
X0060235Y0064021D01*
X0060405Y006395D01*
X0060588Y0063926D01*
Y0064582D01*
D02*
G37*
G36*
X0063687D02*
X0062988D01*
Y0063926D01*
X0063171Y006395D01*
X0063341Y0064021D01*
X0063487Y0064133D01*
X0063599Y0064279D01*
X006367Y0064449D01*
X0063687Y0064582D01*
D02*
G37*
G36*
X0078044Y0062925D02*
X0077911Y0062908D01*
X0077741Y0062837D01*
X0077595Y0062725D01*
X0077483Y0062579D01*
X0077412Y0062409D01*
X0077388Y0062226D01*
X0078044D01*
Y0062925D01*
D02*
G37*
G36*
X0079894Y0062932D02*
X0079494D01*
X0079311Y0062908D01*
X0079141Y0062837D01*
Y0062837D01*
X0079141Y0062837D01*
D01*
X0078993Y0062725D01*
D01*
X0078847Y0062837D01*
X0078677Y0062908D01*
X0078544Y0062925D01*
Y0061976D01*
Y0061003D01*
X0078863Y0060898D01*
Y0059498D01*
X0078883Y0059341D01*
X0078912Y0059271D01*
Y0059266D01*
X0078876Y005923D01*
X0078772Y0059094D01*
X0078748Y0059035D01*
X0078707Y0058936D01*
X0078684Y0058766D01*
Y0058646D01*
X007852Y005852D01*
X0078335Y005828D01*
X007832Y0058243D01*
X007782D01*
X0077805Y005828D01*
X007762Y005852D01*
X007738Y0058705D01*
X00771Y005882D01*
X00768Y005886D01*
X00765Y005882D01*
X007622Y0058705D01*
X007598Y005852D01*
X0075795Y005828D01*
X007578Y0058243D01*
X007528D01*
X0075265Y005828D01*
X007508Y005852D01*
X007484Y0058705D01*
X007456Y005882D01*
X007426Y005886D01*
X007396Y005882D01*
X007368Y0058705D01*
X007344Y005852D01*
X0073255Y005828D01*
X007324Y0058243D01*
X007274D01*
X0072725Y005828D01*
X007254Y005852D01*
X00723Y0058705D01*
X007202Y005882D01*
X007172Y005886D01*
X007142Y005882D01*
X007114Y0058705D01*
X00709Y005852D01*
X0070715Y005828D01*
X00707Y0058243D01*
X00702D01*
X0070185Y005828D01*
X007Y005852D01*
X006976Y0058705D01*
X006948Y005882D01*
X006918Y005886D01*
X006888Y005882D01*
X00686Y0058705D01*
X006836Y005852D01*
X0068175Y005828D01*
X006806Y0058D01*
X006802Y00577D01*
X006806Y00574D01*
X0068175Y005712D01*
X006836Y005688D01*
X00686Y0056695D01*
X006888Y005658D01*
X006918Y005654D01*
X006948Y005658D01*
X006976Y0056695D01*
X007Y005688D01*
X0070185Y005712D01*
X00702Y0057157D01*
X00707D01*
X0070715Y005712D01*
X00709Y005688D01*
X007114Y0056695D01*
X007142Y005658D01*
X007172Y005654D01*
X007202Y005658D01*
X00723Y0056695D01*
X007254Y005688D01*
X0072725Y005712D01*
X007274Y0057157D01*
X007324D01*
X0073255Y005712D01*
X007344Y005688D01*
X007368Y0056695D01*
X007396Y005658D01*
X007426Y005654D01*
X007456Y005658D01*
X007484Y0056695D01*
X007508Y005688D01*
X0075265Y005712D01*
X007528Y0057157D01*
X007578D01*
X0075795Y005712D01*
X007598Y005688D01*
X007622Y0056695D01*
X00765Y005658D01*
X00768Y005654D01*
X00771Y005658D01*
X007738Y0056695D01*
X007762Y005688D01*
X0077805Y005712D01*
X007782Y0057157D01*
X007832D01*
X0078335Y005712D01*
X007852Y005688D01*
X007876Y0056695D01*
X007904Y005658D01*
X007934Y005654D01*
X007964Y005658D01*
X007992Y0056695D01*
X008016Y005688D01*
X0080345Y005712D01*
X008036Y0057157D01*
X008086D01*
X0080875Y005712D01*
X008106Y005688D01*
X00813Y0056695D01*
X008158Y005658D01*
X008188Y005654D01*
X008218Y005658D01*
X008246Y0056695D01*
X00827Y005688D01*
X0082885Y005712D01*
X00829Y0057157D01*
X00834D01*
X0083415Y005712D01*
X00836Y005688D01*
X008384Y0056695D01*
X008412Y005658D01*
X008417Y0056573D01*
Y00577D01*
Y0058827D01*
X008412Y005882D01*
X008384Y0058705D01*
X00836Y005852D01*
X0083415Y005828D01*
X00834Y0058243D01*
X00829D01*
X0082885Y005828D01*
X00827Y005852D01*
X0082526Y0058654D01*
X0082513Y0058752D01*
X0082486Y0058817D01*
X0082448Y005891D01*
X0082344Y0059046D01*
X0082124Y0059266D01*
Y0059271D01*
X0082153Y0059341D01*
X0082173Y0059498D01*
Y0060898D01*
X0082492Y0061003D01*
Y0061976D01*
Y0062925D01*
X0082359Y0062908D01*
X0082189Y0062837D01*
X0082043Y0062725D01*
D01*
X0081895Y0062837D01*
D01*
X0081895Y0062837D01*
Y0062837D01*
X0081725Y0062908D01*
X0081542Y0062932D01*
X0081142D01*
X0080959Y0062908D01*
X0080789Y0062837D01*
X0080643Y0062725D01*
X0080404Y0062713D01*
X0080393Y0062725D01*
X0080393Y0062725D01*
Y0062725D01*
X0080247Y0062837D01*
X0080077Y0062908D01*
X0079894Y0062932D01*
D02*
G37*
%LPD*%
D10*
X00805Y00483D02*
D03*
X00819D02*
D03*
X00858Y00483D02*
D03*
X00844D02*
D03*
X0082742Y0061976D02*
D03*
X0081342D02*
D03*
X0078294Y0061976D02*
D03*
X0079694D02*
D03*
X0057212Y0068072D02*
D03*
X0058612D02*
D03*
X0054418Y0068072D02*
D03*
X0055818D02*
D03*
X0094376Y0081026D02*
D03*
X0092976D02*
D03*
D11*
X00601Y00437D02*
D03*
Y00505D02*
D03*
D12*
X00499Y0057975D02*
D03*
Y0056225D02*
D03*
D13*
X0052Y00563D02*
D03*
Y00577D02*
D03*
X0062738Y0064832D02*
D03*
Y0066232D02*
D03*
X0060838D02*
D03*
Y0064832D02*
D03*
D14*
X0054243Y0066294D02*
D03*
X0055993D02*
D03*
D15*
X00536Y004495D02*
D03*
Y004925D02*
D03*
X005588Y005627D02*
D03*
Y006057D02*
D03*
D16*
X00409Y0058255D02*
D03*
D17*
X00472Y0060555D02*
D03*
Y0058255D02*
D03*
Y0055955D02*
D03*
D18*
X009757Y0074184D02*
D03*
X009917D02*
D03*
X0094439D02*
D03*
X009284D02*
D03*
D19*
X0092689Y0071584D02*
D03*
X009459D02*
D03*
X006865Y008156D02*
D03*
X007055D02*
D03*
Y00772D02*
D03*
X006865D02*
D03*
X0068646Y0073152D02*
D03*
X0070546D02*
D03*
Y0069088D02*
D03*
X0068646D02*
D03*
D20*
X0092863Y0079375D02*
D03*
X0094463D02*
D03*
X00688Y00794D02*
D03*
X00704D02*
D03*
X00688Y00837D02*
D03*
X00704D02*
D03*
X005033Y008001D02*
D03*
X004873D02*
D03*
X005033Y0078486D02*
D03*
X004873D02*
D03*
X004873Y007493D02*
D03*
X005033D02*
D03*
X005033Y0071882D02*
D03*
X004873D02*
D03*
X004873Y0073406D02*
D03*
X005033D02*
D03*
X0068796Y0070866D02*
D03*
X0070396D02*
D03*
X0068796Y007493D02*
D03*
X0070396D02*
D03*
D21*
X0062137Y0077618D02*
D03*
X0061487D02*
D03*
X0060837D02*
D03*
X0060187D02*
D03*
X0059537D02*
D03*
X0058887D02*
D03*
X0058237D02*
D03*
X0057587D02*
D03*
X0056937D02*
D03*
X0056287D02*
D03*
X0055637D02*
D03*
X0054987D02*
D03*
X0054337D02*
D03*
X0053687D02*
D03*
X0062137Y0070718D02*
D03*
X0061487D02*
D03*
X0060837D02*
D03*
X0060187D02*
D03*
X0059537D02*
D03*
X0058887D02*
D03*
X0058237D02*
D03*
X0057587D02*
D03*
X0056937D02*
D03*
X0056287D02*
D03*
X0055637D02*
D03*
X0054987D02*
D03*
X0054337D02*
D03*
X0053687D02*
D03*
D22*
X0081468Y0060198D02*
D03*
X0080518D02*
D03*
X0079568D02*
D03*
X006085Y0068D02*
D03*
X00618D02*
D03*
X006275D02*
D03*
D23*
X0040125Y007855D02*
D03*
X0045575D02*
D03*
X0040125Y006965D02*
D03*
X0045575D02*
D03*
D24*
X00457Y00757D02*
D03*
Y00749D02*
D03*
Y00741D02*
D03*
Y00733D02*
D03*
Y00725D02*
D03*
D25*
X0048655Y0076708D02*
D03*
X0050405D02*
D03*
D26*
X0088299Y0078325D02*
X0097375D01*
X0087884Y007874D02*
X0088299Y0078325D01*
X010224Y00908D02*
X0103124Y0089916D01*
X0082926Y00908D02*
X010224D01*
X0082296Y009017D02*
X0082926Y00908D01*
X0081108Y009085D02*
X0081534Y0090424D01*
X006615Y009085D02*
X0081108D01*
X00649Y00896D02*
X006615Y009085D01*
X0051308Y0090424D02*
X0051684Y00908D01*
X00637D01*
X00649Y00896D01*
X0061276Y0064832D02*
X00618Y0065356D01*
X0062324Y0064832D01*
X00618Y0065356D02*
Y0068D01*
X006617Y007493D02*
X0068796D01*
X00653Y00758D02*
X006617Y007493D01*
X00653Y00758D02*
Y0078718D01*
X0064008Y008001D02*
X00653Y0078718D01*
X0063754Y0079248D02*
X00646Y0078402D01*
Y0073068D02*
Y0078402D01*
Y0073068D02*
X0066802Y0070866D01*
X0095974Y0077762D02*
X0096774Y0076962D01*
X0075476Y0077762D02*
X0095974D01*
X007366Y0075946D02*
X0075476Y0077762D01*
X009525Y0076962D02*
X0096266Y0075946D01*
X007874Y0076962D02*
X009525D01*
X007366Y0071882D02*
X007874Y0076962D01*
X0096266Y0075946D02*
X0098044D01*
X0091122Y006731D02*
X0092075D01*
X010344D02*
X010465Y00661D01*
X00844Y00483D02*
Y005006D01*
X008442Y005008D01*
X010149Y006676D02*
X010215Y00661D01*
X0094005Y006676D02*
X010149D01*
X0093345Y00661D02*
X0094005Y006676D01*
X0093027Y006731D02*
X010344D01*
X0092075Y0066357D02*
X0093027Y006731D01*
X009271Y0067945D02*
X0101455D01*
X010215Y006864D01*
X0092075Y006731D02*
X009271Y0067945D01*
X0079568Y0058994D02*
Y0060198D01*
X007934Y0058766D02*
X0079568Y0058994D01*
X007934Y00577D02*
Y0058766D01*
X0081468Y0058994D02*
Y0060198D01*
Y0058994D02*
X008188Y0058582D01*
Y00577D02*
Y0058582D01*
X0079568Y0060198D02*
Y006185D01*
X0079694Y0061976D01*
X0081468Y0060198D02*
Y006185D01*
X0081342Y0061976D02*
X0081468Y006185D01*
X004572Y008636D02*
X004801Y008407D01*
X009917Y007239D02*
Y0074184D01*
X00587Y008273D02*
X006241D01*
X004801Y008407D02*
X0059623D01*
X0060325Y0084772D01*
X0066995D01*
X006241Y008273D02*
X0063182Y0083503D01*
X0061595Y008382D02*
X0062548D01*
X006295Y0084223D01*
X0067223D01*
X0066995Y0084772D02*
X006763Y0085408D01*
X009779D01*
X0067223Y0084223D02*
X0067751Y008475D01*
X0088265Y0066357D02*
X0092075D01*
X0067751Y008475D02*
X0083525D01*
X00889Y0079375D01*
X0092545D01*
X009917Y0074184D02*
Y0084028D01*
X009779Y0085408D02*
X009917Y0084028D01*
X0063182Y0083503D02*
X0068603D01*
X00688Y00837D01*
X0053687Y0077618D02*
Y0078647D01*
X005334Y0078994D02*
X0053687Y0078647D01*
X005207Y0078994D02*
X005334D01*
X0051562Y0078486D02*
X005207Y0078994D01*
X005033Y0078486D02*
X0051562D01*
X0054337Y0077618D02*
Y0079267D01*
X0053594Y008001D02*
X0054337Y0079267D01*
X005033Y008001D02*
X0053594D01*
X005033Y007493D02*
X005334D01*
X0054337Y0073933D01*
Y0070718D02*
Y0073933D01*
X0053086Y0073406D02*
X0053687Y0072805D01*
Y0070718D02*
Y0072805D01*
X0061487Y0069615D02*
Y0070718D01*
X006085Y0068978D02*
X0061487Y0069615D01*
X006085Y0068D02*
Y0068978D01*
X0062137Y0069435D02*
Y0070718D01*
Y0069435D02*
X006275Y0068822D01*
Y0068D02*
Y0068822D01*
X006085Y0066244D02*
Y0068D01*
X0060838Y0066232D02*
X006085Y0066244D01*
X006275Y0066244D02*
Y0068D01*
X0062738Y0066232D02*
X006275Y0066244D01*
X0062137Y0077618D02*
Y0078901D01*
X0062484Y0079248D01*
X0063754D01*
X0065888Y00794D02*
X00688D01*
X00562Y008273D02*
X0058158Y0080772D01*
X0064516D01*
X0065888Y00794D01*
X0059537Y0077618D02*
Y0079095D01*
X0060452Y008001D01*
X0064008D01*
X0068796Y0075654D02*
X0069088Y0075946D01*
X007366D01*
X0068796Y007493D02*
Y0075654D01*
Y0070866D02*
Y007159D01*
X0069088Y0071882D01*
X007366D01*
X0066802Y0070866D02*
X0068796D01*
X0070396Y0073302D02*
Y007493D01*
Y0073302D02*
X0070546Y0073152D01*
X0070396Y0069238D02*
Y0070866D01*
Y0069238D02*
X0070546Y0069088D01*
X005033Y0073406D02*
X0053086D01*
X005033Y0071882D02*
Y0073406D01*
D27*
X0080518Y0056896D02*
Y0060198D01*
X0058237Y0075763D02*
Y0077618D01*
Y0079431D01*
X0047525Y0069429D02*
Y0070839D01*
X0043627Y00707D02*
X0044301Y0071374D01*
X0043688Y0073152D02*
X004434Y00725D01*
X00457D01*
X0055637Y0070718D02*
Y007239D01*
X0060187Y0070718D02*
Y0072379D01*
X0058887Y0070718D02*
Y007239D01*
X0057587Y0070718D02*
Y007239D01*
X0060837Y0070718D02*
Y007239D01*
X0056937Y0069047D02*
Y0070718D01*
Y0069047D02*
X0057212Y0068772D01*
Y0068072D02*
Y0068772D01*
X0054987Y0069211D02*
Y0070718D01*
X0054418Y0068642D02*
X0054987Y0069211D01*
X0054418Y0066469D02*
Y0068072D01*
X0054243Y0066294D02*
X0054418Y0066469D01*
X0060187Y0075449D02*
Y0077618D01*
Y0075449D02*
X0060198Y0075438D01*
D28*
X00663Y00731D02*
X0068594D01*
X00664Y00772D02*
X006865D01*
X0055818Y0066469D02*
Y0068072D01*
X0094363Y0079475D02*
X0094376Y0079462D01*
Y0081026D01*
X00895Y004015D02*
Y005008D01*
Y004015D02*
X008955Y00401D01*
X009204Y004015D02*
Y005008D01*
Y004015D02*
X009209Y00401D01*
X009458Y004015D02*
Y005008D01*
Y004015D02*
X009463Y00401D01*
X009712Y004015D02*
Y005008D01*
Y004015D02*
X009717Y00401D01*
X009966Y004015D02*
Y005008D01*
Y004015D02*
X009971Y00401D01*
X01021Y004998D02*
X01022Y005008D01*
X01021Y004025D02*
Y004998D01*
Y004025D02*
X010225Y00401D01*
X007055Y00772D02*
Y007925D01*
X00704Y00794D02*
X007055Y007925D01*
Y008156D02*
Y008355D01*
X00704Y00837D02*
X007055Y008355D01*
X010215Y006356D02*
X01022Y006351D01*
X009284Y0071734D02*
Y0074184D01*
X0092689Y0071584D02*
X009284Y0071734D01*
X0065632Y0087793D02*
X006744Y00896D01*
X00562Y008527D02*
X0058722Y0087793D01*
X0065632D01*
X00587Y008527D02*
X0060472Y0087043D01*
X0068645Y0088265D02*
X006998Y00896D01*
X0060472Y0087043D02*
X0066088D01*
X006731Y0088265D01*
X0068645D01*
X0094463Y0079375D02*
X009652D01*
X00457Y00749D02*
X00487D01*
X004873Y007493D01*
X00457Y00757D02*
X0046998D01*
X0048006Y0076708D01*
X0048655D01*
X00457Y00741D02*
X0047058D01*
X0047752Y0073406D01*
X004873D01*
X0057212Y0067248D02*
Y0068072D01*
Y0067248D02*
X0057658Y0066802D01*
Y006604D02*
Y0066802D01*
D29*
X007496Y00401D02*
X00775D01*
X008696Y0053975D02*
Y00577D01*
X00472Y0058255D02*
X004962D01*
X00499Y0057975D01*
X0050928D01*
X0051202Y00577D01*
X0052D01*
X00472Y0060555D02*
X004849D01*
X010465Y006864D02*
Y0068705D01*
X0081915Y0046673D02*
Y0047307D01*
X0061278Y0085725D02*
X0066675D01*
X006731Y008636D01*
X0100647D01*
X0103188Y008382D01*
X0094439Y0074184D02*
X009757D01*
X0094439D02*
Y0075247D01*
X008696Y0075882D02*
X0093804D01*
X0094439Y0075247D01*
X010185Y0071505D02*
X010465Y0068705D01*
X010185Y0071505D02*
Y0074863D01*
X0103188Y00762D01*
Y008382D01*
X0052Y00577D02*
X0053044D01*
X0054474Y005627D01*
X005588D01*
X0054243Y0066294D02*
X0054356Y0066181D01*
X0054243Y0064375D02*
Y0066294D01*
X0050405Y0076708D02*
X005207D01*
X005588Y006057D02*
X0058284D01*
D30*
X004849Y0060555D02*
X0051347D01*
X0060007Y0049213D02*
X0060325Y0048895D01*
X0084455Y0042228D02*
X008512Y0041562D01*
Y00401D02*
Y0041562D01*
X006477Y0042228D02*
X0084455D01*
X0062865Y0044132D02*
X006477Y0042228D01*
X0062865Y0044132D02*
Y0048577D01*
X005588Y005627D02*
X0062738D01*
D31*
X00819Y00483D02*
Y005006D01*
X008188Y005008D02*
X00819Y005006D01*
Y0047322D02*
Y00483D01*
Y0047322D02*
X0081915Y0047307D01*
D32*
X004873Y0078486D02*
Y008001D01*
Y0081534D01*
Y0070142D02*
Y0071882D01*
D33*
X00663Y00731D02*
D03*
X00664Y00772D02*
D03*
X004313Y00763D02*
D03*
Y00719D02*
D03*
X008696Y0053975D02*
D03*
X0051347Y0060555D02*
D03*
X0051435Y0052388D02*
D03*
X006096Y0085725D02*
D03*
X0081915Y0046673D02*
D03*
X008696Y0075882D02*
D03*
X0057658Y006604D02*
D03*
X0062738Y005627D02*
D03*
X0054243Y0064375D02*
D03*
X005207Y0076708D02*
D03*
X004873Y0081534D02*
D03*
Y0070142D02*
D03*
X0058284Y006057D02*
D03*
X0060198Y0075438D02*
D03*
D34*
X009652Y0079375D02*
D03*
X01016D02*
D03*
X006918Y005008D02*
D03*
X007172D02*
D03*
X007426D02*
D03*
X00768D02*
D03*
X007934D02*
D03*
X008188D02*
D03*
X008442D02*
D03*
X008696D02*
D03*
X00895D02*
D03*
X009204D02*
D03*
X009458D02*
D03*
X009712D02*
D03*
X009966D02*
D03*
X01022D02*
D03*
Y00577D02*
D03*
X006918D02*
D03*
X007172D02*
D03*
X007426D02*
D03*
X00768D02*
D03*
X007934D02*
D03*
X008188D02*
D03*
X008442D02*
D03*
X008696D02*
D03*
X00895D02*
D03*
X009204D02*
D03*
X009458D02*
D03*
X009712D02*
D03*
X009966D02*
D03*
X004572Y008636D02*
D03*
X004064D02*
D03*
D35*
X00536Y008273D02*
D03*
Y008527D02*
D03*
X00587Y008273D02*
D03*
Y008527D02*
D03*
X00562Y008273D02*
D03*
Y008527D02*
D03*
X010465Y00661D02*
D03*
Y006864D02*
D03*
Y006356D02*
D03*
X010215D02*
D03*
Y006864D02*
D03*
Y00661D02*
D03*
X008372Y00896D02*
D03*
X008626D02*
D03*
X00888D02*
D03*
X009134D02*
D03*
X009388D02*
D03*
X009642D02*
D03*
X009896D02*
D03*
X01015D02*
D03*
X005728D02*
D03*
X005982D02*
D03*
X006236D02*
D03*
X00649D02*
D03*
X006744D02*
D03*
X006998D02*
D03*
X007252D02*
D03*
X007506D02*
D03*
X00776D02*
D03*
X008014D02*
D03*
X008512Y00401D02*
D03*
X008258D02*
D03*
X008004D02*
D03*
X00775D02*
D03*
X007496D02*
D03*
X007242D02*
D03*
X006988D02*
D03*
X010225D02*
D03*
X009971D02*
D03*
X009717D02*
D03*
X009463D02*
D03*
X009209D02*
D03*
X008955D02*
D03*
D36*
X0049847Y0047625D02*
D03*
X0043798D02*
D03*
D37*
X0046847Y0042925D02*
D03*
D38*
X010541Y005969D02*
D03*
D39*
X0091122Y006731D02*
D03*
X0093345Y00661D02*
D03*
X0061595Y008382D02*
D03*
X0088265Y0066357D02*
D03*
X009917Y007239D02*
D03*
X0098044Y0075946D02*
D03*
X0096774Y0076962D02*
D03*
X004064Y004064D02*
D03*
Y004572D02*
D03*
Y00508D02*
D03*
Y00635D02*
D03*
X004572D02*
D03*
X00508D02*
D03*
X004064Y008382D02*
D03*
Y00889D02*
D03*
X004572D02*
D03*
X00508Y008636D02*
D03*
X005588Y008001D02*
D03*
Y007366D02*
D03*
X005842D02*
D03*
X00635D02*
D03*
Y00635D02*
D03*
Y006096D02*
D03*
X004572Y00508D02*
D03*
X005588Y004064D02*
D03*
X00635D02*
D03*
X006985Y005461D02*
D03*
X00762D02*
D03*
X009525D02*
D03*
X007874Y00635D02*
D03*
X008382D02*
D03*
Y004445D02*
D03*
X008763D02*
D03*
X008382Y006858D02*
D03*
X007874D02*
D03*
X008382Y007366D02*
D03*
X007366Y008128D02*
D03*
X00762D02*
D03*
X007874D02*
D03*
X008128D02*
D03*
X008636Y008001D02*
D03*
X009398Y008382D02*
D03*
X01016Y008255D02*
D03*
Y005461D02*
D03*
X010541D02*
D03*
Y00508D02*
D03*
X0081915Y0087884D02*
D03*
X0064135Y0081915D02*
D03*
X004064Y007366D02*
D03*
D40*
X005334Y00888D02*
D03*
X01042Y004572D02*
D03*
Y007366D02*
D03*
X00521Y00406D02*
D03*
M02*
