%FSTAX43Y43*%
%MOMM*%
G71*
G01*
G75*
G04 Layer_Color=65535*
G04:AMPARAMS|DCode=10|XSize=0.9mm|YSize=0.8mm|CornerRadius=0.2mm|HoleSize=0mm|Usage=FLASHONLY|Rotation=90.000|XOffset=0mm|YOffset=0mm|HoleType=Round|Shape=RoundedRectangle|*
%AMROUNDEDRECTD10*
21,1,0.900,0.400,0,0,90.0*
21,1,0.500,0.800,0,0,90.0*
1,1,0.400,0.200,0.250*
1,1,0.400,0.200,-0.250*
1,1,0.400,-0.200,-0.250*
1,1,0.400,-0.200,0.250*
%
%ADD10ROUNDEDRECTD10*%
G04:AMPARAMS|DCode=11|XSize=4.3mm|YSize=1.9mm|CornerRadius=0.475mm|HoleSize=0mm|Usage=FLASHONLY|Rotation=270.000|XOffset=0mm|YOffset=0mm|HoleType=Round|Shape=RoundedRectangle|*
%AMROUNDEDRECTD11*
21,1,4.300,0.950,0,0,270.0*
21,1,3.350,1.900,0,0,270.0*
1,1,0.950,-0.475,-1.675*
1,1,0.950,-0.475,1.675*
1,1,0.950,0.475,1.675*
1,1,0.950,0.475,-1.675*
%
%ADD11ROUNDEDRECTD11*%
G04:AMPARAMS|DCode=12|XSize=1.5mm|YSize=1.25mm|CornerRadius=0.313mm|HoleSize=0mm|Usage=FLASHONLY|Rotation=0.000|XOffset=0mm|YOffset=0mm|HoleType=Round|Shape=RoundedRectangle|*
%AMROUNDEDRECTD12*
21,1,1.500,0.625,0,0,0.0*
21,1,0.875,1.250,0,0,0.0*
1,1,0.625,0.438,-0.313*
1,1,0.625,-0.438,-0.313*
1,1,0.625,-0.438,0.313*
1,1,0.625,0.438,0.313*
%
%ADD12ROUNDEDRECTD12*%
G04:AMPARAMS|DCode=13|XSize=0.9mm|YSize=0.8mm|CornerRadius=0.2mm|HoleSize=0mm|Usage=FLASHONLY|Rotation=180.000|XOffset=0mm|YOffset=0mm|HoleType=Round|Shape=RoundedRectangle|*
%AMROUNDEDRECTD13*
21,1,0.900,0.400,0,0,180.0*
21,1,0.500,0.800,0,0,180.0*
1,1,0.400,-0.250,0.200*
1,1,0.400,0.250,0.200*
1,1,0.400,0.250,-0.200*
1,1,0.400,-0.250,-0.200*
%
%ADD13ROUNDEDRECTD13*%
G04:AMPARAMS|DCode=14|XSize=1.5mm|YSize=1.25mm|CornerRadius=0.313mm|HoleSize=0mm|Usage=FLASHONLY|Rotation=90.000|XOffset=0mm|YOffset=0mm|HoleType=Round|Shape=RoundedRectangle|*
%AMROUNDEDRECTD14*
21,1,1.500,0.625,0,0,90.0*
21,1,0.875,1.250,0,0,90.0*
1,1,0.625,0.313,0.438*
1,1,0.625,0.313,-0.438*
1,1,0.625,-0.313,-0.438*
1,1,0.625,-0.313,0.438*
%
%ADD14ROUNDEDRECTD14*%
G04:AMPARAMS|DCode=15|XSize=2.65mm|YSize=1.75mm|CornerRadius=0.438mm|HoleSize=0mm|Usage=FLASHONLY|Rotation=90.000|XOffset=0mm|YOffset=0mm|HoleType=Round|Shape=RoundedRectangle|*
%AMROUNDEDRECTD15*
21,1,2.650,0.875,0,0,90.0*
21,1,1.775,1.750,0,0,90.0*
1,1,0.875,0.438,0.887*
1,1,0.875,0.438,-0.887*
1,1,0.875,-0.438,-0.887*
1,1,0.875,-0.438,0.887*
%
%ADD15ROUNDEDRECTD15*%
G04:AMPARAMS|DCode=16|XSize=3.28mm|YSize=1.5mm|CornerRadius=0.375mm|HoleSize=0mm|Usage=FLASHONLY|Rotation=270.000|XOffset=0mm|YOffset=0mm|HoleType=Round|Shape=RoundedRectangle|*
%AMROUNDEDRECTD16*
21,1,3.280,0.750,0,0,270.0*
21,1,2.530,1.500,0,0,270.0*
1,1,0.750,-0.375,-1.265*
1,1,0.750,-0.375,1.265*
1,1,0.750,0.375,1.265*
1,1,0.750,0.375,-1.265*
%
%ADD16ROUNDEDRECTD16*%
G04:AMPARAMS|DCode=17|XSize=1mm|YSize=1.5mm|CornerRadius=0.25mm|HoleSize=0mm|Usage=FLASHONLY|Rotation=270.000|XOffset=0mm|YOffset=0mm|HoleType=Round|Shape=RoundedRectangle|*
%AMROUNDEDRECTD17*
21,1,1.000,1.000,0,0,270.0*
21,1,0.500,1.500,0,0,270.0*
1,1,0.500,-0.500,-0.250*
1,1,0.500,-0.500,0.250*
1,1,0.500,0.500,0.250*
1,1,0.500,0.500,-0.250*
%
%ADD17ROUNDEDRECTD17*%
G04:AMPARAMS|DCode=18|XSize=1.3mm|YSize=1mm|CornerRadius=0.25mm|HoleSize=0mm|Usage=FLASHONLY|Rotation=270.000|XOffset=0mm|YOffset=0mm|HoleType=Round|Shape=RoundedRectangle|*
%AMROUNDEDRECTD18*
21,1,1.300,0.500,0,0,270.0*
21,1,0.800,1.000,0,0,270.0*
1,1,0.500,-0.250,-0.400*
1,1,0.500,-0.250,0.400*
1,1,0.500,0.250,0.400*
1,1,0.500,0.250,-0.400*
%
%ADD18ROUNDEDRECTD18*%
G04:AMPARAMS|DCode=19|XSize=1.5mm|YSize=1.3mm|CornerRadius=0.325mm|HoleSize=0mm|Usage=FLASHONLY|Rotation=90.000|XOffset=0mm|YOffset=0mm|HoleType=Round|Shape=RoundedRectangle|*
%AMROUNDEDRECTD19*
21,1,1.500,0.650,0,0,90.0*
21,1,0.850,1.300,0,0,90.0*
1,1,0.650,0.325,0.425*
1,1,0.650,0.325,-0.425*
1,1,0.650,-0.325,-0.425*
1,1,0.650,-0.325,0.425*
%
%ADD19ROUNDEDRECTD19*%
G04:AMPARAMS|DCode=20|XSize=0.8mm|YSize=1mm|CornerRadius=0.2mm|HoleSize=0mm|Usage=FLASHONLY|Rotation=180.000|XOffset=0mm|YOffset=0mm|HoleType=Round|Shape=RoundedRectangle|*
%AMROUNDEDRECTD20*
21,1,0.800,0.600,0,0,180.0*
21,1,0.400,1.000,0,0,180.0*
1,1,0.400,-0.200,0.300*
1,1,0.400,0.200,0.300*
1,1,0.400,0.200,-0.300*
1,1,0.400,-0.200,-0.300*
%
%ADD20ROUNDEDRECTD20*%
%ADD21O,0.400X2.100*%
G04:AMPARAMS|DCode=22|XSize=1.6mm|YSize=0.4mm|CornerRadius=0.1mm|HoleSize=0mm|Usage=FLASHONLY|Rotation=270.000|XOffset=0mm|YOffset=0mm|HoleType=Round|Shape=RoundedRectangle|*
%AMROUNDEDRECTD22*
21,1,1.600,0.200,0,0,270.0*
21,1,1.400,0.400,0,0,270.0*
1,1,0.200,-0.100,-0.700*
1,1,0.200,-0.100,0.700*
1,1,0.200,0.100,0.700*
1,1,0.200,0.100,-0.700*
%
%ADD22ROUNDEDRECTD22*%
G04:AMPARAMS|DCode=23|XSize=2.5mm|YSize=2mm|CornerRadius=0.5mm|HoleSize=0mm|Usage=FLASHONLY|Rotation=180.000|XOffset=0mm|YOffset=0mm|HoleType=Round|Shape=RoundedRectangle|*
%AMROUNDEDRECTD23*
21,1,2.500,1.000,0,0,180.0*
21,1,1.500,2.000,0,0,180.0*
1,1,1.000,-0.750,0.500*
1,1,1.000,0.750,0.500*
1,1,1.000,0.750,-0.500*
1,1,1.000,-0.750,-0.500*
%
%ADD23ROUNDEDRECTD23*%
%ADD24O,2.250X0.500*%
G04:AMPARAMS|DCode=25|XSize=1.5mm|YSize=1mm|CornerRadius=0.25mm|HoleSize=0mm|Usage=FLASHONLY|Rotation=90.000|XOffset=0mm|YOffset=0mm|HoleType=Round|Shape=RoundedRectangle|*
%AMROUNDEDRECTD25*
21,1,1.500,0.500,0,0,90.0*
21,1,1.000,1.000,0,0,90.0*
1,1,0.500,0.250,0.500*
1,1,0.500,0.250,-0.500*
1,1,0.500,-0.250,-0.500*
1,1,0.500,-0.250,0.500*
%
%ADD25ROUNDEDRECTD25*%
%ADD26C,0.300*%
%ADD27C,0.400*%
%ADD28C,0.500*%
%ADD29C,1.000*%
%ADD30C,1.500*%
%ADD31C,0.800*%
%ADD32C,0.700*%
%ADD33C,1.000*%
%ADD34C,1.300*%
%ADD35C,1.600*%
G04:AMPARAMS|DCode=36|XSize=2.54mm|YSize=4.064mm|CornerRadius=0.635mm|HoleSize=0mm|Usage=FLASHONLY|Rotation=0.000|XOffset=0mm|YOffset=0mm|HoleType=Round|Shape=RoundedRectangle|*
%AMROUNDEDRECTD36*
21,1,2.540,2.794,0,0,0.0*
21,1,1.270,4.064,0,0,0.0*
1,1,1.270,0.635,-1.397*
1,1,1.270,-0.635,-1.397*
1,1,1.270,-0.635,1.397*
1,1,1.270,0.635,1.397*
%
%ADD36ROUNDEDRECTD36*%
G04:AMPARAMS|DCode=37|XSize=4.064mm|YSize=2.54mm|CornerRadius=0.635mm|HoleSize=0mm|Usage=FLASHONLY|Rotation=0.000|XOffset=0mm|YOffset=0mm|HoleType=Round|Shape=RoundedRectangle|*
%AMROUNDEDRECTD37*
21,1,4.064,1.270,0,0,0.0*
21,1,2.794,2.540,0,0,0.0*
1,1,1.270,1.397,-0.635*
1,1,1.270,-1.397,-0.635*
1,1,1.270,-1.397,0.635*
1,1,1.270,1.397,0.635*
%
%ADD37ROUNDEDRECTD37*%
%ADD38C,0.700*%
%ADD39C,0.800*%
%ADD40C,3.200*%
%ADD41C,0.200*%
%ADD42C,0.250*%
%ADD43C,0.013*%
%ADD44C,0.006*%
G04:AMPARAMS|DCode=45|XSize=1.103mm|YSize=1.003mm|CornerRadius=0.302mm|HoleSize=0mm|Usage=FLASHONLY|Rotation=90.000|XOffset=0mm|YOffset=0mm|HoleType=Round|Shape=RoundedRectangle|*
%AMROUNDEDRECTD45*
21,1,1.103,0.400,0,0,90.0*
21,1,0.500,1.003,0,0,90.0*
1,1,0.603,0.200,0.250*
1,1,0.603,0.200,-0.250*
1,1,0.603,-0.200,-0.250*
1,1,0.603,-0.200,0.250*
%
%ADD45ROUNDEDRECTD45*%
G04:AMPARAMS|DCode=46|XSize=4.5mm|YSize=2.1mm|CornerRadius=0.575mm|HoleSize=0mm|Usage=FLASHONLY|Rotation=270.000|XOffset=0mm|YOffset=0mm|HoleType=Round|Shape=RoundedRectangle|*
%AMROUNDEDRECTD46*
21,1,4.500,0.950,0,0,270.0*
21,1,3.350,2.100,0,0,270.0*
1,1,1.150,-0.475,-1.675*
1,1,1.150,-0.475,1.675*
1,1,1.150,0.475,1.675*
1,1,1.150,0.475,-1.675*
%
%ADD46ROUNDEDRECTD46*%
G04:AMPARAMS|DCode=47|XSize=1.703mm|YSize=1.453mm|CornerRadius=0.414mm|HoleSize=0mm|Usage=FLASHONLY|Rotation=0.000|XOffset=0mm|YOffset=0mm|HoleType=Round|Shape=RoundedRectangle|*
%AMROUNDEDRECTD47*
21,1,1.703,0.625,0,0,0.0*
21,1,0.875,1.453,0,0,0.0*
1,1,0.828,0.438,-0.313*
1,1,0.828,-0.438,-0.313*
1,1,0.828,-0.438,0.313*
1,1,0.828,0.438,0.313*
%
%ADD47ROUNDEDRECTD47*%
G04:AMPARAMS|DCode=48|XSize=1.103mm|YSize=1.003mm|CornerRadius=0.302mm|HoleSize=0mm|Usage=FLASHONLY|Rotation=180.000|XOffset=0mm|YOffset=0mm|HoleType=Round|Shape=RoundedRectangle|*
%AMROUNDEDRECTD48*
21,1,1.103,0.400,0,0,180.0*
21,1,0.500,1.003,0,0,180.0*
1,1,0.603,-0.250,0.200*
1,1,0.603,0.250,0.200*
1,1,0.603,0.250,-0.200*
1,1,0.603,-0.250,-0.200*
%
%ADD48ROUNDEDRECTD48*%
G04:AMPARAMS|DCode=49|XSize=1.703mm|YSize=1.453mm|CornerRadius=0.414mm|HoleSize=0mm|Usage=FLASHONLY|Rotation=90.000|XOffset=0mm|YOffset=0mm|HoleType=Round|Shape=RoundedRectangle|*
%AMROUNDEDRECTD49*
21,1,1.703,0.625,0,0,90.0*
21,1,0.875,1.453,0,0,90.0*
1,1,0.828,0.313,0.438*
1,1,0.828,0.313,-0.438*
1,1,0.828,-0.313,-0.438*
1,1,0.828,-0.313,0.438*
%
%ADD49ROUNDEDRECTD49*%
G04:AMPARAMS|DCode=50|XSize=2.853mm|YSize=1.953mm|CornerRadius=0.539mm|HoleSize=0mm|Usage=FLASHONLY|Rotation=90.000|XOffset=0mm|YOffset=0mm|HoleType=Round|Shape=RoundedRectangle|*
%AMROUNDEDRECTD50*
21,1,2.853,0.875,0,0,90.0*
21,1,1.775,1.953,0,0,90.0*
1,1,1.078,0.438,0.887*
1,1,1.078,0.438,-0.887*
1,1,1.078,-0.438,-0.887*
1,1,1.078,-0.438,0.887*
%
%ADD50ROUNDEDRECTD50*%
G04:AMPARAMS|DCode=51|XSize=3.483mm|YSize=1.703mm|CornerRadius=0.477mm|HoleSize=0mm|Usage=FLASHONLY|Rotation=270.000|XOffset=0mm|YOffset=0mm|HoleType=Round|Shape=RoundedRectangle|*
%AMROUNDEDRECTD51*
21,1,3.483,0.750,0,0,270.0*
21,1,2.530,1.703,0,0,270.0*
1,1,0.953,-0.375,-1.265*
1,1,0.953,-0.375,1.265*
1,1,0.953,0.375,1.265*
1,1,0.953,0.375,-1.265*
%
%ADD51ROUNDEDRECTD51*%
G04:AMPARAMS|DCode=52|XSize=1.203mm|YSize=1.703mm|CornerRadius=0.352mm|HoleSize=0mm|Usage=FLASHONLY|Rotation=270.000|XOffset=0mm|YOffset=0mm|HoleType=Round|Shape=RoundedRectangle|*
%AMROUNDEDRECTD52*
21,1,1.203,1.000,0,0,270.0*
21,1,0.500,1.703,0,0,270.0*
1,1,0.703,-0.500,-0.250*
1,1,0.703,-0.500,0.250*
1,1,0.703,0.500,0.250*
1,1,0.703,0.500,-0.250*
%
%ADD52ROUNDEDRECTD52*%
G04:AMPARAMS|DCode=53|XSize=1.503mm|YSize=1.203mm|CornerRadius=0.352mm|HoleSize=0mm|Usage=FLASHONLY|Rotation=270.000|XOffset=0mm|YOffset=0mm|HoleType=Round|Shape=RoundedRectangle|*
%AMROUNDEDRECTD53*
21,1,1.503,0.500,0,0,270.0*
21,1,0.800,1.203,0,0,270.0*
1,1,0.703,-0.250,-0.400*
1,1,0.703,-0.250,0.400*
1,1,0.703,0.250,0.400*
1,1,0.703,0.250,-0.400*
%
%ADD53ROUNDEDRECTD53*%
G04:AMPARAMS|DCode=54|XSize=1.703mm|YSize=1.503mm|CornerRadius=0.427mm|HoleSize=0mm|Usage=FLASHONLY|Rotation=90.000|XOffset=0mm|YOffset=0mm|HoleType=Round|Shape=RoundedRectangle|*
%AMROUNDEDRECTD54*
21,1,1.703,0.650,0,0,90.0*
21,1,0.850,1.503,0,0,90.0*
1,1,0.853,0.325,0.425*
1,1,0.853,0.325,-0.425*
1,1,0.853,-0.325,-0.425*
1,1,0.853,-0.325,0.425*
%
%ADD54ROUNDEDRECTD54*%
G04:AMPARAMS|DCode=55|XSize=1mm|YSize=1.2mm|CornerRadius=0.3mm|HoleSize=0mm|Usage=FLASHONLY|Rotation=180.000|XOffset=0mm|YOffset=0mm|HoleType=Round|Shape=RoundedRectangle|*
%AMROUNDEDRECTD55*
21,1,1.000,0.600,0,0,180.0*
21,1,0.400,1.200,0,0,180.0*
1,1,0.600,-0.200,0.300*
1,1,0.600,0.200,0.300*
1,1,0.600,0.200,-0.300*
1,1,0.600,-0.200,-0.300*
%
%ADD55ROUNDEDRECTD55*%
%ADD56O,0.603X2.303*%
G04:AMPARAMS|DCode=57|XSize=1.803mm|YSize=0.603mm|CornerRadius=0.202mm|HoleSize=0mm|Usage=FLASHONLY|Rotation=270.000|XOffset=0mm|YOffset=0mm|HoleType=Round|Shape=RoundedRectangle|*
%AMROUNDEDRECTD57*
21,1,1.803,0.200,0,0,270.0*
21,1,1.400,0.603,0,0,270.0*
1,1,0.403,-0.100,-0.700*
1,1,0.403,-0.100,0.700*
1,1,0.403,0.100,0.700*
1,1,0.403,0.100,-0.700*
%
%ADD57ROUNDEDRECTD57*%
G04:AMPARAMS|DCode=58|XSize=2.703mm|YSize=2.203mm|CornerRadius=0.602mm|HoleSize=0mm|Usage=FLASHONLY|Rotation=180.000|XOffset=0mm|YOffset=0mm|HoleType=Round|Shape=RoundedRectangle|*
%AMROUNDEDRECTD58*
21,1,2.703,1.000,0,0,180.0*
21,1,1.500,2.203,0,0,180.0*
1,1,1.203,-0.750,0.500*
1,1,1.203,0.750,0.500*
1,1,1.203,0.750,-0.500*
1,1,1.203,-0.750,-0.500*
%
%ADD58ROUNDEDRECTD58*%
%ADD59O,2.453X0.703*%
G04:AMPARAMS|DCode=60|XSize=1.703mm|YSize=1.203mm|CornerRadius=0.352mm|HoleSize=0mm|Usage=FLASHONLY|Rotation=90.000|XOffset=0mm|YOffset=0mm|HoleType=Round|Shape=RoundedRectangle|*
%AMROUNDEDRECTD60*
21,1,1.703,0.500,0,0,90.0*
21,1,1.000,1.203,0,0,90.0*
1,1,0.703,0.250,0.500*
1,1,0.703,0.250,-0.500*
1,1,0.703,-0.250,-0.500*
1,1,0.703,-0.250,0.500*
%
%ADD60ROUNDEDRECTD60*%
%ADD61C,1.203*%
%ADD62C,1.503*%
%ADD63C,1.800*%
G04:AMPARAMS|DCode=64|XSize=2.743mm|YSize=4.267mm|CornerRadius=0.737mm|HoleSize=0mm|Usage=FLASHONLY|Rotation=0.000|XOffset=0mm|YOffset=0mm|HoleType=Round|Shape=RoundedRectangle|*
%AMROUNDEDRECTD64*
21,1,2.743,2.794,0,0,0.0*
21,1,1.270,4.267,0,0,0.0*
1,1,1.473,0.635,-1.397*
1,1,1.473,-0.635,-1.397*
1,1,1.473,-0.635,1.397*
1,1,1.473,0.635,1.397*
%
%ADD64ROUNDEDRECTD64*%
G04:AMPARAMS|DCode=65|XSize=4.267mm|YSize=2.743mm|CornerRadius=0.737mm|HoleSize=0mm|Usage=FLASHONLY|Rotation=0.000|XOffset=0mm|YOffset=0mm|HoleType=Round|Shape=RoundedRectangle|*
%AMROUNDEDRECTD65*
21,1,4.267,1.270,0,0,0.0*
21,1,2.794,2.743,0,0,0.0*
1,1,1.473,1.397,-0.635*
1,1,1.473,-1.397,-0.635*
1,1,1.473,-1.397,0.635*
1,1,1.473,1.397,0.635*
%
%ADD65ROUNDEDRECTD65*%
%ADD66C,1.200*%
%ADD67C,0.903*%
%ADD68C,1.003*%
%ADD69C,3.403*%
D26*
X00631Y00871D02*
X00901D01*
X00631Y007075D02*
X00901D01*
D27*
Y00845D02*
Y008325D01*
X008985Y0083D01*
X008935D01*
X00891Y008325D01*
Y00845D01*
X00886Y0083D02*
Y00845D01*
X0087601Y0083D01*
Y00845D01*
X0086351D02*
X0086851D01*
X0087101Y008425D01*
Y008325D01*
X0086851Y0083D01*
X0086351D01*
X0086101Y008325D01*
Y008425D01*
X0086351Y00845D01*
D42*
X00575Y008805D02*
X005765Y00882D01*
X005795D01*
X00581Y008805D01*
Y00879D01*
X005795Y008775D01*
X005765D01*
X00575Y00876D01*
Y008745D01*
X005765Y00873D01*
X005795D01*
X00581Y008745D01*
X00566Y008805D02*
X005675Y00882D01*
X005705D01*
X00572Y008805D01*
Y008745D01*
X005705Y00873D01*
X005675D01*
X00566Y008745D01*
X0056301Y00882D02*
Y00873D01*
X0055701D01*
X00606Y008805D02*
X006075Y00882D01*
X006105D01*
X00612Y008805D01*
Y00879D01*
X006105Y008775D01*
X006075D01*
X00606Y00876D01*
Y008745D01*
X006075Y00873D01*
X006105D01*
X00612Y008745D01*
X00603Y00882D02*
Y00873D01*
X005985D01*
X00597Y008745D01*
Y008805D01*
X005985Y00882D01*
X00603D01*
X0059401Y00873D02*
Y00879D01*
X0059101Y00882D01*
X0058801Y00879D01*
Y00873D01*
Y008775D01*
X0059401D01*
X00901Y00863D02*
Y00851D01*
X00895D01*
X00893Y00853D01*
Y00855D01*
X00895Y00857D01*
X00901D01*
X00895D01*
X00893Y00859D01*
Y00861D01*
X00895Y00863D01*
X00901D01*
X0088301D02*
X00887D01*
X00889Y00861D01*
Y00853D01*
X00887Y00851D01*
X0088301D01*
X0088101Y00853D01*
Y00861D01*
X0088301Y00863D01*
X0087701Y00851D02*
Y00859D01*
X0087301Y00863D01*
X0086901Y00859D01*
Y00851D01*
Y00857D01*
X0087701D01*
X0086501Y00851D02*
Y00863D01*
X0085901D01*
X0085701Y00861D01*
Y00857D01*
X0085901Y00855D01*
X0086501D01*
X0086101D02*
X0085701Y00851D01*
X0085302Y00863D02*
Y00851D01*
X0084702D01*
X0084502Y00853D01*
Y00861D01*
X0084702Y00863D01*
X0085302D01*
X0082902Y00851D02*
Y00863D01*
X0082502Y00859D01*
X0082103Y00863D01*
Y00851D01*
X0081103Y00863D02*
X0081503D01*
X0081703Y00861D01*
Y00853D01*
X0081503Y00851D01*
X0081103D01*
X0080903Y00853D01*
Y00861D01*
X0081103Y00863D01*
X0080503D02*
Y00851D01*
X0079903D01*
X0079703Y00853D01*
Y00861D01*
X0079903Y00863D01*
X0080503D01*
X0078504D02*
X0079303D01*
Y00851D01*
X0078504D01*
X0079303Y00857D02*
X0078904D01*
X0078104Y00863D02*
Y00851D01*
X0077304D01*
X00847Y0083D02*
X00851Y00834D01*
Y00838D01*
X00847Y00842D01*
X00841D02*
Y00834D01*
X00837Y0083D01*
X0083301Y00834D01*
Y00842D01*
X0082901Y0083D02*
Y00842D01*
X0082101Y0083D01*
Y00842D01*
X0080501D02*
Y00834D01*
X0080102Y0083D01*
X0079702Y00834D01*
Y00842D01*
X0078702Y0083D02*
X0079102D01*
X0079302Y00832D01*
Y00836D01*
X0079102Y00838D01*
X0078702D01*
X0078502Y00836D01*
Y00834D01*
X0079302D01*
X0078102Y00838D02*
Y0083D01*
Y00834D01*
X0077902Y00836D01*
X0077702Y00838D01*
X0077502D01*
X0076903Y0083D02*
X0076303D01*
X0076103Y00832D01*
X0076303Y00834D01*
X0076703D01*
X0076903Y00836D01*
X0076703Y00838D01*
X0076103D01*
X0075703Y0083D02*
X0075303D01*
X0075503D01*
Y00838D01*
X0075703D01*
X0074503Y0083D02*
X0074104D01*
X0073904Y00832D01*
Y00836D01*
X0074104Y00838D01*
X0074503D01*
X0074703Y00836D01*
Y00832D01*
X0074503Y0083D01*
X0073504D02*
Y00838D01*
X0072904D01*
X0072704Y00836D01*
Y0083D01*
X0072304D02*
X0071904Y00834D01*
Y00838D01*
X0072304Y00842D01*
X00901Y00821D02*
Y00823D01*
X00899D01*
Y00821D01*
X00901D01*
X00891D02*
Y00823D01*
X00889D01*
Y00821D01*
X00891D01*
X0088101D02*
Y00823D01*
X0087901D01*
Y00821D01*
X0088101D01*
X0087101D02*
Y00823D01*
X0086901D01*
Y00821D01*
X0087101D01*
X0086101D02*
Y00823D01*
X0085901D01*
Y00821D01*
X0086101D01*
X0085102D02*
Y00823D01*
X0084902D01*
Y00821D01*
X0085102D01*
X0084102D02*
Y00823D01*
X0083902D01*
Y00821D01*
X0084102D01*
X0083102D02*
Y00823D01*
X0082902D01*
Y00821D01*
X0083102D01*
X0082103D02*
Y00823D01*
X0081903D01*
Y00821D01*
X0082103D01*
X0081103D02*
Y00823D01*
X0080903D01*
Y00821D01*
X0081103D01*
X0080103D02*
Y00823D01*
X0079903D01*
Y00821D01*
X0080103D01*
X0079104D02*
Y00823D01*
X0078904D01*
Y00821D01*
X0079104D01*
X0078104D02*
Y00823D01*
X0077904D01*
Y00821D01*
X0078104D01*
X0077104D02*
Y00823D01*
X0076904D01*
Y00821D01*
X0077104D01*
X0076105D02*
Y00823D01*
X0075905D01*
Y00821D01*
X0076105D01*
X0075105D02*
Y00823D01*
X0074905D01*
Y00821D01*
X0075105D01*
X0074105D02*
Y00823D01*
X0073905D01*
Y00821D01*
X0074105D01*
X0073105D02*
Y00823D01*
X0072906D01*
Y00821D01*
X0073105D01*
X0072106D02*
Y00823D01*
X0071906D01*
Y00821D01*
X0072106D01*
X0071106D02*
Y00823D01*
X0070906D01*
Y00821D01*
X0071106D01*
X0070106D02*
Y00823D01*
X0069907D01*
Y00821D01*
X0070106D01*
X0069107D02*
Y00823D01*
X0068907D01*
Y00821D01*
X0069107D01*
X0068107D02*
Y00823D01*
X0067907D01*
Y00821D01*
X0068107D01*
X0067107D02*
Y00823D01*
X0066907D01*
Y00821D01*
X0067107D01*
X0066108D02*
Y00823D01*
X0065908D01*
Y00821D01*
X0066108D01*
X0065108D02*
Y00823D01*
X0064908D01*
Y00821D01*
X0065108D01*
X0064108D02*
Y00823D01*
X0063908D01*
Y00821D01*
X0064108D01*
X0063109D02*
Y00823D01*
X0062909D01*
Y00821D01*
X0063109D01*
X00895Y008115D02*
X00899D01*
X00901Y008095D01*
Y008015D01*
X00899Y007995D01*
X00895D01*
X00893Y008015D01*
Y008095D01*
X00895Y008115D01*
X00889Y007995D02*
Y008115D01*
X0088301D01*
X0088101Y008095D01*
Y008055D01*
X0088301Y008035D01*
X00889D01*
X0086901Y008115D02*
X0087701D01*
Y007995D01*
X0086901D01*
X0087701Y008055D02*
X0087301D01*
X0086501Y007995D02*
Y008115D01*
X0085701Y007995D01*
Y008115D01*
X0085302Y008055D02*
X0084502D01*
X0083302Y008095D02*
X0083502Y008115D01*
X0083902D01*
X0084102Y008095D01*
Y008075D01*
X0083902Y008055D01*
X0083502D01*
X0083302Y008035D01*
Y008015D01*
X0083502Y007995D01*
X0083902D01*
X0084102Y008015D01*
X0082303Y008115D02*
X0082702D01*
X0082902Y008095D01*
Y008015D01*
X0082702Y007995D01*
X0082303D01*
X0082103Y008015D01*
Y008095D01*
X0082303Y008115D01*
X0081703D02*
Y008015D01*
X0081503Y007995D01*
X0081103D01*
X0080903Y008015D01*
Y008115D01*
X0080503Y007995D02*
Y008115D01*
X0079903D01*
X0079703Y008095D01*
Y008055D01*
X0079903Y008035D01*
X0080503D01*
X0080103D02*
X0079703Y007995D01*
X0078504Y008095D02*
X0078704Y008115D01*
X0079104D01*
X0079303Y008095D01*
Y008015D01*
X0079104Y007995D01*
X0078704D01*
X0078504Y008015D01*
X0077304Y008115D02*
X0078104D01*
Y007995D01*
X0077304D01*
X0078104Y008055D02*
X0077704D01*
X0074905Y008115D02*
X0075705D01*
Y007995D01*
X0074905D01*
X0075705Y008055D02*
X0075305D01*
X0074505Y008115D02*
Y007995D01*
X0073705D01*
X0072506Y008115D02*
X0073305D01*
Y007995D01*
X0072506D01*
X0073305Y008055D02*
X0072906D01*
X0071306Y008095D02*
X0071506Y008115D01*
X0071906D01*
X0072106Y008095D01*
Y008015D01*
X0071906Y007995D01*
X0071506D01*
X0071306Y008015D01*
X0070906Y008115D02*
X0070106D01*
X0070506D01*
Y007995D01*
X0069707D02*
Y008115D01*
X0069107D01*
X0068907Y008095D01*
Y008055D01*
X0069107Y008035D01*
X0069707D01*
X0069307D02*
X0068907Y007995D01*
X0067907Y008115D02*
X0068307D01*
X0068507Y008095D01*
Y008015D01*
X0068307Y007995D01*
X0067907D01*
X0067707Y008015D01*
Y008095D01*
X0067907Y008115D01*
X0067307Y007995D02*
Y008115D01*
X0066508Y007995D01*
Y008115D01*
X0066108D02*
X0065708D01*
X0065908D01*
Y007995D01*
X0066108D01*
X0065708D01*
X0064308Y008095D02*
X0064508Y008115D01*
X0064908D01*
X0065108Y008095D01*
Y008015D01*
X0064908Y007995D01*
X0064508D01*
X0064308Y008015D01*
X0063109Y008095D02*
X0063309Y008115D01*
X0063709D01*
X0063908Y008095D01*
Y008075D01*
X0063709Y008055D01*
X0063309D01*
X0063109Y008035D01*
Y008015D01*
X0063309Y007995D01*
X0063709D01*
X0063908Y008015D01*
X00901Y007775D02*
Y007895D01*
X00895D01*
X00893Y007875D01*
Y007835D01*
X00895Y007815D01*
X00901D01*
X00889Y007775D02*
Y007895D01*
X0088301D01*
X0088101Y007875D01*
Y007835D01*
X0088301Y007815D01*
X00889D01*
X0088501D02*
X0088101Y007775D01*
X0087101Y007895D02*
X0087501D01*
X0087701Y007875D01*
Y007795D01*
X0087501Y007775D01*
X0087101D01*
X0086901Y007795D01*
Y007875D01*
X0087101Y007895D01*
X0086501D02*
X0085701D01*
X0086101D01*
Y007775D01*
X0084702Y007895D02*
X0085102D01*
X0085302Y007875D01*
Y007795D01*
X0085102Y007775D01*
X0084702D01*
X0084502Y007795D01*
Y007875D01*
X0084702Y007895D01*
X0084102D02*
X0083302D01*
X0083702D01*
Y007775D01*
X0082902Y007895D02*
Y007875D01*
X0082502Y007835D01*
X0082103Y007875D01*
Y007895D01*
X0082502Y007835D02*
Y007775D01*
X0081703D02*
Y007895D01*
X0081103D01*
X0080903Y007875D01*
Y007835D01*
X0081103Y007815D01*
X0081703D01*
X0080503Y007895D02*
X0080103D01*
X0080303D01*
Y007775D01*
X0080503D01*
X0080103D01*
X0079503D02*
Y007895D01*
X0078704Y007775D01*
Y007895D01*
X0077504Y007875D02*
X0077704Y007895D01*
X0078104D01*
X0078304Y007875D01*
Y007795D01*
X0078104Y007775D01*
X0077704D01*
X0077504Y007795D01*
Y007835D01*
X0077904D01*
X0075905Y007775D02*
Y007895D01*
X0075305D01*
X0075105Y007875D01*
Y007835D01*
X0075305Y007815D01*
X0075905D01*
X0074705Y007895D02*
Y007775D01*
X0073905D01*
X0073505D02*
Y007855D01*
X0073105Y007895D01*
X0072706Y007855D01*
Y007775D01*
Y007835D01*
X0073505D01*
X0072306Y007895D02*
X0071506D01*
X0071906D01*
Y007775D01*
X0070306Y007895D02*
X0071106D01*
Y007835D01*
X0070706D01*
X0071106D01*
Y007775D01*
X0069307Y007895D02*
X0069707D01*
X0069907Y007875D01*
Y007795D01*
X0069707Y007775D01*
X0069307D01*
X0069107Y007795D01*
Y007875D01*
X0069307Y007895D01*
X0068707Y007775D02*
Y007895D01*
X0068107D01*
X0067907Y007875D01*
Y007835D01*
X0068107Y007815D01*
X0068707D01*
X0068307D02*
X0067907Y007775D01*
X0067507D02*
Y007895D01*
X0067107Y007855D01*
X0066708Y007895D01*
Y007775D01*
X00901Y00744D02*
Y00756D01*
X00897Y00752D01*
X00893Y00756D01*
Y00744D01*
X00889D02*
Y00752D01*
X0088501Y00756D01*
X0088101Y00752D01*
Y00744D01*
Y0075D01*
X00889D01*
X0087701Y00756D02*
Y00744D01*
X0087101D01*
X0086901Y00746D01*
Y00754D01*
X0087101Y00756D01*
X0087701D01*
X0085701D02*
X0086501D01*
Y00744D01*
X0085701D01*
X0086501Y0075D02*
X0086101D01*
X0084102Y00756D02*
X0083702D01*
X0083902D01*
Y00744D01*
X0084102D01*
X0083702D01*
X0083102D02*
Y00756D01*
X0082303Y00744D01*
Y00756D01*
X0080703D02*
Y00748D01*
X0080303Y00744D01*
X0079903Y00748D01*
Y00756D01*
X0079503D02*
X0079104D01*
X0079303D01*
Y00744D01*
X0079503D01*
X0079104D01*
X0077704Y00756D02*
X0078504D01*
Y00744D01*
X0077704D01*
X0078504Y0075D02*
X0078104D01*
X0077304Y00756D02*
X0076504D01*
X0076904D01*
Y00744D01*
X0074905D02*
Y00756D01*
X0074105Y00744D01*
Y00756D01*
X0073705Y00744D02*
Y00752D01*
X0073305Y00756D01*
X0072906Y00752D01*
Y00744D01*
Y0075D01*
X0073705D01*
X0072506Y00744D02*
Y00756D01*
X0072106Y00752D01*
X0071706Y00756D01*
Y00744D01*
X00901Y00728D02*
Y00716D01*
X00897Y0072D01*
X00893Y00716D01*
Y00728D01*
X00889D02*
Y00716D01*
X0088501Y0072D01*
X0088101Y00716D01*
Y00728D01*
X0087701D02*
Y00716D01*
X0087301Y0072D01*
X0086901Y00716D01*
Y00728D01*
X0086501Y00716D02*
Y00718D01*
X0086301D01*
Y00716D01*
X0086501D01*
X0085501Y00728D02*
Y0072D01*
X0085102Y00716D01*
X0084702Y0072D01*
Y00728D01*
X0084302Y00716D02*
Y00728D01*
X0083502Y00716D01*
Y00728D01*
X0082303D02*
X0083102D01*
Y00716D01*
X0082303D01*
X0083102Y00722D02*
X0082702D01*
X0081903Y00728D02*
Y00716D01*
X0081103D01*
X0079903Y00728D02*
X0080703D01*
Y00716D01*
X0079903D01*
X0080703Y00722D02*
X0080303D01*
X0079503Y00728D02*
Y00716D01*
Y0072D01*
X0078704Y00728D01*
X0079303Y00722D01*
X0078704Y00716D01*
X0078304D02*
Y00718D01*
X0078104D01*
Y00716D01*
X0078304D01*
X0077304Y00728D02*
Y0072D01*
X0076904Y00716D01*
X0076504Y0072D01*
Y00728D01*
X0076105Y00716D02*
Y00728D01*
X0075305Y00716D01*
Y00728D01*
X00901Y007675D02*
Y007695D01*
X00899D01*
Y007675D01*
X00901D01*
X00891D02*
Y007695D01*
X00889D01*
Y007675D01*
X00891D01*
X0088101D02*
Y007695D01*
X0087901D01*
Y007675D01*
X0088101D01*
X0087101D02*
Y007695D01*
X0086901D01*
Y007675D01*
X0087101D01*
X0086101D02*
Y007695D01*
X0085901D01*
Y007675D01*
X0086101D01*
X0085102D02*
Y007695D01*
X0084902D01*
Y007675D01*
X0085102D01*
X0084102D02*
Y007695D01*
X0083902D01*
Y007675D01*
X0084102D01*
X0083102D02*
Y007695D01*
X0082902D01*
Y007675D01*
X0083102D01*
X0082103D02*
Y007695D01*
X0081903D01*
Y007675D01*
X0082103D01*
X0081103D02*
Y007695D01*
X0080903D01*
Y007675D01*
X0081103D01*
X0080103D02*
Y007695D01*
X0079903D01*
Y007675D01*
X0080103D01*
X0079104D02*
Y007695D01*
X0078904D01*
Y007675D01*
X0079104D01*
X0078104D02*
Y007695D01*
X0077904D01*
Y007675D01*
X0078104D01*
X0077104D02*
Y007695D01*
X0076904D01*
Y007675D01*
X0077104D01*
X0076105D02*
Y007695D01*
X0075905D01*
Y007675D01*
X0076105D01*
X0075105D02*
Y007695D01*
X0074905D01*
Y007675D01*
X0075105D01*
X0074105D02*
Y007695D01*
X0073905D01*
Y007675D01*
X0074105D01*
X0073105D02*
Y007695D01*
X0072906D01*
Y007675D01*
X0073105D01*
X0072106D02*
Y007695D01*
X0071906D01*
Y007675D01*
X0072106D01*
X0071106D02*
Y007695D01*
X0070906D01*
Y007675D01*
X0071106D01*
X0070106D02*
Y007695D01*
X0069907D01*
Y007675D01*
X0070106D01*
X0069107D02*
Y007695D01*
X0068907D01*
Y007675D01*
X0069107D01*
X0068107D02*
Y007695D01*
X0067907D01*
Y007675D01*
X0068107D01*
X0067107D02*
Y007695D01*
X0066907D01*
Y007675D01*
X0067107D01*
X0066108D02*
Y007695D01*
X0065908D01*
Y007675D01*
X0066108D01*
X0065108D02*
Y007695D01*
X0064908D01*
Y007675D01*
X0065108D01*
X0064108D02*
Y007695D01*
X0063908D01*
Y007675D01*
X0064108D01*
X0063109D02*
Y007695D01*
X0062909D01*
Y007675D01*
X0063109D01*
X00901Y007345D02*
Y007365D01*
X00899D01*
Y007345D01*
X00901D01*
X00891D02*
Y007365D01*
X00889D01*
Y007345D01*
X00891D01*
X0088101D02*
Y007365D01*
X0087901D01*
Y007345D01*
X0088101D01*
X0087101D02*
Y007365D01*
X0086901D01*
Y007345D01*
X0087101D01*
X0086101D02*
Y007365D01*
X0085901D01*
Y007345D01*
X0086101D01*
X0085102D02*
Y007365D01*
X0084902D01*
Y007345D01*
X0085102D01*
X0084102D02*
Y007365D01*
X0083902D01*
Y007345D01*
X0084102D01*
X0083102D02*
Y007365D01*
X0082902D01*
Y007345D01*
X0083102D01*
X0082103D02*
Y007365D01*
X0081903D01*
Y007345D01*
X0082103D01*
X0081103D02*
Y007365D01*
X0080903D01*
Y007345D01*
X0081103D01*
X0080103D02*
Y007365D01*
X0079903D01*
Y007345D01*
X0080103D01*
X0079104D02*
Y007365D01*
X0078904D01*
Y007345D01*
X0079104D01*
X0078104D02*
Y007365D01*
X0077904D01*
Y007345D01*
X0078104D01*
X0077104D02*
Y007365D01*
X0076904D01*
Y007345D01*
X0077104D01*
X0076105D02*
Y007365D01*
X0075905D01*
Y007345D01*
X0076105D01*
X0075105D02*
Y007365D01*
X0074905D01*
Y007345D01*
X0075105D01*
X0074105D02*
Y007365D01*
X0073905D01*
Y007345D01*
X0074105D01*
X0073105D02*
Y007365D01*
X0072906D01*
Y007345D01*
X0073105D01*
X0072106D02*
Y007365D01*
X0071906D01*
Y007345D01*
X0072106D01*
X0071106D02*
Y007365D01*
X0070906D01*
Y007345D01*
X0071106D01*
X0070106D02*
Y007365D01*
X0069907D01*
Y007345D01*
X0070106D01*
X0069107D02*
Y007365D01*
X0068907D01*
Y007345D01*
X0069107D01*
X0068107D02*
Y007365D01*
X0067907D01*
Y007345D01*
X0068107D01*
X0067107D02*
Y007365D01*
X0066907D01*
Y007345D01*
X0067107D01*
X0066108D02*
Y007365D01*
X0065908D01*
Y007345D01*
X0066108D01*
X0065108D02*
Y007365D01*
X0064908D01*
Y007345D01*
X0065108D01*
X0064108D02*
Y007365D01*
X0063908D01*
Y007345D01*
X0064108D01*
X0063109D02*
Y007365D01*
X0062909D01*
Y007345D01*
X0063109D01*
X00901Y00469D02*
Y00481D01*
X00895D01*
X00893Y00479D01*
Y00475D01*
X00895Y00473D01*
X00901D01*
X00897D02*
X00893Y00469D01*
X0088301Y00481D02*
X00887D01*
X00889Y00479D01*
Y00471D01*
X00887Y00469D01*
X0088301D01*
X0088101Y00471D01*
Y00479D01*
X0088301Y00481D01*
X0087701D02*
Y00469D01*
Y00475D01*
X0086901D01*
Y00481D01*
Y00469D01*
X0085701Y00479D02*
X0085901Y00481D01*
X0086301D01*
X0086501Y00479D01*
Y00477D01*
X0086301Y00475D01*
X0085901D01*
X0085701Y00473D01*
Y00471D01*
X0085901Y00469D01*
X0086301D01*
X0086501Y00471D01*
X0083302Y00479D02*
X0083502Y00481D01*
X0083902D01*
X0084102Y00479D01*
Y00471D01*
X0083902Y00469D01*
X0083502D01*
X0083302Y00471D01*
X0082303Y00481D02*
X0082702D01*
X0082902Y00479D01*
Y00471D01*
X0082702Y00469D01*
X0082303D01*
X0082103Y00471D01*
Y00479D01*
X0082303Y00481D01*
X0081703Y00469D02*
Y00481D01*
X0081303Y00477D01*
X0080903Y00481D01*
Y00469D01*
X0080503D02*
Y00481D01*
X0079903D01*
X0079703Y00479D01*
Y00475D01*
X0079903Y00473D01*
X0080503D01*
X0079303Y00481D02*
Y00469D01*
X0078504D01*
X0078104Y00481D02*
X0077704D01*
X0077904D01*
Y00469D01*
X0078104D01*
X0077704D01*
X0077104D02*
Y00477D01*
X0076704Y00481D01*
X0076304Y00477D01*
Y00469D01*
Y00475D01*
X0077104D01*
X0075905Y00469D02*
Y00481D01*
X0075105Y00469D01*
Y00481D01*
X0074705D02*
X0073905D01*
X0074305D01*
Y00469D01*
X00901Y00463D02*
X00893D01*
Y00461D01*
X00901Y00453D01*
Y00451D01*
X00893D01*
X0088101Y00463D02*
X00889D01*
Y00451D01*
X0088101D01*
X00889Y00457D02*
X0088501D01*
X0087701Y00451D02*
Y00463D01*
X0087101D01*
X0086901Y00461D01*
Y00457D01*
X0087101Y00455D01*
X0087701D01*
X0087301D02*
X0086901Y00451D01*
X0085901Y00463D02*
X0086301D01*
X0086501Y00461D01*
Y00453D01*
X0086301Y00451D01*
X0085901D01*
X0085701Y00453D01*
Y00461D01*
X0085901Y00463D01*
X0083302Y00461D02*
X0083502Y00463D01*
X0083902D01*
X0084102Y00461D01*
Y00453D01*
X0083902Y00451D01*
X0083502D01*
X0083302Y00453D01*
X0082902Y00451D02*
Y00459D01*
X0082502Y00463D01*
X0082103Y00459D01*
Y00451D01*
Y00457D01*
X0082902D01*
X0081703Y00451D02*
Y00463D01*
X0081103D01*
X0080903Y00461D01*
Y00457D01*
X0081103Y00455D01*
X0081703D01*
X0081303D02*
X0080903Y00451D01*
X0080503Y00463D02*
Y00451D01*
X0079903D01*
X0079703Y00453D01*
Y00455D01*
X0079903Y00457D01*
X0080503D01*
X0079903D01*
X0079703Y00459D01*
Y00461D01*
X0079903Y00463D01*
X0080503D01*
X0078704D02*
X0079104D01*
X0079303Y00461D01*
Y00453D01*
X0079104Y00451D01*
X0078704D01*
X0078504Y00453D01*
Y00461D01*
X0078704Y00463D01*
X0078104Y00451D02*
Y00463D01*
X0077304Y00451D01*
Y00463D01*
X0074905D02*
X0075705D01*
Y00457D01*
X0075305D01*
X0075705D01*
Y00451D01*
X0073905Y00463D02*
X0074305D01*
X0074505Y00461D01*
Y00453D01*
X0074305Y00451D01*
X0073905D01*
X0073705Y00453D01*
Y00461D01*
X0073905Y00463D01*
X0072706D02*
X0073105D01*
X0073305Y00461D01*
Y00453D01*
X0073105Y00451D01*
X0072706D01*
X0072506Y00453D01*
Y00461D01*
X0072706Y00463D01*
X0072106D02*
X0071306D01*
X0071706D01*
Y00451D01*
X0070906D02*
Y00463D01*
X0070306D01*
X0070106Y00461D01*
Y00457D01*
X0070306Y00455D01*
X0070906D01*
X0069707Y00451D02*
Y00463D01*
X0069107D01*
X0068907Y00461D01*
Y00457D01*
X0069107Y00455D01*
X0069707D01*
X0069307D02*
X0068907Y00451D01*
X0068507Y00463D02*
X0068107D01*
X0068307D01*
Y00451D01*
X0068507D01*
X0068107D01*
X0067507D02*
Y00463D01*
X0066708Y00451D01*
Y00463D01*
X0066308D02*
X0065508D01*
X0065908D01*
Y00451D01*
X00901Y00445D02*
X00897D01*
X00899D01*
Y00433D01*
X00901D01*
X00897D01*
X00891D02*
Y00445D01*
X00887Y00441D01*
X0088301Y00445D01*
Y00433D01*
X0087901D02*
Y00445D01*
X0087301D01*
X0087101Y00443D01*
Y00439D01*
X0087301Y00437D01*
X0087901D01*
X0086701Y00433D02*
Y00441D01*
X0086301Y00445D01*
X0085901Y00441D01*
Y00433D01*
Y00439D01*
X0086701D01*
X0085501Y00445D02*
X0084702D01*
X0085102D01*
Y00433D01*
X0084302Y00445D02*
X0083502D01*
X0083902D01*
Y00433D01*
X0082502Y00445D02*
X0082902D01*
X0083102Y00443D01*
Y00435D01*
X0082902Y00433D01*
X0082502D01*
X0082303Y00435D01*
Y00443D01*
X0082502Y00445D01*
X0080703D02*
X0079903D01*
Y00443D01*
X0080703Y00435D01*
Y00433D01*
X0079903D01*
X0078704Y00445D02*
X0079503D01*
Y00433D01*
X0078704D01*
X0079503Y00439D02*
X0079104D01*
X0078304Y00433D02*
Y00445D01*
X0077704D01*
X0077504Y00443D01*
Y00439D01*
X0077704Y00437D01*
X0078304D01*
X0077904D02*
X0077504Y00433D01*
X0076504Y00445D02*
X0076904D01*
X0077104Y00443D01*
Y00435D01*
X0076904Y00433D01*
X0076504D01*
X0076304Y00435D01*
Y00443D01*
X0076504Y00445D01*
X00926Y00486D02*
Y00488D01*
X00924D01*
Y00486D01*
X00926D01*
X00916D02*
Y00488D01*
X00914D01*
Y00486D01*
X00916D01*
X0090601D02*
Y00488D01*
X0090401D01*
Y00486D01*
X0090601D01*
X0089601D02*
Y00488D01*
X0089401D01*
Y00486D01*
X0089601D01*
X0088601D02*
Y00488D01*
X0088401D01*
Y00486D01*
X0088601D01*
X0087602D02*
Y00488D01*
X0087402D01*
Y00486D01*
X0087602D01*
X0086602D02*
Y00488D01*
X0086402D01*
Y00486D01*
X0086602D01*
X0085602D02*
Y00488D01*
X0085402D01*
Y00486D01*
X0085602D01*
X0084603D02*
Y00488D01*
X0084403D01*
Y00486D01*
X0084603D01*
X0083603D02*
Y00488D01*
X0083403D01*
Y00486D01*
X0083603D01*
X0082603D02*
Y00488D01*
X0082403D01*
Y00486D01*
X0082603D01*
X0081604D02*
Y00488D01*
X0081404D01*
Y00486D01*
X0081604D01*
X0080604D02*
Y00488D01*
X0080404D01*
Y00486D01*
X0080604D01*
X0079604D02*
Y00488D01*
X0079404D01*
Y00486D01*
X0079604D01*
X0078605D02*
Y00488D01*
X0078405D01*
Y00486D01*
X0078605D01*
X0077605D02*
Y00488D01*
X0077405D01*
Y00486D01*
X0077605D01*
X0076605D02*
Y00488D01*
X0076405D01*
Y00486D01*
X0076605D01*
X0075605D02*
Y00488D01*
X0075406D01*
Y00486D01*
X0075605D01*
X0074606D02*
Y00488D01*
X0074406D01*
Y00486D01*
X0074606D01*
X0073606D02*
Y00488D01*
X0073406D01*
Y00486D01*
X0073606D01*
X0072606D02*
Y00488D01*
X0072407D01*
Y00486D01*
X0072606D01*
X0071607D02*
Y00488D01*
X0071407D01*
Y00486D01*
X0071607D01*
X0070607D02*
Y00488D01*
X0070407D01*
Y00486D01*
X0070607D01*
X0069607D02*
Y00488D01*
X0069407D01*
Y00486D01*
X0069607D01*
X0068608D02*
Y00488D01*
X0068408D01*
Y00486D01*
X0068608D01*
X0067608D02*
Y00488D01*
X0067408D01*
Y00486D01*
X0067608D01*
X0066608D02*
Y00488D01*
X0066408D01*
Y00486D01*
X0066608D01*
X0065609D02*
Y00488D01*
X0065409D01*
Y00486D01*
X0065609D01*
X00926Y00426D02*
Y00428D01*
X00924D01*
Y00426D01*
X00926D01*
X00916D02*
Y00428D01*
X00914D01*
Y00426D01*
X00916D01*
X0090601D02*
Y00428D01*
X0090401D01*
Y00426D01*
X0090601D01*
X0089601D02*
Y00428D01*
X0089401D01*
Y00426D01*
X0089601D01*
X0088601D02*
Y00428D01*
X0088401D01*
Y00426D01*
X0088601D01*
X0087602D02*
Y00428D01*
X0087402D01*
Y00426D01*
X0087602D01*
X0086602D02*
Y00428D01*
X0086402D01*
Y00426D01*
X0086602D01*
X0085602D02*
Y00428D01*
X0085402D01*
Y00426D01*
X0085602D01*
X0084603D02*
Y00428D01*
X0084403D01*
Y00426D01*
X0084603D01*
X0083603D02*
Y00428D01*
X0083403D01*
Y00426D01*
X0083603D01*
X0082603D02*
Y00428D01*
X0082403D01*
Y00426D01*
X0082603D01*
X0081604D02*
Y00428D01*
X0081404D01*
Y00426D01*
X0081604D01*
X0080604D02*
Y00428D01*
X0080404D01*
Y00426D01*
X0080604D01*
X0079604D02*
Y00428D01*
X0079404D01*
Y00426D01*
X0079604D01*
X0078605D02*
Y00428D01*
X0078405D01*
Y00426D01*
X0078605D01*
X0077605D02*
Y00428D01*
X0077405D01*
Y00426D01*
X0077605D01*
X0076605D02*
Y00428D01*
X0076405D01*
Y00426D01*
X0076605D01*
X0075605D02*
Y00428D01*
X0075406D01*
Y00426D01*
X0075605D01*
X0074606D02*
Y00428D01*
X0074406D01*
Y00426D01*
X0074606D01*
X0073606D02*
Y00428D01*
X0073406D01*
Y00426D01*
X0073606D01*
X0072606D02*
Y00428D01*
X0072407D01*
Y00426D01*
X0072606D01*
X0071607D02*
Y00428D01*
X0071407D01*
Y00426D01*
X0071607D01*
X0070607D02*
Y00428D01*
X0070407D01*
Y00426D01*
X0070607D01*
X0069607D02*
Y00428D01*
X0069407D01*
Y00426D01*
X0069607D01*
X0068608D02*
Y00428D01*
X0068408D01*
Y00426D01*
X0068608D01*
X0067608D02*
Y00428D01*
X0067408D01*
Y00426D01*
X0067608D01*
X0066608D02*
Y00428D01*
X0066408D01*
Y00426D01*
X0066608D01*
X0065609D02*
Y00428D01*
X0065409D01*
Y00426D01*
X0065609D01*
D43*
X0092049Y0081061D02*
X0092265D01*
X0095922D02*
X0096176D01*
X0091985Y0081074D02*
X0092341D01*
X0095859D02*
X0096252D01*
X0091934Y0081087D02*
X0092379D01*
X0092874D02*
X0093255D01*
X00937D02*
X0094005D01*
X0094246D02*
X0095236D01*
X0095808D02*
X009629D01*
X0097357D02*
X0097903D01*
X0098005D02*
X0098386D01*
X0098818D02*
X0099148D01*
X0099262D02*
X0099618D01*
X0100266D02*
X0100596D01*
X0091896Y00811D02*
X0092417D01*
X0092874D02*
X0093268D01*
X00937D02*
X0094005D01*
X0094246D02*
X0095236D01*
X0095783D02*
X0096329D01*
X0097268D02*
X0097903D01*
X0098018D02*
X0098399D01*
X0098818D02*
X0099148D01*
X0099262D02*
X0099618D01*
X0100266D02*
X0100596D01*
X0091871Y0081112D02*
X0092442D01*
X0092874D02*
X0093268D01*
X00937D02*
X0094005D01*
X0094246D02*
X0095236D01*
X0095744D02*
X0096354D01*
X0097205D02*
X0097903D01*
X0098018D02*
X0098399D01*
X0098818D02*
X0099148D01*
X0099262D02*
X0099618D01*
X0100266D02*
X0100583D01*
X0091845Y0081125D02*
X0092468D01*
X0092874D02*
X0093281D01*
X00937D02*
X0094005D01*
X0094246D02*
X0095236D01*
X0095719D02*
X0096379D01*
X0097167D02*
X0097903D01*
X009803D02*
X0098411D01*
X0098818D02*
X0099148D01*
X0099262D02*
X0099631D01*
X0100253D02*
X0100583D01*
X009182Y0081138D02*
X0092493D01*
X0092874D02*
X0093281D01*
X00937D02*
X0094005D01*
X0094246D02*
X0095236D01*
X0095694D02*
X0096405D01*
X0097129D02*
X0097903D01*
X009803D02*
X0098411D01*
X0098818D02*
X0099148D01*
X0099275D02*
X0099631D01*
X0100253D02*
X0100583D01*
X0091807Y008115D02*
X0092506D01*
X0092874D02*
X0093281D01*
X00937D02*
X0094005D01*
X0094246D02*
X0095236D01*
X0095681D02*
X009643D01*
X0097103D02*
X0097903D01*
X0098043D02*
X0098424D01*
X0098818D02*
X0099148D01*
X0099275D02*
X0099631D01*
X0100253D02*
X0100583D01*
X0091782Y0081163D02*
X0092531D01*
X0092874D02*
X0093293D01*
X00937D02*
X0094005D01*
X0094246D02*
X0095236D01*
X0095656D02*
X0096443D01*
X0097078D02*
X0097903D01*
X0098043D02*
X0098424D01*
X0098818D02*
X0099148D01*
X0099275D02*
X0099643D01*
X010024D02*
X010057D01*
X0091769Y0081176D02*
X0092544D01*
X0092874D02*
X0093293D01*
X00937D02*
X0094005D01*
X0094246D02*
X0095236D01*
X0095643D02*
X0096456D01*
X0097052D02*
X0097903D01*
X0098043D02*
X0098424D01*
X0098818D02*
X0099148D01*
X0099288D02*
X0099643D01*
X010024D02*
X010057D01*
X0091757Y0081188D02*
X0092557D01*
X0092874D02*
X0093306D01*
X00937D02*
X0094005D01*
X0094246D02*
X0095236D01*
X009563D02*
X0096468D01*
X0097027D02*
X0097903D01*
X0098056D02*
X0098437D01*
X0098818D02*
X0099148D01*
X0099288D02*
X0099643D01*
X010024D02*
X010057D01*
X0091744Y0081201D02*
X0092569D01*
X0092874D02*
X0093306D01*
X00937D02*
X0094005D01*
X0094246D02*
X0095236D01*
X0095617D02*
X0096481D01*
X0097014D02*
X0097903D01*
X0098056D02*
X0098437D01*
X0098818D02*
X0099148D01*
X0099288D02*
X0099643D01*
X010024D02*
X0100558D01*
X0091731Y0081214D02*
X0092582D01*
X0092874D02*
X0093319D01*
X00937D02*
X0094005D01*
X0094246D02*
X0095236D01*
X0095605D02*
X0096494D01*
X0096989D02*
X0097903D01*
X0098068D02*
X009845D01*
X0098818D02*
X0099148D01*
X00993D02*
X0099656D01*
X0100228D02*
X0100558D01*
X0091718Y0081227D02*
X0092595D01*
X0092874D02*
X0093319D01*
X00937D02*
X0094005D01*
X0094246D02*
X0095236D01*
X0095592D02*
X0096506D01*
X0096976D02*
X0097903D01*
X0098068D02*
X009845D01*
X0098818D02*
X0099148D01*
X00993D02*
X0099656D01*
X0100228D02*
X0100558D01*
X0091706Y0081239D02*
X0092607D01*
X0092874D02*
X0093331D01*
X00937D02*
X0094005D01*
X0094246D02*
X0095236D01*
X0095579D02*
X0096519D01*
X0096951D02*
X0097903D01*
X0098081D02*
X0098462D01*
X0098818D02*
X0099148D01*
X00993D02*
X0099656D01*
X0100228D02*
X0100545D01*
X0091693Y0081252D02*
X009262D01*
X0092874D02*
X0093331D01*
X00937D02*
X0094005D01*
X0094246D02*
X0095236D01*
X0095579D02*
X0096519D01*
X0096938D02*
X0097903D01*
X0098081D02*
X0098462D01*
X0098818D02*
X0099148D01*
X00993D02*
X0099669D01*
X0100215D02*
X0100545D01*
X009168Y0081265D02*
X0092633D01*
X0092874D02*
X0093344D01*
X00937D02*
X0094005D01*
X0094246D02*
X0095236D01*
X0095567D02*
X0096532D01*
X0096925D02*
X0097903D01*
X0098094D02*
X0098475D01*
X0098818D02*
X0099148D01*
X0099313D02*
X0099669D01*
X0100215D02*
X0100545D01*
X0091668Y0081277D02*
X0092633D01*
X0092874D02*
X0093344D01*
X00937D02*
X0094005D01*
X0094246D02*
X0095236D01*
X0095554D02*
X0096545D01*
X0096913D02*
X0097903D01*
X0098094D02*
X0098475D01*
X0098818D02*
X0099148D01*
X0099313D02*
X0099669D01*
X0100215D02*
X0100545D01*
X0091655Y008129D02*
X0092646D01*
X0092874D02*
X0093357D01*
X00937D02*
X0094005D01*
X0094246D02*
X0095236D01*
X0095554D02*
X0096545D01*
X00969D02*
X0097903D01*
X0098107D02*
X0098488D01*
X0098818D02*
X0099148D01*
X0099313D02*
X0099669D01*
X0100202D02*
X0100532D01*
X0091655Y0081303D02*
X0092658D01*
X0092874D02*
X0093357D01*
X00937D02*
X0094005D01*
X0094246D02*
X0095236D01*
X0095541D02*
X0096557D01*
X0096887D02*
X0097903D01*
X0098107D02*
X0098488D01*
X0098818D02*
X0099148D01*
X0099326D02*
X0099681D01*
X0100202D02*
X0100532D01*
X0091642Y0081315D02*
X0092658D01*
X0092874D02*
X0093369D01*
X00937D02*
X0094005D01*
X0094246D02*
X0095236D01*
X0095541D02*
X0096557D01*
X0096875D02*
X0097903D01*
X0098119D02*
X0098488D01*
X0098818D02*
X0099148D01*
X0099326D02*
X0099681D01*
X0100202D02*
X0100532D01*
X0091642Y0081328D02*
X0092671D01*
X0092874D02*
X0093369D01*
X00937D02*
X0094005D01*
X0094246D02*
X0095236D01*
X0095529D02*
X009596D01*
X00961D02*
X0096557D01*
X0096875D02*
X0097903D01*
X0098119D02*
X00985D01*
X0098818D02*
X0099148D01*
X0099326D02*
X0099681D01*
X0100202D02*
X010052D01*
X009163Y0081341D02*
X0092671D01*
X0092874D02*
X0093369D01*
X00937D02*
X0094005D01*
X0094246D02*
X0095236D01*
X0095529D02*
X0095922D01*
X0096151D02*
X009657D01*
X0096862D02*
X0097903D01*
X0098132D02*
X00985D01*
X0098818D02*
X0099148D01*
X0099339D02*
X0099694D01*
X0100189D02*
X010052D01*
X0091617Y0081354D02*
X0092061D01*
X0092227D02*
X0092684D01*
X0092874D02*
X0093382D01*
X00937D02*
X0094005D01*
X0094576D02*
X0094906D01*
X0095516D02*
X0095897D01*
X0096176D02*
X009657D01*
X0096849D02*
X0097408D01*
X0097573D02*
X0097903D01*
X0098132D02*
X0098513D01*
X0098818D02*
X0099148D01*
X0099339D02*
X0099694D01*
X0100189D02*
X010052D01*
X0091617Y0081366D02*
X0092036D01*
X0092265D02*
X0092684D01*
X0092874D02*
X0093382D01*
X00937D02*
X0094005D01*
X0094576D02*
X0094906D01*
X0095516D02*
X0095871D01*
X0096189D02*
X009657D01*
X0096849D02*
X0097345D01*
X0097573D02*
X0097903D01*
X0098145D02*
X0098513D01*
X0098818D02*
X0099148D01*
X0099339D02*
X0100507D01*
X0091604Y0081379D02*
X0092011D01*
X0092277D02*
X0092696D01*
X0092874D02*
X0093395D01*
X00937D02*
X0094005D01*
X0094576D02*
X0094906D01*
X0095503D02*
X0095859D01*
X0096214D02*
X0096583D01*
X0096837D02*
X0097307D01*
X0097573D02*
X0097903D01*
X0098145D02*
X0098526D01*
X0098818D02*
X0099148D01*
X0099351D02*
X0100507D01*
X0091604Y0081392D02*
X0091985D01*
X0092303D02*
X0092696D01*
X0092874D02*
X0093395D01*
X00937D02*
X0094005D01*
X0094576D02*
X0094906D01*
X0095503D02*
X0095846D01*
X0096214D02*
X0096583D01*
X0096824D02*
X0097268D01*
X0097573D02*
X0097903D01*
X0098157D02*
X0098526D01*
X0098818D02*
X0099148D01*
X0099351D02*
X0100507D01*
X0091591Y0081404D02*
X0091973D01*
X0092315D02*
X0092709D01*
X0092874D02*
X0093408D01*
X00937D02*
X0094005D01*
X0094576D02*
X0094906D01*
X0095503D02*
X0095846D01*
X0096227D02*
X0096583D01*
X0096824D02*
X0097256D01*
X0097573D02*
X0097903D01*
X0098157D02*
X0098538D01*
X0098818D02*
X0099148D01*
X0099351D02*
X0100494D01*
X0091591Y0081417D02*
X009196D01*
X0092328D02*
X0092709D01*
X0092874D02*
X0093408D01*
X00937D02*
X0094005D01*
X0094576D02*
X0094906D01*
X009549D02*
X0095833D01*
X009624D02*
X0096583D01*
X0096811D02*
X009723D01*
X0097573D02*
X0097903D01*
X009817D02*
X0098538D01*
X0098818D02*
X0099148D01*
X0099351D02*
X0100494D01*
X0091591Y008143D02*
X0091947D01*
X0092341D02*
X0092709D01*
X0092874D02*
X009342D01*
X00937D02*
X0094005D01*
X0094576D02*
X0094906D01*
X009549D02*
X0095821D01*
X009624D02*
X0096595D01*
X0096811D02*
X0097218D01*
X0097573D02*
X0097903D01*
X009817D02*
X0098551D01*
X0098818D02*
X0099148D01*
X0099364D02*
X0100494D01*
X0091579Y0081442D02*
X0091947D01*
X0092354D02*
X0092722D01*
X0092874D02*
X009342D01*
X00937D02*
X0094005D01*
X0094576D02*
X0094906D01*
X009549D02*
X0095821D01*
X0096252D02*
X0096595D01*
X0096799D02*
X0097192D01*
X0097573D02*
X0097903D01*
X0098183D02*
X0098551D01*
X0098818D02*
X0099148D01*
X0099364D02*
X0100494D01*
X0091579Y0081455D02*
X0091934D01*
X0092354D02*
X0092722D01*
X0092874D02*
X0093433D01*
X00937D02*
X0094005D01*
X0094576D02*
X0094906D01*
X009549D02*
X0095821D01*
X0096252D02*
X0096595D01*
X0096799D02*
X0097179D01*
X0097573D02*
X0097903D01*
X0098183D02*
X0098551D01*
X0098818D02*
X0099148D01*
X0099364D02*
X0100481D01*
X0091566Y0081468D02*
X0091922D01*
X0092366D02*
X0092722D01*
X0092874D02*
X0093433D01*
X00937D02*
X0094005D01*
X0094576D02*
X0094906D01*
X0095478D02*
X0095808D01*
X0096265D02*
X0096595D01*
X0096786D02*
X0097167D01*
X0097573D02*
X0097903D01*
X0098196D02*
X0098564D01*
X0098818D02*
X0099148D01*
X0099377D02*
X0100481D01*
X0091566Y008148D02*
X0091922D01*
X0092366D02*
X0092734D01*
X0092874D02*
X0093446D01*
X00937D02*
X0094005D01*
X0094576D02*
X0094906D01*
X0095478D02*
X0095808D01*
X0096265D02*
X0096595D01*
X0096786D02*
X0097167D01*
X0097573D02*
X0097903D01*
X0098196D02*
X0098564D01*
X0098818D02*
X0099148D01*
X0099377D02*
X0100481D01*
X0091566Y0081493D02*
X0091909D01*
X0092379D02*
X0092734D01*
X0092874D02*
X0093446D01*
X00937D02*
X0094005D01*
X0094576D02*
X0094906D01*
X0095478D02*
X0095808D01*
X0096265D02*
X0096595D01*
X0096786D02*
X0097154D01*
X0097573D02*
X0097903D01*
X0098208D02*
X0098576D01*
X0098818D02*
X0099148D01*
X0099377D02*
X0100469D01*
X0091553Y0081506D02*
X0091909D01*
X0092379D02*
X0092734D01*
X0092874D02*
X0093458D01*
X00937D02*
X0094005D01*
X0094576D02*
X0094906D01*
X0095478D02*
X0095808D01*
X0096265D02*
X0096595D01*
X0096773D02*
X0097141D01*
X0097573D02*
X0097903D01*
X0098208D02*
X0098576D01*
X0098818D02*
X0099148D01*
X0099389D02*
X0100469D01*
X0091553Y0081519D02*
X0091909D01*
X0092379D02*
X0092734D01*
X0092874D02*
X0093458D01*
X00937D02*
X0094005D01*
X0094576D02*
X0094906D01*
X0095478D02*
X0095795D01*
X0096278D02*
X0096608D01*
X0096773D02*
X0097141D01*
X0097573D02*
X0097903D01*
X0098221D02*
X0098589D01*
X0098818D02*
X0099148D01*
X0099389D02*
X0100469D01*
X0091553Y0081531D02*
X0091896D01*
X0092392D02*
X0092747D01*
X0092874D02*
X0093458D01*
X00937D02*
X0094005D01*
X0094576D02*
X0094906D01*
X0095478D02*
X0095795D01*
X0096278D02*
X0096608D01*
X0096773D02*
X0097129D01*
X0097573D02*
X0097903D01*
X0098221D02*
X0098589D01*
X0098818D02*
X0099148D01*
X0099389D02*
X0100456D01*
X0091553Y0081544D02*
X0091896D01*
X0092392D02*
X0092747D01*
X0092874D02*
X0093471D01*
X00937D02*
X0094005D01*
X0094576D02*
X0094906D01*
X0095465D02*
X0095795D01*
X0096278D02*
X0096608D01*
X009676D02*
X0097129D01*
X0097573D02*
X0097903D01*
X0098234D02*
X0098602D01*
X0098818D02*
X0099148D01*
X0099389D02*
X0100456D01*
X0091541Y0081557D02*
X0091896D01*
X0092392D02*
X0092747D01*
X0092874D02*
X0093471D01*
X00937D02*
X0094005D01*
X0094576D02*
X0094906D01*
X0095465D02*
X0095795D01*
X0096278D02*
X0096608D01*
X009676D02*
X0097116D01*
X0097573D02*
X0097903D01*
X0098234D02*
X0098602D01*
X0098818D02*
X0099148D01*
X0099402D02*
X0100456D01*
X0091541Y0081569D02*
X0091884D01*
X0092404D02*
X0092747D01*
X0092874D02*
X0093484D01*
X00937D02*
X0094005D01*
X0094576D02*
X0094906D01*
X0095465D02*
X0095795D01*
X0096278D02*
X0096608D01*
X009676D02*
X0097116D01*
X0097573D02*
X0097903D01*
X0098246D02*
X0098615D01*
X0098818D02*
X0099148D01*
X0099402D02*
X0100443D01*
X0091541Y0081582D02*
X0091884D01*
X0092404D02*
X0092747D01*
X0092874D02*
X0093484D01*
X00937D02*
X0094005D01*
X0094576D02*
X0094906D01*
X0095465D02*
X0095795D01*
X0096278D02*
X0096608D01*
X0096748D02*
X0097103D01*
X0097573D02*
X0097903D01*
X0098246D02*
X0098615D01*
X0098818D02*
X0099148D01*
X0099402D02*
X0100443D01*
X0091541Y0081595D02*
X0091884D01*
X0092404D02*
X009276D01*
X0092874D02*
X0093496D01*
X00937D02*
X0094005D01*
X0094576D02*
X0094906D01*
X0095465D02*
X0095795D01*
X0096278D02*
X0096608D01*
X0096748D02*
X0097103D01*
X0097573D02*
X0097903D01*
X0098259D02*
X0098627D01*
X0098818D02*
X0099148D01*
X0099415D02*
X0100443D01*
X0091541Y0081607D02*
X0091884D01*
X0092404D02*
X009276D01*
X0092874D02*
X0093496D01*
X00937D02*
X0094005D01*
X0094576D02*
X0094906D01*
X0095465D02*
X0095795D01*
X0096278D02*
X0096608D01*
X0096748D02*
X0097103D01*
X0097573D02*
X0097903D01*
X0098259D02*
X009864D01*
X0098818D02*
X0099148D01*
X0099415D02*
X0100443D01*
X0091528Y008162D02*
X0091871D01*
X0092417D02*
X009276D01*
X0092874D02*
X0093509D01*
X00937D02*
X0094005D01*
X0094576D02*
X0094906D01*
X0095465D02*
X0095795D01*
X0096278D02*
X0096608D01*
X0096748D02*
X0097091D01*
X0097573D02*
X0097903D01*
X0098272D02*
X0098653D01*
X0098818D02*
X0099148D01*
X0099415D02*
X0100431D01*
X0091528Y0081633D02*
X0091871D01*
X0092417D02*
X009276D01*
X0092874D02*
X0093166D01*
X0093179D02*
X0093509D01*
X00937D02*
X0094005D01*
X0094576D02*
X0094906D01*
X0095465D02*
X0095795D01*
X0096278D02*
X0096608D01*
X0096748D02*
X0097091D01*
X0097573D02*
X0097903D01*
X0098272D02*
X0098665D01*
X0098818D02*
X0099148D01*
X0099427D02*
X009977D01*
X0100101D02*
X0100431D01*
X0091528Y0081646D02*
X0091871D01*
X0092417D02*
X009276D01*
X0092874D02*
X0093166D01*
X0093179D02*
X0093522D01*
X00937D02*
X0094005D01*
X0094576D02*
X0094906D01*
X0095465D02*
X0095795D01*
X0096278D02*
X0096608D01*
X0096735D02*
X0097091D01*
X0097573D02*
X0097903D01*
X0098284D02*
X0098678D01*
X0098818D02*
X0099148D01*
X0099427D02*
X009977D01*
X0100101D02*
X0100431D01*
X0091528Y0081658D02*
X0091871D01*
X0092417D02*
X009276D01*
X0092874D02*
X0093166D01*
X0093192D02*
X0093522D01*
X00937D02*
X0094005D01*
X0094576D02*
X0094906D01*
X0095465D02*
X0095795D01*
X0096278D02*
X0096608D01*
X0096735D02*
X0097091D01*
X0097573D02*
X0097903D01*
X0098297D02*
X0098703D01*
X0098818D02*
X0099148D01*
X0099427D02*
X0099783D01*
X0100101D02*
X0100418D01*
X0091528Y0081671D02*
X0091871D01*
X0092417D02*
X009276D01*
X0092874D02*
X0093166D01*
X0093192D02*
X0093535D01*
X00937D02*
X0094005D01*
X0094576D02*
X0094906D01*
X0095465D02*
X0095795D01*
X0096278D02*
X0096608D01*
X0096735D02*
X0097091D01*
X0097573D02*
X0097903D01*
X0098297D02*
X0098729D01*
X0098818D02*
X0099148D01*
X009944D02*
X0099783D01*
X0100088D02*
X0100418D01*
X0091528Y0081684D02*
X0091871D01*
X0092417D02*
X009276D01*
X0092874D02*
X0093166D01*
X0093204D02*
X0093535D01*
X00937D02*
X0094005D01*
X0094576D02*
X0094906D01*
X0095465D02*
X0095795D01*
X0096278D02*
X0096608D01*
X0096735D02*
X0097078D01*
X0097573D02*
X0097903D01*
X009831D02*
X0099148D01*
X009944D02*
X0099783D01*
X0100088D02*
X0100418D01*
X0091528Y0081696D02*
X0091871D01*
X0092417D02*
X0092773D01*
X0092874D02*
X0093166D01*
X0093204D02*
X0093535D01*
X00937D02*
X0094005D01*
X0094576D02*
X0094906D01*
X0095465D02*
X0095795D01*
X0096278D02*
X0096608D01*
X0096735D02*
X0097078D01*
X0097573D02*
X0097903D01*
X009831D02*
X0099148D01*
X009944D02*
X0099796D01*
X0100088D02*
X0100405D01*
X0091528Y0081709D02*
X0091871D01*
X009243D02*
X0092773D01*
X0092874D02*
X0093166D01*
X0093204D02*
X0093547D01*
X00937D02*
X0094005D01*
X0094576D02*
X0094906D01*
X0095465D02*
X0095795D01*
X0096278D02*
X0096608D01*
X0096735D02*
X0097078D01*
X0097573D02*
X0097903D01*
X0098323D02*
X0099148D01*
X009944D02*
X0099796D01*
X0100088D02*
X0100405D01*
X0091528Y0081722D02*
X0091858D01*
X009243D02*
X0092773D01*
X0092874D02*
X0093166D01*
X0093217D02*
X0093547D01*
X00937D02*
X0094005D01*
X0094576D02*
X0094906D01*
X0095465D02*
X0095795D01*
X0096278D02*
X0096608D01*
X0096735D02*
X0097078D01*
X0097573D02*
X0097903D01*
X0098335D02*
X0099148D01*
X0099453D02*
X0099796D01*
X0100075D02*
X0100405D01*
X0091528Y0081734D02*
X0091858D01*
X009243D02*
X0092773D01*
X0092874D02*
X0093166D01*
X0093217D02*
X009356D01*
X00937D02*
X0094005D01*
X0094576D02*
X0094906D01*
X0095465D02*
X0095795D01*
X0096278D02*
X0096608D01*
X0096735D02*
X0097078D01*
X0097573D02*
X0097903D01*
X0098348D02*
X0099148D01*
X0099453D02*
X0099808D01*
X0100075D02*
X0100393D01*
X0091528Y0081747D02*
X0091858D01*
X009243D02*
X0092773D01*
X0092874D02*
X0093166D01*
X009323D02*
X009356D01*
X00937D02*
X0094005D01*
X0094576D02*
X0094906D01*
X0095465D02*
X0095795D01*
X0096278D02*
X0096608D01*
X0096722D02*
X0097078D01*
X0097573D02*
X0097903D01*
X0098361D02*
X0099148D01*
X0099453D02*
X0099808D01*
X0100075D02*
X0100393D01*
X0091528Y008176D02*
X0091858D01*
X009243D02*
X0092773D01*
X0092874D02*
X0093166D01*
X009323D02*
X0093573D01*
X00937D02*
X0094005D01*
X0094576D02*
X0094906D01*
X0095465D02*
X0095795D01*
X0096278D02*
X0096608D01*
X0096722D02*
X0097078D01*
X0097573D02*
X0097903D01*
X0098373D02*
X0099148D01*
X0099465D02*
X0099808D01*
X0100062D02*
X0100393D01*
X0091528Y0081773D02*
X0091858D01*
X009243D02*
X0092773D01*
X0092874D02*
X0093166D01*
X0093243D02*
X0093573D01*
X00937D02*
X0094005D01*
X0094576D02*
X0094906D01*
X0095465D02*
X0095795D01*
X0096278D02*
X0096608D01*
X0096722D02*
X0097078D01*
X0097573D02*
X0097903D01*
X0098386D02*
X0099148D01*
X0099465D02*
X0099808D01*
X0100062D02*
X0100393D01*
X0091528Y0081785D02*
X0091858D01*
X009243D02*
X0092773D01*
X0092874D02*
X0093166D01*
X0093243D02*
X0093585D01*
X00937D02*
X0094005D01*
X0094576D02*
X0094906D01*
X0095465D02*
X0095795D01*
X0096278D02*
X0096608D01*
X0096722D02*
X0097078D01*
X0097573D02*
X0097903D01*
X0098386D02*
X0099148D01*
X0099465D02*
X0099821D01*
X0100062D02*
X010038D01*
X0091528Y0081798D02*
X0091858D01*
X009243D02*
X0092773D01*
X0092874D02*
X0093166D01*
X0093255D02*
X0093585D01*
X00937D02*
X0094005D01*
X0094576D02*
X0094906D01*
X0095465D02*
X0095795D01*
X0096278D02*
X0096608D01*
X0096722D02*
X0097078D01*
X0097573D02*
X0097903D01*
X0098361D02*
X0099148D01*
X0099478D02*
X0099821D01*
X0100062D02*
X010038D01*
X0091528Y0081811D02*
X0091858D01*
X009243D02*
X0092773D01*
X0092874D02*
X0093166D01*
X0093255D02*
X0093598D01*
X00937D02*
X0094005D01*
X0094576D02*
X0094906D01*
X0095465D02*
X0095795D01*
X0096278D02*
X0096608D01*
X0096722D02*
X0097078D01*
X0097573D02*
X0097903D01*
X0098323D02*
X0099148D01*
X0099478D02*
X0099821D01*
X010005D02*
X010038D01*
X0091528Y0081823D02*
X0091858D01*
X009243D02*
X0092773D01*
X0092874D02*
X0093166D01*
X0093268D02*
X0093598D01*
X00937D02*
X0094005D01*
X0094576D02*
X0094906D01*
X0095465D02*
X0095795D01*
X0096278D02*
X0096608D01*
X0096722D02*
X0097065D01*
X0097573D02*
X0097903D01*
X0098297D02*
X0099148D01*
X0099478D02*
X0099834D01*
X010005D02*
X0100367D01*
X0091528Y0081836D02*
X0091858D01*
X009243D02*
X0092773D01*
X0092874D02*
X0093166D01*
X0093268D02*
X0093611D01*
X00937D02*
X0094005D01*
X0094576D02*
X0094906D01*
X0095465D02*
X0095795D01*
X0096278D02*
X0096608D01*
X0096722D02*
X0097078D01*
X0097573D02*
X0097903D01*
X0098284D02*
X0099148D01*
X0099491D02*
X0099834D01*
X010005D02*
X0100367D01*
X0091528Y0081849D02*
X0091858D01*
X009243D02*
X0092773D01*
X0092874D02*
X0093166D01*
X0093281D02*
X0093611D01*
X00937D02*
X0094005D01*
X0094576D02*
X0094906D01*
X0095465D02*
X0095795D01*
X0096278D02*
X0096608D01*
X0096722D02*
X0097078D01*
X0097573D02*
X0097903D01*
X0098259D02*
X0099148D01*
X0099491D02*
X0099834D01*
X0100037D02*
X0100367D01*
X0091528Y0081862D02*
X0091858D01*
X009243D02*
X0092773D01*
X0092874D02*
X0093166D01*
X0093281D02*
X0093611D01*
X00937D02*
X0094005D01*
X0094576D02*
X0094906D01*
X0095465D02*
X0095795D01*
X0096278D02*
X0096608D01*
X0096722D02*
X0097078D01*
X0097573D02*
X0097903D01*
X0098246D02*
X0099148D01*
X0099491D02*
X0099834D01*
X0100037D02*
X0100354D01*
X0091528Y0081874D02*
X0091858D01*
X009243D02*
X0092773D01*
X0092874D02*
X0093166D01*
X0093293D02*
X0093623D01*
X00937D02*
X0094005D01*
X0094576D02*
X0094906D01*
X0095465D02*
X0095795D01*
X0096278D02*
X0096608D01*
X0096722D02*
X0097078D01*
X0097573D02*
X0097903D01*
X0098234D02*
X0099148D01*
X0099491D02*
X0099846D01*
X0100037D02*
X0100354D01*
X0091528Y0081887D02*
X0091858D01*
X009243D02*
X0092773D01*
X0092874D02*
X0093166D01*
X0093293D02*
X0093623D01*
X00937D02*
X0094005D01*
X0094576D02*
X0094906D01*
X0095465D02*
X0095795D01*
X0096278D02*
X0096608D01*
X0096722D02*
X0097078D01*
X0097573D02*
X0097903D01*
X0098221D02*
X0099148D01*
X0099504D02*
X0099846D01*
X0100037D02*
X0100354D01*
X0091528Y00819D02*
X0091858D01*
X009243D02*
X0092773D01*
X0092874D02*
X0093166D01*
X0093306D02*
X0093636D01*
X00937D02*
X0094005D01*
X0094576D02*
X0094906D01*
X0095465D02*
X0095795D01*
X0096278D02*
X0096608D01*
X0096722D02*
X0097078D01*
X0097573D02*
X0097903D01*
X0098208D02*
X0099148D01*
X0099504D02*
X0099846D01*
X0100024D02*
X0100342D01*
X0091528Y0081912D02*
X0091858D01*
X009243D02*
X0092773D01*
X0092874D02*
X0093166D01*
X0093306D02*
X0093636D01*
X00937D02*
X0094005D01*
X0094576D02*
X0094906D01*
X0095465D02*
X0095795D01*
X0096278D02*
X0096608D01*
X0096722D02*
X0097078D01*
X0097573D02*
X0097903D01*
X0098196D02*
X0099148D01*
X0099504D02*
X0099859D01*
X0100024D02*
X0100342D01*
X0091528Y0081925D02*
X0091858D01*
X009243D02*
X0092773D01*
X0092874D02*
X0093166D01*
X0093306D02*
X0093649D01*
X00937D02*
X0094005D01*
X0094576D02*
X0094906D01*
X0095465D02*
X0095795D01*
X0096278D02*
X0096608D01*
X0096722D02*
X0097078D01*
X0097573D02*
X0097903D01*
X0098183D02*
X0099148D01*
X0099516D02*
X0099859D01*
X0100024D02*
X0100342D01*
X0091528Y0081938D02*
X0091871D01*
X009243D02*
X0092773D01*
X0092874D02*
X0093166D01*
X0093319D02*
X0093649D01*
X00937D02*
X0094005D01*
X0094576D02*
X0094906D01*
X0095465D02*
X0095795D01*
X0096278D02*
X0096608D01*
X0096722D02*
X0097078D01*
X0097573D02*
X0097903D01*
X0098183D02*
X0098691D01*
X0098818D02*
X0099148D01*
X0099516D02*
X0099859D01*
X0100012D02*
X0100342D01*
X0091528Y008195D02*
X0091871D01*
X0092417D02*
X009276D01*
X0092874D02*
X0093166D01*
X0093319D02*
X0093662D01*
X00937D02*
X0094005D01*
X0094576D02*
X0094906D01*
X0095465D02*
X0095795D01*
X0096278D02*
X0096608D01*
X0096722D02*
X0097078D01*
X0097573D02*
X0097903D01*
X009817D02*
X0098615D01*
X0098818D02*
X0099148D01*
X0099516D02*
X0099859D01*
X0100012D02*
X0100329D01*
X0091528Y0081963D02*
X0091871D01*
X0092417D02*
X009276D01*
X0092874D02*
X0093166D01*
X0093331D02*
X0093662D01*
X00937D02*
X0094005D01*
X0094576D02*
X0094906D01*
X0095465D02*
X0095795D01*
X0096278D02*
X0096608D01*
X0096735D02*
X0097078D01*
X0097573D02*
X0097903D01*
X0098157D02*
X0098576D01*
X0098818D02*
X0099148D01*
X0099529D02*
X0099872D01*
X0100012D02*
X0100329D01*
X0091528Y0081976D02*
X0091871D01*
X0092417D02*
X009276D01*
X0092874D02*
X0093166D01*
X0093331D02*
X0093674D01*
X00937D02*
X0094005D01*
X0094576D02*
X0094906D01*
X0095465D02*
X0095795D01*
X0096278D02*
X0096608D01*
X0096735D02*
X0097078D01*
X0097573D02*
X0097903D01*
X0098157D02*
X0098551D01*
X0098818D02*
X0099148D01*
X0099529D02*
X0099872D01*
X0099999D02*
X0100329D01*
X0091528Y0081989D02*
X0091871D01*
X0092417D02*
X009276D01*
X0092874D02*
X0093166D01*
X0093344D02*
X0093674D01*
X00937D02*
X0094005D01*
X0094576D02*
X0094906D01*
X0095465D02*
X0095795D01*
X0096278D02*
X0096608D01*
X0096735D02*
X0097078D01*
X0097573D02*
X0097903D01*
X0098157D02*
X0098526D01*
X0098818D02*
X0099148D01*
X0099529D02*
X0099872D01*
X0099999D02*
X0100316D01*
X0091528Y0082001D02*
X0091871D01*
X0092417D02*
X009276D01*
X0092874D02*
X0093166D01*
X0093344D02*
X0093687D01*
X00937D02*
X0094005D01*
X0094576D02*
X0094906D01*
X0095465D02*
X0095795D01*
X0096278D02*
X0096608D01*
X0096735D02*
X0097091D01*
X0097573D02*
X0097903D01*
X0098145D02*
X0098513D01*
X0098818D02*
X0099148D01*
X0099542D02*
X0099885D01*
X0099999D02*
X0100316D01*
X0091528Y0082014D02*
X0091871D01*
X0092417D02*
X009276D01*
X0092874D02*
X0093166D01*
X0093357D02*
X0093687D01*
X00937D02*
X0094005D01*
X0094576D02*
X0094906D01*
X0095465D02*
X0095795D01*
X0096278D02*
X0096608D01*
X0096735D02*
X0097091D01*
X0097573D02*
X0097903D01*
X0098145D02*
X00985D01*
X0098818D02*
X0099148D01*
X0099542D02*
X0099885D01*
X0099999D02*
X0100316D01*
X0091528Y0082027D02*
X0091871D01*
X0092417D02*
X009276D01*
X0092874D02*
X0093166D01*
X0093357D02*
X0093687D01*
X00937D02*
X0094005D01*
X0094576D02*
X0094906D01*
X0095465D02*
X0095795D01*
X0096278D02*
X0096608D01*
X0096735D02*
X0097091D01*
X0097573D02*
X0097903D01*
X0098132D02*
X0098488D01*
X0098818D02*
X0099148D01*
X0099542D02*
X0099885D01*
X0099986D02*
X0100304D01*
X0091528Y0082039D02*
X0091884D01*
X0092417D02*
X009276D01*
X0092874D02*
X0093166D01*
X0093369D02*
X0094005D01*
X0094576D02*
X0094906D01*
X0095465D02*
X0095795D01*
X0096278D02*
X0096608D01*
X0096735D02*
X0097091D01*
X0097573D02*
X0097903D01*
X0098132D02*
X0098488D01*
X0098818D02*
X0099148D01*
X0099542D02*
X0099885D01*
X0099986D02*
X0100304D01*
X0091528Y0082052D02*
X0091884D01*
X0092404D02*
X0092747D01*
X0092874D02*
X0093166D01*
X0093369D02*
X0094005D01*
X0094576D02*
X0094906D01*
X0095465D02*
X0095795D01*
X0096278D02*
X0096608D01*
X0096735D02*
X0097091D01*
X0097573D02*
X0097903D01*
X0098132D02*
X0098475D01*
X0098818D02*
X0099148D01*
X0099554D02*
X0099897D01*
X0099986D02*
X0100304D01*
X0091541Y0082065D02*
X0091884D01*
X0092404D02*
X0092747D01*
X0092874D02*
X0093166D01*
X0093382D02*
X0094005D01*
X0094576D02*
X0094906D01*
X0095465D02*
X0095795D01*
X0096278D02*
X0096608D01*
X0096748D02*
X0097103D01*
X0097573D02*
X0097903D01*
X0098132D02*
X0098475D01*
X0098818D02*
X0099148D01*
X0099554D02*
X0099897D01*
X0099974D02*
X0100304D01*
X0091541Y0082077D02*
X0091884D01*
X0092404D02*
X0092747D01*
X0092874D02*
X0093166D01*
X0093382D02*
X0094005D01*
X0094576D02*
X0094906D01*
X0095465D02*
X0095795D01*
X0096278D02*
X0096608D01*
X0096748D02*
X0097103D01*
X0097573D02*
X0097903D01*
X0098132D02*
X0098475D01*
X0098818D02*
X0099148D01*
X0099554D02*
X0099897D01*
X0099974D02*
X0100291D01*
X0091541Y008209D02*
X0091896D01*
X0092404D02*
X0092747D01*
X0092874D02*
X0093166D01*
X0093395D02*
X0094005D01*
X0094576D02*
X0094906D01*
X0095465D02*
X0095795D01*
X0096278D02*
X0096608D01*
X0096748D02*
X0097103D01*
X0097573D02*
X0097903D01*
X0098132D02*
X0098462D01*
X0098818D02*
X0099148D01*
X0099567D02*
X009991D01*
X0099974D02*
X0100291D01*
X0091541Y0082103D02*
X0091896D01*
X0092392D02*
X0092747D01*
X0092874D02*
X0093166D01*
X0093395D02*
X0094005D01*
X0094576D02*
X0094906D01*
X0095465D02*
X0095795D01*
X0096278D02*
X0096608D01*
X0096748D02*
X0097116D01*
X0097573D02*
X0097903D01*
X0098119D02*
X0098462D01*
X0098818D02*
X0099148D01*
X0099567D02*
X009991D01*
X0099974D02*
X0100291D01*
X0091541Y0082116D02*
X0091896D01*
X0092392D02*
X0092734D01*
X0092874D02*
X0093166D01*
X0093408D02*
X0094005D01*
X0094576D02*
X0094906D01*
X0095465D02*
X0095795D01*
X0096278D02*
X0096608D01*
X0096748D02*
X0097116D01*
X0097573D02*
X0097903D01*
X0098119D02*
X0098462D01*
X0098818D02*
X0099148D01*
X0099567D02*
X009991D01*
X0099961D02*
X0100278D01*
X0091553Y0082128D02*
X0091896D01*
X0092392D02*
X0092734D01*
X0092874D02*
X0093166D01*
X0093408D02*
X0094005D01*
X0094576D02*
X0094906D01*
X0095465D02*
X0095795D01*
X0096278D02*
X0096608D01*
X009676D02*
X0097129D01*
X0097573D02*
X0097903D01*
X0098119D02*
X0098462D01*
X0098818D02*
X0099148D01*
X009958D02*
X009991D01*
X0099961D02*
X0100278D01*
X0091553Y0082141D02*
X0091909D01*
X0092379D02*
X0092734D01*
X0092874D02*
X0093166D01*
X009342D02*
X0094005D01*
X0094576D02*
X0094906D01*
X0095465D02*
X0095795D01*
X0096278D02*
X0096608D01*
X009676D02*
X0097129D01*
X0097573D02*
X0097903D01*
X0098119D02*
X0098462D01*
X0098818D02*
X0099148D01*
X009958D02*
X0099923D01*
X0099961D02*
X0100278D01*
X0091553Y0082154D02*
X0091909D01*
X0092379D02*
X0092722D01*
X0092874D02*
X0093166D01*
X009342D02*
X0094005D01*
X0094576D02*
X0094906D01*
X0095465D02*
X0095795D01*
X0096278D02*
X0096608D01*
X009676D02*
X0097141D01*
X0097573D02*
X0097903D01*
X0098119D02*
X0098462D01*
X0098818D02*
X0099148D01*
X009958D02*
X0099923D01*
X0099948D02*
X0100266D01*
X0091553Y0082166D02*
X0091922D01*
X0092366D02*
X0092722D01*
X0092874D02*
X0093166D01*
X009342D02*
X0094005D01*
X0094576D02*
X0094906D01*
X0095465D02*
X0095795D01*
X0096278D02*
X0096608D01*
X009676D02*
X0097141D01*
X0097573D02*
X0097903D01*
X0098119D02*
X0098462D01*
X0098818D02*
X0099148D01*
X009958D02*
X0099923D01*
X0099948D02*
X0100266D01*
X0091566Y0082179D02*
X0091922D01*
X0092366D02*
X0092722D01*
X0092874D02*
X0093166D01*
X0093433D02*
X0094005D01*
X0094576D02*
X0094906D01*
X0095465D02*
X0095795D01*
X0096278D02*
X0096608D01*
X0096773D02*
X0097154D01*
X0097573D02*
X0097903D01*
X0098119D02*
X0098475D01*
X0098818D02*
X0099148D01*
X0099592D02*
X0099935D01*
X0099948D02*
X0100266D01*
X0091566Y0082192D02*
X0091934D01*
X0092354D02*
X0092709D01*
X0092874D02*
X0093166D01*
X0093433D02*
X0094005D01*
X0094576D02*
X0094906D01*
X0095465D02*
X0095795D01*
X0096278D02*
X0096608D01*
X0096773D02*
X0097167D01*
X0097573D02*
X0097903D01*
X0098119D02*
X0098475D01*
X0098818D02*
X0099148D01*
X0099592D02*
X0100253D01*
X0091566Y0082204D02*
X0091934D01*
X0092354D02*
X0092709D01*
X0092874D02*
X0093166D01*
X0093446D02*
X0094005D01*
X0094576D02*
X0094906D01*
X0095465D02*
X0095795D01*
X0096278D02*
X0096608D01*
X0096786D02*
X0097179D01*
X0097573D02*
X0097903D01*
X0098119D02*
X0098475D01*
X0098818D02*
X0099148D01*
X0099592D02*
X0100253D01*
X0091579Y0082217D02*
X0091947D01*
X0092341D02*
X0092709D01*
X0092874D02*
X0093166D01*
X0093446D02*
X0094005D01*
X0094576D02*
X0094906D01*
X0095465D02*
X0095795D01*
X0096278D02*
X0096608D01*
X0096786D02*
X0097192D01*
X0097573D02*
X0097903D01*
X0098132D02*
X0098488D01*
X0098818D02*
X0099148D01*
X0099605D02*
X0100253D01*
X0091579Y008223D02*
X009196D01*
X0092328D02*
X0092696D01*
X0092874D02*
X0093166D01*
X0093458D02*
X0094005D01*
X0094576D02*
X0094906D01*
X0095465D02*
X0095795D01*
X0096278D02*
X0096608D01*
X0096786D02*
X0097205D01*
X0097573D02*
X0097903D01*
X0098132D02*
X00985D01*
X0098818D02*
X0099148D01*
X0099605D02*
X0100253D01*
X0091579Y0082243D02*
X0091973D01*
X0092315D02*
X0092696D01*
X0092874D02*
X0093166D01*
X0093458D02*
X0094005D01*
X0094576D02*
X0094906D01*
X0095465D02*
X0095795D01*
X0096278D02*
X0096608D01*
X0096799D02*
X0097218D01*
X0097573D02*
X0097903D01*
X0098132D02*
X00985D01*
X0098818D02*
X0099148D01*
X0099605D02*
X010024D01*
X0091591Y0082255D02*
X0091985D01*
X0092303D02*
X0092684D01*
X0092874D02*
X0093166D01*
X0093471D02*
X0094005D01*
X0094576D02*
X0094906D01*
X0095465D02*
X0095795D01*
X0096278D02*
X0096608D01*
X0096799D02*
X0097243D01*
X0097573D02*
X0097903D01*
X0098132D02*
X0098526D01*
X0098818D02*
X0099148D01*
X0099618D02*
X010024D01*
X0091591Y0082268D02*
X0091998D01*
X009229D02*
X0092684D01*
X0092874D02*
X0093166D01*
X0093471D02*
X0094005D01*
X0094576D02*
X0094906D01*
X0095465D02*
X0095795D01*
X0096278D02*
X0096608D01*
X0096811D02*
X0097268D01*
X0097573D02*
X0097903D01*
X0098132D02*
X0098538D01*
X0098818D02*
X0099148D01*
X0099618D02*
X010024D01*
X0091604Y0082281D02*
X0092023D01*
X0092265D02*
X0092671D01*
X0092874D02*
X0093166D01*
X0093484D02*
X0094005D01*
X0094576D02*
X0094906D01*
X0095465D02*
X0095795D01*
X0096278D02*
X0096608D01*
X0096811D02*
X0097307D01*
X0097573D02*
X0097903D01*
X0098132D02*
X0098564D01*
X0098818D02*
X0099148D01*
X0099618D02*
X0100228D01*
X0091604Y0082293D02*
X0092049D01*
X0092239D02*
X0092671D01*
X0092874D02*
X0093166D01*
X0093484D02*
X0094005D01*
X0094576D02*
X0094906D01*
X0095465D02*
X0095795D01*
X0096278D02*
X0096608D01*
X0096824D02*
X0097357D01*
X0097573D02*
X0097903D01*
X0098145D02*
X0098615D01*
X0098818D02*
X0099148D01*
X0099631D02*
X0100228D01*
X0091617Y0082306D02*
X0092112D01*
X0092176D02*
X0092658D01*
X0092874D02*
X0093166D01*
X0093496D02*
X0094005D01*
X0094576D02*
X0094906D01*
X0095465D02*
X0095795D01*
X0096278D02*
X0096608D01*
X0096824D02*
X0097903D01*
X0098145D02*
X0099148D01*
X0099631D02*
X0100228D01*
X0091617Y0082319D02*
X0092658D01*
X0092874D02*
X0093166D01*
X0093496D02*
X0094005D01*
X0094246D02*
X0095236D01*
X0095465D02*
X0095795D01*
X0096278D02*
X0096608D01*
X0096837D02*
X0097903D01*
X0098145D02*
X0099148D01*
X0099631D02*
X0100215D01*
X009163Y0082331D02*
X0092646D01*
X0092874D02*
X0093166D01*
X0093509D02*
X0094005D01*
X0094246D02*
X0095236D01*
X0095465D02*
X0095795D01*
X0096278D02*
X0096608D01*
X0096849D02*
X0097903D01*
X0098157D02*
X0099148D01*
X0099631D02*
X0100215D01*
X009163Y0082344D02*
X0092646D01*
X0092874D02*
X0093166D01*
X0093509D02*
X0094005D01*
X0094246D02*
X0095236D01*
X0095465D02*
X0095795D01*
X0096278D02*
X0096608D01*
X0096849D02*
X0097903D01*
X0098157D02*
X0099148D01*
X0099643D02*
X0100215D01*
X0091642Y0082357D02*
X0092633D01*
X0092874D02*
X0093166D01*
X0093522D02*
X0094005D01*
X0094246D02*
X0095236D01*
X0095465D02*
X0095795D01*
X0096278D02*
X0096608D01*
X0096862D02*
X0097903D01*
X009817D02*
X0099148D01*
X0099643D02*
X0100202D01*
X0091642Y0082369D02*
X009262D01*
X0092874D02*
X0093166D01*
X0093522D02*
X0094005D01*
X0094246D02*
X0095236D01*
X0095465D02*
X0095795D01*
X0096278D02*
X0096608D01*
X0096875D02*
X0097903D01*
X009817D02*
X0099148D01*
X0099643D02*
X0100202D01*
X0091655Y0082382D02*
X0092607D01*
X0092874D02*
X0093166D01*
X0093522D02*
X0094005D01*
X0094246D02*
X0095236D01*
X0095465D02*
X0095795D01*
X0096278D02*
X0096608D01*
X0096887D02*
X0097903D01*
X0098183D02*
X0099148D01*
X0099656D02*
X0100202D01*
X0091668Y0082395D02*
X0092607D01*
X0092874D02*
X0093166D01*
X0093535D02*
X0094005D01*
X0094246D02*
X0095236D01*
X0095465D02*
X0095795D01*
X0096278D02*
X0096608D01*
X00969D02*
X0097903D01*
X0098196D02*
X0099148D01*
X0099656D02*
X0100202D01*
X009168Y0082408D02*
X0092595D01*
X0092874D02*
X0093166D01*
X0093535D02*
X0094005D01*
X0094246D02*
X0095236D01*
X0095465D02*
X0095795D01*
X0096278D02*
X0096608D01*
X0096913D02*
X0097903D01*
X0098196D02*
X0099148D01*
X0099656D02*
X0100189D01*
X0091693Y008242D02*
X0092582D01*
X0092874D02*
X0093166D01*
X0093547D02*
X0094005D01*
X0094246D02*
X0095236D01*
X0095465D02*
X0095795D01*
X0096278D02*
X0096608D01*
X0096925D02*
X0097903D01*
X0098208D02*
X0099148D01*
X0099669D02*
X0100189D01*
X0091693Y0082433D02*
X0092569D01*
X0092874D02*
X0093166D01*
X0093547D02*
X0094005D01*
X0094246D02*
X0095236D01*
X0095465D02*
X0095795D01*
X0096278D02*
X0096608D01*
X0096938D02*
X0097903D01*
X0098221D02*
X0099148D01*
X0099669D02*
X0100189D01*
X0091706Y0082446D02*
X0092557D01*
X0092874D02*
X0093166D01*
X009356D02*
X0094005D01*
X0094246D02*
X0095236D01*
X0095465D02*
X0095795D01*
X0096278D02*
X0096608D01*
X0096951D02*
X0097903D01*
X0098234D02*
X0099148D01*
X0099669D02*
X0100177D01*
X0091718Y0082458D02*
X0092544D01*
X0092874D02*
X0093166D01*
X009356D02*
X0094005D01*
X0094246D02*
X0095236D01*
X0095465D02*
X0095795D01*
X0096278D02*
X0096608D01*
X0096976D02*
X0097903D01*
X0098246D02*
X0099148D01*
X0099681D02*
X0100177D01*
X0091744Y0082471D02*
X0092519D01*
X0092874D02*
X0093166D01*
X0093573D02*
X0094005D01*
X0094246D02*
X0095236D01*
X0095465D02*
X0095795D01*
X0096278D02*
X0096608D01*
X0096989D02*
X0097903D01*
X0098259D02*
X0099148D01*
X0099681D02*
X0100177D01*
X0091757Y0082484D02*
X0092506D01*
X0092874D02*
X0093166D01*
X0093573D02*
X0094005D01*
X0094246D02*
X0095236D01*
X0095465D02*
X0095795D01*
X0096278D02*
X0096608D01*
X0097014D02*
X0097903D01*
X0098284D02*
X0099148D01*
X0099681D02*
X0100164D01*
X0091769Y0082496D02*
X0092493D01*
X0092874D02*
X0093166D01*
X0093585D02*
X0094005D01*
X0094246D02*
X0095236D01*
X0095465D02*
X0095795D01*
X0096278D02*
X0096608D01*
X009704D02*
X0097903D01*
X0098297D02*
X0099148D01*
X0099681D02*
X0100164D01*
X0091795Y0082509D02*
X0092468D01*
X0092874D02*
X0093166D01*
X0093585D02*
X0094005D01*
X0094246D02*
X0095236D01*
X0095465D02*
X0095795D01*
X0096278D02*
X0096608D01*
X0097065D02*
X0097903D01*
X0098323D02*
X0099148D01*
X0099694D02*
X0100164D01*
X0091807Y0082522D02*
X0092455D01*
X0092874D02*
X0093166D01*
X0093598D02*
X0094005D01*
X0094246D02*
X0095236D01*
X0095465D02*
X0095795D01*
X0096278D02*
X0096608D01*
X0097103D02*
X0097903D01*
X0098361D02*
X0099148D01*
X0099694D02*
X0100151D01*
X0091833Y0082535D02*
X009243D01*
X0092874D02*
X0093166D01*
X0093598D02*
X0094005D01*
X0094246D02*
X0095236D01*
X0095465D02*
X0095795D01*
X0096278D02*
X0096608D01*
X0097141D02*
X0097903D01*
X0098386D02*
X0099148D01*
X0099694D02*
X0100151D01*
X0091858Y0082547D02*
X0092392D01*
X0092874D02*
X0093166D01*
X0093611D02*
X0094005D01*
X0094246D02*
X0095236D01*
X0095465D02*
X0095795D01*
X0096278D02*
X0096608D01*
X0097179D02*
X0097903D01*
X0098437D02*
X0099148D01*
X0099707D02*
X0100151D01*
X0091896Y008256D02*
X0092366D01*
X0092874D02*
X0093166D01*
X0093611D02*
X0094005D01*
X0094246D02*
X0095236D01*
X0095465D02*
X0095795D01*
X0096278D02*
X0096608D01*
X0097256D02*
X0097903D01*
X00985D02*
X0099148D01*
X0099707D02*
X0100151D01*
X0091934Y0082573D02*
X0092328D01*
X0092874D02*
X0093166D01*
X0093623D02*
X0094005D01*
X0094246D02*
X0095236D01*
X0095465D02*
X0095795D01*
X0096278D02*
X0096608D01*
X0097434D02*
X0097903D01*
X0098678D02*
X0099148D01*
X0099707D02*
X0100139D01*
X0091985Y0082585D02*
X0092277D01*
X0093776Y0082954D02*
X0093992D01*
X0098234D02*
X009845D01*
X0093522Y0082966D02*
X0094157D01*
X0098068D02*
X0098703D01*
X009342Y0082979D02*
X0094258D01*
X0097967D02*
X0098805D01*
X0093344Y0082992D02*
X0094335D01*
X0097891D02*
X0098881D01*
X0093281Y0083005D02*
X0094385D01*
X009784D02*
X0098945D01*
X009323Y0083017D02*
X0094436D01*
X0097789D02*
X0098996D01*
X0093179Y008303D02*
X00945D01*
X0097726D02*
X0099046D01*
X0093128Y0083043D02*
X0094538D01*
X0097688D02*
X0099097D01*
X0093077Y0083055D02*
X0094576D01*
X0097649D02*
X0099148D01*
X0093039Y0083068D02*
X0094614D01*
X0097611D02*
X0099186D01*
X0093001Y0083081D02*
X0094652D01*
X0097573D02*
X0099224D01*
X0092963Y0083093D02*
X009469D01*
X0097535D02*
X0099262D01*
X0092938Y0083106D02*
X0094716D01*
X009751D02*
X0099288D01*
X00929Y0083119D02*
X0094754D01*
X0097472D02*
X0099326D01*
X0092874Y0083132D02*
X0094779D01*
X0097446D02*
X0099351D01*
X0092849Y0083144D02*
X0094817D01*
X0097408D02*
X0099377D01*
X0092811Y0083157D02*
X009483D01*
X0097395D02*
X0099415D01*
X0092785Y008317D02*
X0094868D01*
X0097357D02*
X009944D01*
X009276Y0083182D02*
X0094894D01*
X0097332D02*
X0099465D01*
X0092734Y0083195D02*
X0094919D01*
X0097307D02*
X0099491D01*
X0092709Y0083208D02*
X0094944D01*
X0097281D02*
X0099516D01*
X0092684Y008322D02*
X0094957D01*
X0097268D02*
X0099542D01*
X0092658Y0083233D02*
X0094982D01*
X0097243D02*
X0099567D01*
X0092633Y0083246D02*
X0095008D01*
X0097218D02*
X0099592D01*
X009262Y0083258D02*
X0095021D01*
X0097205D02*
X0099605D01*
X0092595Y0083271D02*
X0095046D01*
X0097179D02*
X0099631D01*
X0092569Y0083284D02*
X0095071D01*
X0097154D02*
X0099656D01*
X0092557Y0083297D02*
X0095084D01*
X0097141D02*
X0099669D01*
X0092531Y0083309D02*
X0095109D01*
X0097116D02*
X0099694D01*
X0092519Y0083322D02*
X0095122D01*
X0097103D02*
X0099707D01*
X0092493Y0083335D02*
X0095147D01*
X0097078D02*
X0099732D01*
X009248Y0083347D02*
X009516D01*
X0097065D02*
X0099745D01*
X0092455Y008336D02*
X0095186D01*
X009704D02*
X009977D01*
X0092442Y0083373D02*
X0095198D01*
X0097027D02*
X0099783D01*
X0092417Y0083385D02*
X0095211D01*
X0097014D02*
X0099808D01*
X0092404Y0083398D02*
X0095236D01*
X0096989D02*
X0099821D01*
X0092392Y0083411D02*
X0095249D01*
X0096976D02*
X0099834D01*
X0092366Y0083424D02*
X0095262D01*
X0096964D02*
X0099859D01*
X0092354Y0083436D02*
X0095287D01*
X0096938D02*
X0099872D01*
X0092341Y0083449D02*
X00953D01*
X0096925D02*
X0099885D01*
X0092328Y0083462D02*
X0095313D01*
X0096913D02*
X0099897D01*
X0092303Y0083474D02*
X0095325D01*
X00969D02*
X0099923D01*
X009229Y0083487D02*
X0095338D01*
X0096887D02*
X0099935D01*
X0092277Y00835D02*
X0095363D01*
X0096862D02*
X0099948D01*
X0092265Y0083512D02*
X0095376D01*
X0096849D02*
X0099961D01*
X0092252Y0083525D02*
X0095389D01*
X0096837D02*
X0099974D01*
X0092239Y0083538D02*
X0095401D01*
X0096824D02*
X0099986D01*
X0092214Y0083551D02*
X0095414D01*
X0096811D02*
X0100012D01*
X0092201Y0083563D02*
X0095427D01*
X0096799D02*
X0100024D01*
X0092188Y0083576D02*
X009544D01*
X0096786D02*
X0100037D01*
X0092176Y0083589D02*
X0095452D01*
X0096773D02*
X010005D01*
X0092163Y0083601D02*
X0095465D01*
X009676D02*
X0100062D01*
X009215Y0083614D02*
X0095478D01*
X0096748D02*
X0100075D01*
X0092138Y0083627D02*
X009549D01*
X0096735D02*
X0100088D01*
X0092125Y008364D02*
X0095503D01*
X0096722D02*
X0100101D01*
X0092112Y0083652D02*
X0095516D01*
X009671D02*
X0100113D01*
X00921Y0083665D02*
X0095529D01*
X0096697D02*
X0100126D01*
X0092087Y0083678D02*
X0095541D01*
X0096684D02*
X0100139D01*
X0092087Y008369D02*
X0095554D01*
X0096672D02*
X0100139D01*
X0092074Y0083703D02*
X0095567D01*
X0096659D02*
X0100151D01*
X0092061Y0083716D02*
X0095579D01*
X0096646D02*
X0100164D01*
X0092049Y0083728D02*
X0093751D01*
X0093979D02*
X0095592D01*
X0096633D02*
X0098246D01*
X0098475D02*
X0100177D01*
X0092036Y0083741D02*
X0093573D01*
X0094106D02*
X0095605D01*
X0096621D02*
X0098119D01*
X0098653D02*
X0100189D01*
X0092023Y0083754D02*
X0093484D01*
X0094182D02*
X0095617D01*
X0096608D02*
X0098043D01*
X0098742D02*
X0100202D01*
X0092011Y0083767D02*
X0093433D01*
X0094246D02*
X009563D01*
X0096595D02*
X0097992D01*
X0098792D02*
X0100215D01*
X0092011Y0083779D02*
X0093382D01*
X0094297D02*
X0095643D01*
X0096583D02*
X0097929D01*
X0098843D02*
X0100215D01*
X0091998Y0083792D02*
X0093331D01*
X0094335D02*
X0095656D01*
X009657D02*
X0097891D01*
X0098894D02*
X0100228D01*
X0091985Y0083805D02*
X0093293D01*
X0094373D02*
X0095656D01*
X009657D02*
X0097853D01*
X0098932D02*
X010024D01*
X0091973Y0083817D02*
X0093255D01*
X0094411D02*
X0095668D01*
X0096557D02*
X0097814D01*
X009897D02*
X0100253D01*
X009196Y008383D02*
X0093217D01*
X0094436D02*
X0095681D01*
X0096545D02*
X0097789D01*
X0099008D02*
X0100266D01*
X009196Y0083843D02*
X0093192D01*
X0094462D02*
X0095694D01*
X0096532D02*
X0097764D01*
X0099034D02*
X0100266D01*
X0091947Y0083855D02*
X0093154D01*
X00945D02*
X0095706D01*
X0096519D02*
X0097726D01*
X0099072D02*
X0100278D01*
X0091934Y0083868D02*
X0093128D01*
X0094525D02*
X0095719D01*
X0096506D02*
X00977D01*
X0099097D02*
X0100291D01*
X0091922Y0083881D02*
X0093103D01*
X0094551D02*
X0095732D01*
X0096494D02*
X0097675D01*
X0099123D02*
X0100304D01*
X0091922Y0083894D02*
X0093077D01*
X0094576D02*
X0095732D01*
X0096494D02*
X0097662D01*
X0099148D02*
X0100304D01*
X0091909Y0083906D02*
X0093052D01*
X0094589D02*
X0095744D01*
X0096481D02*
X0097637D01*
X0099173D02*
X0100316D01*
X0091896Y0083919D02*
X0093027D01*
X0094614D02*
X0095757D01*
X0096468D02*
X0097611D01*
X0099199D02*
X0100329D01*
X0091896Y0083932D02*
X0093001D01*
X009464D02*
X009577D01*
X0096456D02*
X0097586D01*
X0099224D02*
X0100329D01*
X0091884Y0083944D02*
X0092989D01*
X0094652D02*
X0095783D01*
X0096443D02*
X0097573D01*
X0099237D02*
X0100342D01*
X0091871Y0083957D02*
X0092963D01*
X0094678D02*
X0095783D01*
X0096443D02*
X0097548D01*
X0099262D02*
X0100354D01*
X0091871Y008397D02*
X0092938D01*
X009469D02*
X0095795D01*
X009643D02*
X0097535D01*
X0099275D02*
X0100354D01*
X0091858Y0083982D02*
X0092925D01*
X0094716D02*
X0095808D01*
X0096418D02*
X009751D01*
X00993D02*
X0100367D01*
X0091845Y0083995D02*
X0092912D01*
X0094728D02*
X0095821D01*
X0096405D02*
X0097497D01*
X0099313D02*
X010038D01*
X0091845Y0084008D02*
X0092887D01*
X0094754D02*
X0095833D01*
X0096392D02*
X0097484D01*
X0099339D02*
X010038D01*
X0091833Y0084021D02*
X0092874D01*
X0094767D02*
X0095833D01*
X0096392D02*
X0097459D01*
X0099351D02*
X0100393D01*
X0091833Y0084033D02*
X0092849D01*
X0094779D02*
X0095846D01*
X0096379D02*
X0097446D01*
X0099377D02*
X0100393D01*
X009182Y0084046D02*
X0092836D01*
X0094792D02*
X0095859D01*
X0096367D02*
X0097434D01*
X0099389D02*
X0100405D01*
X0091807Y0084059D02*
X0092823D01*
X0094817D02*
X0095871D01*
X0096354D02*
X0097408D01*
X0099402D02*
X0100418D01*
X0091807Y0084071D02*
X0092811D01*
X009483D02*
X0095871D01*
X0096354D02*
X0097395D01*
X0099415D02*
X0100418D01*
X0091795Y0084084D02*
X0092798D01*
X0094843D02*
X0095884D01*
X0096341D02*
X0097383D01*
X009944D02*
X0100431D01*
X0091795Y0084097D02*
X0092773D01*
X0094855D02*
X0095897D01*
X0096329D02*
X009737D01*
X0099453D02*
X0100431D01*
X0091782Y0084109D02*
X009276D01*
X0094868D02*
X0095897D01*
X0096329D02*
X0097357D01*
X0099465D02*
X0100443D01*
X0091782Y0084122D02*
X0092747D01*
X0094881D02*
X009591D01*
X0096316D02*
X0097345D01*
X0099478D02*
X0100443D01*
X0091769Y0084135D02*
X0092734D01*
X0094894D02*
X0095922D01*
X0096303D02*
X0097319D01*
X0099491D02*
X0100456D01*
X0091769Y0084147D02*
X0092722D01*
X0094919D02*
X0095935D01*
X009629D02*
X0097307D01*
X0099504D02*
X0100456D01*
X0091757Y008416D02*
X0092709D01*
X0094932D02*
X0095935D01*
X009629D02*
X0097294D01*
X0099516D02*
X0100469D01*
X0091744Y0084173D02*
X0092696D01*
X0094944D02*
X0095948D01*
X0096278D02*
X0097281D01*
X0099529D02*
X0100481D01*
X0091744Y0084186D02*
X0092684D01*
X0094957D02*
X009596D01*
X0096265D02*
X0097268D01*
X0099542D02*
X0100481D01*
X0091744Y0084198D02*
X0092671D01*
X009497D02*
X0095973D01*
X0096252D02*
X0097256D01*
X0099554D02*
X0100481D01*
X0091731Y0084211D02*
X0092658D01*
X0094982D02*
X0095973D01*
X0096252D02*
X0097243D01*
X0099567D02*
X0100494D01*
X0091731Y0084224D02*
X0092646D01*
X0094995D02*
X0095986D01*
X009624D02*
X009723D01*
X009958D02*
X0100494D01*
X0091718Y0084236D02*
X0092633D01*
X0095008D02*
X0095998D01*
X0096227D02*
X0097218D01*
X0099592D02*
X0100507D01*
X0091718Y0084249D02*
X009262D01*
X0095008D02*
X0095998D01*
X0096227D02*
X0097218D01*
X0099592D02*
X0100507D01*
X0091706Y0084262D02*
X009262D01*
X0095021D02*
X0096011D01*
X0096214D02*
X0097205D01*
X0099605D02*
X010052D01*
X0091706Y0084274D02*
X0092607D01*
X0095033D02*
X0096024D01*
X0096202D02*
X0097192D01*
X0099618D02*
X010052D01*
X0091693Y0084287D02*
X0092595D01*
X0095046D02*
X0096024D01*
X0096202D02*
X0097179D01*
X0099631D02*
X0100532D01*
X0091693Y00843D02*
X0092582D01*
X0095059D02*
X0096036D01*
X0096189D02*
X0097167D01*
X0099643D02*
X0100532D01*
X0091693Y0084313D02*
X0092582D01*
X0095071D02*
X0096049D01*
X0096176D02*
X0097154D01*
X0099643D02*
X0100532D01*
X009168Y0084325D02*
X0092569D01*
X0095084D02*
X0096049D01*
X0096176D02*
X0097141D01*
X0099656D02*
X0100545D01*
X009168Y0084338D02*
X0092557D01*
X0095097D02*
X0096062D01*
X0096163D02*
X0097129D01*
X0099669D02*
X0100545D01*
X0091668Y0084351D02*
X0092544D01*
X0095109D02*
X0096075D01*
X0096151D02*
X0097116D01*
X0099681D02*
X0100558D01*
X0091668Y0084363D02*
X0092544D01*
X0095109D02*
X0096075D01*
X0096151D02*
X0097116D01*
X0099681D02*
X0100558D01*
X0091668Y0084376D02*
X0092531D01*
X0095122D02*
X0096087D01*
X0096138D02*
X0097103D01*
X0099694D02*
X010057D01*
X0091655Y0084389D02*
X0092519D01*
X0095135D02*
X00961D01*
X0096125D02*
X0097091D01*
X0099707D02*
X010057D01*
X0091655Y0084401D02*
X0092519D01*
X0095147D02*
X00961D01*
X0096125D02*
X0097078D01*
X0099707D02*
X010057D01*
X0091642Y0084414D02*
X0092506D01*
X009516D02*
X0097065D01*
X0099719D02*
X0100583D01*
X0091642Y0084427D02*
X0092493D01*
X0095173D02*
X0097052D01*
X0099732D02*
X0100583D01*
X0091642Y008444D02*
X0092493D01*
X0095173D02*
X0097052D01*
X0099732D02*
X0100583D01*
X009163Y0084452D02*
X009248D01*
X0095186D02*
X009704D01*
X0099745D02*
X0100596D01*
X009163Y0084465D02*
X009248D01*
X0095198D02*
X0097027D01*
X0099745D02*
X0100596D01*
X009163Y0084478D02*
X0092468D01*
X0095211D02*
X0097014D01*
X0099758D02*
X0100596D01*
X0091617Y008449D02*
X0092468D01*
X0095211D02*
X0097014D01*
X0099758D02*
X0100608D01*
X0091617Y0084503D02*
X0092455D01*
X0095224D02*
X0097002D01*
X009977D02*
X0100608D01*
X0091617Y0084516D02*
X0092455D01*
X0095236D02*
X0096989D01*
X0099783D02*
X0100608D01*
X0091617Y0084529D02*
X0092442D01*
X0095249D02*
X0096976D01*
X0099783D02*
X0100608D01*
X0091604Y0084541D02*
X0092442D01*
X0095249D02*
X0096976D01*
X0099783D02*
X0100621D01*
X0091604Y0084554D02*
X009243D01*
X0093662D02*
X0094093D01*
X0095262D02*
X0096964D01*
X0099796D02*
X0100621D01*
X0091604Y0084567D02*
X009243D01*
X0093662D02*
X0094093D01*
X0095274D02*
X0096951D01*
X0099796D02*
X0100621D01*
X0091591Y0084579D02*
X0092417D01*
X0093662D02*
X0094093D01*
X0095287D02*
X0096938D01*
X0099808D02*
X0100634D01*
X0091591Y0084592D02*
X0092417D01*
X0093662D02*
X0094093D01*
X0095287D02*
X0096938D01*
X0099808D02*
X0100634D01*
X0091591Y0084605D02*
X0092404D01*
X0093662D02*
X0094093D01*
X00953D02*
X0096925D01*
X0099821D02*
X0100634D01*
X0091591Y0084617D02*
X0092404D01*
X0093662D02*
X0094093D01*
X0095313D02*
X0096913D01*
X0099821D02*
X0100634D01*
X0091579Y008463D02*
X0092392D01*
X0093662D02*
X0094093D01*
X0095325D02*
X00969D01*
X0099834D02*
X0100647D01*
X0091579Y0084643D02*
X0092392D01*
X0093662D02*
X0094093D01*
X0095325D02*
X00969D01*
X0099834D02*
X0100647D01*
X0091579Y0084656D02*
X0092392D01*
X0093662D02*
X0094093D01*
X0095338D02*
X0096887D01*
X0099834D02*
X0100647D01*
X0091579Y0084668D02*
X0092379D01*
X0093662D02*
X0094093D01*
X0095351D02*
X0096875D01*
X0099846D02*
X0100647D01*
X0091579Y0084681D02*
X0092379D01*
X0093662D02*
X0094093D01*
X0095351D02*
X0096875D01*
X0099846D02*
X0100647D01*
X0091566Y0084694D02*
X0092379D01*
X0093662D02*
X0094093D01*
X0095363D02*
X0096862D01*
X0099846D02*
X0100659D01*
X0091566Y0084706D02*
X0092366D01*
X0093662D02*
X0094093D01*
X0095376D02*
X0096849D01*
X0099859D02*
X0100659D01*
X0091566Y0084719D02*
X0092366D01*
X0093662D02*
X0094093D01*
X0095376D02*
X0096849D01*
X0099859D02*
X0100659D01*
X0091566Y0084732D02*
X0092366D01*
X0093662D02*
X0094093D01*
X0095389D02*
X0096837D01*
X0099859D02*
X0100659D01*
X0091566Y0084744D02*
X0092354D01*
X0093662D02*
X0094093D01*
X0095401D02*
X0096824D01*
X0099872D02*
X0100659D01*
X0091553Y0084757D02*
X0092354D01*
X0093662D02*
X0094093D01*
X0095401D02*
X0096824D01*
X0099872D02*
X0100672D01*
X0091553Y008477D02*
X0092354D01*
X0093662D02*
X0094093D01*
X0095414D02*
X0096811D01*
X0099872D02*
X0100672D01*
X0091553Y0084783D02*
X0092341D01*
X0093662D02*
X0094093D01*
X0095427D02*
X0096799D01*
X0099885D02*
X0100672D01*
X0091553Y0084795D02*
X0092341D01*
X0093662D02*
X0094093D01*
X0095427D02*
X0096799D01*
X0099885D02*
X0100672D01*
X0091553Y0084808D02*
X0092341D01*
X0093662D02*
X0094093D01*
X009544D02*
X0096786D01*
X0099885D02*
X0100672D01*
X0091553Y0084821D02*
X0092341D01*
X0093662D02*
X0094093D01*
X0095452D02*
X0096773D01*
X0099885D02*
X0100672D01*
X0091541Y0084833D02*
X0092328D01*
X0093662D02*
X0094093D01*
X0095452D02*
X0096773D01*
X0099897D02*
X0100672D01*
X0091541Y0084846D02*
X0092328D01*
X0093662D02*
X0094093D01*
X0095465D02*
X009676D01*
X0099897D02*
X0100672D01*
X0091541Y0084859D02*
X0092328D01*
X0093662D02*
X0094093D01*
X0095478D02*
X0096748D01*
X0099897D02*
X0100672D01*
X0091541Y0084871D02*
X0092328D01*
X0093662D02*
X0094093D01*
X0095478D02*
X0096748D01*
X0099897D02*
X0100672D01*
X0091541Y0084884D02*
X0092328D01*
X0093662D02*
X0094093D01*
X009549D02*
X0096735D01*
X0099897D02*
X0100672D01*
X0091541Y0084897D02*
X0092328D01*
X0093662D02*
X0094093D01*
X0095503D02*
X0096722D01*
X009991D02*
X0100672D01*
X0091541Y008491D02*
X0092315D01*
X0093662D02*
X0094093D01*
X0095503D02*
X0096722D01*
X009991D02*
X0100672D01*
X0091541Y0084922D02*
X0092315D01*
X0093662D02*
X0094093D01*
X0095516D02*
X009671D01*
X009991D02*
X0100672D01*
X0091541Y0084935D02*
X0092315D01*
X0093662D02*
X0094093D01*
X0095529D02*
X009671D01*
X009991D02*
X0100672D01*
X0091541Y0084948D02*
X0092315D01*
X0093662D02*
X0094093D01*
X0095529D02*
X0096697D01*
X009991D02*
X0100672D01*
X0091528Y008496D02*
X0092315D01*
X0093662D02*
X0094093D01*
X0095541D02*
X0096684D01*
X009991D02*
X0100672D01*
X0091528Y0084973D02*
X0092315D01*
X0093243D02*
X0094512D01*
X0095541D02*
X0096684D01*
X009991D02*
X0100672D01*
X0091528Y0084986D02*
X0092315D01*
X0093243D02*
X0094512D01*
X0095554D02*
X0096672D01*
X009991D02*
X0100672D01*
X0091528Y0084998D02*
X0092303D01*
X0093243D02*
X0094512D01*
X0095567D02*
X0096659D01*
X0099923D02*
X0100672D01*
X0091528Y0085011D02*
X0092303D01*
X0093243D02*
X0094512D01*
X0095567D02*
X0096659D01*
X0097637D02*
X0099173D01*
X0099923D02*
X0100672D01*
X0091528Y0085024D02*
X0092303D01*
X0093243D02*
X0094512D01*
X0095579D02*
X0096646D01*
X0097637D02*
X0099173D01*
X0099923D02*
X0100672D01*
X0091528Y0085036D02*
X0092303D01*
X0093243D02*
X0094512D01*
X0095592D02*
X0096633D01*
X0097637D02*
X0099173D01*
X0099923D02*
X0100672D01*
X0091528Y0085049D02*
X0092303D01*
X0093243D02*
X0094512D01*
X0095592D02*
X0096633D01*
X0097637D02*
X0099173D01*
X0099923D02*
X0100672D01*
X0091528Y0085062D02*
X0092303D01*
X0093243D02*
X0094512D01*
X0095605D02*
X0096621D01*
X0097637D02*
X0099173D01*
X0099923D02*
X0100672D01*
X0091528Y0085075D02*
X0092303D01*
X0093243D02*
X0094512D01*
X0095605D02*
X0096621D01*
X0097637D02*
X0099173D01*
X0099923D02*
X0100672D01*
X0091528Y0085087D02*
X0092303D01*
X0093243D02*
X0094512D01*
X0095617D02*
X0096608D01*
X0097637D02*
X0099173D01*
X0099923D02*
X0100672D01*
X0091528Y00851D02*
X0092303D01*
X0093243D02*
X0094512D01*
X009563D02*
X0096595D01*
X0097637D02*
X0099173D01*
X0099923D02*
X0100672D01*
X0091528Y0085113D02*
X0092303D01*
X0093243D02*
X0094512D01*
X009563D02*
X0096595D01*
X0097637D02*
X0099173D01*
X0099923D02*
X0100672D01*
X0091528Y0085125D02*
X0092303D01*
X0093243D02*
X0094512D01*
X0095643D02*
X0096583D01*
X0097637D02*
X0099173D01*
X0099923D02*
X0100672D01*
X0091528Y0085138D02*
X0092303D01*
X0093243D02*
X0094512D01*
X0095643D02*
X0096583D01*
X0097637D02*
X0099173D01*
X0099923D02*
X0100672D01*
X0091528Y0085151D02*
X0092303D01*
X0093243D02*
X0094512D01*
X0095656D02*
X009657D01*
X0097637D02*
X0099173D01*
X0099923D02*
X0100672D01*
X0091528Y0085163D02*
X0092303D01*
X0093243D02*
X0094512D01*
X0095643D02*
X0096583D01*
X0097637D02*
X0099173D01*
X0099923D02*
X0100672D01*
X0091528Y0085176D02*
X0092303D01*
X0093243D02*
X0094512D01*
X0095643D02*
X0096583D01*
X0097637D02*
X0099173D01*
X0099923D02*
X0100672D01*
X0091528Y0085189D02*
X0092303D01*
X0093243D02*
X0094512D01*
X009563D02*
X0096595D01*
X0097637D02*
X0099173D01*
X0099923D02*
X0100672D01*
X0091528Y0085202D02*
X0092303D01*
X0093243D02*
X0094512D01*
X0095617D02*
X0096608D01*
X0097637D02*
X0099173D01*
X0099923D02*
X0100672D01*
X0091528Y0085214D02*
X0092303D01*
X0093243D02*
X0094512D01*
X0095617D02*
X0096608D01*
X0097637D02*
X0099173D01*
X0099923D02*
X0100672D01*
X0091528Y0085227D02*
X0092303D01*
X0093243D02*
X0094512D01*
X0095605D02*
X0096621D01*
X0097637D02*
X0099173D01*
X0099923D02*
X0100672D01*
X0091528Y008524D02*
X0092303D01*
X0093243D02*
X0094512D01*
X0095592D02*
X0096633D01*
X0097637D02*
X0099173D01*
X0099923D02*
X0100672D01*
X0091528Y0085252D02*
X0092315D01*
X0093243D02*
X0094512D01*
X0095592D02*
X0096633D01*
X0097637D02*
X0099173D01*
X009991D02*
X0100672D01*
X0091528Y0085265D02*
X0092315D01*
X0093243D02*
X0094512D01*
X0095579D02*
X0096646D01*
X0097637D02*
X0099173D01*
X009991D02*
X0100672D01*
X0091528Y0085278D02*
X0092315D01*
X0093243D02*
X0094512D01*
X0095567D02*
X0096659D01*
X0097637D02*
X0099173D01*
X009991D02*
X0100672D01*
X0091541Y008529D02*
X0092315D01*
X0093243D02*
X0094512D01*
X0095567D02*
X0096659D01*
X0097637D02*
X0099173D01*
X009991D02*
X0100672D01*
X0091541Y0085303D02*
X0092315D01*
X0093243D02*
X0094512D01*
X0095554D02*
X0096672D01*
X0097637D02*
X0099173D01*
X009991D02*
X0100672D01*
X0091541Y0085316D02*
X0092315D01*
X0093243D02*
X0094512D01*
X0095541D02*
X0096684D01*
X0097637D02*
X0099173D01*
X009991D02*
X0100672D01*
X0091541Y0085329D02*
X0092315D01*
X0093243D02*
X0094512D01*
X0095541D02*
X0096684D01*
X0097637D02*
X0099173D01*
X009991D02*
X0100672D01*
X0091541Y0085341D02*
X0092328D01*
X0093243D02*
X0094512D01*
X0095529D02*
X0096697D01*
X0097637D02*
X0099173D01*
X009991D02*
X0100672D01*
X0091541Y0085354D02*
X0092328D01*
X0093243D02*
X0094512D01*
X0095516D02*
X009671D01*
X0099897D02*
X0100672D01*
X0091541Y0085367D02*
X0092328D01*
X0093243D02*
X0094512D01*
X0095516D02*
X009671D01*
X0099897D02*
X0100672D01*
X0091541Y0085379D02*
X0092328D01*
X0093243D02*
X0094512D01*
X0095503D02*
X0096722D01*
X0099897D02*
X0100672D01*
X0091541Y0085392D02*
X0092328D01*
X0093243D02*
X0094512D01*
X009549D02*
X0096735D01*
X0099897D02*
X0100672D01*
X0091541Y0085405D02*
X0092328D01*
X0093662D02*
X0094093D01*
X009549D02*
X0096735D01*
X0099897D02*
X0100672D01*
X0091553Y0085418D02*
X0092341D01*
X0093662D02*
X0094093D01*
X0095478D02*
X0096748D01*
X0099885D02*
X0100672D01*
X0091553Y008543D02*
X0092341D01*
X0093662D02*
X0094093D01*
X0095465D02*
X009676D01*
X0099885D02*
X0100672D01*
X0091553Y0085443D02*
X0092341D01*
X0093662D02*
X0094093D01*
X0095465D02*
X009676D01*
X0099885D02*
X0100672D01*
X0091553Y0085456D02*
X0092341D01*
X0093662D02*
X0094093D01*
X0095452D02*
X0096773D01*
X0099885D02*
X0100672D01*
X0091553Y0085468D02*
X0092354D01*
X0093662D02*
X0094093D01*
X009544D02*
X0096786D01*
X0099872D02*
X0100672D01*
X0091553Y0085481D02*
X0092354D01*
X0093662D02*
X0094093D01*
X009544D02*
X0096786D01*
X0099872D02*
X0100672D01*
X0091566Y0085494D02*
X0092354D01*
X0093662D02*
X0094093D01*
X0095427D02*
X0096799D01*
X0099872D02*
X0100659D01*
X0091566Y0085506D02*
X0092366D01*
X0093662D02*
X0094093D01*
X0095414D02*
X0096811D01*
X0099859D02*
X0100659D01*
X0091566Y0085519D02*
X0092366D01*
X0093662D02*
X0094093D01*
X0095414D02*
X0096811D01*
X0099859D02*
X0100659D01*
X0091566Y0085532D02*
X0092366D01*
X0093662D02*
X0094093D01*
X0095401D02*
X0096824D01*
X0099859D02*
X0100659D01*
X0091566Y0085545D02*
X0092379D01*
X0093662D02*
X0094093D01*
X0095389D02*
X0096837D01*
X0099846D02*
X0100659D01*
X0091579Y0085557D02*
X0092379D01*
X0093662D02*
X0094093D01*
X0095376D02*
X0096849D01*
X0099846D02*
X0100647D01*
X0091579Y008557D02*
X0092379D01*
X0093662D02*
X0094093D01*
X0095376D02*
X0096849D01*
X0099846D02*
X0100647D01*
X0091579Y0085583D02*
X0092392D01*
X0093662D02*
X0094093D01*
X0095363D02*
X0096862D01*
X0099834D02*
X0100647D01*
X0091579Y0085595D02*
X0092392D01*
X0093662D02*
X0094093D01*
X0095351D02*
X0096875D01*
X0099834D02*
X0100647D01*
X0091579Y0085608D02*
X0092392D01*
X0093662D02*
X0094093D01*
X0095338D02*
X0096887D01*
X0099834D02*
X0100647D01*
X0091591Y0085621D02*
X0092404D01*
X0093662D02*
X0094093D01*
X0095338D02*
X0096887D01*
X0099821D02*
X0100634D01*
X0091591Y0085633D02*
X0092404D01*
X0093662D02*
X0094093D01*
X0095325D02*
X00969D01*
X0099821D02*
X0100634D01*
X0091591Y0085646D02*
X0092417D01*
X0093662D02*
X0094093D01*
X0095313D02*
X0096913D01*
X0099808D02*
X0100634D01*
X0091591Y0085659D02*
X0092417D01*
X0093662D02*
X0094093D01*
X00953D02*
X0096925D01*
X0099808D02*
X0100634D01*
X0091604Y0085672D02*
X009243D01*
X0093662D02*
X0094093D01*
X00953D02*
X0096925D01*
X0099796D02*
X0100621D01*
X0091604Y0085684D02*
X009243D01*
X0093662D02*
X0094093D01*
X0095287D02*
X0096938D01*
X0099796D02*
X0100621D01*
X0091604Y0085697D02*
X009243D01*
X0093662D02*
X0094093D01*
X0095274D02*
X0096951D01*
X0099796D02*
X0100621D01*
X0091617Y008571D02*
X0092442D01*
X0093662D02*
X0094093D01*
X0095262D02*
X0096964D01*
X0099783D02*
X0100608D01*
X0091617Y0085722D02*
X0092455D01*
X0093662D02*
X0094093D01*
X0095249D02*
X0096976D01*
X0099783D02*
X0100608D01*
X0091617Y0085735D02*
X0092455D01*
X0093662D02*
X0094093D01*
X0095249D02*
X0096976D01*
X009977D02*
X0100608D01*
X0091617Y0085748D02*
X0092468D01*
X0093662D02*
X0094093D01*
X0095236D02*
X0096989D01*
X0099758D02*
X0100608D01*
X009163Y008576D02*
X0092468D01*
X0093662D02*
X0094093D01*
X0095224D02*
X0097002D01*
X0099758D02*
X0100596D01*
X009163Y0085773D02*
X009248D01*
X0093662D02*
X0094093D01*
X0095211D02*
X0097014D01*
X0099745D02*
X0100596D01*
X009163Y0085786D02*
X009248D01*
X0093662D02*
X0094093D01*
X0095198D02*
X0097027D01*
X0099745D02*
X0100596D01*
X0091642Y0085799D02*
X0092493D01*
X0093662D02*
X0094093D01*
X0095198D02*
X0097027D01*
X0099732D02*
X0100583D01*
X0091642Y0085811D02*
X0092493D01*
X0093662D02*
X0094093D01*
X0095186D02*
X009704D01*
X0099732D02*
X0100583D01*
X0091642Y0085824D02*
X0092506D01*
X0095173D02*
X0097052D01*
X0099719D02*
X0100583D01*
X0091655Y0085837D02*
X0092519D01*
X009516D02*
X0097065D01*
X0099707D02*
X010057D01*
X0091655Y0085849D02*
X0092519D01*
X0095147D02*
X0097078D01*
X0099707D02*
X010057D01*
X0091668Y0085862D02*
X0092531D01*
X0095135D02*
X0097091D01*
X0099694D02*
X010057D01*
X0091668Y0085875D02*
X0092544D01*
X0095122D02*
X0097103D01*
X0099681D02*
X0100558D01*
X0091668Y0085887D02*
X0092544D01*
X0095109D02*
X00961D01*
X0096125D02*
X0097116D01*
X0099681D02*
X0100558D01*
X009168Y00859D02*
X0092557D01*
X0095097D02*
X0096087D01*
X0096138D02*
X0097129D01*
X0099669D02*
X0100545D01*
X009168Y0085913D02*
X0092569D01*
X0095097D02*
X0096087D01*
X0096138D02*
X0097129D01*
X0099656D02*
X0100545D01*
X0091693Y0085925D02*
X0092582D01*
X0095084D02*
X0096075D01*
X0096151D02*
X0097141D01*
X0099656D02*
X0100545D01*
X0091693Y0085938D02*
X0092582D01*
X0095071D02*
X0096062D01*
X0096163D02*
X0097154D01*
X0099643D02*
X0100532D01*
X0091693Y0085951D02*
X0092595D01*
X0095059D02*
X0096062D01*
X0096163D02*
X0097167D01*
X0099631D02*
X0100532D01*
X0091706Y0085964D02*
X0092607D01*
X0095046D02*
X0096049D01*
X0096176D02*
X0097179D01*
X0099618D02*
X010052D01*
X0091706Y0085976D02*
X009262D01*
X0095033D02*
X0096036D01*
X0096189D02*
X0097192D01*
X0099605D02*
X010052D01*
X0091718Y0085989D02*
X009262D01*
X0095021D02*
X0096024D01*
X0096202D02*
X0097205D01*
X0099605D02*
X0100507D01*
X0091718Y0086002D02*
X0092633D01*
X0095008D02*
X0096024D01*
X0096202D02*
X0097218D01*
X0099592D02*
X0100507D01*
X0091731Y0086014D02*
X0092646D01*
X0094995D02*
X0096011D01*
X0096214D02*
X009723D01*
X009958D02*
X0100494D01*
X0091731Y0086027D02*
X0092658D01*
X0094982D02*
X0095998D01*
X0096227D02*
X0097243D01*
X0099567D02*
X0100494D01*
X0091744Y008604D02*
X0092671D01*
X0094957D02*
X0095986D01*
X009624D02*
X0097268D01*
X0099554D02*
X0100481D01*
X0091744Y0086052D02*
X0092684D01*
X0094944D02*
X0095986D01*
X009624D02*
X0097281D01*
X0099542D02*
X0100481D01*
X0091744Y0086065D02*
X0092696D01*
X0094932D02*
X0095973D01*
X0096252D02*
X0097294D01*
X0099529D02*
X0100481D01*
X0091757Y0086078D02*
X0092709D01*
X0094919D02*
X009596D01*
X0096265D02*
X0097307D01*
X0099516D02*
X0100469D01*
X0091769Y0086091D02*
X0092722D01*
X0094906D02*
X009596D01*
X0096265D02*
X0097319D01*
X0099504D02*
X0100469D01*
X0091769Y0086103D02*
X0092734D01*
X0094894D02*
X0095948D01*
X0096278D02*
X0097332D01*
X0099491D02*
X0100456D01*
X0091782Y0086116D02*
X0092747D01*
X0094881D02*
X0095935D01*
X009629D02*
X0097345D01*
X0099478D02*
X0100443D01*
X0091782Y0086129D02*
X009276D01*
X0094855D02*
X0095922D01*
X0096303D02*
X009737D01*
X0099465D02*
X0100443D01*
X0091795Y0086141D02*
X0092773D01*
X0094843D02*
X0095922D01*
X0096303D02*
X0097383D01*
X0099453D02*
X0100431D01*
X0091795Y0086154D02*
X0092785D01*
X009483D02*
X009591D01*
X0096316D02*
X0097395D01*
X009944D02*
X0100431D01*
X0091807Y0086167D02*
X0092811D01*
X0094817D02*
X0095897D01*
X0096329D02*
X0097408D01*
X0099415D02*
X0100418D01*
X0091807Y0086179D02*
X0092823D01*
X0094792D02*
X0095884D01*
X0096341D02*
X0097434D01*
X0099402D02*
X0100418D01*
X009182Y0086192D02*
X0092836D01*
X0094779D02*
X0095871D01*
X0096354D02*
X0097446D01*
X0099389D02*
X0100405D01*
X0091833Y0086205D02*
X0092849D01*
X0094754D02*
X0095871D01*
X0096354D02*
X0097472D01*
X0099377D02*
X0100393D01*
X0091833Y0086218D02*
X0092874D01*
X0094741D02*
X0095859D01*
X0096367D02*
X0097484D01*
X0099351D02*
X0100393D01*
X0091845Y008623D02*
X0092887D01*
X0094728D02*
X0095846D01*
X0096379D02*
X0097497D01*
X0099339D02*
X010038D01*
X0091845Y0086243D02*
X0092912D01*
X0094703D02*
X0095833D01*
X0096392D02*
X0097522D01*
X0099313D02*
X010038D01*
X0091858Y0086256D02*
X0092925D01*
X0094678D02*
X0095821D01*
X0096405D02*
X0097548D01*
X00993D02*
X0100367D01*
X0091871Y0086268D02*
X0092938D01*
X0094665D02*
X0095821D01*
X0096418D02*
X0097561D01*
X0099275D02*
X0100354D01*
X0091871Y0086281D02*
X0092963D01*
X009464D02*
X0095808D01*
X0096418D02*
X0097586D01*
X0099262D02*
X0100354D01*
X0091884Y0086294D02*
X0092989D01*
X0094614D02*
X0095795D01*
X009643D02*
X0097611D01*
X0099237D02*
X0100342D01*
X0091896Y0086307D02*
X0093001D01*
X0094601D02*
X0095783D01*
X0096443D02*
X0097624D01*
X0099224D02*
X0100329D01*
X0091896Y0086319D02*
X0093027D01*
X0094576D02*
X009577D01*
X0096456D02*
X0097649D01*
X0099199D02*
X0100329D01*
X0091909Y0086332D02*
X0093052D01*
X0094551D02*
X0095757D01*
X0096468D02*
X0097675D01*
X0099173D02*
X0100316D01*
X0091922Y0086345D02*
X0093077D01*
X0094525D02*
X0095744D01*
X0096481D02*
X00977D01*
X0099148D02*
X0100304D01*
X0091922Y0086357D02*
X0093103D01*
X00945D02*
X0095744D01*
X0096481D02*
X0097726D01*
X0099123D02*
X0100304D01*
X0091934Y008637D02*
X0093128D01*
X0094474D02*
X0095732D01*
X0096494D02*
X0097751D01*
X0099097D02*
X0100291D01*
X0091947Y0086383D02*
X0093154D01*
X0094436D02*
X0095719D01*
X0096506D02*
X0097789D01*
X0099072D02*
X0100278D01*
X009196Y0086395D02*
X0093192D01*
X0094411D02*
X0095706D01*
X0096519D02*
X0097814D01*
X0099034D02*
X0100266D01*
X009196Y0086408D02*
X0093217D01*
X0094373D02*
X0095694D01*
X0096532D02*
X0097853D01*
X0099008D02*
X0100266D01*
X0091973Y0086421D02*
X0093255D01*
X0094335D02*
X0095681D01*
X0096545D02*
X0097891D01*
X009897D02*
X0100253D01*
X0091985Y0086434D02*
X0093293D01*
X0094297D02*
X0095668D01*
X0096557D02*
X0097929D01*
X0098932D02*
X010024D01*
X0091998Y0086446D02*
X0093331D01*
X0094258D02*
X0095656D01*
X009657D02*
X009798D01*
X0098894D02*
X0100228D01*
X0092011Y0086459D02*
X0093382D01*
X0094208D02*
X0095643D01*
X0096583D02*
X0098018D01*
X0098843D02*
X0100215D01*
X0092011Y0086472D02*
X0093433D01*
X0094144D02*
X009563D01*
X0096595D02*
X0098081D01*
X0098805D02*
X0100215D01*
X0092023Y0086484D02*
X0093484D01*
X0094081D02*
X0095617D01*
X0096608D02*
X0098145D01*
X0098742D02*
X0100202D01*
X0092036Y0086497D02*
X0093573D01*
X0093992D02*
X0095605D01*
X0096621D02*
X0098234D01*
X0098653D02*
X0100189D01*
X0092049Y008651D02*
X0093751D01*
X0093789D02*
X0095592D01*
X0096633D02*
X0098437D01*
X0098475D02*
X0100177D01*
X0092061Y0086522D02*
X0095579D01*
X0096646D02*
X0100164D01*
X0092074Y0086535D02*
X0095567D01*
X0096659D02*
X0100151D01*
X0092087Y0086548D02*
X0095554D01*
X0096672D02*
X0100139D01*
X0092087Y0086561D02*
X0095541D01*
X0096684D02*
X0100139D01*
X00921Y0086573D02*
X0095529D01*
X0096697D02*
X0100126D01*
X0092112Y0086586D02*
X0095516D01*
X009671D02*
X0100113D01*
X0092125Y0086599D02*
X0095503D01*
X0096722D02*
X0100101D01*
X0092138Y0086611D02*
X009549D01*
X0096735D02*
X0100088D01*
X009215Y0086624D02*
X0095478D01*
X0096748D02*
X0100075D01*
X0092163Y0086637D02*
X0095465D01*
X009676D02*
X0100062D01*
X0092176Y0086649D02*
X0095452D01*
X0096773D02*
X010005D01*
X0092188Y0086662D02*
X009544D01*
X0096786D02*
X0100037D01*
X0092201Y0086675D02*
X0095427D01*
X0096811D02*
X0100024D01*
X0092214Y0086688D02*
X0095401D01*
X0096824D02*
X0100012D01*
X0092239Y00867D02*
X0095389D01*
X0096837D02*
X0099986D01*
X0092252Y0086713D02*
X0095376D01*
X0096849D02*
X0099974D01*
X0092265Y0086726D02*
X0095363D01*
X0096862D02*
X0099961D01*
X0092277Y0086738D02*
X0095351D01*
X0096875D02*
X0099948D01*
X009229Y0086751D02*
X0095325D01*
X00969D02*
X0099935D01*
X0092303Y0086764D02*
X0095313D01*
X0096913D02*
X0099923D01*
X0092315Y0086776D02*
X00953D01*
X0096925D02*
X009991D01*
X0092341Y0086789D02*
X0095274D01*
X0096951D02*
X0099885D01*
X0092354Y0086802D02*
X0095262D01*
X0096964D02*
X0099872D01*
X0092366Y0086814D02*
X0095249D01*
X0096976D02*
X0099859D01*
X0092392Y0086827D02*
X0095224D01*
X0097002D02*
X0099834D01*
X0092404Y008684D02*
X0095211D01*
X0097014D02*
X0099821D01*
X0092417Y0086853D02*
X0095186D01*
X009704D02*
X0099808D01*
X0092442Y0086865D02*
X0095173D01*
X0097052D02*
X0099783D01*
X0092455Y0086878D02*
X009516D01*
X0097065D02*
X009977D01*
X009248Y0086891D02*
X0095135D01*
X0097091D02*
X0099745D01*
X009168Y0086903D02*
X0091744D01*
X0091769D02*
X009182D01*
X0091845D02*
X0091909D01*
X0091973D02*
X0092023D01*
X0092493D02*
X0095109D01*
X0097116D02*
X0099732D01*
X009168Y0086916D02*
X0091744D01*
X0091757D02*
X009182D01*
X0091845D02*
X0091909D01*
X0091973D02*
X0092023D01*
X0092519D02*
X0095097D01*
X0097129D02*
X0099707D01*
X009168Y0086929D02*
X0091744D01*
X0091757D02*
X0091833D01*
X0091845D02*
X0091909D01*
X0091973D02*
X0092023D01*
X0092531D02*
X0095071D01*
X0097154D02*
X0099694D01*
X009168Y0086941D02*
X0091744D01*
X0091757D02*
X0091833D01*
X0091845D02*
X0091909D01*
X0091973D02*
X0092023D01*
X0092557D02*
X0095059D01*
X0097167D02*
X0099669D01*
X009168Y0086954D02*
X0091833D01*
X0091845D02*
X0091909D01*
X0091973D02*
X0092023D01*
X0092569D02*
X0095033D01*
X0097192D02*
X0099656D01*
X009168Y0086967D02*
X0091909D01*
X0091973D02*
X0092023D01*
X0092595D02*
X0095008D01*
X0097218D02*
X0099631D01*
X009168Y008698D02*
X0091909D01*
X0091973D02*
X0092023D01*
X009262D02*
X0094982D01*
X0097243D02*
X0099605D01*
X009168Y0086992D02*
X0091909D01*
X0091973D02*
X0092023D01*
X0092633D02*
X009497D01*
X0097256D02*
X0099592D01*
X009168Y0087005D02*
X0091909D01*
X0091973D02*
X0092023D01*
X0092658D02*
X0094944D01*
X0097281D02*
X0099567D01*
X009168Y0087018D02*
X0091782D01*
X0091795D02*
X0091909D01*
X0091973D02*
X0092023D01*
X0092684D02*
X0094919D01*
X0097307D02*
X0099542D01*
X009168Y008703D02*
X0091782D01*
X0091807D02*
X0091909D01*
X0091973D02*
X0092023D01*
X0092709D02*
X0094894D01*
X0097332D02*
X0099516D01*
X009168Y0087043D02*
X0091782D01*
X0091807D02*
X0091909D01*
X0091973D02*
X0092023D01*
X0092734D02*
X0094868D01*
X0097357D02*
X0099491D01*
X009168Y0087056D02*
X0091769D01*
X0091807D02*
X0091909D01*
X0091973D02*
X0092023D01*
X009276D02*
X0094843D01*
X0097383D02*
X0099465D01*
X009168Y0087068D02*
X0091769D01*
X009182D02*
X00921D01*
X0092785D02*
X0094817D01*
X0097408D02*
X009944D01*
X009168Y0087081D02*
X0091769D01*
X009182D02*
X00921D01*
X0092811D02*
X0094779D01*
X0097446D02*
X0099415D01*
X009168Y0087094D02*
X0091769D01*
X009182D02*
X00921D01*
X0092849D02*
X0094754D01*
X0097472D02*
X0099389D01*
X009168Y0087107D02*
X0091757D01*
X0091833D02*
X00921D01*
X0092874D02*
X0094716D01*
X0097497D02*
X0099351D01*
X009168Y0087119D02*
X0091757D01*
X0091833D02*
X00921D01*
X00929D02*
X009469D01*
X0097535D02*
X0099326D01*
X0092938Y0087132D02*
X0094652D01*
X0097573D02*
X0099288D01*
X0092963Y0087145D02*
X0094627D01*
X0097599D02*
X0099262D01*
X0093001Y0087157D02*
X0094589D01*
X0097637D02*
X0099224D01*
X0093039Y008717D02*
X0094538D01*
X0097688D02*
X0099186D01*
X0093077Y0087183D02*
X00945D01*
X0097726D02*
X0099148D01*
X0093128Y0087196D02*
X0094462D01*
X0097764D02*
X0099097D01*
X0093166Y0087208D02*
X0094411D01*
X0097814D02*
X0099059D01*
X0093217Y0087221D02*
X009436D01*
X0097865D02*
X0099008D01*
X0093281Y0087234D02*
X0094297D01*
X0097929D02*
X0098945D01*
X0093344Y0087246D02*
X009422D01*
X0098005D02*
X0098881D01*
X009342Y0087259D02*
X0094144D01*
X0098081D02*
X0098805D01*
X0093522Y0087272D02*
X009403D01*
X0098196D02*
X0098703D01*
M02*
