%FSTAX43Y43*%
%MOMM*%
G71*
G01*
G75*
G04 Layer_Physical_Order=2*
G04 Layer_Color=255*
G04:AMPARAMS|DCode=10|XSize=0.9mm|YSize=0.8mm|CornerRadius=0.2mm|HoleSize=0mm|Usage=FLASHONLY|Rotation=90.000|XOffset=0mm|YOffset=0mm|HoleType=Round|Shape=RoundedRectangle|*
%AMROUNDEDRECTD10*
21,1,0.900,0.400,0,0,90.0*
21,1,0.500,0.800,0,0,90.0*
1,1,0.400,0.200,0.250*
1,1,0.400,0.200,-0.250*
1,1,0.400,-0.200,-0.250*
1,1,0.400,-0.200,0.250*
%
%ADD10ROUNDEDRECTD10*%
G04:AMPARAMS|DCode=11|XSize=4.3mm|YSize=1.9mm|CornerRadius=0.475mm|HoleSize=0mm|Usage=FLASHONLY|Rotation=270.000|XOffset=0mm|YOffset=0mm|HoleType=Round|Shape=RoundedRectangle|*
%AMROUNDEDRECTD11*
21,1,4.300,0.950,0,0,270.0*
21,1,3.350,1.900,0,0,270.0*
1,1,0.950,-0.475,-1.675*
1,1,0.950,-0.475,1.675*
1,1,0.950,0.475,1.675*
1,1,0.950,0.475,-1.675*
%
%ADD11ROUNDEDRECTD11*%
G04:AMPARAMS|DCode=12|XSize=1.5mm|YSize=1.25mm|CornerRadius=0.313mm|HoleSize=0mm|Usage=FLASHONLY|Rotation=0.000|XOffset=0mm|YOffset=0mm|HoleType=Round|Shape=RoundedRectangle|*
%AMROUNDEDRECTD12*
21,1,1.500,0.625,0,0,0.0*
21,1,0.875,1.250,0,0,0.0*
1,1,0.625,0.438,-0.313*
1,1,0.625,-0.438,-0.313*
1,1,0.625,-0.438,0.313*
1,1,0.625,0.438,0.313*
%
%ADD12ROUNDEDRECTD12*%
G04:AMPARAMS|DCode=13|XSize=0.9mm|YSize=0.8mm|CornerRadius=0.2mm|HoleSize=0mm|Usage=FLASHONLY|Rotation=180.000|XOffset=0mm|YOffset=0mm|HoleType=Round|Shape=RoundedRectangle|*
%AMROUNDEDRECTD13*
21,1,0.900,0.400,0,0,180.0*
21,1,0.500,0.800,0,0,180.0*
1,1,0.400,-0.250,0.200*
1,1,0.400,0.250,0.200*
1,1,0.400,0.250,-0.200*
1,1,0.400,-0.250,-0.200*
%
%ADD13ROUNDEDRECTD13*%
G04:AMPARAMS|DCode=14|XSize=1.5mm|YSize=1.25mm|CornerRadius=0.313mm|HoleSize=0mm|Usage=FLASHONLY|Rotation=90.000|XOffset=0mm|YOffset=0mm|HoleType=Round|Shape=RoundedRectangle|*
%AMROUNDEDRECTD14*
21,1,1.500,0.625,0,0,90.0*
21,1,0.875,1.250,0,0,90.0*
1,1,0.625,0.313,0.438*
1,1,0.625,0.313,-0.438*
1,1,0.625,-0.313,-0.438*
1,1,0.625,-0.313,0.438*
%
%ADD14ROUNDEDRECTD14*%
G04:AMPARAMS|DCode=15|XSize=2.65mm|YSize=1.75mm|CornerRadius=0.438mm|HoleSize=0mm|Usage=FLASHONLY|Rotation=90.000|XOffset=0mm|YOffset=0mm|HoleType=Round|Shape=RoundedRectangle|*
%AMROUNDEDRECTD15*
21,1,2.650,0.875,0,0,90.0*
21,1,1.775,1.750,0,0,90.0*
1,1,0.875,0.438,0.887*
1,1,0.875,0.438,-0.887*
1,1,0.875,-0.438,-0.887*
1,1,0.875,-0.438,0.887*
%
%ADD15ROUNDEDRECTD15*%
G04:AMPARAMS|DCode=16|XSize=3.28mm|YSize=1.5mm|CornerRadius=0.375mm|HoleSize=0mm|Usage=FLASHONLY|Rotation=270.000|XOffset=0mm|YOffset=0mm|HoleType=Round|Shape=RoundedRectangle|*
%AMROUNDEDRECTD16*
21,1,3.280,0.750,0,0,270.0*
21,1,2.530,1.500,0,0,270.0*
1,1,0.750,-0.375,-1.265*
1,1,0.750,-0.375,1.265*
1,1,0.750,0.375,1.265*
1,1,0.750,0.375,-1.265*
%
%ADD16ROUNDEDRECTD16*%
G04:AMPARAMS|DCode=17|XSize=1mm|YSize=1.5mm|CornerRadius=0.25mm|HoleSize=0mm|Usage=FLASHONLY|Rotation=270.000|XOffset=0mm|YOffset=0mm|HoleType=Round|Shape=RoundedRectangle|*
%AMROUNDEDRECTD17*
21,1,1.000,1.000,0,0,270.0*
21,1,0.500,1.500,0,0,270.0*
1,1,0.500,-0.500,-0.250*
1,1,0.500,-0.500,0.250*
1,1,0.500,0.500,0.250*
1,1,0.500,0.500,-0.250*
%
%ADD17ROUNDEDRECTD17*%
G04:AMPARAMS|DCode=18|XSize=1.3mm|YSize=1mm|CornerRadius=0.25mm|HoleSize=0mm|Usage=FLASHONLY|Rotation=270.000|XOffset=0mm|YOffset=0mm|HoleType=Round|Shape=RoundedRectangle|*
%AMROUNDEDRECTD18*
21,1,1.300,0.500,0,0,270.0*
21,1,0.800,1.000,0,0,270.0*
1,1,0.500,-0.250,-0.400*
1,1,0.500,-0.250,0.400*
1,1,0.500,0.250,0.400*
1,1,0.500,0.250,-0.400*
%
%ADD18ROUNDEDRECTD18*%
G04:AMPARAMS|DCode=19|XSize=1.5mm|YSize=1.3mm|CornerRadius=0.325mm|HoleSize=0mm|Usage=FLASHONLY|Rotation=90.000|XOffset=0mm|YOffset=0mm|HoleType=Round|Shape=RoundedRectangle|*
%AMROUNDEDRECTD19*
21,1,1.500,0.650,0,0,90.0*
21,1,0.850,1.300,0,0,90.0*
1,1,0.650,0.325,0.425*
1,1,0.650,0.325,-0.425*
1,1,0.650,-0.325,-0.425*
1,1,0.650,-0.325,0.425*
%
%ADD19ROUNDEDRECTD19*%
G04:AMPARAMS|DCode=20|XSize=0.8mm|YSize=1mm|CornerRadius=0.2mm|HoleSize=0mm|Usage=FLASHONLY|Rotation=180.000|XOffset=0mm|YOffset=0mm|HoleType=Round|Shape=RoundedRectangle|*
%AMROUNDEDRECTD20*
21,1,0.800,0.600,0,0,180.0*
21,1,0.400,1.000,0,0,180.0*
1,1,0.400,-0.200,0.300*
1,1,0.400,0.200,0.300*
1,1,0.400,0.200,-0.300*
1,1,0.400,-0.200,-0.300*
%
%ADD20ROUNDEDRECTD20*%
%ADD21O,0.400X2.100*%
G04:AMPARAMS|DCode=22|XSize=1.6mm|YSize=0.4mm|CornerRadius=0.1mm|HoleSize=0mm|Usage=FLASHONLY|Rotation=270.000|XOffset=0mm|YOffset=0mm|HoleType=Round|Shape=RoundedRectangle|*
%AMROUNDEDRECTD22*
21,1,1.600,0.200,0,0,270.0*
21,1,1.400,0.400,0,0,270.0*
1,1,0.200,-0.100,-0.700*
1,1,0.200,-0.100,0.700*
1,1,0.200,0.100,0.700*
1,1,0.200,0.100,-0.700*
%
%ADD22ROUNDEDRECTD22*%
G04:AMPARAMS|DCode=23|XSize=2.5mm|YSize=2mm|CornerRadius=0.5mm|HoleSize=0mm|Usage=FLASHONLY|Rotation=180.000|XOffset=0mm|YOffset=0mm|HoleType=Round|Shape=RoundedRectangle|*
%AMROUNDEDRECTD23*
21,1,2.500,1.000,0,0,180.0*
21,1,1.500,2.000,0,0,180.0*
1,1,1.000,-0.750,0.500*
1,1,1.000,0.750,0.500*
1,1,1.000,0.750,-0.500*
1,1,1.000,-0.750,-0.500*
%
%ADD23ROUNDEDRECTD23*%
%ADD24O,2.250X0.500*%
G04:AMPARAMS|DCode=25|XSize=1.5mm|YSize=1mm|CornerRadius=0.25mm|HoleSize=0mm|Usage=FLASHONLY|Rotation=90.000|XOffset=0mm|YOffset=0mm|HoleType=Round|Shape=RoundedRectangle|*
%AMROUNDEDRECTD25*
21,1,1.500,0.500,0,0,90.0*
21,1,1.000,1.000,0,0,90.0*
1,1,0.500,0.250,0.500*
1,1,0.500,0.250,-0.500*
1,1,0.500,-0.250,-0.500*
1,1,0.500,-0.250,0.500*
%
%ADD25ROUNDEDRECTD25*%
%ADD26C,0.300*%
%ADD27C,0.400*%
%ADD28C,0.500*%
%ADD29C,1.000*%
%ADD30C,1.500*%
%ADD31C,0.800*%
%ADD32C,0.700*%
%ADD33C,1.000*%
%ADD34C,1.300*%
%ADD35C,1.600*%
G04:AMPARAMS|DCode=36|XSize=2.54mm|YSize=4.064mm|CornerRadius=0.635mm|HoleSize=0mm|Usage=FLASHONLY|Rotation=0.000|XOffset=0mm|YOffset=0mm|HoleType=Round|Shape=RoundedRectangle|*
%AMROUNDEDRECTD36*
21,1,2.540,2.794,0,0,0.0*
21,1,1.270,4.064,0,0,0.0*
1,1,1.270,0.635,-1.397*
1,1,1.270,-0.635,-1.397*
1,1,1.270,-0.635,1.397*
1,1,1.270,0.635,1.397*
%
%ADD36ROUNDEDRECTD36*%
G04:AMPARAMS|DCode=37|XSize=4.064mm|YSize=2.54mm|CornerRadius=0.635mm|HoleSize=0mm|Usage=FLASHONLY|Rotation=0.000|XOffset=0mm|YOffset=0mm|HoleType=Round|Shape=RoundedRectangle|*
%AMROUNDEDRECTD37*
21,1,4.064,1.270,0,0,0.0*
21,1,2.794,2.540,0,0,0.0*
1,1,1.270,1.397,-0.635*
1,1,1.270,-1.397,-0.635*
1,1,1.270,-1.397,0.635*
1,1,1.270,1.397,0.635*
%
%ADD37ROUNDEDRECTD37*%
%ADD38C,0.700*%
%ADD39C,0.800*%
%ADD40C,3.200*%
G36*
X0074136Y0088676D02*
X0074334Y0088514D01*
X0074404Y0088476D01*
Y0074776D01*
X0073638Y0074009D01*
X0073176Y00742D01*
Y0088476D01*
X0073246Y0088514D01*
X0073444Y0088676D01*
X007354Y0088794D01*
X007404D01*
X0074136Y0088676D01*
D02*
G37*
G36*
X0088744Y0082718D02*
Y0067822D01*
X0088694Y0067704D01*
X0088315Y0067754D01*
X008818Y0067907D01*
X0087969Y0069516D01*
Y0075882D01*
X0087934Y0076144D01*
X0087833Y0076387D01*
X0087673Y0076596D01*
X0087464Y0076756D01*
X0087221Y0076857D01*
X008696Y0076891D01*
X0086699Y0076857D01*
X0086456Y0076756D01*
X0086247Y0076596D01*
X0086087Y0076387D01*
X0085986Y0076144D01*
X0085951Y0075882D01*
Y0058289D01*
X0085716Y0058243D01*
X008544D01*
X0085425Y005828D01*
X008524Y005852D01*
X0085Y0058705D01*
X008472Y005882D01*
X008467Y0058827D01*
Y00577D01*
X008417D01*
Y0058827D01*
X008412Y005882D01*
X008384Y0058705D01*
X00836Y005852D01*
X0083415Y005828D01*
X00834Y0058243D01*
X00829D01*
X0082885Y005828D01*
X00827Y005852D01*
X008246Y0058705D01*
X008218Y005882D01*
X008188Y005886D01*
X008158Y005882D01*
X00813Y0058705D01*
X008106Y005852D01*
X0080875Y005828D01*
X008086Y0058243D01*
X008036D01*
X0080345Y005828D01*
X008016Y005852D01*
X007992Y0058705D01*
X007964Y005882D01*
X007934Y005886D01*
X007904Y005882D01*
X007876Y0058705D01*
X007852Y005852D01*
X0078335Y005828D01*
X007832Y0058243D01*
X007782D01*
X0077805Y005828D01*
X007762Y005852D01*
X0077456Y0058646D01*
Y0072083D01*
X0088282Y0082909D01*
X0088744Y0082718D01*
D02*
G37*
G36*
X0079216Y0088676D02*
X0079414Y0088514D01*
X0079484Y0088476D01*
Y00783D01*
X0078718Y0077533D01*
X0078256Y0077725D01*
Y0088476D01*
X0078326Y0088514D01*
X0078524Y0088676D01*
X007862Y0088794D01*
X007912D01*
X0079216Y0088676D01*
D02*
G37*
G36*
X0076676D02*
X0076874Y0088514D01*
X0076944Y0088476D01*
Y0076538D01*
X0076178Y0075771D01*
X0075716Y0075962D01*
Y0088476D01*
X0075786Y0088514D01*
X0075984Y0088676D01*
X007608Y0088794D01*
X007658D01*
X0076676Y0088676D01*
D02*
G37*
G36*
X01049Y0062278D02*
X0104905Y0062279D01*
X010515Y0062353D01*
X0105376Y0062474D01*
X0105574Y0062636D01*
X0106044Y006225D01*
Y0061514D01*
X010566Y0060586D01*
Y005969D01*
Y0058794D01*
X0106044Y0057866D01*
Y0047513D01*
X0106021Y0047493D01*
X010559Y0047294D01*
X0105438Y0047424D01*
X0105156Y0047597D01*
X0104851Y0047723D01*
X010453Y0047801D01*
X01042Y0047826D01*
X0104167Y0047824D01*
X0103958Y0048278D01*
X010404Y004836D01*
X010404Y004836D01*
X010416Y0048517D01*
X0104236Y0048699D01*
X0104261Y0048895D01*
Y0056395D01*
X0104261Y0056395D01*
X0104236Y0056591D01*
X010416Y0056773D01*
X010404Y005693D01*
X010404Y005693D01*
X0103349Y005762D01*
X010336Y00577D01*
X010332Y0058D01*
X0103205Y005828D01*
X010302Y005852D01*
X0102956Y0058569D01*
Y006254D01*
X0103074Y0062636D01*
X010315Y0062729D01*
X010365D01*
X0103726Y0062636D01*
X0103924Y0062474D01*
X010415Y0062353D01*
X0104395Y0062279D01*
X01044Y0062278D01*
Y006356D01*
X01049D01*
Y0062278D01*
D02*
G37*
G36*
X0078335Y005712D02*
X007852Y005688D01*
X007876Y0056695D01*
X007904Y005658D01*
X007918Y0056561D01*
X0079341Y0056088D01*
X0074466Y0051213D01*
X007426Y005124D01*
X007396Y00512D01*
X007368Y0051085D01*
X007344Y00509D01*
X0073255Y005066D01*
X007324Y0050623D01*
X007274D01*
X0072725Y005066D01*
X007254Y00509D01*
X00723Y0051085D01*
X007202Y00512D01*
X007172Y005124D01*
X007142Y00512D01*
X007114Y0051085D01*
X00709Y00509D01*
X0070715Y005066D01*
X00707Y0050623D01*
X00702D01*
X0070185Y005066D01*
X007Y00509D01*
X006976Y0051085D01*
X006948Y00512D01*
X006918Y005124D01*
X0068974Y0051213D01*
X0068601Y0051587D01*
Y0056237D01*
X0068977Y0056567D01*
X006918Y005654D01*
X006948Y005658D01*
X006976Y0056695D01*
X007Y005688D01*
X0070185Y005712D01*
X00702Y0057157D01*
X00707D01*
X0070715Y005712D01*
X00709Y005688D01*
X007114Y0056695D01*
X007142Y005658D01*
X007172Y005654D01*
X007202Y005658D01*
X00723Y0056695D01*
X007254Y005688D01*
X0072725Y005712D01*
X007274Y0057157D01*
X007324D01*
X0073255Y005712D01*
X007344Y005688D01*
X007368Y0056695D01*
X007396Y005658D01*
X007426Y005654D01*
X007456Y005658D01*
X007484Y0056695D01*
X007508Y005688D01*
X0075265Y005712D01*
X007528Y0057157D01*
X007578D01*
X0075795Y005712D01*
X007598Y005688D01*
X007622Y0056695D01*
X00765Y005658D01*
X00768Y005654D01*
X00771Y005658D01*
X007738Y0056695D01*
X007762Y005688D01*
X0077805Y005712D01*
X007782Y0057157D01*
X007832D01*
X0078335Y005712D01*
D02*
G37*
G36*
X0101364Y0047648D02*
X0101344Y004749D01*
Y0043632D01*
X0101344Y0043632D01*
X0101344D01*
X0101369Y0043437D01*
X0101445Y0043254D01*
X0101565Y0043098D01*
X0102613Y004205D01*
X0102601Y004155D01*
X0102423Y0041389D01*
X010225Y0041406D01*
X0101995Y0041381D01*
X010175Y0041307D01*
X0101524Y0041186D01*
X0101326Y0041024D01*
X010123Y0040906D01*
X010073D01*
X0100634Y0041024D01*
X0100436Y0041186D01*
X010021Y0041307D01*
X0099965Y0041381D01*
X009971Y0041406D01*
X0099455Y0041381D01*
X009921Y0041307D01*
X0098984Y0041186D01*
X0098786Y0041024D01*
X009869Y0040906D01*
X009819D01*
X0098094Y0041024D01*
X0097896Y0041186D01*
X009767Y0041307D01*
X0097425Y0041381D01*
X009717Y0041406D01*
X0096915Y0041381D01*
X009667Y0041307D01*
X0096444Y0041186D01*
X0096246Y0041024D01*
X009615Y0040906D01*
X009565D01*
X0095554Y0041024D01*
X0095356Y0041186D01*
X009513Y0041307D01*
X0094885Y0041381D01*
X009463Y0041406D01*
X0094375Y0041381D01*
X009413Y0041307D01*
X0093904Y0041186D01*
X0093706Y0041024D01*
X009361Y0040906D01*
X009311D01*
X0093014Y0041024D01*
X0092816Y0041186D01*
X009259Y0041307D01*
X0092345Y0041381D01*
X009209Y0041406D01*
X0091835Y0041381D01*
X009159Y0041307D01*
X0091364Y0041186D01*
X0091166Y0041024D01*
X009107Y0040906D01*
X009057D01*
X0090474Y0041024D01*
X0090276Y0041186D01*
X009005Y0041307D01*
X0089805Y0041381D01*
X008955Y0041406D01*
X0089295Y0041381D01*
X008905Y0041307D01*
X0088824Y0041186D01*
X0088626Y0041024D01*
X0088464Y0040826D01*
X0088343Y00406D01*
X0088269Y0040355D01*
X0088244Y00401D01*
X0088261Y0039927D01*
X0088155Y0039811D01*
X0087335Y0039562D01*
X0086515Y0039811D01*
X0086409Y0039927D01*
X0086426Y00401D01*
X0086401Y0040355D01*
X0086327Y00406D01*
X0086206Y0040826D01*
X0086044Y0041024D01*
X0085846Y0041186D01*
X008562Y0041307D01*
X0085375Y0041381D01*
X008512Y0041406D01*
X0084865Y0041381D01*
X008462Y0041307D01*
X0084394Y0041186D01*
X0084196Y0041024D01*
X00841Y0040906D01*
X00836D01*
X0083504Y0041024D01*
X0083306Y0041186D01*
X008308Y0041307D01*
X0082835Y0041381D01*
X008283Y0041382D01*
Y00401D01*
X008233D01*
Y0041382D01*
X0082325Y0041381D01*
X008208Y0041307D01*
X0081854Y0041186D01*
X0081656Y0041024D01*
X008156Y0040906D01*
X008106D01*
X0080964Y0041024D01*
X0080766Y0041186D01*
X008054Y0041307D01*
X0080295Y0041381D01*
X008029Y0041382D01*
Y00401D01*
X007979D01*
Y0041382D01*
X0079785Y0041381D01*
X007954Y0041307D01*
X0079314Y0041186D01*
X0079116Y0041024D01*
X007902Y0040906D01*
X0078841D01*
X0078726Y0040947D01*
X0078509Y0041064D01*
Y004294D01*
X0079438D01*
X0079438Y004294D01*
X0079684Y0042964D01*
X0079919Y0043036D01*
X0080136Y0043152D01*
X0080327Y0043308D01*
X0081851Y0044832D01*
X0082007Y0045022D01*
X0082123Y0045239D01*
X0082194Y0045475D01*
X00822Y0045531D01*
X0082628Y0045959D01*
X0082788Y0046168D01*
X0082889Y0046411D01*
X0082924Y0046673D01*
X0085179Y0046969D01*
X0099745D01*
X0099915Y0046992D01*
X009998Y0047019D01*
X0100073Y0047057D01*
X0100209Y0047161D01*
X0100916Y0047869D01*
X0101364Y0047648D01*
D02*
G37*
G36*
X005185Y009029D02*
X0051636Y0090038D01*
X0051463Y0089756D01*
X0051337Y0089451D01*
X0051259Y008913D01*
X0051234Y00888D01*
X0051259Y008847D01*
X0051337Y0088149D01*
X0051463Y0087844D01*
X0051636Y0087562D01*
X005185Y008731D01*
X0052102Y0087096D01*
X0052384Y0086923D01*
X0052689Y0086797D01*
X0052702Y0086794D01*
X0052814Y0086306D01*
X0052676Y0086194D01*
X0052514Y0085996D01*
X0052393Y008577D01*
X0052319Y0085525D01*
X0052294Y008527D01*
X0052319Y0085015D01*
X0052393Y008477D01*
X0052514Y0084544D01*
X0052676Y0084346D01*
X0052794Y008425D01*
Y008375D01*
X0052676Y0083654D01*
X0052514Y0083456D01*
X0052393Y008323D01*
X0052319Y0082985D01*
X0052294Y008273D01*
X0052319Y0082475D01*
X0052393Y008223D01*
X0052514Y0082004D01*
X0052676Y0081806D01*
X0052874Y0081644D01*
X00531Y0081523D01*
X0053345Y0081449D01*
X00536Y0081424D01*
X0053855Y0081449D01*
X00541Y0081523D01*
X0054326Y0081644D01*
X0054524Y0081806D01*
X005465Y008196D01*
X005515D01*
X0055276Y0081806D01*
X0055474Y0081644D01*
X00557Y0081523D01*
X0055945Y0081449D01*
X00562Y0081424D01*
X0056455Y0081449D01*
X00567Y0081523D01*
X0056926Y0081644D01*
X0057124Y0081806D01*
X00572Y0081899D01*
X00577D01*
X0057776Y0081806D01*
X0057974Y0081644D01*
X00582Y0081523D01*
X0058445Y0081449D01*
X00587Y0081424D01*
X0058955Y0081449D01*
X00592Y0081523D01*
X0059426Y0081644D01*
X0059624Y0081806D01*
X0059786Y0082004D01*
X0059907Y008223D01*
X0059981Y0082475D01*
X0060006Y008273D01*
X0059987Y0082924D01*
X0060389Y0083222D01*
X0060426Y0083206D01*
X0060473Y0083187D01*
X0060643Y0083164D01*
X0060971D01*
X0061141Y0083034D01*
X006136Y0082943D01*
X0061595Y0082912D01*
X006183Y0082943D01*
X0062049Y0083034D01*
X0062237Y0083178D01*
X0062381Y0083366D01*
X0062472Y0083585D01*
X0062503Y008382D01*
X0062472Y0084055D01*
X0062383Y0084268D01*
X0062799Y0084546D01*
X0066744Y0080601D01*
Y007823D01*
X006665Y0078224D01*
Y00772D01*
Y0076176D01*
X0066744Y007617D01*
Y0074429D01*
X006655Y0074259D01*
Y00731D01*
X00663D01*
Y007285D01*
X0065324D01*
X0065326Y0072839D01*
X0065426Y0072596D01*
X0065587Y0072387D01*
X0065796Y0072227D01*
X0066039Y0072126D01*
X0066061Y0072123D01*
X0066222Y0071649D01*
X0066136Y0071564D01*
X0066032Y0071428D01*
X0065999Y0071349D01*
X0065967Y007127D01*
X0065944Y00711D01*
Y0062474D01*
X0063631Y0060161D01*
X0063527Y0060025D01*
X0063489Y0059932D01*
X0063462Y0059867D01*
X0063439Y0059697D01*
Y0057998D01*
X0062977Y0057807D01*
X0061454Y005933D01*
Y006604D01*
X0061454Y006604D01*
X0061454Y006604D01*
Y006604D01*
Y0075438D01*
X006143Y0075683D01*
X0061358Y0075919D01*
X0061242Y0076136D01*
X0061086Y0076326D01*
X0060896Y0076482D01*
X0060679Y0076598D01*
X0060443Y007667D01*
X0060198Y0076694D01*
X0059953Y007667D01*
X0059717Y0076598D01*
X00595Y0076482D01*
X005931Y0076326D01*
X0059154Y0076136D01*
X0059038Y0075919D01*
X0058966Y0075683D01*
X0058942Y0075438D01*
Y0067296D01*
X0057658D01*
X0057413Y0067272D01*
X0057177Y00672D01*
X005696Y0067084D01*
X005677Y0066928D01*
X0056614Y0066738D01*
X0056544Y0066608D01*
X0056319Y0066575D01*
X0055875Y006671D01*
X0053079Y0069506D01*
Y0076708D01*
X0053044Y0076969D01*
X0052944Y0077212D01*
X0052783Y0077421D01*
X0052574Y0077581D01*
X0052331Y0077682D01*
X005207Y0077717D01*
X0051809Y0077682D01*
X0051566Y0077581D01*
X0051357Y0077421D01*
X0051196Y0077212D01*
X0051096Y0076969D01*
X0051061Y0076708D01*
Y0069986D01*
X0050599Y0069795D01*
X0049986Y0070408D01*
Y0081534D01*
X0049962Y0081779D01*
X004989Y0082015D01*
X0049774Y0082232D01*
X0049618Y0082422D01*
X0049428Y0082578D01*
X0049211Y0082694D01*
X0048975Y0082766D01*
X004873Y008279D01*
X0048485Y0082766D01*
X0048249Y0082694D01*
X0048032Y0082578D01*
X0047842Y0082422D01*
X0047686Y0082232D01*
X004757Y0082015D01*
X0047498Y0081779D01*
X0047474Y0081534D01*
Y0070142D01*
X0047474Y0070142D01*
X0047474D01*
Y0069888D01*
X0047474Y0069888D01*
X0047498Y0069643D01*
X004757Y0069407D01*
X004757Y0069407D01*
X004757Y0069407D01*
X0047686Y006919D01*
X0047842Y0069D01*
X0047842Y0069D01*
X0047842Y0069D01*
X0053355Y0063487D01*
X0055132Y006171D01*
Y0059436D01*
X0055132Y0059436D01*
X0055156Y0059191D01*
X0055228Y0058955D01*
X0055228Y0058955D01*
X0055228Y0058955D01*
X0055344Y0058738D01*
X00555Y0058548D01*
X00555Y0058548D01*
X00555Y0058548D01*
X005945Y0054598D01*
Y0046228D01*
X005945Y0046228D01*
X0059474Y0045983D01*
X0059546Y0045747D01*
X0059546Y0045747D01*
X0059546Y0045747D01*
X0059662Y004553D01*
X0059818Y004534D01*
X0059818Y004534D01*
X0059818Y004534D01*
Y004534D01*
X0059818Y004534D01*
Y004534D01*
D01*
X0063882Y0041276D01*
X0063882Y0041276D01*
X0064072Y004112D01*
D01*
D01*
Y004112D01*
X0064072Y004112D01*
D01*
D01*
X0064072D01*
X0064072Y004112D01*
D01*
X0064072D01*
Y004112D01*
X0064289Y0041004D01*
X0064525Y0040932D01*
X006477Y0040908D01*
X006477Y0040908D01*
X0068097D01*
X0068511Y0040686D01*
X0068645Y0040506D01*
X0068599Y0040355D01*
X0068574Y00401D01*
X0068599Y0039845D01*
X0068673Y00396D01*
X0068794Y0039374D01*
X0068931Y0039208D01*
X0068861Y003906D01*
X0068611Y0038756D01*
X0053893D01*
X0053873Y0038779D01*
X0053674Y003921D01*
X0053804Y0039362D01*
X0053977Y0039644D01*
X0054103Y0039949D01*
X0054181Y004027D01*
X0054206Y00406D01*
X0054181Y004093D01*
X0054103Y0041251D01*
X0053977Y0041556D01*
X0053804Y0041838D01*
X005359Y004209D01*
X0053338Y0042304D01*
X0053056Y0042477D01*
X0052751Y0042603D01*
X005243Y0042681D01*
X00521Y0042706D01*
X005177Y0042681D01*
X0051449Y0042603D01*
X0051144Y0042477D01*
X0050862Y0042304D01*
X005061Y004209D01*
X0050396Y0041838D01*
X0050223Y0041556D01*
X0050097Y0041251D01*
X0050019Y004093D01*
X0049994Y00406D01*
X0050019Y004027D01*
X0050097Y0039949D01*
X0050223Y0039644D01*
X0050396Y0039362D01*
X0050526Y003921D01*
X0050327Y0038779D01*
X0050307Y0038756D01*
X0038756D01*
Y0090744D01*
X0051462D01*
X005185Y009029D01*
D02*
G37*
G36*
X0101195Y005712D02*
X010138Y005688D01*
X010162Y0056695D01*
X01019Y005658D01*
X01022Y005654D01*
X010228Y0056551D01*
X0102749Y0056082D01*
Y0051547D01*
X0102373Y0051217D01*
X01022Y005124D01*
X01019Y00512D01*
X010162Y0051085D01*
X010138Y00509D01*
X0101195Y005066D01*
X010118Y0050623D01*
X010068D01*
X0100665Y005066D01*
X010048Y00509D01*
X010024Y0051085D01*
X009996Y00512D01*
X009966Y005124D01*
X009936Y00512D01*
X009908Y0051085D01*
X009884Y00509D01*
X0098655Y005066D01*
X009864Y0050623D01*
X009814D01*
X0098125Y005066D01*
X009794Y00509D01*
X00977Y0051085D01*
X009742Y00512D01*
X009712Y005124D01*
X009682Y00512D01*
X009654Y0051085D01*
X00963Y00509D01*
X0096115Y005066D01*
X00961Y0050623D01*
X00956D01*
X0095585Y005066D01*
X00954Y00509D01*
X009516Y0051085D01*
X009488Y00512D01*
X009458Y005124D01*
X009428Y00512D01*
X0094Y0051085D01*
X009376Y00509D01*
X0093575Y005066D01*
X009356Y0050623D01*
X009306D01*
X0093045Y005066D01*
X009286Y00509D01*
X009262Y0051085D01*
X009234Y00512D01*
X009204Y005124D01*
X009174Y00512D01*
X009146Y0051085D01*
X009122Y00509D01*
X0091035Y005066D01*
X009102Y0050623D01*
X009052D01*
X0090505Y005066D01*
X009032Y00509D01*
X009008Y0051085D01*
X00898Y00512D01*
X00895Y005124D01*
X00892Y00512D01*
X008892Y0051085D01*
X008868Y00509D01*
X0088495Y005066D01*
X008848Y0050623D01*
X008798D01*
X0087965Y005066D01*
X008778Y00509D01*
X008754Y0051085D01*
X008726Y00512D01*
X008721Y0051207D01*
Y005008D01*
X008671D01*
Y0051207D01*
X008666Y00512D01*
X008638Y0051085D01*
X008614Y00509D01*
X0085955Y005066D01*
X008594Y0050623D01*
X008544D01*
X0085425Y005066D01*
X008524Y00509D01*
X0085Y0051085D01*
X008472Y00512D01*
X008442Y005124D01*
X008412Y00512D01*
X008384Y0051085D01*
X00836Y00509D01*
X0083415Y005066D01*
X00834Y0050623D01*
X0083182D01*
X0083143Y0050717D01*
X0083272Y0051366D01*
X0084873Y0052966D01*
X008696D01*
X0087221Y0053001D01*
X0087464Y0053102D01*
X0087673Y0053262D01*
X0087833Y0053471D01*
X0087934Y0053714D01*
X0087969Y0053975D01*
X0087937Y0054213D01*
X008797Y0054251D01*
X0088787Y0054589D01*
X009144D01*
X009161Y0054612D01*
X0091689Y0054644D01*
X0091768Y0054677D01*
X0091904Y0054781D01*
X0093809Y0056686D01*
X0093884Y0056785D01*
X0094Y0056695D01*
X009428Y005658D01*
X009458Y005654D01*
X009488Y005658D01*
X009516Y0056695D01*
X00954Y005688D01*
X0095585Y005712D01*
X00956Y0057157D01*
X00961D01*
X0096115Y005712D01*
X00963Y005688D01*
X009654Y0056695D01*
X009682Y005658D01*
X009712Y005654D01*
X009742Y005658D01*
X00977Y0056695D01*
X009794Y005688D01*
X0098125Y005712D01*
X009814Y0057157D01*
X009864D01*
X0098655Y005712D01*
X009884Y005688D01*
X009908Y0056695D01*
X009936Y005658D01*
X009966Y005654D01*
X009996Y005658D01*
X010024Y0056695D01*
X010048Y005688D01*
X0100665Y005712D01*
X010068Y0057157D01*
X010118D01*
X0101195Y005712D01*
D02*
G37*
G36*
X0095496Y0088676D02*
X0095694Y0088514D01*
X0095764Y0088477D01*
Y0080244D01*
X00957Y0080195D01*
X0095515Y0079955D01*
X00954Y0079675D01*
X009536Y0079375D01*
X0095371Y0079295D01*
X0094045Y007797D01*
X0093925Y0077813D01*
X0093849Y0077631D01*
X0093824Y0077435D01*
Y0067565D01*
X0093667Y0067186D01*
X0093517Y0067055D01*
X009303Y0067169D01*
X0092796Y0067734D01*
Y0087447D01*
X0093665Y0088315D01*
X009388Y0088294D01*
X0094135Y0088319D01*
X009438Y0088393D01*
X0094606Y0088514D01*
X0094804Y0088676D01*
X00949Y0088794D01*
X00954D01*
X0095496Y0088676D01*
D02*
G37*
G36*
X0103544Y0089838D02*
Y007868D01*
X0103567Y007851D01*
X0103599Y0078431D01*
X0103632Y0078352D01*
X0103736Y0078216D01*
X0106044Y0075908D01*
X0106044Y0075908D01*
X0106021Y0075433D01*
X010559Y0075234D01*
X0105438Y0075364D01*
X0105156Y0075537D01*
X0104851Y0075663D01*
X010453Y0075741D01*
X01042Y0075766D01*
X010387Y0075741D01*
X0103549Y0075663D01*
X0103244Y0075537D01*
X0102962Y0075364D01*
X010271Y007515D01*
X0102496Y0074898D01*
X0102323Y0074616D01*
X0102197Y0074311D01*
X0102119Y007399D01*
X0102094Y007366D01*
X0102119Y007333D01*
X0102197Y0073009D01*
X0102323Y0072704D01*
X0102496Y0072422D01*
X010271Y007217D01*
X0102962Y0071956D01*
X0103244Y0071783D01*
X0103549Y0071657D01*
X010387Y0071579D01*
X01042Y0071554D01*
X010453Y0071579D01*
X0104851Y0071657D01*
X0105156Y0071783D01*
X0105438Y0071956D01*
X010559Y0072086D01*
X0106021Y0071887D01*
X0106044Y0071867D01*
Y006995D01*
X0105574Y0069564D01*
X0105376Y0069726D01*
X010515Y0069847D01*
X0104905Y0069921D01*
X010465Y0069946D01*
X0104395Y0069921D01*
X010415Y0069847D01*
X0103924Y0069726D01*
X0103726Y0069564D01*
X010365Y0069471D01*
X010315D01*
X0103074Y0069564D01*
X0102876Y0069726D01*
X010265Y0069847D01*
X0102405Y0069921D01*
X010215Y0069946D01*
X0101895Y0069921D01*
X010165Y0069847D01*
X0101424Y0069726D01*
X0101226Y0069564D01*
X0101064Y0069366D01*
X0100943Y006914D01*
X0100869Y0068895D01*
X0100844Y006864D01*
X0100869Y0068385D01*
X0100943Y006814D01*
X0101064Y0067914D01*
X0101226Y0067716D01*
X0101344Y006762D01*
Y006712D01*
X0101226Y0067024D01*
X0101064Y0066826D01*
X0100943Y00666D01*
X0100873Y006637D01*
X0100828Y0066359D01*
X0100218Y0066419D01*
X0099825Y0066812D01*
Y0071766D01*
X0099956Y0071936D01*
X0100046Y0072155D01*
X0100077Y007239D01*
X0100046Y0072625D01*
X0099956Y0072844D01*
X0099811Y0073032D01*
X0099623Y0073176D01*
X0099404Y0073267D01*
X009917Y0073298D01*
D01*
D01*
D01*
X009917Y0073298D01*
X009917Y0073298D01*
X00988Y0073356D01*
Y0075453D01*
X009883Y0075492D01*
X0098921Y0075711D01*
X0098927Y0075759D01*
X0100435Y0077267D01*
X0100435Y0077267D01*
X0100555Y0077424D01*
X0100631Y0077606D01*
X0100631Y0077606D01*
X0100631Y0077606D01*
X0100656Y0077802D01*
X0100656Y0077802D01*
Y0077897D01*
X0100931Y0078255D01*
X0101072Y0078349D01*
X01013Y0078255D01*
X010135Y0078248D01*
Y0079375D01*
Y0080502D01*
X01013Y0080495D01*
X0101072Y0080401D01*
X0100931Y0080495D01*
X0100656Y0080853D01*
Y0087687D01*
X0101285Y0088315D01*
X01015Y0088294D01*
X0101755Y0088319D01*
X0102Y0088393D01*
X0102226Y0088514D01*
X0102424Y0088676D01*
X0102586Y0088874D01*
X0102707Y00891D01*
X0102781Y0089345D01*
X0102806Y00896D01*
X0102781Y0089855D01*
X0102755Y0089942D01*
X0103184Y0090199D01*
X0103544Y0089838D01*
D02*
G37*
G36*
X0082611Y0090344D02*
X0082628Y0090316D01*
X0082513Y00901D01*
X0082439Y0089855D01*
X0082414Y00896D01*
X0082439Y0089345D01*
X0082513Y00891D01*
X0082634Y0088874D01*
X0082796Y0088676D01*
X0082994Y0088514D01*
X0083064Y0088476D01*
Y0081102D01*
X0081258Y0079295D01*
X0080796Y0079487D01*
Y0088476D01*
X0080866Y0088514D01*
X0081064Y0088676D01*
X0081226Y0088874D01*
X0081347Y00891D01*
X0081421Y0089345D01*
X0081446Y00896D01*
X0081421Y0089855D01*
X0081347Y00901D01*
X0081232Y0090316D01*
X0081249Y0090344D01*
X0081736Y0090744D01*
X0082124D01*
X0082611Y0090344D01*
D02*
G37*
%LPC*%
G36*
X0043548Y0050167D02*
X0043162D01*
X0042866Y0050128D01*
X004259Y0050013D01*
X0042353Y0049831D01*
X0042171Y0049594D01*
X0042057Y0049318D01*
X0042018Y0049022D01*
Y0047875D01*
X0043548D01*
Y0050167D01*
D02*
G37*
G36*
X0050482D02*
X0049213D01*
X0048916Y0050128D01*
X004864Y0050013D01*
X0048403Y0049831D01*
X0048221Y0049594D01*
X0048107Y0049318D01*
X0048068Y0049022D01*
Y0046228D01*
X0048107Y0045932D01*
X0048221Y0045656D01*
X0048403Y0045419D01*
X004864Y0045237D01*
X0048916Y0045122D01*
X0049213Y0045083D01*
X0050482D01*
X0050779Y0045122D01*
X0051055Y0045237D01*
X0051292Y0045419D01*
X0051474Y0045656D01*
X0051588Y0045932D01*
X0051627Y0046228D01*
Y0049022D01*
X0051588Y0049318D01*
X0051474Y0049594D01*
X0051292Y0049831D01*
X0051055Y0050013D01*
X0050779Y0050128D01*
X0050482Y0050167D01*
D02*
G37*
G36*
X0044432D02*
X0044048D01*
Y0047875D01*
X0045577D01*
Y0049022D01*
X0045538Y0049318D01*
X0045424Y0049594D01*
X0045242Y0049831D01*
X0045005Y0050013D01*
X0044729Y0050128D01*
X0044432Y0050167D01*
D02*
G37*
G36*
X004089Y0087487D02*
Y008661D01*
X0041767D01*
X004176Y008666D01*
X0041645Y008694D01*
X004146Y008718D01*
X004122Y0087365D01*
X004094Y008748D01*
X004089Y0087487D01*
D02*
G37*
G36*
X005207Y0061787D02*
X00508D01*
X0050605Y0061748D01*
X005044Y0061638D01*
X0050122Y006132D01*
X0050012Y0061155D01*
X0049973Y006096D01*
Y005207D01*
X0050012Y0051875D01*
X0050122Y005171D01*
X005044Y0051392D01*
X0050605Y0051282D01*
X00508Y0051243D01*
X005207D01*
X0052265Y0051282D01*
X005243Y0051392D01*
X0052748Y005171D01*
X0052858Y0051875D01*
X0052897Y005207D01*
Y006096D01*
X0052858Y0061155D01*
X0052748Y006132D01*
X005243Y0061638D01*
X0052265Y0061748D01*
X005207Y0061787D01*
D02*
G37*
G36*
X0046597Y0044705D02*
X0045451D01*
X0045154Y0044666D01*
X0044878Y0044551D01*
X0044641Y0044369D01*
X0044459Y0044132D01*
X0044345Y0043856D01*
X0044306Y004356D01*
Y0043175D01*
X0046597D01*
Y0044705D01*
D02*
G37*
G36*
X0049389Y0042675D02*
X0047097D01*
Y0041145D01*
X0048244D01*
X0048541Y0041184D01*
X0048817Y0041299D01*
X0049054Y0041481D01*
X0049236Y0041718D01*
X004935Y0041994D01*
X0049389Y004229D01*
Y0042675D01*
D02*
G37*
G36*
X0046597D02*
X0044306D01*
Y004229D01*
X0044345Y0041994D01*
X0044459Y0041718D01*
X0044641Y0041481D01*
X0044878Y0041299D01*
X0045154Y0041184D01*
X0045451Y0041145D01*
X0046597D01*
Y0042675D01*
D02*
G37*
G36*
X0045577Y0047375D02*
X0044048D01*
Y0045083D01*
X0044432D01*
X0044729Y0045122D01*
X0045005Y0045237D01*
X0045242Y0045419D01*
X0045424Y0045656D01*
X0045538Y0045932D01*
X0045577Y0046228D01*
Y0047375D01*
D02*
G37*
G36*
X0043548D02*
X0042018D01*
Y0046228D01*
X0042057Y0045932D01*
X0042171Y0045656D01*
X0042353Y0045419D01*
X004259Y0045237D01*
X0042866Y0045122D01*
X0043162Y0045083D01*
X0043548D01*
Y0047375D01*
D02*
G37*
G36*
X0048244Y0044705D02*
X0047097D01*
Y0043175D01*
X0049389D01*
Y004356D01*
X004935Y0043856D01*
X0049236Y0044132D01*
X0049054Y0044369D01*
X0048817Y0044551D01*
X0048541Y0044666D01*
X0048244Y0044705D01*
D02*
G37*
G36*
X004313Y0077309D02*
X0042869Y0077274D01*
X0042626Y0077174D01*
X0042417Y0077013D01*
X0042257Y0076804D01*
X0042156Y0076561D01*
X0042121Y00763D01*
X0042156Y0076039D01*
X0042257Y0075796D01*
X0042417Y0075587D01*
X0042626Y0075426D01*
X0042869Y0075326D01*
X004313Y0075291D01*
X0043391Y0075326D01*
X0043634Y0075426D01*
X0043843Y0075587D01*
X0044004Y0075796D01*
X0044104Y0076039D01*
X0044139Y00763D01*
X0044104Y0076561D01*
X0044004Y0076804D01*
X0043843Y0077013D01*
X0043634Y0077174D01*
X0043391Y0077274D01*
X004313Y0077309D01*
D02*
G37*
G36*
X004572Y008752D02*
X004542Y008748D01*
X004514Y0087365D01*
X00449Y008718D01*
X0044715Y008694D01*
X00446Y008666D01*
X004456Y008636D01*
X00446Y008606D01*
X0044715Y008578D01*
X00449Y008554D01*
X004514Y0085355D01*
X004542Y008524D01*
X004572Y00852D01*
X004602Y008524D01*
X00463Y0085355D01*
X004654Y008554D01*
X0046725Y008578D01*
X004684Y008606D01*
X004688Y008636D01*
X004684Y008666D01*
X0046725Y008694D01*
X004654Y008718D01*
X00463Y0087365D01*
X004602Y008748D01*
X004572Y008752D01*
D02*
G37*
G36*
X006605Y0074076D02*
X0066039Y0074074D01*
X0065796Y0073974D01*
X0065587Y0073813D01*
X0065426Y0073604D01*
X0065326Y0073361D01*
X0065324Y007335D01*
X006605D01*
Y0074076D01*
D02*
G37*
G36*
X010185Y0080502D02*
Y0079625D01*
X0102727D01*
X010272Y0079675D01*
X0102605Y0079955D01*
X010242Y0080195D01*
X010218Y008038D01*
X01019Y0080495D01*
X010185Y0080502D01*
D02*
G37*
G36*
X0102727Y0079125D02*
X010185D01*
Y0078248D01*
X01019Y0078255D01*
X010218Y007837D01*
X010242Y0078555D01*
X0102605Y0078795D01*
X010272Y0079075D01*
X0102727Y0079125D01*
D02*
G37*
G36*
X006615Y0078176D02*
X0066139Y0078174D01*
X0065896Y0078074D01*
X0065687Y0077913D01*
X0065526Y0077704D01*
X0065426Y0077461D01*
X0065424Y007745D01*
X006615D01*
Y0078176D01*
D02*
G37*
G36*
Y007695D02*
X0065424D01*
X0065426Y0076939D01*
X0065526Y0076696D01*
X0065687Y0076487D01*
X0065896Y0076326D01*
X0066139Y0076226D01*
X006615Y0076224D01*
Y007695D01*
D02*
G37*
G36*
X010516Y0060506D02*
X0104981Y0060432D01*
X0104804Y0060296D01*
X0104668Y0060119D01*
X0104594Y005994D01*
X010516D01*
Y0060506D01*
D02*
G37*
G36*
Y005944D02*
X0104594D01*
X0104668Y0059261D01*
X0104804Y0059084D01*
X0104981Y0058948D01*
X010516Y0058874D01*
Y005944D01*
D02*
G37*
G36*
X004039Y0087487D02*
X004034Y008748D01*
X004006Y0087365D01*
X003982Y008718D01*
X0039635Y008694D01*
X003952Y008666D01*
X0039513Y008661D01*
X004039D01*
Y0087487D01*
D02*
G37*
G36*
Y008611D02*
X0039513D01*
X003952Y008606D01*
X0039635Y008578D01*
X003982Y008554D01*
X004006Y0085355D01*
X004034Y008524D01*
X004039Y0085233D01*
Y008611D01*
D02*
G37*
G36*
X004313Y0072909D02*
X0042869Y0072874D01*
X0042626Y0072773D01*
X0042417Y0072613D01*
X0042257Y0072404D01*
X0042156Y0072161D01*
X0042121Y00719D01*
X0042156Y0071639D01*
X0042257Y0071396D01*
X0042417Y0071187D01*
X0042626Y0071026D01*
X0042869Y0070926D01*
X004313Y0070891D01*
X0043391Y0070926D01*
X0043634Y0071026D01*
X0043843Y0071187D01*
X0044004Y0071396D01*
X0044104Y0071639D01*
X0044139Y00719D01*
X0044104Y0072161D01*
X0044004Y0072404D01*
X0043843Y0072613D01*
X0043634Y0072773D01*
X0043391Y0072874D01*
X004313Y0072909D01*
D02*
G37*
G36*
X0041767Y008611D02*
X004089D01*
Y0085233D01*
X004094Y008524D01*
X004122Y0085355D01*
X004146Y008554D01*
X0041645Y008578D01*
X004176Y008606D01*
X0041767Y008611D01*
D02*
G37*
%LPD*%
G36*
X0052388Y006096D02*
Y005207D01*
X005207Y0051752D01*
X00508D01*
X0050482Y005207D01*
Y006096D01*
X00508Y0061278D01*
X005207D01*
X0052388Y006096D01*
D02*
G37*
D26*
X0102312Y00908D02*
X0103124Y0089988D01*
X0082672Y00908D02*
X0102312D01*
X0082296Y0090424D02*
X0082672Y00908D01*
X0081108Y009085D02*
X0081788Y009017D01*
X006615Y009085D02*
X0081108D01*
X00649Y00896D02*
X006615Y009085D01*
X005149Y0090424D02*
X0051866Y00908D01*
X00637D01*
X00649Y00896D01*
X00674Y00719D02*
Y0080872D01*
X00666Y00711D02*
X00674Y00719D01*
X00666Y0062202D02*
Y00711D01*
X005982Y00896D02*
X0068Y008142D01*
Y00716D02*
Y008142D01*
X00672Y00708D02*
X0068Y00716D01*
X00672Y0062024D02*
Y00708D01*
X006236Y00896D02*
X00686Y008336D01*
Y00714D02*
Y008336D01*
X00678Y00706D02*
X00686Y00714D01*
X00678Y00706D02*
X00678D01*
X00678Y0061847D02*
Y00706D01*
X0065195Y0059242D02*
X00678Y0061847D01*
X006744Y00896D02*
X00693Y008774D01*
Y00712D02*
Y008774D01*
X00684Y00703D02*
X00693Y00712D01*
X00684Y0061669D02*
Y00703D01*
X0060325Y0087948D02*
X00674Y0080872D01*
X0064095Y0059697D02*
X00666Y0062202D01*
X0064645Y0059469D02*
X00672Y0062024D01*
X0065745Y0059014D02*
X00684Y0061669D01*
X0084452Y0055245D02*
X009144D01*
X007934Y0050133D02*
X0084452Y0055245D01*
X007934Y005008D02*
Y0050133D01*
X0090805Y005845D02*
X0091122Y0058768D01*
Y006731D01*
X0090805Y005715D02*
Y005845D01*
X00888Y0084355D02*
Y00896D01*
X008626Y0082593D02*
Y00896D01*
X008372Y0080831D02*
Y00896D01*
X007172Y0068831D02*
X008372Y0080831D01*
X009144Y0055245D02*
X0093345Y005715D01*
X0089535Y005588D02*
X0090805Y005715D01*
X00826Y005588D02*
X0089535D01*
X008763Y0056515D02*
X0088265Y005715D01*
X0080695Y0056515D02*
X008763D01*
X007426Y005008D02*
X0080695Y0056515D01*
X00768Y005008D02*
X00826Y005588D01*
X0093345Y005715D02*
Y00661D01*
X007172Y00577D02*
Y0068831D01*
X008014Y0078028D02*
Y00896D01*
X007117Y0069058D02*
X008014Y0078028D01*
X007117Y005969D02*
Y0069058D01*
X006918Y00577D02*
X007117Y005969D01*
X00776Y0076266D02*
Y00896D01*
X007062Y0069286D02*
X00776Y0076266D01*
X007062Y0060778D02*
Y0069286D01*
X0067945Y0058103D02*
X007062Y0060778D01*
X0067945Y0051315D02*
Y0058103D01*
Y0051315D02*
X006918Y005008D01*
X007506Y0074504D02*
Y00896D01*
X007007Y0069514D02*
X007506Y0074504D01*
X007007Y0061005D02*
Y0069514D01*
X0067395Y005833D02*
X007007Y0061005D01*
X0067395Y005008D02*
Y005833D01*
X007252Y0072742D02*
Y00896D01*
X006952Y0069742D02*
X007252Y0072742D01*
X006952Y0061233D02*
Y0069742D01*
X0066845Y0058558D02*
X006952Y0061233D01*
X0066845Y0049852D02*
Y0058558D01*
X006998Y007098D02*
Y00896D01*
X006897Y006997D02*
X006998Y007098D01*
X006897Y0061461D02*
Y006997D01*
X0066295Y0058786D02*
X006897Y0061461D01*
X0066295Y0049624D02*
Y0058786D01*
X0065745Y0049397D02*
Y0059014D01*
X0065195Y0049169D02*
Y0059242D01*
X0076505Y0047245D02*
X007934Y005008D01*
X0064645Y0048941D02*
Y0059469D01*
X0064095Y0048713D02*
Y0059697D01*
X005728Y00896D02*
X0058932Y0087948D01*
X0060325D01*
X0067395Y005008D02*
X006858Y0048895D01*
X0070535D01*
X007172Y005008D01*
X0066845Y0049852D02*
X0068352Y0048345D01*
X0072525D01*
X007426Y005008D01*
X0066295Y0049624D02*
X0068124Y0047795D01*
X0074515D01*
X00768Y005008D01*
X0065745Y0049397D02*
X0067897Y0047245D01*
X0076505D01*
X0065195Y0049169D02*
X0067669Y0046695D01*
X0064645Y0048941D02*
X0067441Y0046145D01*
X0064095Y0048713D02*
X0067213Y0045595D01*
X0067669Y0046695D02*
X0077152D01*
X0083235Y0048895D02*
X008442Y005008D01*
X0077152Y0046695D02*
X0079353Y0048895D01*
X0083235D01*
X009784Y004826D02*
X009966Y005008D01*
X0067441Y0046145D02*
X0077578D01*
X0079692Y004826D01*
X009784D01*
X0067213Y0045595D02*
X0078105D01*
X0099745Y0047625D02*
X01022Y005008D01*
X0078105Y0045595D02*
X0080135Y0047625D01*
X0099745D01*
X00536Y008273D02*
X005494Y008407D01*
X0060393D01*
X0060643Y008382D01*
X0061595D01*
X0088265Y005715D02*
Y0066357D01*
X00768Y00577D02*
Y0072355D01*
X00888Y0084355D01*
X007426Y00577D02*
Y0070593D01*
X008626Y0082593D01*
X009917Y006654D02*
X010215Y006356D01*
X009917Y006654D02*
Y007239D01*
D28*
X00999Y0088D02*
X01015Y00896D01*
X00999Y0077802D02*
Y0088D01*
X0098044Y0075946D02*
X00999Y0077802D01*
X009204Y00577D02*
Y008776D01*
X009388Y00896D01*
X01022Y00577D02*
Y006351D01*
X01021Y004749D02*
X0103505Y0048895D01*
Y0056395D01*
X01022Y00577D02*
X0103505Y0056395D01*
X006988Y00401D02*
X007118Y00388D01*
X0102935D01*
X010355Y0039415D01*
X01021Y0043632D02*
Y004749D01*
Y0043632D02*
X010355Y0042182D01*
Y0039415D02*
Y0042182D01*
X009891Y008955D02*
X009896Y00896D01*
X00895Y008776D02*
X009134Y00896D01*
X00895Y00577D02*
Y008776D01*
X009458Y00577D02*
Y0077435D01*
X009652Y0079375D01*
Y00895D01*
X009642Y00896D02*
X009652Y00895D01*
X0096774Y0076962D02*
X009891Y0079098D01*
Y008955D01*
X0098044Y0059316D02*
Y0075946D01*
Y0059316D02*
X009966Y00577D01*
X0096266Y0058554D02*
X009712Y00577D01*
X0096266Y0058554D02*
Y0076454D01*
X0096774Y0076962D01*
D29*
X0084455Y0053975D02*
X008696D01*
X008188Y00514D02*
X0084455Y0053975D01*
X008188Y005008D02*
Y00514D01*
X0055325Y0086995D02*
X005969D01*
X00536Y008527D02*
X0055325Y0086995D01*
X008696Y00577D02*
Y0075882D01*
X005969Y0086995D02*
X006096Y0085725D01*
X0080963Y004572D02*
X0081915Y0046673D01*
X007496Y00401D02*
Y0044196D01*
Y004442D01*
X00775Y00401D02*
Y0044196D01*
Y004442D01*
X0058284Y006057D02*
Y0062874D01*
X005207Y0069088D02*
X0058284Y0062874D01*
X005207Y0069088D02*
Y0076708D01*
D30*
X007242Y00401D02*
Y0041592D01*
X0071849Y0042164D02*
X007242Y0041592D01*
X006477Y0042164D02*
X0071849D01*
X0062738Y0047244D02*
X0065786Y0044196D01*
X007496D01*
X00775D01*
X0079438D01*
X0080963Y004572D01*
X0060706Y0046228D02*
X006477Y0042164D01*
X0062738Y0047244D02*
Y005627D01*
X004873Y0070142D02*
Y0081534D01*
X0054243Y0064375D02*
X0056388Y006223D01*
X0060198Y005881D02*
X0062738Y005627D01*
X0056388Y0059436D02*
Y006223D01*
Y0059436D02*
X0060706Y0055118D01*
Y0046228D02*
Y0055118D01*
X004873Y0069888D02*
X0054243Y0064375D01*
X004873Y0069888D02*
Y0070142D01*
X0060198Y006604D02*
Y0075438D01*
X0057658Y006604D02*
X0060198D01*
Y005881D02*
Y006604D01*
D33*
X00663Y00731D02*
D03*
X00664Y00772D02*
D03*
X004313Y00763D02*
D03*
Y00719D02*
D03*
X008696Y0053975D02*
D03*
X0051347Y0060555D02*
D03*
X0051435Y0052388D02*
D03*
X006096Y0085725D02*
D03*
X0081915Y0046673D02*
D03*
X008696Y0075882D02*
D03*
X0057658Y006604D02*
D03*
X0062738Y005627D02*
D03*
X0054243Y0064375D02*
D03*
X005207Y0076708D02*
D03*
X004873Y0081534D02*
D03*
Y0070142D02*
D03*
X0058284Y006057D02*
D03*
X0060198Y0075438D02*
D03*
D34*
X009652Y0079375D02*
D03*
X01016D02*
D03*
X006918Y005008D02*
D03*
X007172D02*
D03*
X007426D02*
D03*
X00768D02*
D03*
X007934D02*
D03*
X008188D02*
D03*
X008442D02*
D03*
X008696D02*
D03*
X00895D02*
D03*
X009204D02*
D03*
X009458D02*
D03*
X009712D02*
D03*
X009966D02*
D03*
X01022D02*
D03*
Y00577D02*
D03*
X006918D02*
D03*
X007172D02*
D03*
X007426D02*
D03*
X00768D02*
D03*
X007934D02*
D03*
X008188D02*
D03*
X008442D02*
D03*
X008696D02*
D03*
X00895D02*
D03*
X009204D02*
D03*
X009458D02*
D03*
X009712D02*
D03*
X009966D02*
D03*
X004572Y008636D02*
D03*
X004064D02*
D03*
D35*
X00536Y008273D02*
D03*
Y008527D02*
D03*
X00587Y008273D02*
D03*
Y008527D02*
D03*
X00562Y008273D02*
D03*
Y008527D02*
D03*
X010465Y00661D02*
D03*
Y006864D02*
D03*
Y006356D02*
D03*
X010215D02*
D03*
Y006864D02*
D03*
Y00661D02*
D03*
X008372Y00896D02*
D03*
X008626D02*
D03*
X00888D02*
D03*
X009134D02*
D03*
X009388D02*
D03*
X009642D02*
D03*
X009896D02*
D03*
X01015D02*
D03*
X005728D02*
D03*
X005982D02*
D03*
X006236D02*
D03*
X00649D02*
D03*
X006744D02*
D03*
X006998D02*
D03*
X007252D02*
D03*
X007506D02*
D03*
X00776D02*
D03*
X008014D02*
D03*
X008512Y00401D02*
D03*
X008258D02*
D03*
X008004D02*
D03*
X00775D02*
D03*
X007496D02*
D03*
X007242D02*
D03*
X006988D02*
D03*
X010225D02*
D03*
X009971D02*
D03*
X009717D02*
D03*
X009463D02*
D03*
X009209D02*
D03*
X008955D02*
D03*
D36*
X0049847Y0047625D02*
D03*
X0043798D02*
D03*
D37*
X0046847Y0042925D02*
D03*
D38*
X010541Y005969D02*
D03*
D39*
X0091122Y006731D02*
D03*
X0093345Y00661D02*
D03*
X0061595Y008382D02*
D03*
X0088265Y0066357D02*
D03*
X009917Y007239D02*
D03*
X0098044Y0075946D02*
D03*
X0096774Y0076962D02*
D03*
X004064Y004064D02*
D03*
Y004572D02*
D03*
Y00508D02*
D03*
Y00635D02*
D03*
X004572D02*
D03*
X00508D02*
D03*
X004064Y008382D02*
D03*
Y00889D02*
D03*
X004572D02*
D03*
X00508Y008636D02*
D03*
X005588Y008001D02*
D03*
Y007366D02*
D03*
X005842D02*
D03*
X00635D02*
D03*
Y00635D02*
D03*
Y006096D02*
D03*
X004572Y00508D02*
D03*
X005588Y004064D02*
D03*
X00635D02*
D03*
X006985Y005461D02*
D03*
X00762D02*
D03*
X009525D02*
D03*
X007874Y00635D02*
D03*
X008382D02*
D03*
Y004445D02*
D03*
X008763D02*
D03*
X008382Y006858D02*
D03*
X007874D02*
D03*
X008382Y007366D02*
D03*
X007366Y008128D02*
D03*
X00762D02*
D03*
X007874D02*
D03*
X008128D02*
D03*
X008636Y008001D02*
D03*
X009398Y008382D02*
D03*
X01016Y008255D02*
D03*
Y005461D02*
D03*
X010541D02*
D03*
Y00508D02*
D03*
X0081915Y0087884D02*
D03*
X0064135Y0081915D02*
D03*
X004064Y007366D02*
D03*
D40*
X005334Y00888D02*
D03*
X01042Y004572D02*
D03*
Y007366D02*
D03*
X00521Y00406D02*
D03*
M02*
